<svg width="271" height="148" viewBox="0 0 271 148" fill="none" xmlns="http://www.w3.org/2000/svg">
<path d="M270.745 3.42102H0.265869V147.574H270.745V3.42102Z" fill="#FAFAFA"/>
<path d="M270.756 147.574C270.756 145.835 270.668 92.0888 270.535 3.42102L270.756 3.6426L0.288064 3.70908L0.576129 3.42102C0.576129 54.3859 0.576129 103.135 0.576129 147.574L0.299146 147.308L194.785 147.441L250.714 147.507H265.627H269.471H270.789H269.504H265.649H250.802L194.941 147.585L0.265901 147.718H0V147.441C0 102.969 0 54.1975 0 3.28806V3H0.310219L270.778 3.06648H271V3.28806C270.856 92.0888 270.756 145.835 270.756 147.574Z" fill="#263238"/>
<path d="M178 36.5C178 36.7692 152.928 37 122 37C91.0721 37 66 36.7692 66 36.5C66 36.2308 91.0721 36 122 36C152.928 36 178 36.2115 178 36.5Z" fill="#E0E0E0"/>
<path d="M48.3165 43.4549C55.2219 36.5494 55.2219 25.3534 48.3165 18.4479C41.411 11.5425 30.215 11.5425 23.3095 18.4479C16.404 25.3534 16.404 36.5494 23.3095 43.4549C30.215 50.3604 41.411 50.3604 48.3165 43.4549Z" fill="#263238"/>
<path d="M42.1125 28.9478C42.1125 30.1946 41.7428 31.4135 41.0501 32.4502C40.3574 33.4869 39.3728 34.2949 38.2209 34.7721C37.069 35.2492 35.8014 35.3741 34.5785 35.1308C33.3556 34.8876 32.2324 34.2871 31.3507 33.4055C30.4691 32.5238 29.8687 31.4006 29.6254 30.1777C29.3822 28.9548 29.507 27.6872 29.9841 26.5353C30.4613 25.3834 31.2693 24.3988 32.306 23.7061C33.3427 23.0134 34.5616 22.6437 35.8084 22.6437C37.4804 22.6437 39.0838 23.3079 40.2661 24.4901C41.4484 25.6724 42.1125 27.2758 42.1125 28.9478Z" fill="#FAFAFA"/>
<path d="M26.2468 43.9491C26.2468 43.9491 29.4155 37.6671 35.8415 37.6671C42.2675 37.6671 45.8129 43.6389 45.8129 43.6389C43.0769 46.0821 39.508 47.3828 35.8415 47.2729C29.4488 47.2175 26.2468 43.9491 26.2468 43.9491Z" fill="#FAFAFA"/>
<path d="M75.98 28.52H70.74L69.9 31H66.32L71.4 16.96H75.36L80.44 31H76.82L75.98 28.52ZM75.1 25.88L73.36 20.74L71.64 25.88H75.1ZM85.4061 16.2V31H81.9861V16.2H85.4061ZM98.4045 25.24C98.4045 25.56 98.3845 25.8933 98.3445 26.24H90.6045C90.6579 26.9333 90.8779 27.4667 91.2645 27.84C91.6645 28.2 92.1512 28.38 92.7245 28.38C93.5779 28.38 94.1712 28.02 94.5045 27.3H98.1445C97.9579 28.0333 97.6179 28.6933 97.1245 29.28C96.6445 29.8667 96.0379 30.3267 95.3045 30.66C94.5712 30.9933 93.7512 31.16 92.8445 31.16C91.7512 31.16 90.7779 30.9267 89.9245 30.46C89.0712 29.9933 88.4045 29.3267 87.9245 28.46C87.4445 27.5933 87.2045 26.58 87.2045 25.42C87.2045 24.26 87.4379 23.2467 87.9045 22.38C88.3845 21.5133 89.0512 20.8467 89.9045 20.38C90.7579 19.9133 91.7379 19.68 92.8445 19.68C93.9245 19.68 94.8845 19.9067 95.7245 20.36C96.5645 20.8133 97.2179 21.46 97.6845 22.3C98.1645 23.14 98.4045 24.12 98.4045 25.24ZM94.9045 24.34C94.9045 23.7533 94.7045 23.2867 94.3045 22.94C93.9045 22.5933 93.4045 22.42 92.8045 22.42C92.2312 22.42 91.7445 22.5867 91.3445 22.92C90.9579 23.2533 90.7179 23.7267 90.6245 24.34H94.9045ZM101.909 18.68C101.309 18.68 100.815 18.5067 100.429 18.16C100.055 17.8 99.8688 17.36 99.8688 16.84C99.8688 16.3067 100.055 15.8667 100.429 15.52C100.815 15.16 101.309 14.98 101.909 14.98C102.495 14.98 102.975 15.16 103.349 15.52C103.735 15.8667 103.929 16.3067 103.929 16.84C103.929 17.36 103.735 17.8 103.349 18.16C102.975 18.5067 102.495 18.68 101.909 18.68ZM103.629 32.44C103.629 33.8133 103.282 34.8 102.589 35.4C101.895 36.0133 100.929 36.32 99.6888 36.32H98.3487V33.42H99.1688C99.5421 33.42 99.8088 33.3467 99.9688 33.2C100.129 33.0533 100.209 32.8133 100.209 32.48V19.84H103.629V32.44ZM105.408 25.4C105.408 24.2533 105.621 23.2467 106.048 22.38C106.488 21.5133 107.081 20.8467 107.828 20.38C108.574 19.9133 109.408 19.68 110.328 19.68C111.114 19.68 111.801 19.84 112.388 20.16C112.988 20.48 113.448 20.9 113.768 21.42V19.84H117.188V31H113.768V29.42C113.434 29.94 112.968 30.36 112.368 30.68C111.781 31 111.094 31.16 110.308 31.16C109.401 31.16 108.574 30.9267 107.828 30.46C107.081 29.98 106.488 29.3067 106.048 28.44C105.621 27.56 105.408 26.5467 105.408 25.4ZM113.768 25.42C113.768 24.5667 113.528 23.8933 113.048 23.4C112.581 22.9067 112.008 22.66 111.328 22.66C110.648 22.66 110.068 22.9067 109.588 23.4C109.121 23.88 108.888 24.5467 108.888 25.4C108.888 26.2533 109.121 26.9333 109.588 27.44C110.068 27.9333 110.648 28.18 111.328 28.18C112.008 28.18 112.581 27.9333 113.048 27.44C113.528 26.9467 113.768 26.2733 113.768 25.42ZM126.462 19.72C127.769 19.72 128.809 20.1467 129.582 21C130.369 21.84 130.762 23 130.762 24.48V31H127.362V24.94C127.362 24.1933 127.169 23.6133 126.782 23.2C126.395 22.7867 125.875 22.58 125.222 22.58C124.569 22.58 124.049 22.7867 123.662 23.2C123.275 23.6133 123.082 24.1933 123.082 24.94V31H119.662V19.84H123.082V21.32C123.429 20.8267 123.895 20.44 124.482 20.16C125.069 19.8667 125.729 19.72 126.462 19.72ZM132.458 25.4C132.458 24.2533 132.672 23.2467 133.098 22.38C133.538 21.5133 134.132 20.8467 134.878 20.38C135.625 19.9133 136.458 19.68 137.378 19.68C138.112 19.68 138.778 19.8333 139.378 20.14C139.992 20.4467 140.472 20.86 140.818 21.38V16.2H144.238V31H140.818V29.4C140.498 29.9333 140.038 30.36 139.438 30.68C138.852 31 138.165 31.16 137.378 31.16C136.458 31.16 135.625 30.9267 134.878 30.46C134.132 29.98 133.538 29.3067 133.098 28.44C132.672 27.56 132.458 26.5467 132.458 25.4ZM140.818 25.42C140.818 24.5667 140.578 23.8933 140.098 23.4C139.632 22.9067 139.058 22.66 138.378 22.66C137.698 22.66 137.118 22.9067 136.638 23.4C136.172 23.88 135.938 24.5467 135.938 25.4C135.938 26.2533 136.172 26.9333 136.638 27.44C137.118 27.9333 137.698 28.18 138.378 28.18C139.058 28.18 139.632 27.9333 140.098 27.44C140.578 26.9467 140.818 26.2733 140.818 25.42ZM150.133 21.7C150.533 21.0867 151.033 20.6067 151.633 20.26C152.233 19.9 152.899 19.72 153.633 19.72V23.34H152.693C151.839 23.34 151.199 23.5267 150.773 23.9C150.346 24.26 150.133 24.9 150.133 25.82V31H146.713V19.84H150.133V21.7ZM154.587 25.4C154.587 24.2533 154.801 23.2467 155.227 22.38C155.667 21.5133 156.261 20.8467 157.007 20.38C157.754 19.9133 158.587 19.68 159.507 19.68C160.294 19.68 160.981 19.84 161.567 20.16C162.167 20.48 162.627 20.9 162.947 21.42V19.84H166.367V31H162.947V29.42C162.614 29.94 162.147 30.36 161.547 30.68C160.961 31 160.274 31.16 159.487 31.16C158.581 31.16 157.754 30.9267 157.007 30.46C156.261 29.98 155.667 29.3067 155.227 28.44C154.801 27.56 154.587 26.5467 154.587 25.4ZM162.947 25.42C162.947 24.5667 162.707 23.8933 162.227 23.4C161.761 22.9067 161.187 22.66 160.507 22.66C159.827 22.66 159.247 22.9067 158.767 23.4C158.301 23.88 158.067 24.5467 158.067 25.4C158.067 26.2533 158.301 26.9333 158.767 27.44C159.247 27.9333 159.827 28.18 160.507 28.18C161.187 28.18 161.761 27.9333 162.227 27.44C162.707 26.9467 162.947 26.2733 162.947 25.42Z" fill="#340962"/>
<path d="M17.688 68.848V80H16.232V68.848H17.688ZM19.6255 75.584C19.6255 74.688 19.8068 73.904 20.1695 73.232C20.5322 72.5493 21.0282 72.0213 21.6575 71.648C22.2975 71.2747 23.0122 71.088 23.8015 71.088C24.4842 71.088 25.1188 71.248 25.7055 71.568C26.2922 71.8773 26.7402 72.288 27.0495 72.8V68.16H28.5215V80H27.0495V78.352C26.7615 78.8747 26.3348 79.3067 25.7695 79.648C25.2042 79.9787 24.5428 80.144 23.7855 80.144C23.0068 80.144 22.2975 79.952 21.6575 79.568C21.0282 79.184 20.5322 78.6453 20.1695 77.952C19.8068 77.2587 19.6255 76.4693 19.6255 75.584ZM27.0495 75.6C27.0495 74.9387 26.9162 74.3627 26.6495 73.872C26.3828 73.3813 26.0202 73.008 25.5615 72.752C25.1135 72.4853 24.6175 72.352 24.0735 72.352C23.5295 72.352 23.0335 72.48 22.5855 72.736C22.1375 72.992 21.7802 73.3653 21.5135 73.856C21.2468 74.3467 21.1135 74.9227 21.1135 75.584C21.1135 76.256 21.2468 76.8427 21.5135 77.344C21.7802 77.8347 22.1375 78.2133 22.5855 78.48C23.0335 78.736 23.5295 78.864 24.0735 78.864C24.6175 78.864 25.1135 78.736 25.5615 78.48C26.0202 78.2133 26.3828 77.8347 26.6495 77.344C26.9162 76.8427 27.0495 76.2613 27.0495 75.6ZM38.982 75.28C38.982 75.5573 38.966 75.8507 38.934 76.16H31.926C31.9793 77.024 32.2727 77.7013 32.806 78.192C33.35 78.672 34.006 78.912 34.774 78.912C35.4033 78.912 35.926 78.768 36.342 78.48C36.7687 78.1813 37.0673 77.7867 37.238 77.296H38.806C38.5713 78.1387 38.102 78.8267 37.398 79.36C36.694 79.8827 35.8193 80.144 34.774 80.144C33.942 80.144 33.1953 79.9573 32.534 79.584C31.8833 79.2107 31.3713 78.6827 30.998 78C30.6247 77.3067 30.438 76.5067 30.438 75.6C30.438 74.6933 30.6193 73.8987 30.982 73.216C31.3447 72.5333 31.8513 72.0107 32.502 71.648C33.1633 71.2747 33.9207 71.088 34.774 71.088C35.606 71.088 36.342 71.2693 36.982 71.632C37.622 71.9947 38.1127 72.496 38.454 73.136C38.806 73.7653 38.982 74.48 38.982 75.28ZM37.478 74.976C37.478 74.4213 37.3553 73.9467 37.11 73.552C36.8647 73.1467 36.5287 72.8427 36.102 72.64C35.686 72.4267 35.222 72.32 34.71 72.32C33.974 72.32 33.3447 72.5547 32.822 73.024C32.31 73.4933 32.0167 74.144 31.942 74.976H37.478ZM40.3599 75.584C40.3599 74.688 40.5412 73.904 40.9039 73.232C41.2665 72.5493 41.7625 72.0213 42.3919 71.648C43.0319 71.2747 43.7412 71.088 44.5199 71.088C45.2879 71.088 45.9545 71.2533 46.5199 71.584C47.0852 71.9147 47.5065 72.3307 47.7839 72.832V71.232H49.2559V80H47.7839V78.368C47.4959 78.88 47.0639 79.3067 46.4879 79.648C45.9225 79.9787 45.2612 80.144 44.5039 80.144C43.7252 80.144 43.0212 79.952 42.3919 79.568C41.7625 79.184 41.2665 78.6453 40.9039 77.952C40.5412 77.2587 40.3599 76.4693 40.3599 75.584ZM47.7839 75.6C47.7839 74.9387 47.6505 74.3627 47.3839 73.872C47.1172 73.3813 46.7545 73.008 46.2959 72.752C45.8479 72.4853 45.3519 72.352 44.8079 72.352C44.2639 72.352 43.7679 72.48 43.3199 72.736C42.8719 72.992 42.5145 73.3653 42.2479 73.856C41.9812 74.3467 41.8479 74.9227 41.8479 75.584C41.8479 76.256 41.9812 76.8427 42.2479 77.344C42.5145 77.8347 42.8719 78.2133 43.3199 78.48C43.7679 78.736 44.2639 78.864 44.8079 78.864C45.3519 78.864 45.8479 78.736 46.2959 78.48C46.7545 78.2133 47.1172 77.8347 47.3839 77.344C47.6505 76.8427 47.7839 76.2613 47.7839 75.6ZM62.2604 71.072C62.943 71.072 63.551 71.216 64.0844 71.504C64.6177 71.7813 65.039 72.2027 65.3484 72.768C65.6577 73.3333 65.8124 74.0213 65.8124 74.832V80H64.3724V75.04C64.3724 74.1653 64.1537 73.4987 63.7164 73.04C63.2897 72.5707 62.7084 72.336 61.9724 72.336C61.215 72.336 60.6124 72.5813 60.1644 73.072C59.7164 73.552 59.4924 74.2507 59.4924 75.168V80H58.0524V75.04C58.0524 74.1653 57.8337 73.4987 57.3964 73.04C56.9697 72.5707 56.3884 72.336 55.6524 72.336C54.895 72.336 54.2924 72.5813 53.8444 73.072C53.3964 73.552 53.1724 74.2507 53.1724 75.168V80H51.7164V71.232H53.1724V72.496C53.4604 72.0373 53.8444 71.6853 54.3244 71.44C54.815 71.1947 55.3537 71.072 55.9404 71.072C56.6764 71.072 57.327 71.2373 57.8924 71.568C58.4577 71.8987 58.879 72.384 59.1564 73.024C59.4017 72.4053 59.807 71.9253 60.3724 71.584C60.9377 71.2427 61.567 71.072 62.2604 71.072ZM76.2008 75.28C76.2008 75.5573 76.1848 75.8507 76.1528 76.16H69.1448C69.1981 77.024 69.4914 77.7013 70.0248 78.192C70.5688 78.672 71.2248 78.912 71.9928 78.912C72.6221 78.912 73.1448 78.768 73.5608 78.48C73.9874 78.1813 74.2861 77.7867 74.4568 77.296H76.0248C75.7901 78.1387 75.3208 78.8267 74.6168 79.36C73.9128 79.8827 73.0381 80.144 71.9928 80.144C71.1608 80.144 70.4141 79.9573 69.7528 79.584C69.1021 79.2107 68.5901 78.6827 68.2168 78C67.8434 77.3067 67.6568 76.5067 67.6568 75.6C67.6568 74.6933 67.8381 73.8987 68.2008 73.216C68.5634 72.5333 69.0701 72.0107 69.7208 71.648C70.3821 71.2747 71.1394 71.088 71.9928 71.088C72.8248 71.088 73.5608 71.2693 74.2008 71.632C74.8408 71.9947 75.3314 72.496 75.6728 73.136C76.0248 73.7653 76.2008 74.48 76.2008 75.28ZM74.6968 74.976C74.6968 74.4213 74.5741 73.9467 74.3288 73.552C74.0834 73.1467 73.7474 72.8427 73.3208 72.64C72.9048 72.4267 72.4408 72.32 71.9288 72.32C71.1928 72.32 70.5634 72.5547 70.0408 73.024C69.5288 73.4933 69.2354 74.144 69.1608 74.976H74.6968ZM79.8986 72.432V77.6C79.8986 78.0267 79.9893 78.3307 80.1706 78.512C80.352 78.6827 80.6666 78.768 81.1146 78.768H82.1866V80H80.8746C80.064 80 79.456 79.8133 79.0506 79.44C78.6453 79.0667 78.4426 78.4533 78.4426 77.6V72.432H77.3066V71.232H78.4426V69.024H79.8986V71.232H82.1866V72.432H79.8986ZM98.7604 71.072C99.443 71.072 100.051 71.216 100.584 71.504C101.118 71.7813 101.539 72.2027 101.848 72.768C102.158 73.3333 102.312 74.0213 102.312 74.832V80H100.872V75.04C100.872 74.1653 100.654 73.4987 100.216 73.04C99.7897 72.5707 99.2084 72.336 98.4724 72.336C97.715 72.336 97.1124 72.5813 96.6644 73.072C96.2164 73.552 95.9924 74.2507 95.9924 75.168V80H94.5524V75.04C94.5524 74.1653 94.3337 73.4987 93.8964 73.04C93.4697 72.5707 92.8884 72.336 92.1524 72.336C91.395 72.336 90.7924 72.5813 90.3444 73.072C89.8964 73.552 89.6724 74.2507 89.6724 75.168V80H88.2164V71.232H89.6724V72.496C89.9604 72.0373 90.3444 71.6853 90.8244 71.44C91.315 71.1947 91.8537 71.072 92.4404 71.072C93.1764 71.072 93.827 71.2373 94.3924 71.568C94.9577 71.8987 95.379 72.384 95.6564 73.024C95.9017 72.4053 96.307 71.9253 96.8724 71.584C97.4377 71.2427 98.067 71.072 98.7604 71.072ZM105.453 69.808C105.175 69.808 104.941 69.712 104.749 69.52C104.557 69.328 104.461 69.0933 104.461 68.816C104.461 68.5387 104.557 68.304 104.749 68.112C104.941 67.92 105.175 67.824 105.453 67.824C105.719 67.824 105.943 67.92 106.125 68.112C106.317 68.304 106.413 68.5387 106.413 68.816C106.413 69.0933 106.317 69.328 106.125 69.52C105.943 69.712 105.719 69.808 105.453 69.808ZM106.157 71.232V80H104.701V71.232H106.157ZM112.91 71.072C113.977 71.072 114.841 71.3973 115.502 72.048C116.164 72.688 116.494 73.616 116.494 74.832V80H115.054V75.04C115.054 74.1653 114.836 73.4987 114.398 73.04C113.961 72.5707 113.364 72.336 112.606 72.336C111.838 72.336 111.225 72.576 110.766 73.056C110.318 73.536 110.094 74.2347 110.094 75.152V80H108.638V71.232H110.094V72.48C110.382 72.032 110.772 71.6853 111.262 71.44C111.764 71.1947 112.313 71.072 112.91 71.072ZM119.625 69.808C119.347 69.808 119.113 69.712 118.921 69.52C118.729 69.328 118.633 69.0933 118.633 68.816C118.633 68.5387 118.729 68.304 118.921 68.112C119.113 67.92 119.347 67.824 119.625 67.824C119.891 67.824 120.115 67.92 120.297 68.112C120.489 68.304 120.585 68.5387 120.585 68.816C120.585 69.0933 120.489 69.328 120.297 69.52C120.115 69.712 119.891 69.808 119.625 69.808ZM120.329 71.232V80H118.873V71.232H120.329ZM133.354 71.072C134.037 71.072 134.645 71.216 135.178 71.504C135.711 71.7813 136.133 72.2027 136.442 72.768C136.751 73.3333 136.906 74.0213 136.906 74.832V80H135.466V75.04C135.466 74.1653 135.247 73.4987 134.81 73.04C134.383 72.5707 133.802 72.336 133.066 72.336C132.309 72.336 131.706 72.5813 131.258 73.072C130.81 73.552 130.586 74.2507 130.586 75.168V80H129.146V75.04C129.146 74.1653 128.927 73.4987 128.49 73.04C128.063 72.5707 127.482 72.336 126.746 72.336C125.989 72.336 125.386 72.5813 124.938 73.072C124.49 73.552 124.266 74.2507 124.266 75.168V80H122.81V71.232H124.266V72.496C124.554 72.0373 124.938 71.6853 125.418 71.44C125.909 71.1947 126.447 71.072 127.034 71.072C127.77 71.072 128.421 71.2373 128.986 71.568C129.551 71.8987 129.973 72.384 130.25 73.024C130.495 72.4053 130.901 71.9253 131.466 71.584C132.031 71.2427 132.661 71.072 133.354 71.072ZM154.104 71.072C154.787 71.072 155.395 71.216 155.928 71.504C156.461 71.7813 156.883 72.2027 157.192 72.768C157.501 73.3333 157.656 74.0213 157.656 74.832V80H156.216V75.04C156.216 74.1653 155.997 73.4987 155.56 73.04C155.133 72.5707 154.552 72.336 153.816 72.336C153.059 72.336 152.456 72.5813 152.008 73.072C151.56 73.552 151.336 74.2507 151.336 75.168V80H149.896V75.04C149.896 74.1653 149.677 73.4987 149.24 73.04C148.813 72.5707 148.232 72.336 147.496 72.336C146.739 72.336 146.136 72.5813 145.688 73.072C145.24 73.552 145.016 74.2507 145.016 75.168V80H143.56V71.232H145.016V72.496C145.304 72.0373 145.688 71.6853 146.168 71.44C146.659 71.1947 147.197 71.072 147.784 71.072C148.52 71.072 149.171 71.2373 149.736 71.568C150.301 71.8987 150.723 72.384 151 73.024C151.245 72.4053 151.651 71.9253 152.216 71.584C152.781 71.2427 153.411 71.072 154.104 71.072ZM163.869 80.144C163.047 80.144 162.301 79.9573 161.629 79.584C160.967 79.2107 160.445 78.6827 160.061 78C159.687 77.3067 159.501 76.5067 159.501 75.6C159.501 74.704 159.693 73.9147 160.077 73.232C160.471 72.5387 161.005 72.0107 161.677 71.648C162.349 71.2747 163.101 71.088 163.933 71.088C164.765 71.088 165.517 71.2747 166.189 71.648C166.861 72.0107 167.389 72.5333 167.773 73.216C168.167 73.8987 168.365 74.6933 168.365 75.6C168.365 76.5067 168.162 77.3067 167.757 78C167.362 78.6827 166.823 79.2107 166.141 79.584C165.458 79.9573 164.701 80.144 163.869 80.144ZM163.869 78.864C164.391 78.864 164.882 78.7413 165.341 78.496C165.799 78.2507 166.167 77.8827 166.445 77.392C166.733 76.9013 166.877 76.304 166.877 75.6C166.877 74.896 166.738 74.2987 166.461 73.808C166.183 73.3173 165.821 72.9547 165.373 72.72C164.925 72.4747 164.439 72.352 163.917 72.352C163.383 72.352 162.893 72.4747 162.445 72.72C162.007 72.9547 161.655 73.3173 161.389 73.808C161.122 74.2987 160.989 74.896 160.989 75.6C160.989 76.3147 161.117 76.9173 161.373 77.408C161.639 77.8987 161.991 78.2667 162.429 78.512C162.866 78.7467 163.346 78.864 163.869 78.864ZM171.735 68.16V80H170.279V68.16H171.735ZM175.672 68.16V80H174.216V68.16H175.672ZM178.906 69.808C178.629 69.808 178.394 69.712 178.202 69.52C178.01 69.328 177.914 69.0933 177.914 68.816C177.914 68.5387 178.01 68.304 178.202 68.112C178.394 67.92 178.629 67.824 178.906 67.824C179.173 67.824 179.397 67.92 179.578 68.112C179.77 68.304 179.866 68.5387 179.866 68.816C179.866 69.0933 179.77 69.328 179.578 69.52C179.397 69.712 179.173 69.808 178.906 69.808ZM179.61 71.232V80H178.154V71.232H179.61ZM183.867 72.432V77.6C183.867 78.0267 183.958 78.3307 184.139 78.512C184.321 78.6827 184.635 78.768 185.083 78.768H186.155V80H184.843C184.033 80 183.425 79.8133 183.019 79.44C182.614 79.0667 182.411 78.4533 182.411 77.6V72.432H181.275V71.232H182.411V69.024H183.867V71.232H186.155V72.432H183.867ZM196.457 71.072C197.524 71.072 198.388 71.3973 199.049 72.048C199.71 72.688 200.041 73.616 200.041 74.832V80H198.601V75.04C198.601 74.1653 198.382 73.4987 197.945 73.04C197.508 72.5707 196.91 72.336 196.153 72.336C195.385 72.336 194.772 72.576 194.313 73.056C193.865 73.536 193.641 74.2347 193.641 75.152V80H192.185V71.232H193.641V72.48C193.929 72.032 194.318 71.6853 194.809 71.44C195.31 71.1947 195.86 71.072 196.457 71.072ZM206.244 80.144C205.422 80.144 204.676 79.9573 204.004 79.584C203.342 79.2107 202.82 78.6827 202.436 78C202.062 77.3067 201.876 76.5067 201.876 75.6C201.876 74.704 202.068 73.9147 202.452 73.232C202.846 72.5387 203.38 72.0107 204.052 71.648C204.724 71.2747 205.476 71.088 206.308 71.088C207.14 71.088 207.892 71.2747 208.564 71.648C209.236 72.0107 209.764 72.5333 210.148 73.216C210.542 73.8987 210.74 74.6933 210.74 75.6C210.74 76.5067 210.537 77.3067 210.132 78C209.737 78.6827 209.198 79.2107 208.516 79.584C207.833 79.9573 207.076 80.144 206.244 80.144ZM206.244 78.864C206.766 78.864 207.257 78.7413 207.716 78.496C208.174 78.2507 208.542 77.8827 208.82 77.392C209.108 76.9013 209.252 76.304 209.252 75.6C209.252 74.896 209.113 74.2987 208.836 73.808C208.558 73.3173 208.196 72.9547 207.748 72.72C207.3 72.4747 206.814 72.352 206.292 72.352C205.758 72.352 205.268 72.4747 204.82 72.72C204.382 72.9547 204.03 73.3173 203.764 73.808C203.497 74.2987 203.364 74.896 203.364 75.6C203.364 76.3147 203.492 76.9173 203.748 77.408C204.014 77.8987 204.366 78.2667 204.804 78.512C205.241 78.7467 205.721 78.864 206.244 78.864ZM216.926 71.072C217.993 71.072 218.857 71.3973 219.518 72.048C220.179 72.688 220.51 73.616 220.51 74.832V80H219.07V75.04C219.07 74.1653 218.851 73.4987 218.414 73.04C217.977 72.5707 217.379 72.336 216.622 72.336C215.854 72.336 215.241 72.576 214.782 73.056C214.334 73.536 214.11 74.2347 214.11 75.152V80H212.654V71.232H214.11V72.48C214.398 72.032 214.787 71.6853 215.278 71.44C215.779 71.1947 216.329 71.072 216.926 71.072ZM15.688 99.584C15.688 98.688 15.8693 97.904 16.232 97.232C16.5947 96.5493 17.0907 96.0213 17.72 95.648C18.36 95.2747 19.0747 95.088 19.864 95.088C20.5467 95.088 21.1813 95.248 21.768 95.568C22.3547 95.8773 22.8027 96.288 23.112 96.8V92.16H24.584V104H23.112V102.352C22.824 102.875 22.3973 103.307 21.832 103.648C21.2667 103.979 20.6053 104.144 19.848 104.144C19.0693 104.144 18.36 103.952 17.72 103.568C17.0907 103.184 16.5947 102.645 16.232 101.952C15.8693 101.259 15.688 100.469 15.688 99.584ZM23.112 99.6C23.112 98.9387 22.9787 98.3627 22.712 97.872C22.4453 97.3813 22.0827 97.008 21.624 96.752C21.176 96.4853 20.68 96.352 20.136 96.352C19.592 96.352 19.096 96.48 18.648 96.736C18.2 96.992 17.8427 97.3653 17.576 97.856C17.3093 98.3467 17.176 98.9227 17.176 99.584C17.176 100.256 17.3093 100.843 17.576 101.344C17.8427 101.835 18.2 102.213 18.648 102.48C19.096 102.736 19.592 102.864 20.136 102.864C20.68 102.864 21.176 102.736 21.624 102.48C22.0827 102.213 22.4453 101.835 22.712 101.344C22.9787 100.843 23.112 100.261 23.112 99.6ZM35.0445 99.28C35.0445 99.5573 35.0285 99.8507 34.9965 100.16H27.9885C28.0418 101.024 28.3352 101.701 28.8685 102.192C29.4125 102.672 30.0685 102.912 30.8365 102.912C31.4658 102.912 31.9885 102.768 32.4045 102.48C32.8312 102.181 33.1298 101.787 33.3005 101.296H34.8685C34.6338 102.139 34.1645 102.827 33.4605 103.36C32.7565 103.883 31.8818 104.144 30.8365 104.144C30.0045 104.144 29.2578 103.957 28.5965 103.584C27.9458 103.211 27.4338 102.683 27.0605 102C26.6872 101.307 26.5005 100.507 26.5005 99.6C26.5005 98.6933 26.6818 97.8987 27.0445 97.216C27.4072 96.5333 27.9138 96.0107 28.5645 95.648C29.2258 95.2747 29.9832 95.088 30.8365 95.088C31.6685 95.088 32.4045 95.2693 33.0445 95.632C33.6845 95.9947 34.1752 96.496 34.5165 97.136C34.8685 97.7653 35.0445 98.48 35.0445 99.28ZM33.5405 98.976C33.5405 98.4213 33.4178 97.9467 33.1725 97.552C32.9272 97.1467 32.5912 96.8427 32.1645 96.64C31.7485 96.4267 31.2845 96.32 30.7725 96.32C30.0365 96.32 29.4072 96.5547 28.8845 97.024C28.3725 97.4933 28.0792 98.144 28.0045 98.976H33.5405ZM40.0704 104.144C39.3984 104.144 38.7957 104.032 38.2624 103.808C37.729 103.573 37.3077 103.253 36.9984 102.848C36.689 102.432 36.5184 101.957 36.4864 101.424H37.9904C38.033 101.861 38.2357 102.219 38.5984 102.496C38.9717 102.773 39.457 102.912 40.0544 102.912C40.609 102.912 41.0464 102.789 41.3664 102.544C41.6864 102.299 41.8464 101.989 41.8464 101.616C41.8464 101.232 41.6757 100.949 41.3344 100.768C40.993 100.576 40.465 100.389 39.7504 100.208C39.0997 100.037 38.5664 99.8667 38.1504 99.696C37.745 99.5147 37.393 99.2533 37.0944 98.912C36.8064 98.56 36.6624 98.1013 36.6624 97.536C36.6624 97.088 36.7957 96.6773 37.0624 96.304C37.329 95.9307 37.7077 95.6373 38.1984 95.424C38.689 95.2 39.249 95.088 39.8784 95.088C40.849 95.088 41.633 95.3333 42.2304 95.824C42.8277 96.3147 43.1477 96.9867 43.1904 97.84H41.7344C41.7024 97.3813 41.5157 97.0133 41.1744 96.736C40.8437 96.4587 40.3957 96.32 39.8304 96.32C39.3077 96.32 38.8917 96.432 38.5824 96.656C38.273 96.88 38.1184 97.1733 38.1184 97.536C38.1184 97.824 38.209 98.064 38.3904 98.256C38.5824 98.4373 38.817 98.5867 39.0944 98.704C39.3824 98.8107 39.777 98.9333 40.2784 99.072C40.9077 99.2427 41.4197 99.4133 41.8144 99.584C42.209 99.744 42.545 99.9893 42.8224 100.32C43.1104 100.651 43.2597 101.083 43.2704 101.616C43.2704 102.096 43.137 102.528 42.8704 102.912C42.6037 103.296 42.225 103.6 41.7344 103.824C41.2544 104.037 40.6997 104.144 40.0704 104.144ZM53.3258 99.28C53.3258 99.5573 53.3098 99.8507 53.2778 100.16H46.2698C46.3231 101.024 46.6164 101.701 47.1498 102.192C47.6938 102.672 48.3498 102.912 49.1178 102.912C49.7471 102.912 50.2698 102.768 50.6858 102.48C51.1124 102.181 51.4111 101.787 51.5818 101.296H53.1498C52.9151 102.139 52.4458 102.827 51.7418 103.36C51.0378 103.883 50.1631 104.144 49.1178 104.144C48.2858 104.144 47.5391 103.957 46.8778 103.584C46.2271 103.211 45.7151 102.683 45.3418 102C44.9684 101.307 44.7818 100.507 44.7818 99.6C44.7818 98.6933 44.9631 97.8987 45.3258 97.216C45.6884 96.5333 46.1951 96.0107 46.8458 95.648C47.5071 95.2747 48.2644 95.088 49.1178 95.088C49.9498 95.088 50.6858 95.2693 51.3258 95.632C51.9658 95.9947 52.4564 96.496 52.7978 97.136C53.1498 97.7653 53.3258 98.48 53.3258 99.28ZM51.8218 98.976C51.8218 98.4213 51.6991 97.9467 51.4538 97.552C51.2084 97.1467 50.8724 96.8427 50.4458 96.64C50.0298 96.4267 49.5658 96.32 49.0538 96.32C48.3178 96.32 47.6884 96.5547 47.1658 97.024C46.6538 97.4933 46.3604 98.144 46.2858 98.976H51.8218ZM56.7036 96.656C56.9596 96.1547 57.3223 95.7653 57.7916 95.488C58.2716 95.2107 58.853 95.072 59.5356 95.072V96.576H59.1516C57.5196 96.576 56.7036 97.4613 56.7036 99.232V104H55.2476V95.232H56.7036V96.656ZM68.9924 95.232V104H67.5364V102.704C67.259 103.152 66.8697 103.504 66.3684 103.76C65.8777 104.005 65.3337 104.128 64.7364 104.128C64.0537 104.128 63.4404 103.989 62.8964 103.712C62.3524 103.424 61.9204 102.997 61.6004 102.432C61.291 101.867 61.1364 101.179 61.1364 100.368V95.232H62.5764V100.176C62.5764 101.04 62.795 101.707 63.2324 102.176C63.6697 102.635 64.267 102.864 65.0244 102.864C65.803 102.864 66.4164 102.624 66.8644 102.144C67.3124 101.664 67.5364 100.965 67.5364 100.048V95.232H68.9924ZM75.7228 95.072C76.7894 95.072 77.6534 95.3973 78.3148 96.048C78.9761 96.688 79.3068 97.616 79.3068 98.832V104H77.8668V99.04C77.8668 98.1653 77.6481 97.4987 77.2108 97.04C76.7734 96.5707 76.1761 96.336 75.4188 96.336C74.6508 96.336 74.0374 96.576 73.5788 97.056C73.1308 97.536 72.9068 98.2347 72.9068 99.152V104H71.4508V95.232H72.9068V96.48C73.1948 96.032 73.5841 95.6853 74.0748 95.44C74.5761 95.1947 75.1254 95.072 75.7228 95.072ZM83.4611 96.432V101.6C83.4611 102.027 83.5518 102.331 83.7331 102.512C83.9145 102.683 84.2291 102.768 84.6771 102.768H85.7491V104H84.4371C83.6265 104 83.0185 103.813 82.6131 103.44C82.2078 103.067 82.0051 102.453 82.0051 101.6V96.432H80.8691V95.232H82.0051V93.024H83.4611V95.232H85.7491V96.432H83.4611ZM99.5549 95.232V104H98.0989V102.704C97.8215 103.152 97.4322 103.504 96.9309 103.76C96.4402 104.005 95.8962 104.128 95.2989 104.128C94.6162 104.128 94.0029 103.989 93.4589 103.712C92.9149 103.424 92.4829 102.997 92.1629 102.432C91.8535 101.867 91.6989 101.179 91.6989 100.368V95.232H93.1389V100.176C93.1389 101.04 93.3575 101.707 93.7949 102.176C94.2322 102.635 94.8295 102.864 95.5869 102.864C96.3655 102.864 96.9789 102.624 97.4269 102.144C97.8749 101.664 98.0989 100.965 98.0989 100.048V95.232H99.5549ZM103.469 92.16V104H102.013V92.16H103.469ZM107.407 92.16V104H105.951V92.16H107.407ZM109.344 99.584C109.344 98.688 109.526 97.904 109.888 97.232C110.251 96.5493 110.747 96.0213 111.376 95.648C112.016 95.2747 112.726 95.088 113.504 95.088C114.272 95.088 114.939 95.2533 115.504 95.584C116.07 95.9147 116.491 96.3307 116.768 96.832V95.232H118.24V104H116.768V102.368C116.48 102.88 116.048 103.307 115.472 103.648C114.907 103.979 114.246 104.144 113.488 104.144C112.71 104.144 112.006 103.952 111.376 103.568C110.747 103.184 110.251 102.645 109.888 101.952C109.526 101.259 109.344 100.469 109.344 99.584ZM116.768 99.6C116.768 98.9387 116.635 98.3627 116.368 97.872C116.102 97.3813 115.739 97.008 115.28 96.752C114.832 96.4853 114.336 96.352 113.792 96.352C113.248 96.352 112.752 96.48 112.304 96.736C111.856 96.992 111.499 97.3653 111.232 97.856C110.966 98.3467 110.832 98.9227 110.832 99.584C110.832 100.256 110.966 100.843 111.232 101.344C111.499 101.835 111.856 102.213 112.304 102.48C112.752 102.736 113.248 102.864 113.792 102.864C114.336 102.864 114.832 102.736 115.28 102.48C115.739 102.213 116.102 101.835 116.368 101.344C116.635 100.843 116.768 100.261 116.768 99.6ZM131.245 95.072C131.927 95.072 132.535 95.216 133.069 95.504C133.602 95.7813 134.023 96.2027 134.333 96.768C134.642 97.3333 134.797 98.0213 134.797 98.832V104H133.357V99.04C133.357 98.1653 133.138 97.4987 132.701 97.04C132.274 96.5707 131.693 96.336 130.957 96.336C130.199 96.336 129.597 96.5813 129.149 97.072C128.701 97.552 128.477 98.2507 128.477 99.168V104H127.037V99.04C127.037 98.1653 126.818 97.4987 126.381 97.04C125.954 96.5707 125.373 96.336 124.637 96.336C123.879 96.336 123.277 96.5813 122.829 97.072C122.381 97.552 122.157 98.2507 122.157 99.168V104H120.701V95.232H122.157V96.496C122.445 96.0373 122.829 95.6853 123.309 95.44C123.799 95.1947 124.338 95.072 124.925 95.072C125.661 95.072 126.311 95.2373 126.877 95.568C127.442 95.8987 127.863 96.384 128.141 97.024C128.386 96.4053 128.791 95.9253 129.357 95.584C129.922 95.2427 130.551 95.072 131.245 95.072ZM136.641 99.6C136.641 98.6933 136.822 97.904 137.185 97.232C137.548 96.5493 138.049 96.0213 138.689 95.648C139.34 95.2747 140.081 95.088 140.913 95.088C141.99 95.088 142.876 95.3493 143.569 95.872C144.273 96.3947 144.737 97.12 144.961 98.048H143.393C143.244 97.5147 142.95 97.0933 142.513 96.784C142.086 96.4747 141.553 96.32 140.913 96.32C140.081 96.32 139.409 96.608 138.897 97.184C138.385 97.7493 138.129 98.5547 138.129 99.6C138.129 100.656 138.385 101.472 138.897 102.048C139.409 102.624 140.081 102.912 140.913 102.912C141.553 102.912 142.086 102.763 142.513 102.464C142.94 102.165 143.233 101.739 143.393 101.184H144.961C144.726 102.08 144.257 102.8 143.553 103.344C142.849 103.877 141.969 104.144 140.913 104.144C140.081 104.144 139.34 103.957 138.689 103.584C138.049 103.211 137.548 102.683 137.185 102C136.822 101.317 136.641 100.517 136.641 99.6ZM150.728 104.144C149.907 104.144 149.16 103.957 148.488 103.584C147.827 103.211 147.304 102.683 146.92 102C146.547 101.307 146.36 100.507 146.36 99.6C146.36 98.704 146.552 97.9147 146.936 97.232C147.331 96.5387 147.864 96.0107 148.536 95.648C149.208 95.2747 149.96 95.088 150.792 95.088C151.624 95.088 152.376 95.2747 153.048 95.648C153.72 96.0107 154.248 96.5333 154.632 97.216C155.027 97.8987 155.224 98.6933 155.224 99.6C155.224 100.507 155.021 101.307 154.616 102C154.221 102.683 153.683 103.211 153 103.584C152.317 103.957 151.56 104.144 150.728 104.144ZM150.728 102.864C151.251 102.864 151.741 102.741 152.2 102.496C152.659 102.251 153.027 101.883 153.304 101.392C153.592 100.901 153.736 100.304 153.736 99.6C153.736 98.896 153.597 98.2987 153.32 97.808C153.043 97.3173 152.68 96.9547 152.232 96.72C151.784 96.4747 151.299 96.352 150.776 96.352C150.243 96.352 149.752 96.4747 149.304 96.72C148.867 96.9547 148.515 97.3173 148.248 97.808C147.981 98.2987 147.848 98.896 147.848 99.6C147.848 100.315 147.976 100.917 148.232 101.408C148.499 101.899 148.851 102.267 149.288 102.512C149.725 102.747 150.205 102.864 150.728 102.864ZM169.404 99.28C169.404 99.5573 169.388 99.8507 169.356 100.16H162.348C162.401 101.024 162.695 101.701 163.228 102.192C163.772 102.672 164.428 102.912 165.196 102.912C165.825 102.912 166.348 102.768 166.764 102.48C167.191 102.181 167.489 101.787 167.66 101.296H169.228C168.993 102.139 168.524 102.827 167.82 103.36C167.116 103.883 166.241 104.144 165.196 104.144C164.364 104.144 163.617 103.957 162.956 103.584C162.305 103.211 161.793 102.683 161.42 102C161.047 101.307 160.86 100.507 160.86 99.6C160.86 98.6933 161.041 97.8987 161.404 97.216C161.767 96.5333 162.273 96.0107 162.924 95.648C163.585 95.2747 164.343 95.088 165.196 95.088C166.028 95.088 166.764 95.2693 167.404 95.632C168.044 95.9947 168.535 96.496 168.876 97.136C169.228 97.7653 169.404 98.48 169.404 99.28ZM167.9 98.976C167.9 98.4213 167.777 97.9467 167.532 97.552C167.287 97.1467 166.951 96.8427 166.524 96.64C166.108 96.4267 165.644 96.32 165.132 96.32C164.396 96.32 163.767 96.5547 163.244 97.024C162.732 97.4933 162.439 98.144 162.364 98.976H167.9ZM174.43 104.144C173.758 104.144 173.155 104.032 172.622 103.808C172.088 103.573 171.667 103.253 171.358 102.848C171.048 102.432 170.878 101.957 170.846 101.424H172.35C172.392 101.861 172.595 102.219 172.958 102.496C173.331 102.773 173.816 102.912 174.414 102.912C174.968 102.912 175.406 102.789 175.726 102.544C176.046 102.299 176.206 101.989 176.206 101.616C176.206 101.232 176.035 100.949 175.694 100.768C175.352 100.576 174.824 100.389 174.11 100.208C173.459 100.037 172.926 99.8667 172.51 99.696C172.104 99.5147 171.752 99.2533 171.454 98.912C171.166 98.56 171.022 98.1013 171.022 97.536C171.022 97.088 171.155 96.6773 171.422 96.304C171.688 95.9307 172.067 95.6373 172.558 95.424C173.048 95.2 173.608 95.088 174.238 95.088C175.208 95.088 175.992 95.3333 176.59 95.824C177.187 96.3147 177.507 96.9867 177.55 97.84H176.094C176.062 97.3813 175.875 97.0133 175.534 96.736C175.203 96.4587 174.755 96.32 174.19 96.32C173.667 96.32 173.251 96.432 172.942 96.656C172.632 96.88 172.478 97.1733 172.478 97.536C172.478 97.824 172.568 98.064 172.75 98.256C172.942 98.4373 173.176 98.5867 173.454 98.704C173.742 98.8107 174.136 98.9333 174.638 99.072C175.267 99.2427 175.779 99.4133 176.174 99.584C176.568 99.744 176.904 99.9893 177.182 100.32C177.47 100.651 177.619 101.083 177.63 101.616C177.63 102.096 177.496 102.528 177.23 102.912C176.963 103.296 176.584 103.6 176.094 103.824C175.614 104.037 175.059 104.144 174.43 104.144ZM181.461 96.432V101.6C181.461 102.027 181.552 102.331 181.733 102.512C181.914 102.683 182.229 102.768 182.677 102.768H183.749V104H182.437C181.626 104 181.018 103.813 180.613 103.44C180.208 103.067 180.005 102.453 180.005 101.6V96.432H178.869V95.232H180.005V93.024H181.461V95.232H183.749V96.432H181.461ZM192.883 104.144C192.211 104.144 191.608 104.032 191.075 103.808C190.542 103.573 190.12 103.253 189.811 102.848C189.502 102.432 189.331 101.957 189.299 101.424H190.803C190.846 101.861 191.048 102.219 191.411 102.496C191.784 102.773 192.27 102.912 192.867 102.912C193.422 102.912 193.859 102.789 194.179 102.544C194.499 102.299 194.659 101.989 194.659 101.616C194.659 101.232 194.488 100.949 194.147 100.768C193.806 100.576 193.278 100.389 192.563 100.208C191.912 100.037 191.379 99.8667 190.963 99.696C190.558 99.5147 190.206 99.2533 189.907 98.912C189.619 98.56 189.475 98.1013 189.475 97.536C189.475 97.088 189.608 96.6773 189.875 96.304C190.142 95.9307 190.52 95.6373 191.011 95.424C191.502 95.2 192.062 95.088 192.691 95.088C193.662 95.088 194.446 95.3333 195.043 95.824C195.64 96.3147 195.96 96.9867 196.003 97.84H194.547C194.515 97.3813 194.328 97.0133 193.987 96.736C193.656 96.4587 193.208 96.32 192.643 96.32C192.12 96.32 191.704 96.432 191.395 96.656C191.086 96.88 190.931 97.1733 190.931 97.536C190.931 97.824 191.022 98.064 191.203 98.256C191.395 98.4373 191.63 98.5867 191.907 98.704C192.195 98.8107 192.59 98.9333 193.091 99.072C193.72 99.2427 194.232 99.4133 194.627 99.584C195.022 99.744 195.358 99.9893 195.635 100.32C195.923 100.651 196.072 101.083 196.083 101.616C196.083 102.096 195.95 102.528 195.683 102.912C195.416 103.296 195.038 103.6 194.547 103.824C194.067 104.037 193.512 104.144 192.883 104.144ZM198.89 93.808C198.613 93.808 198.378 93.712 198.186 93.52C197.994 93.328 197.898 93.0933 197.898 92.816C197.898 92.5387 197.994 92.304 198.186 92.112C198.378 91.92 198.613 91.824 198.89 91.824C199.157 91.824 199.381 91.92 199.562 92.112C199.754 92.304 199.85 92.5387 199.85 92.816C199.85 93.0933 199.754 93.328 199.562 93.52C199.381 93.712 199.157 93.808 198.89 93.808ZM199.594 95.232V104H198.138V95.232H199.594ZM203.852 96.432V101.6C203.852 102.027 203.942 102.331 204.124 102.512C204.305 102.683 204.62 102.768 205.068 102.768H206.14V104H204.828C204.017 104 203.409 103.813 203.004 103.44C202.598 103.067 202.396 102.453 202.396 101.6V96.432H201.26V95.232H202.396V93.024H203.852V95.232H206.14V96.432H203.852ZM15.688 123.584C15.688 122.688 15.8693 121.904 16.232 121.232C16.5947 120.549 17.0907 120.021 17.72 119.648C18.36 119.275 19.0693 119.088 19.848 119.088C20.616 119.088 21.2827 119.253 21.848 119.584C22.4133 119.915 22.8347 120.331 23.112 120.832V119.232H24.584V128H23.112V126.368C22.824 126.88 22.392 127.307 21.816 127.648C21.2507 127.979 20.5893 128.144 19.832 128.144C19.0533 128.144 18.3493 127.952 17.72 127.568C17.0907 127.184 16.5947 126.645 16.232 125.952C15.8693 125.259 15.688 124.469 15.688 123.584ZM23.112 123.6C23.112 122.939 22.9787 122.363 22.712 121.872C22.4453 121.381 22.0827 121.008 21.624 120.752C21.176 120.485 20.68 120.352 20.136 120.352C19.592 120.352 19.096 120.48 18.648 120.736C18.2 120.992 17.8427 121.365 17.576 121.856C17.3093 122.347 17.176 122.923 17.176 123.584C17.176 124.256 17.3093 124.843 17.576 125.344C17.8427 125.835 18.2 126.213 18.648 126.48C19.096 126.736 19.592 126.864 20.136 126.864C20.68 126.864 21.176 126.736 21.624 126.48C22.0827 126.213 22.4453 125.835 22.712 125.344C22.9787 124.843 23.112 124.261 23.112 123.6ZM28.5005 116.16V128H27.0445V116.16H28.5005ZM31.734 117.808C31.4567 117.808 31.222 117.712 31.03 117.52C30.838 117.328 30.742 117.093 30.742 116.816C30.742 116.539 30.838 116.304 31.03 116.112C31.222 115.92 31.4567 115.824 31.734 115.824C32.0007 115.824 32.2247 115.92 32.406 116.112C32.598 116.304 32.694 116.539 32.694 116.816C32.694 117.093 32.598 117.328 32.406 117.52C32.2247 117.712 32.0007 117.808 31.734 117.808ZM32.438 119.232V128H30.982V119.232H32.438ZM34.3755 123.584C34.3755 122.688 34.5568 121.904 34.9195 121.232C35.2822 120.549 35.7782 120.021 36.4075 119.648C37.0475 119.275 37.7622 119.088 38.5515 119.088C39.3088 119.088 39.9702 119.259 40.5355 119.6C41.1115 119.931 41.5328 120.341 41.7995 120.832V119.232H43.2715V132.16H41.7995V126.384C41.5222 126.875 41.0955 127.291 40.5195 127.632C39.9435 127.973 39.2715 128.144 38.5035 128.144C37.7355 128.144 37.0368 127.952 36.4075 127.568C35.7782 127.184 35.2822 126.645 34.9195 125.952C34.5568 125.259 34.3755 124.469 34.3755 123.584ZM41.7995 123.6C41.7995 122.939 41.6662 122.363 41.3995 121.872C41.1328 121.381 40.7702 121.008 40.3115 120.752C39.8635 120.485 39.3675 120.352 38.8235 120.352C38.2795 120.352 37.7835 120.48 37.3355 120.736C36.8875 120.992 36.5302 121.365 36.2635 121.856C35.9968 122.347 35.8635 122.923 35.8635 123.584C35.8635 124.256 35.9968 124.843 36.2635 125.344C36.5302 125.835 36.8875 126.213 37.3355 126.48C37.7835 126.736 38.2795 126.864 38.8235 126.864C39.3675 126.864 39.8635 126.736 40.3115 126.48C40.7702 126.213 41.1328 125.835 41.3995 125.344C41.6662 124.843 41.7995 124.261 41.7995 123.6ZM53.508 119.232V128H52.052V126.704C51.7747 127.152 51.3853 127.504 50.884 127.76C50.3933 128.005 49.8493 128.128 49.252 128.128C48.5693 128.128 47.956 127.989 47.412 127.712C46.868 127.424 46.436 126.997 46.116 126.432C45.8067 125.867 45.652 125.179 45.652 124.368V119.232H47.092V124.176C47.092 125.04 47.3107 125.707 47.748 126.176C48.1853 126.635 48.7827 126.864 49.54 126.864C50.3187 126.864 50.932 126.624 51.38 126.144C51.828 125.664 52.052 124.965 52.052 124.048V119.232H53.508ZM55.4224 123.584C55.4224 122.688 55.6037 121.904 55.9664 121.232C56.329 120.549 56.825 120.021 57.4544 119.648C58.0944 119.275 58.8037 119.088 59.5824 119.088C60.3504 119.088 61.017 119.253 61.5824 119.584C62.1477 119.915 62.569 120.331 62.8464 120.832V119.232H64.3184V128H62.8464V126.368C62.5584 126.88 62.1264 127.307 61.5504 127.648C60.985 127.979 60.3237 128.144 59.5664 128.144C58.7877 128.144 58.0837 127.952 57.4544 127.568C56.825 127.184 56.329 126.645 55.9664 125.952C55.6037 125.259 55.4224 124.469 55.4224 123.584ZM62.8464 123.6C62.8464 122.939 62.713 122.363 62.4464 121.872C62.1797 121.381 61.817 121.008 61.3584 120.752C60.9104 120.485 60.4144 120.352 59.8704 120.352C59.3264 120.352 58.8304 120.48 58.3824 120.736C57.9344 120.992 57.577 121.365 57.3104 121.856C57.0437 122.347 56.9104 122.923 56.9104 123.584C56.9104 124.256 57.0437 124.843 57.3104 125.344C57.577 125.835 57.9344 126.213 58.3824 126.48C58.8304 126.736 59.3264 126.864 59.8704 126.864C60.4144 126.864 60.9104 126.736 61.3584 126.48C61.817 126.213 62.1797 125.835 62.4464 125.344C62.713 124.843 62.8464 124.261 62.8464 123.6ZM70.5005 123.584C70.5005 122.688 70.6818 121.904 71.0445 121.232C71.4072 120.549 71.9032 120.021 72.5325 119.648C73.1725 119.275 73.8872 119.088 74.6765 119.088C75.3592 119.088 75.9938 119.248 76.5805 119.568C77.1672 119.877 77.6152 120.288 77.9245 120.8V116.16H79.3965V128H77.9245V126.352C77.6365 126.875 77.2098 127.307 76.6445 127.648C76.0792 127.979 75.4178 128.144 74.6605 128.144C73.8818 128.144 73.1725 127.952 72.5325 127.568C71.9032 127.184 71.4072 126.645 71.0445 125.952C70.6818 125.259 70.5005 124.469 70.5005 123.584ZM77.9245 123.6C77.9245 122.939 77.7912 122.363 77.5245 121.872C77.2578 121.381 76.8952 121.008 76.4365 120.752C75.9885 120.485 75.4925 120.352 74.9485 120.352C74.4045 120.352 73.9085 120.48 73.4605 120.736C73.0125 120.992 72.6552 121.365 72.3885 121.856C72.1218 122.347 71.9885 122.923 71.9885 123.584C71.9885 124.256 72.1218 124.843 72.3885 125.344C72.6552 125.835 73.0125 126.213 73.4605 126.48C73.9085 126.736 74.4045 126.864 74.9485 126.864C75.4925 126.864 75.9885 126.736 76.4365 126.48C76.8952 126.213 77.2578 125.835 77.5245 125.344C77.7912 124.843 77.9245 124.261 77.9245 123.6ZM85.681 128.144C84.8597 128.144 84.113 127.957 83.441 127.584C82.7797 127.211 82.257 126.683 81.873 126C81.4997 125.307 81.313 124.507 81.313 123.6C81.313 122.704 81.505 121.915 81.889 121.232C82.2837 120.539 82.817 120.011 83.489 119.648C84.161 119.275 84.913 119.088 85.745 119.088C86.577 119.088 87.329 119.275 88.001 119.648C88.673 120.011 89.201 120.533 89.585 121.216C89.9797 121.899 90.177 122.693 90.177 123.6C90.177 124.507 89.9743 125.307 89.569 126C89.1743 126.683 88.6357 127.211 87.953 127.584C87.2703 127.957 86.513 128.144 85.681 128.144ZM85.681 126.864C86.2037 126.864 86.6943 126.741 87.153 126.496C87.6117 126.251 87.9797 125.883 88.257 125.392C88.545 124.901 88.689 124.304 88.689 123.6C88.689 122.896 88.5503 122.299 88.273 121.808C87.9957 121.317 87.633 120.955 87.185 120.72C86.737 120.475 86.2517 120.352 85.729 120.352C85.1957 120.352 84.705 120.475 84.257 120.72C83.8197 120.955 83.4677 121.317 83.201 121.808C82.9343 122.299 82.801 122.896 82.801 123.6C82.801 124.315 82.929 124.917 83.185 125.408C83.4517 125.899 83.8037 126.267 84.241 126.512C84.6783 126.747 85.1583 126.864 85.681 126.864ZM93.5474 116.16V128H92.0914V116.16H93.5474ZM99.8529 128.144C99.0315 128.144 98.2849 127.957 97.6129 127.584C96.9515 127.211 96.4289 126.683 96.0449 126C95.6715 125.307 95.4849 124.507 95.4849 123.6C95.4849 122.704 95.6769 121.915 96.0609 121.232C96.4555 120.539 96.9889 120.011 97.6609 119.648C98.3329 119.275 99.0849 119.088 99.9169 119.088C100.749 119.088 101.501 119.275 102.173 119.648C102.845 120.011 103.373 120.533 103.757 121.216C104.152 121.899 104.349 122.693 104.349 123.6C104.349 124.507 104.146 125.307 103.741 126C103.346 126.683 102.808 127.211 102.125 127.584C101.442 127.957 100.685 128.144 99.8529 128.144ZM99.8529 126.864C100.376 126.864 100.866 126.741 101.325 126.496C101.784 126.251 102.152 125.883 102.429 125.392C102.717 124.901 102.861 124.304 102.861 123.6C102.861 122.896 102.722 122.299 102.445 121.808C102.168 121.317 101.805 120.955 101.357 120.72C100.909 120.475 100.424 120.352 99.9009 120.352C99.3675 120.352 98.8769 120.475 98.4289 120.72C97.9915 120.955 97.6395 121.317 97.3729 121.808C97.1062 122.299 96.9729 122.896 96.9729 123.6C96.9729 124.315 97.1009 124.917 97.3569 125.408C97.6235 125.899 97.9755 126.267 98.4129 126.512C98.8502 126.747 99.3302 126.864 99.8529 126.864Z" fill="#031D44"/>
</svg>
