<svg width="399" height="168" viewBox="0 0 399 168" fill="none" xmlns="http://www.w3.org/2000/svg">
<path d="M399 3H0V168H399V3Z" fill="#FAFAFA"/>
<path d="M398.641 167.836C398.641 165.853 398.511 104.574 398.315 3.48002L398.641 3.73266L0.424124 3.80846L0.848249 3.48002C0.848249 61.5875 0.848249 117.169 0.848249 167.836L0.44044 167.533L286.787 167.684L369.132 167.76H391.089H396.749H398.69H396.798H391.121H369.263L287.016 167.848L0.391493 168H0V167.684C0 116.979 0 61.3728 0 3.32844V3H0.456744L398.674 3.07579H399V3.32844C398.788 104.574 398.641 165.853 398.641 167.836Z" fill="#263238"/>
<path d="M178 32.4016C178 32.6379 152.928 32.8404 122 32.8404C91.0721 32.8404 66 32.6379 66 32.4016C66 32.1653 91.0721 31.9628 122 31.9628C152.928 31.9628 178 32.1484 178 32.4016Z" fill="#E0E0E0"/>
<path d="M48.3165 38.5056C55.2219 32.4449 55.2219 22.6187 48.3165 16.558C41.411 10.4973 30.215 10.4973 23.3095 16.558C16.404 22.6187 16.404 32.4449 23.3095 38.5056C30.215 44.5663 41.411 44.5662 48.3165 38.5056Z" fill="#263238"/>
<path d="M42.1125 25.7733C42.1125 26.8676 41.7428 27.9373 41.0501 28.8472C40.3574 29.7571 39.3728 30.4662 38.2209 30.885C37.069 31.3038 35.8014 31.4134 34.5785 31.1999C33.3556 30.9864 32.2324 30.4594 31.3507 29.6856C30.4691 28.9118 29.8687 27.926 29.6254 26.8527C29.3822 25.7794 29.507 24.667 29.9841 23.656C30.4613 22.645 31.2693 21.7808 32.306 21.1729C33.3427 20.5649 34.5616 20.2404 35.8084 20.2404C37.4804 20.2404 39.0838 20.8233 40.2661 21.861C41.4484 22.8986 42.1125 24.3059 42.1125 25.7733V25.7733Z" fill="#FAFAFA"/>
<path d="M26.2468 38.9394C26.2468 38.9394 29.4155 33.426 35.8415 33.426C42.2675 33.426 45.8129 38.6671 45.8129 38.6671C43.0769 40.8115 39.508 41.953 35.8415 41.8566C29.4488 41.8079 26.2468 38.9394 26.2468 38.9394Z" fill="#FAFAFA"/>
<path d="M70.66 28.36H75.14V31H67.24V16.96H70.66V28.36ZM87.7913 19.84V31H84.3713V29.48C84.0246 29.9733 83.5513 30.3733 82.9513 30.68C82.3646 30.9733 81.7113 31.12 80.9913 31.12C80.1379 31.12 79.3846 30.9333 78.7313 30.56C78.0779 30.1733 77.5713 29.62 77.2113 28.9C76.8513 28.18 76.6713 27.3333 76.6713 26.36V19.84H80.0713V25.9C80.0713 26.6467 80.2646 27.2267 80.6513 27.64C81.0379 28.0533 81.5579 28.26 82.2113 28.26C82.8779 28.26 83.4046 28.0533 83.7913 27.64C84.1779 27.2267 84.3713 26.6467 84.3713 25.9V19.84H87.7913ZM89.5678 25.42C89.5678 24.26 89.8011 23.2467 90.2678 22.38C90.7478 21.5133 91.4078 20.8467 92.2478 20.38C93.1011 19.9133 94.0745 19.68 95.1678 19.68C96.5678 19.68 97.7345 20.0467 98.6678 20.78C99.6145 21.5133 100.234 22.5467 100.528 23.88H96.8878C96.5811 23.0267 95.9878 22.6 95.1078 22.6C94.4811 22.6 93.9811 22.8467 93.6078 23.34C93.2345 23.82 93.0478 24.5133 93.0478 25.42C93.0478 26.3267 93.2345 27.0267 93.6078 27.52C93.9811 28 94.4811 28.24 95.1078 28.24C95.9878 28.24 96.5811 27.8133 96.8878 26.96H100.528C100.234 28.2667 99.6145 29.2933 98.6678 30.04C97.7211 30.7867 96.5545 31.16 95.1678 31.16C94.0745 31.16 93.1011 30.9267 92.2478 30.46C91.4078 29.9933 90.7478 29.3267 90.2678 28.46C89.8011 27.5933 89.5678 26.58 89.5678 25.42ZM104.077 18.68C103.477 18.68 102.984 18.5067 102.597 18.16C102.224 17.8 102.037 17.36 102.037 16.84C102.037 16.3067 102.224 15.8667 102.597 15.52C102.984 15.16 103.477 14.98 104.077 14.98C104.664 14.98 105.144 15.16 105.517 15.52C105.904 15.8667 106.097 16.3067 106.097 16.84C106.097 17.36 105.904 17.8 105.517 18.16C105.144 18.5067 104.664 18.68 104.077 18.68ZM105.777 19.84V31H102.357V19.84H105.777ZM107.576 25.4C107.576 24.2533 107.789 23.2467 108.216 22.38C108.656 21.5133 109.249 20.8467 109.996 20.38C110.742 19.9133 111.576 19.68 112.496 19.68C113.282 19.68 113.969 19.84 114.556 20.16C115.156 20.48 115.616 20.9 115.936 21.42V19.84H119.356V31H115.936V29.42C115.602 29.94 115.136 30.36 114.536 30.68C113.949 31 113.262 31.16 112.476 31.16C111.569 31.16 110.742 30.9267 109.996 30.46C109.249 29.98 108.656 29.3067 108.216 28.44C107.789 27.56 107.576 26.5467 107.576 25.4ZM115.936 25.42C115.936 24.5667 115.696 23.8933 115.216 23.4C114.749 22.9067 114.176 22.66 113.496 22.66C112.816 22.66 112.236 22.9067 111.756 23.4C111.289 23.88 111.056 24.5467 111.056 25.4C111.056 26.2533 111.289 26.9333 111.756 27.44C112.236 27.9333 112.816 28.18 113.496 28.18C114.176 28.18 114.749 27.9333 115.216 27.44C115.696 26.9467 115.936 26.2733 115.936 25.42ZM128.63 19.72C129.937 19.72 130.977 20.1467 131.75 21C132.537 21.84 132.93 23 132.93 24.48V31H129.53V24.94C129.53 24.1933 129.337 23.6133 128.95 23.2C128.563 22.7867 128.043 22.58 127.39 22.58C126.737 22.58 126.217 22.7867 125.83 23.2C125.443 23.6133 125.25 24.1933 125.25 24.94V31H121.83V19.84H125.25V21.32C125.597 20.8267 126.063 20.44 126.65 20.16C127.237 19.8667 127.897 19.72 128.63 19.72ZM134.626 25.4C134.626 24.2533 134.84 23.2467 135.266 22.38C135.706 21.5133 136.3 20.8467 137.046 20.38C137.793 19.9133 138.626 19.68 139.546 19.68C140.333 19.68 141.02 19.84 141.606 20.16C142.206 20.48 142.666 20.9 142.986 21.42V19.84H146.406V31H142.986V29.42C142.653 29.94 142.186 30.36 141.586 30.68C141 31 140.313 31.16 139.526 31.16C138.62 31.16 137.793 30.9267 137.046 30.46C136.3 29.98 135.706 29.3067 135.266 28.44C134.84 27.56 134.626 26.5467 134.626 25.4ZM142.986 25.42C142.986 24.5667 142.746 23.8933 142.266 23.4C141.8 22.9067 141.226 22.66 140.546 22.66C139.866 22.66 139.286 22.9067 138.806 23.4C138.34 23.88 138.106 24.5467 138.106 25.4C138.106 26.2533 138.34 26.9333 138.806 27.44C139.286 27.9333 139.866 28.18 140.546 28.18C141.226 28.18 141.8 27.9333 142.266 27.44C142.746 26.9467 142.986 26.2733 142.986 25.42Z" fill="#340962"/>
<path d="M17.688 68.848V80H16.232V68.848H17.688ZM19.6255 75.584C19.6255 74.688 19.8068 73.904 20.1695 73.232C20.5322 72.5493 21.0282 72.0213 21.6575 71.648C22.2975 71.2747 23.0122 71.088 23.8015 71.088C24.4842 71.088 25.1188 71.248 25.7055 71.568C26.2922 71.8773 26.7402 72.288 27.0495 72.8V68.16H28.5215V80H27.0495V78.352C26.7615 78.8747 26.3348 79.3067 25.7695 79.648C25.2042 79.9787 24.5428 80.144 23.7855 80.144C23.0068 80.144 22.2975 79.952 21.6575 79.568C21.0282 79.184 20.5322 78.6453 20.1695 77.952C19.8068 77.2587 19.6255 76.4693 19.6255 75.584ZM27.0495 75.6C27.0495 74.9387 26.9162 74.3627 26.6495 73.872C26.3828 73.3813 26.0202 73.008 25.5615 72.752C25.1135 72.4853 24.6175 72.352 24.0735 72.352C23.5295 72.352 23.0335 72.48 22.5855 72.736C22.1375 72.992 21.7802 73.3653 21.5135 73.856C21.2468 74.3467 21.1135 74.9227 21.1135 75.584C21.1135 76.256 21.2468 76.8427 21.5135 77.344C21.7802 77.8347 22.1375 78.2133 22.5855 78.48C23.0335 78.736 23.5295 78.864 24.0735 78.864C24.6175 78.864 25.1135 78.736 25.5615 78.48C26.0202 78.2133 26.3828 77.8347 26.6495 77.344C26.9162 76.8427 27.0495 76.2613 27.0495 75.6ZM38.982 75.28C38.982 75.5573 38.966 75.8507 38.934 76.16H31.926C31.9793 77.024 32.2727 77.7013 32.806 78.192C33.35 78.672 34.006 78.912 34.774 78.912C35.4033 78.912 35.926 78.768 36.342 78.48C36.7687 78.1813 37.0673 77.7867 37.238 77.296H38.806C38.5713 78.1387 38.102 78.8267 37.398 79.36C36.694 79.8827 35.8193 80.144 34.774 80.144C33.942 80.144 33.1953 79.9573 32.534 79.584C31.8833 79.2107 31.3713 78.6827 30.998 78C30.6247 77.3067 30.438 76.5067 30.438 75.6C30.438 74.6933 30.6193 73.8987 30.982 73.216C31.3447 72.5333 31.8513 72.0107 32.502 71.648C33.1633 71.2747 33.9207 71.088 34.774 71.088C35.606 71.088 36.342 71.2693 36.982 71.632C37.622 71.9947 38.1127 72.496 38.454 73.136C38.806 73.7653 38.982 74.48 38.982 75.28ZM37.478 74.976C37.478 74.4213 37.3553 73.9467 37.11 73.552C36.8647 73.1467 36.5287 72.8427 36.102 72.64C35.686 72.4267 35.222 72.32 34.71 72.32C33.974 72.32 33.3447 72.5547 32.822 73.024C32.31 73.4933 32.0167 74.144 31.942 74.976H37.478ZM40.3599 75.584C40.3599 74.688 40.5412 73.904 40.9039 73.232C41.2665 72.5493 41.7625 72.0213 42.3919 71.648C43.0319 71.2747 43.7412 71.088 44.5199 71.088C45.2879 71.088 45.9545 71.2533 46.5199 71.584C47.0852 71.9147 47.5065 72.3307 47.7839 72.832V71.232H49.2559V80H47.7839V78.368C47.4959 78.88 47.0639 79.3067 46.4879 79.648C45.9225 79.9787 45.2612 80.144 44.5039 80.144C43.7252 80.144 43.0212 79.952 42.3919 79.568C41.7625 79.184 41.2665 78.6453 40.9039 77.952C40.5412 77.2587 40.3599 76.4693 40.3599 75.584ZM47.7839 75.6C47.7839 74.9387 47.6505 74.3627 47.3839 73.872C47.1172 73.3813 46.7545 73.008 46.2959 72.752C45.8479 72.4853 45.3519 72.352 44.8079 72.352C44.2639 72.352 43.7679 72.48 43.3199 72.736C42.8719 72.992 42.5145 73.3653 42.2479 73.856C41.9812 74.3467 41.8479 74.9227 41.8479 75.584C41.8479 76.256 41.9812 76.8427 42.2479 77.344C42.5145 77.8347 42.8719 78.2133 43.3199 78.48C43.7679 78.736 44.2639 78.864 44.8079 78.864C45.3519 78.864 45.8479 78.736 46.2959 78.48C46.7545 78.2133 47.1172 77.8347 47.3839 77.344C47.6505 76.8427 47.7839 76.2613 47.7839 75.6ZM62.2604 71.072C62.943 71.072 63.551 71.216 64.0844 71.504C64.6177 71.7813 65.039 72.2027 65.3484 72.768C65.6577 73.3333 65.8124 74.0213 65.8124 74.832V80H64.3724V75.04C64.3724 74.1653 64.1537 73.4987 63.7164 73.04C63.2897 72.5707 62.7084 72.336 61.9724 72.336C61.215 72.336 60.6124 72.5813 60.1644 73.072C59.7164 73.552 59.4924 74.2507 59.4924 75.168V80H58.0524V75.04C58.0524 74.1653 57.8337 73.4987 57.3964 73.04C56.9697 72.5707 56.3884 72.336 55.6524 72.336C54.895 72.336 54.2924 72.5813 53.8444 73.072C53.3964 73.552 53.1724 74.2507 53.1724 75.168V80H51.7164V71.232H53.1724V72.496C53.4604 72.0373 53.8444 71.6853 54.3244 71.44C54.815 71.1947 55.3537 71.072 55.9404 71.072C56.6764 71.072 57.327 71.2373 57.8924 71.568C58.4577 71.8987 58.879 72.384 59.1564 73.024C59.4017 72.4053 59.807 71.9253 60.3724 71.584C60.9377 71.2427 61.567 71.072 62.2604 71.072ZM76.2008 75.28C76.2008 75.5573 76.1848 75.8507 76.1528 76.16H69.1448C69.1981 77.024 69.4914 77.7013 70.0248 78.192C70.5688 78.672 71.2248 78.912 71.9928 78.912C72.6221 78.912 73.1448 78.768 73.5608 78.48C73.9874 78.1813 74.2861 77.7867 74.4568 77.296H76.0248C75.7901 78.1387 75.3208 78.8267 74.6168 79.36C73.9128 79.8827 73.0381 80.144 71.9928 80.144C71.1608 80.144 70.4141 79.9573 69.7528 79.584C69.1021 79.2107 68.5901 78.6827 68.2168 78C67.8434 77.3067 67.6568 76.5067 67.6568 75.6C67.6568 74.6933 67.8381 73.8987 68.2008 73.216C68.5634 72.5333 69.0701 72.0107 69.7208 71.648C70.3821 71.2747 71.1394 71.088 71.9928 71.088C72.8248 71.088 73.5608 71.2693 74.2008 71.632C74.8408 71.9947 75.3314 72.496 75.6728 73.136C76.0248 73.7653 76.2008 74.48 76.2008 75.28ZM74.6968 74.976C74.6968 74.4213 74.5741 73.9467 74.3288 73.552C74.0834 73.1467 73.7474 72.8427 73.3208 72.64C72.9048 72.4267 72.4408 72.32 71.9288 72.32C71.1928 72.32 70.5634 72.5547 70.0408 73.024C69.5288 73.4933 69.2354 74.144 69.1608 74.976H74.6968ZM79.8986 72.432V77.6C79.8986 78.0267 79.9893 78.3307 80.1706 78.512C80.352 78.6827 80.6666 78.768 81.1146 78.768H82.1866V80H80.8746C80.064 80 79.456 79.8133 79.0506 79.44C78.6453 79.0667 78.4426 78.4533 78.4426 77.6V72.432H77.3066V71.232H78.4426V69.024H79.8986V71.232H82.1866V72.432H79.8986ZM98.7604 71.072C99.443 71.072 100.051 71.216 100.584 71.504C101.118 71.7813 101.539 72.2027 101.848 72.768C102.158 73.3333 102.312 74.0213 102.312 74.832V80H100.872V75.04C100.872 74.1653 100.654 73.4987 100.216 73.04C99.7897 72.5707 99.2084 72.336 98.4724 72.336C97.715 72.336 97.1124 72.5813 96.6644 73.072C96.2164 73.552 95.9924 74.2507 95.9924 75.168V80H94.5524V75.04C94.5524 74.1653 94.3337 73.4987 93.8964 73.04C93.4697 72.5707 92.8884 72.336 92.1524 72.336C91.395 72.336 90.7924 72.5813 90.3444 73.072C89.8964 73.552 89.6724 74.2507 89.6724 75.168V80H88.2164V71.232H89.6724V72.496C89.9604 72.0373 90.3444 71.6853 90.8244 71.44C91.315 71.1947 91.8537 71.072 92.4404 71.072C93.1764 71.072 93.827 71.2373 94.3924 71.568C94.9577 71.8987 95.379 72.384 95.6564 73.024C95.9017 72.4053 96.307 71.9253 96.8724 71.584C97.4377 71.2427 98.067 71.072 98.7604 71.072ZM105.453 69.808C105.175 69.808 104.941 69.712 104.749 69.52C104.557 69.328 104.461 69.0933 104.461 68.816C104.461 68.5387 104.557 68.304 104.749 68.112C104.941 67.92 105.175 67.824 105.453 67.824C105.719 67.824 105.943 67.92 106.125 68.112C106.317 68.304 106.413 68.5387 106.413 68.816C106.413 69.0933 106.317 69.328 106.125 69.52C105.943 69.712 105.719 69.808 105.453 69.808ZM106.157 71.232V80H104.701V71.232H106.157ZM112.91 71.072C113.977 71.072 114.841 71.3973 115.502 72.048C116.164 72.688 116.494 73.616 116.494 74.832V80H115.054V75.04C115.054 74.1653 114.836 73.4987 114.398 73.04C113.961 72.5707 113.364 72.336 112.606 72.336C111.838 72.336 111.225 72.576 110.766 73.056C110.318 73.536 110.094 74.2347 110.094 75.152V80H108.638V71.232H110.094V72.48C110.382 72.032 110.772 71.6853 111.262 71.44C111.764 71.1947 112.313 71.072 112.91 71.072ZM119.625 69.808C119.347 69.808 119.113 69.712 118.921 69.52C118.729 69.328 118.633 69.0933 118.633 68.816C118.633 68.5387 118.729 68.304 118.921 68.112C119.113 67.92 119.347 67.824 119.625 67.824C119.891 67.824 120.115 67.92 120.297 68.112C120.489 68.304 120.585 68.5387 120.585 68.816C120.585 69.0933 120.489 69.328 120.297 69.52C120.115 69.712 119.891 69.808 119.625 69.808ZM120.329 71.232V80H118.873V71.232H120.329ZM133.354 71.072C134.037 71.072 134.645 71.216 135.178 71.504C135.711 71.7813 136.133 72.2027 136.442 72.768C136.751 73.3333 136.906 74.0213 136.906 74.832V80H135.466V75.04C135.466 74.1653 135.247 73.4987 134.81 73.04C134.383 72.5707 133.802 72.336 133.066 72.336C132.309 72.336 131.706 72.5813 131.258 73.072C130.81 73.552 130.586 74.2507 130.586 75.168V80H129.146V75.04C129.146 74.1653 128.927 73.4987 128.49 73.04C128.063 72.5707 127.482 72.336 126.746 72.336C125.989 72.336 125.386 72.5813 124.938 73.072C124.49 73.552 124.266 74.2507 124.266 75.168V80H122.81V71.232H124.266V72.496C124.554 72.0373 124.938 71.6853 125.418 71.44C125.909 71.1947 126.447 71.072 127.034 71.072C127.77 71.072 128.421 71.2373 128.986 71.568C129.551 71.8987 129.973 72.384 130.25 73.024C130.495 72.4053 130.901 71.9253 131.466 71.584C132.031 71.2427 132.661 71.072 133.354 71.072ZM154.104 71.072C154.787 71.072 155.395 71.216 155.928 71.504C156.461 71.7813 156.883 72.2027 157.192 72.768C157.501 73.3333 157.656 74.0213 157.656 74.832V80H156.216V75.04C156.216 74.1653 155.997 73.4987 155.56 73.04C155.133 72.5707 154.552 72.336 153.816 72.336C153.059 72.336 152.456 72.5813 152.008 73.072C151.56 73.552 151.336 74.2507 151.336 75.168V80H149.896V75.04C149.896 74.1653 149.677 73.4987 149.24 73.04C148.813 72.5707 148.232 72.336 147.496 72.336C146.739 72.336 146.136 72.5813 145.688 73.072C145.24 73.552 145.016 74.2507 145.016 75.168V80H143.56V71.232H145.016V72.496C145.304 72.0373 145.688 71.6853 146.168 71.44C146.659 71.1947 147.197 71.072 147.784 71.072C148.52 71.072 149.171 71.2373 149.736 71.568C150.301 71.8987 150.723 72.384 151 73.024C151.245 72.4053 151.651 71.9253 152.216 71.584C152.781 71.2427 153.411 71.072 154.104 71.072ZM163.869 80.144C163.047 80.144 162.301 79.9573 161.629 79.584C160.967 79.2107 160.445 78.6827 160.061 78C159.687 77.3067 159.501 76.5067 159.501 75.6C159.501 74.704 159.693 73.9147 160.077 73.232C160.471 72.5387 161.005 72.0107 161.677 71.648C162.349 71.2747 163.101 71.088 163.933 71.088C164.765 71.088 165.517 71.2747 166.189 71.648C166.861 72.0107 167.389 72.5333 167.773 73.216C168.167 73.8987 168.365 74.6933 168.365 75.6C168.365 76.5067 168.162 77.3067 167.757 78C167.362 78.6827 166.823 79.2107 166.141 79.584C165.458 79.9573 164.701 80.144 163.869 80.144ZM163.869 78.864C164.391 78.864 164.882 78.7413 165.341 78.496C165.799 78.2507 166.167 77.8827 166.445 77.392C166.733 76.9013 166.877 76.304 166.877 75.6C166.877 74.896 166.738 74.2987 166.461 73.808C166.183 73.3173 165.821 72.9547 165.373 72.72C164.925 72.4747 164.439 72.352 163.917 72.352C163.383 72.352 162.893 72.4747 162.445 72.72C162.007 72.9547 161.655 73.3173 161.389 73.808C161.122 74.2987 160.989 74.896 160.989 75.6C160.989 76.3147 161.117 76.9173 161.373 77.408C161.639 77.8987 161.991 78.2667 162.429 78.512C162.866 78.7467 163.346 78.864 163.869 78.864ZM171.735 68.16V80H170.279V68.16H171.735ZM175.672 68.16V80H174.216V68.16H175.672ZM178.906 69.808C178.629 69.808 178.394 69.712 178.202 69.52C178.01 69.328 177.914 69.0933 177.914 68.816C177.914 68.5387 178.01 68.304 178.202 68.112C178.394 67.92 178.629 67.824 178.906 67.824C179.173 67.824 179.397 67.92 179.578 68.112C179.77 68.304 179.866 68.5387 179.866 68.816C179.866 69.0933 179.77 69.328 179.578 69.52C179.397 69.712 179.173 69.808 178.906 69.808ZM179.61 71.232V80H178.154V71.232H179.61ZM183.867 72.432V77.6C183.867 78.0267 183.958 78.3307 184.139 78.512C184.321 78.6827 184.635 78.768 185.083 78.768H186.155V80H184.843C184.033 80 183.425 79.8133 183.019 79.44C182.614 79.0667 182.411 78.4533 182.411 77.6V72.432H181.275V71.232H182.411V69.024H183.867V71.232H186.155V72.432H183.867ZM196.457 71.072C197.524 71.072 198.388 71.3973 199.049 72.048C199.71 72.688 200.041 73.616 200.041 74.832V80H198.601V75.04C198.601 74.1653 198.382 73.4987 197.945 73.04C197.508 72.5707 196.91 72.336 196.153 72.336C195.385 72.336 194.772 72.576 194.313 73.056C193.865 73.536 193.641 74.2347 193.641 75.152V80H192.185V71.232H193.641V72.48C193.929 72.032 194.318 71.6853 194.809 71.44C195.31 71.1947 195.86 71.072 196.457 71.072ZM206.244 80.144C205.422 80.144 204.676 79.9573 204.004 79.584C203.342 79.2107 202.82 78.6827 202.436 78C202.062 77.3067 201.876 76.5067 201.876 75.6C201.876 74.704 202.068 73.9147 202.452 73.232C202.846 72.5387 203.38 72.0107 204.052 71.648C204.724 71.2747 205.476 71.088 206.308 71.088C207.14 71.088 207.892 71.2747 208.564 71.648C209.236 72.0107 209.764 72.5333 210.148 73.216C210.542 73.8987 210.74 74.6933 210.74 75.6C210.74 76.5067 210.537 77.3067 210.132 78C209.737 78.6827 209.198 79.2107 208.516 79.584C207.833 79.9573 207.076 80.144 206.244 80.144ZM206.244 78.864C206.766 78.864 207.257 78.7413 207.716 78.496C208.174 78.2507 208.542 77.8827 208.82 77.392C209.108 76.9013 209.252 76.304 209.252 75.6C209.252 74.896 209.113 74.2987 208.836 73.808C208.558 73.3173 208.196 72.9547 207.748 72.72C207.3 72.4747 206.814 72.352 206.292 72.352C205.758 72.352 205.268 72.4747 204.82 72.72C204.382 72.9547 204.03 73.3173 203.764 73.808C203.497 74.2987 203.364 74.896 203.364 75.6C203.364 76.3147 203.492 76.9173 203.748 77.408C204.014 77.8987 204.366 78.2667 204.804 78.512C205.241 78.7467 205.721 78.864 206.244 78.864ZM216.926 71.072C217.993 71.072 218.857 71.3973 219.518 72.048C220.179 72.688 220.51 73.616 220.51 74.832V80H219.07V75.04C219.07 74.1653 218.851 73.4987 218.414 73.04C217.977 72.5707 217.379 72.336 216.622 72.336C215.854 72.336 215.241 72.576 214.782 73.056C214.334 73.536 214.11 74.2347 214.11 75.152V80H212.654V71.232H214.11V72.48C214.398 72.032 214.787 71.6853 215.278 71.44C215.779 71.1947 216.329 71.072 216.926 71.072ZM226.61 75.584C226.61 74.688 226.791 73.904 227.154 73.232C227.517 72.5493 228.013 72.0213 228.642 71.648C229.282 71.2747 229.997 71.088 230.786 71.088C231.469 71.088 232.103 71.248 232.69 71.568C233.277 71.8773 233.725 72.288 234.034 72.8V68.16H235.506V80H234.034V78.352C233.746 78.8747 233.319 79.3067 232.754 79.648C232.189 79.9787 231.527 80.144 230.77 80.144C229.991 80.144 229.282 79.952 228.642 79.568C228.013 79.184 227.517 78.6453 227.154 77.952C226.791 77.2587 226.61 76.4693 226.61 75.584ZM234.034 75.6C234.034 74.9387 233.901 74.3627 233.634 73.872C233.367 73.3813 233.005 73.008 232.546 72.752C232.098 72.4853 231.602 72.352 231.058 72.352C230.514 72.352 230.018 72.48 229.57 72.736C229.122 72.992 228.765 73.3653 228.498 73.856C228.231 74.3467 228.098 74.9227 228.098 75.584C228.098 76.256 228.231 76.8427 228.498 77.344C228.765 77.8347 229.122 78.2133 229.57 78.48C230.018 78.736 230.514 78.864 231.058 78.864C231.602 78.864 232.098 78.736 232.546 78.48C233.005 78.2133 233.367 77.8347 233.634 77.344C233.901 76.8427 234.034 76.2613 234.034 75.6ZM245.966 75.28C245.966 75.5573 245.95 75.8507 245.918 76.16H238.91C238.964 77.024 239.257 77.7013 239.79 78.192C240.334 78.672 240.99 78.912 241.758 78.912C242.388 78.912 242.91 78.768 243.326 78.48C243.753 78.1813 244.052 77.7867 244.222 77.296H245.79C245.556 78.1387 245.086 78.8267 244.382 79.36C243.678 79.8827 242.804 80.144 241.758 80.144C240.926 80.144 240.18 79.9573 239.518 79.584C238.868 79.2107 238.356 78.6827 237.982 78C237.609 77.3067 237.422 76.5067 237.422 75.6C237.422 74.6933 237.604 73.8987 237.966 73.216C238.329 72.5333 238.836 72.0107 239.486 71.648C240.148 71.2747 240.905 71.088 241.758 71.088C242.59 71.088 243.326 71.2693 243.966 71.632C244.606 71.9947 245.097 72.496 245.438 73.136C245.79 73.7653 245.966 74.48 245.966 75.28ZM244.462 74.976C244.462 74.4213 244.34 73.9467 244.094 73.552C243.849 73.1467 243.513 72.8427 243.086 72.64C242.67 72.4267 242.206 72.32 241.694 72.32C240.958 72.32 240.329 72.5547 239.806 73.024C239.294 73.4933 239.001 74.144 238.926 74.976H244.462ZM250.992 80.144C250.32 80.144 249.718 80.032 249.184 79.808C248.651 79.5733 248.23 79.2533 247.92 78.848C247.611 78.432 247.44 77.9573 247.408 77.424H248.912C248.955 77.8613 249.158 78.2187 249.52 78.496C249.894 78.7733 250.379 78.912 250.976 78.912C251.531 78.912 251.968 78.7893 252.288 78.544C252.608 78.2987 252.768 77.9893 252.768 77.616C252.768 77.232 252.598 76.9493 252.256 76.768C251.915 76.576 251.387 76.3893 250.672 76.208C250.022 76.0373 249.488 75.8667 249.072 75.696C248.667 75.5147 248.315 75.2533 248.016 74.912C247.728 74.56 247.584 74.1013 247.584 73.536C247.584 73.088 247.718 72.6773 247.984 72.304C248.251 71.9307 248.63 71.6373 249.12 71.424C249.611 71.2 250.171 71.088 250.8 71.088C251.771 71.088 252.555 71.3333 253.152 71.824C253.75 72.3147 254.07 72.9867 254.112 73.84H252.656C252.624 73.3813 252.438 73.0133 252.096 72.736C251.766 72.4587 251.318 72.32 250.752 72.32C250.23 72.32 249.814 72.432 249.504 72.656C249.195 72.88 249.04 73.1733 249.04 73.536C249.04 73.824 249.131 74.064 249.312 74.256C249.504 74.4373 249.739 74.5867 250.016 74.704C250.304 74.8107 250.699 74.9333 251.2 75.072C251.83 75.2427 252.342 75.4133 252.736 75.584C253.131 75.744 253.467 75.9893 253.744 76.32C254.032 76.6507 254.182 77.0827 254.192 77.616C254.192 78.096 254.059 78.528 253.792 78.912C253.526 79.296 253.147 79.6 252.656 79.824C252.176 80.0373 251.622 80.144 250.992 80.144ZM264.248 75.28C264.248 75.5573 264.232 75.8507 264.2 76.16H257.192C257.245 77.024 257.538 77.7013 258.072 78.192C258.616 78.672 259.272 78.912 260.04 78.912C260.669 78.912 261.192 78.768 261.608 78.48C262.034 78.1813 262.333 77.7867 262.504 77.296H264.072C263.837 78.1387 263.368 78.8267 262.664 79.36C261.96 79.8827 261.085 80.144 260.04 80.144C259.208 80.144 258.461 79.9573 257.8 79.584C257.149 79.2107 256.637 78.6827 256.264 78C255.89 77.3067 255.704 76.5067 255.704 75.6C255.704 74.6933 255.885 73.8987 256.248 73.216C256.61 72.5333 257.117 72.0107 257.768 71.648C258.429 71.2747 259.186 71.088 260.04 71.088C260.872 71.088 261.608 71.2693 262.248 71.632C262.888 71.9947 263.378 72.496 263.72 73.136C264.072 73.7653 264.248 74.48 264.248 75.28ZM262.744 74.976C262.744 74.4213 262.621 73.9467 262.376 73.552C262.13 73.1467 261.794 72.8427 261.368 72.64C260.952 72.4267 260.488 72.32 259.976 72.32C259.24 72.32 258.61 72.5547 258.088 73.024C257.576 73.4933 257.282 74.144 257.208 74.976H262.744ZM267.626 72.656C267.882 72.1547 268.244 71.7653 268.714 71.488C269.194 71.2107 269.775 71.072 270.458 71.072V72.576H270.074C268.442 72.576 267.626 73.4613 267.626 75.232V80H266.17V71.232H267.626V72.656ZM279.914 71.232V80H278.458V78.704C278.181 79.152 277.792 79.504 277.29 79.76C276.8 80.0053 276.256 80.128 275.658 80.128C274.976 80.128 274.362 79.9893 273.818 79.712C273.274 79.424 272.842 78.9973 272.522 78.432C272.213 77.8667 272.058 77.1787 272.058 76.368V71.232H273.498V76.176C273.498 77.04 273.717 77.7067 274.154 78.176C274.592 78.6347 275.189 78.864 275.946 78.864C276.725 78.864 277.338 78.624 277.786 78.144C278.234 77.664 278.458 76.9653 278.458 76.048V71.232H279.914ZM286.645 71.072C287.711 71.072 288.575 71.3973 289.237 72.048C289.898 72.688 290.229 73.616 290.229 74.832V80H288.789V75.04C288.789 74.1653 288.57 73.4987 288.133 73.04C287.695 72.5707 287.098 72.336 286.341 72.336C285.573 72.336 284.959 72.576 284.501 73.056C284.053 73.536 283.829 74.2347 283.829 75.152V80H282.373V71.232H283.829V72.48C284.117 72.032 284.506 71.6853 284.997 71.44C285.498 71.1947 286.047 71.072 286.645 71.072ZM294.383 72.432V77.6C294.383 78.0267 294.474 78.3307 294.655 78.512C294.836 78.6827 295.151 78.768 295.599 78.768H296.671V80H295.359C294.548 80 293.94 79.8133 293.535 79.44C293.13 79.0667 292.927 78.4533 292.927 77.6V72.432H291.791V71.232H292.927V69.024H294.383V71.232H296.671V72.432H294.383ZM310.477 71.232V80H309.021V78.704C308.743 79.152 308.354 79.504 307.853 79.76C307.362 80.0053 306.818 80.128 306.221 80.128C305.538 80.128 304.925 79.9893 304.381 79.712C303.837 79.424 303.405 78.9973 303.085 78.432C302.775 77.8667 302.621 77.1787 302.621 76.368V71.232H304.061V76.176C304.061 77.04 304.279 77.7067 304.717 78.176C305.154 78.6347 305.751 78.864 306.509 78.864C307.287 78.864 307.901 78.624 308.349 78.144C308.797 77.664 309.021 76.9653 309.021 76.048V71.232H310.477ZM314.391 68.16V80H312.935V68.16H314.391ZM318.329 68.16V80H316.873V68.16H318.329ZM320.266 75.584C320.266 74.688 320.447 73.904 320.81 73.232C321.173 72.5493 321.669 72.0213 322.298 71.648C322.938 71.2747 323.647 71.088 324.426 71.088C325.194 71.088 325.861 71.2533 326.426 71.584C326.991 71.9147 327.413 72.3307 327.69 72.832V71.232H329.162V80H327.69V78.368C327.402 78.88 326.97 79.3067 326.394 79.648C325.829 79.9787 325.167 80.144 324.41 80.144C323.631 80.144 322.927 79.952 322.298 79.568C321.669 79.184 321.173 78.6453 320.81 77.952C320.447 77.2587 320.266 76.4693 320.266 75.584ZM327.69 75.6C327.69 74.9387 327.557 74.3627 327.29 73.872C327.023 73.3813 326.661 73.008 326.202 72.752C325.754 72.4853 325.258 72.352 324.714 72.352C324.17 72.352 323.674 72.48 323.226 72.736C322.778 72.992 322.421 73.3653 322.154 73.856C321.887 74.3467 321.754 74.9227 321.754 75.584C321.754 76.256 321.887 76.8427 322.154 77.344C322.421 77.8347 322.778 78.2133 323.226 78.48C323.674 78.736 324.17 78.864 324.714 78.864C325.258 78.864 325.754 78.736 326.202 78.48C326.661 78.2133 327.023 77.8347 327.29 77.344C327.557 76.8427 327.69 76.2613 327.69 75.6ZM342.167 71.072C342.849 71.072 343.457 71.216 343.991 71.504C344.524 71.7813 344.945 72.2027 345.255 72.768C345.564 73.3333 345.719 74.0213 345.719 74.832V80H344.279V75.04C344.279 74.1653 344.06 73.4987 343.623 73.04C343.196 72.5707 342.615 72.336 341.879 72.336C341.121 72.336 340.519 72.5813 340.071 73.072C339.623 73.552 339.399 74.2507 339.399 75.168V80H337.959V75.04C337.959 74.1653 337.74 73.4987 337.303 73.04C336.876 72.5707 336.295 72.336 335.559 72.336C334.801 72.336 334.199 72.5813 333.751 73.072C333.303 73.552 333.079 74.2507 333.079 75.168V80H331.623V71.232H333.079V72.496C333.367 72.0373 333.751 71.6853 334.231 71.44C334.721 71.1947 335.26 71.072 335.847 71.072C336.583 71.072 337.233 71.2373 337.799 71.568C338.364 71.8987 338.785 72.384 339.063 73.024C339.308 72.4053 339.713 71.9253 340.279 71.584C340.844 71.2427 341.473 71.072 342.167 71.072ZM347.563 75.6C347.563 74.6933 347.744 73.904 348.107 73.232C348.47 72.5493 348.971 72.0213 349.611 71.648C350.262 71.2747 351.003 71.088 351.835 71.088C352.912 71.088 353.798 71.3493 354.491 71.872C355.195 72.3947 355.659 73.12 355.883 74.048H354.315C354.166 73.5147 353.872 73.0933 353.435 72.784C353.008 72.4747 352.475 72.32 351.835 72.32C351.003 72.32 350.331 72.608 349.819 73.184C349.307 73.7493 349.051 74.5547 349.051 75.6C349.051 76.656 349.307 77.472 349.819 78.048C350.331 78.624 351.003 78.912 351.835 78.912C352.475 78.912 353.008 78.7627 353.435 78.464C353.862 78.1653 354.155 77.7387 354.315 77.184H355.883C355.648 78.08 355.179 78.8 354.475 79.344C353.771 79.8773 352.891 80.144 351.835 80.144C351.003 80.144 350.262 79.9573 349.611 79.584C348.971 79.2107 348.47 78.6827 348.107 78C347.744 77.3173 347.563 76.5173 347.563 75.6ZM361.65 80.144C360.828 80.144 360.082 79.9573 359.41 79.584C358.748 79.2107 358.226 78.6827 357.842 78C357.468 77.3067 357.282 76.5067 357.282 75.6C357.282 74.704 357.474 73.9147 357.858 73.232C358.252 72.5387 358.786 72.0107 359.458 71.648C360.13 71.2747 360.882 71.088 361.714 71.088C362.546 71.088 363.298 71.2747 363.97 71.648C364.642 72.0107 365.17 72.5333 365.554 73.216C365.948 73.8987 366.146 74.6933 366.146 75.6C366.146 76.5067 365.943 77.3067 365.538 78C365.143 78.6827 364.604 79.2107 363.922 79.584C363.239 79.9573 362.482 80.144 361.65 80.144ZM361.65 78.864C362.172 78.864 362.663 78.7413 363.122 78.496C363.58 78.2507 363.948 77.8827 364.226 77.392C364.514 76.9013 364.658 76.304 364.658 75.6C364.658 74.896 364.519 74.2987 364.242 73.808C363.964 73.3173 363.602 72.9547 363.154 72.72C362.706 72.4747 362.22 72.352 361.698 72.352C361.164 72.352 360.674 72.4747 360.226 72.72C359.788 72.9547 359.436 73.3173 359.17 73.808C358.903 74.2987 358.77 74.896 358.77 75.6C358.77 76.3147 358.898 76.9173 359.154 77.408C359.42 77.8987 359.772 78.2667 360.21 78.512C360.647 78.7467 361.127 78.864 361.65 78.864ZM24.232 99.28C24.232 99.5573 24.216 99.8507 24.184 100.16H17.176C17.2293 101.024 17.5227 101.701 18.056 102.192C18.6 102.672 19.256 102.912 20.024 102.912C20.6533 102.912 21.176 102.768 21.592 102.48C22.0187 102.181 22.3173 101.787 22.488 101.296H24.056C23.8213 102.139 23.352 102.827 22.648 103.36C21.944 103.883 21.0693 104.144 20.024 104.144C19.192 104.144 18.4453 103.957 17.784 103.584C17.1333 103.211 16.6213 102.683 16.248 102C15.8747 101.307 15.688 100.507 15.688 99.6C15.688 98.6933 15.8693 97.8987 16.232 97.216C16.5947 96.5333 17.1013 96.0107 17.752 95.648C18.4133 95.2747 19.1707 95.088 20.024 95.088C20.856 95.088 21.592 95.2693 22.232 95.632C22.872 95.9947 23.3627 96.496 23.704 97.136C24.056 97.7653 24.232 98.48 24.232 99.28ZM22.728 98.976C22.728 98.4213 22.6053 97.9467 22.36 97.552C22.1147 97.1467 21.7787 96.8427 21.352 96.64C20.936 96.4267 20.472 96.32 19.96 96.32C19.224 96.32 18.5947 96.5547 18.072 97.024C17.56 97.4933 17.2667 98.144 17.192 98.976H22.728ZM29.2579 104.144C28.5859 104.144 27.9832 104.032 27.4499 103.808C26.9165 103.573 26.4952 103.253 26.1859 102.848C25.8765 102.432 25.7059 101.957 25.6739 101.424H27.1779C27.2205 101.861 27.4232 102.219 27.7859 102.496C28.1592 102.773 28.6445 102.912 29.2419 102.912C29.7965 102.912 30.2339 102.789 30.5539 102.544C30.8739 102.299 31.0339 101.989 31.0339 101.616C31.0339 101.232 30.8632 100.949 30.5219 100.768C30.1805 100.576 29.6525 100.389 28.9379 100.208C28.2872 100.037 27.7539 99.8667 27.3379 99.696C26.9325 99.5147 26.5805 99.2533 26.2819 98.912C25.9939 98.56 25.8499 98.1013 25.8499 97.536C25.8499 97.088 25.9832 96.6773 26.2499 96.304C26.5165 95.9307 26.8952 95.6373 27.3859 95.424C27.8765 95.2 28.4365 95.088 29.0659 95.088C30.0365 95.088 30.8205 95.3333 31.4179 95.824C32.0152 96.3147 32.3352 96.9867 32.3779 97.84H30.9219C30.8899 97.3813 30.7032 97.0133 30.3619 96.736C30.0312 96.4587 29.5832 96.32 29.0179 96.32C28.4952 96.32 28.0792 96.432 27.7699 96.656C27.4605 96.88 27.3059 97.1733 27.3059 97.536C27.3059 97.824 27.3965 98.064 27.5779 98.256C27.7699 98.4373 28.0045 98.5867 28.2819 98.704C28.5699 98.8107 28.9645 98.9333 29.4659 99.072C30.0952 99.2427 30.6072 99.4133 31.0019 99.584C31.3965 99.744 31.7325 99.9893 32.0099 100.32C32.2979 100.651 32.4472 101.083 32.4579 101.616C32.4579 102.096 32.3245 102.528 32.0579 102.912C31.7912 103.296 31.4125 103.6 30.9219 103.824C30.4419 104.037 29.8872 104.144 29.2579 104.144ZM36.2893 96.432V101.6C36.2893 102.027 36.3799 102.331 36.5613 102.512C36.7426 102.683 37.0573 102.768 37.5052 102.768H38.5773V104H37.2653C36.4546 104 35.8466 103.813 35.4413 103.44C35.0359 103.067 34.8333 102.453 34.8333 101.6V96.432H33.6973V95.232H34.8333V93.024H36.2893V95.232H38.5773V96.432H36.2893ZM47.711 104.144C47.039 104.144 46.4363 104.032 45.903 103.808C45.3697 103.573 44.9483 103.253 44.639 102.848C44.3297 102.432 44.159 101.957 44.127 101.424H45.631C45.6737 101.861 45.8763 102.219 46.239 102.496C46.6123 102.773 47.0977 102.912 47.695 102.912C48.2497 102.912 48.687 102.789 49.007 102.544C49.327 102.299 49.487 101.989 49.487 101.616C49.487 101.232 49.3163 100.949 48.975 100.768C48.6337 100.576 48.1057 100.389 47.391 100.208C46.7403 100.037 46.207 99.8667 45.791 99.696C45.3857 99.5147 45.0337 99.2533 44.735 98.912C44.447 98.56 44.303 98.1013 44.303 97.536C44.303 97.088 44.4363 96.6773 44.703 96.304C44.9697 95.9307 45.3483 95.6373 45.839 95.424C46.3297 95.2 46.8897 95.088 47.519 95.088C48.4897 95.088 49.2737 95.3333 49.871 95.824C50.4683 96.3147 50.7883 96.9867 50.831 97.84H49.375C49.343 97.3813 49.1563 97.0133 48.815 96.736C48.4843 96.4587 48.0363 96.32 47.471 96.32C46.9483 96.32 46.5323 96.432 46.223 96.656C45.9137 96.88 45.759 97.1733 45.759 97.536C45.759 97.824 45.8497 98.064 46.031 98.256C46.223 98.4373 46.4577 98.5867 46.735 98.704C47.023 98.8107 47.4177 98.9333 47.919 99.072C48.5483 99.2427 49.0603 99.4133 49.455 99.584C49.8497 99.744 50.1857 99.9893 50.463 100.32C50.751 100.651 50.9003 101.083 50.911 101.616C50.911 102.096 50.7777 102.528 50.511 102.912C50.2443 103.296 49.8657 103.6 49.375 103.824C48.895 104.037 48.3403 104.144 47.711 104.144ZM53.7184 93.808C53.441 93.808 53.2064 93.712 53.0144 93.52C52.8224 93.328 52.7264 93.0933 52.7264 92.816C52.7264 92.5387 52.8224 92.304 53.0144 92.112C53.2064 91.92 53.441 91.824 53.7184 91.824C53.985 91.824 54.209 91.92 54.3904 92.112C54.5824 92.304 54.6784 92.5387 54.6784 92.816C54.6784 93.0933 54.5824 93.328 54.3904 93.52C54.209 93.712 53.985 93.808 53.7184 93.808ZM54.4224 95.232V104H52.9664V95.232H54.4224ZM58.6799 96.432V101.6C58.6799 102.027 58.7705 102.331 58.9519 102.512C59.1332 102.683 59.4479 102.768 59.8959 102.768H60.9679V104H59.6559C58.8452 104 58.2372 103.813 57.8319 103.44C57.4265 103.067 57.2239 102.453 57.2239 101.6V96.432H56.0879V95.232H57.2239V93.024H58.6799V95.232H60.9679V96.432H58.6799ZM66.4536 99.584C66.4536 98.688 66.635 97.904 66.9976 97.232C67.3603 96.5493 67.8563 96.0213 68.4856 95.648C69.1256 95.2747 69.835 95.088 70.6136 95.088C71.3816 95.088 72.0483 95.2533 72.6136 95.584C73.179 95.9147 73.6003 96.3307 73.8776 96.832V95.232H75.3496V104H73.8776V102.368C73.5896 102.88 73.1576 103.307 72.5816 103.648C72.0163 103.979 71.355 104.144 70.5976 104.144C69.819 104.144 69.115 103.952 68.4856 103.568C67.8563 103.184 67.3603 102.645 66.9976 101.952C66.635 101.259 66.4536 100.469 66.4536 99.584ZM73.8776 99.6C73.8776 98.9387 73.7443 98.3627 73.4776 97.872C73.211 97.3813 72.8483 97.008 72.3896 96.752C71.9416 96.4853 71.4456 96.352 70.9016 96.352C70.3576 96.352 69.8616 96.48 69.4136 96.736C68.9656 96.992 68.6083 97.3653 68.3416 97.856C68.075 98.3467 67.9416 98.9227 67.9416 99.584C67.9416 100.256 68.075 100.843 68.3416 101.344C68.6083 101.835 68.9656 102.213 69.4136 102.48C69.8616 102.736 70.3576 102.864 70.9016 102.864C71.4456 102.864 71.9416 102.736 72.3896 102.48C72.8483 102.213 73.211 101.835 73.4776 101.344C73.7443 100.843 73.8776 100.261 73.8776 99.6ZM79.2661 92.16V104H77.8101V92.16H79.2661ZM82.4996 93.808C82.2223 93.808 81.9876 93.712 81.7956 93.52C81.6036 93.328 81.5076 93.0933 81.5076 92.816C81.5076 92.5387 81.6036 92.304 81.7956 92.112C81.9876 91.92 82.2223 91.824 82.4996 91.824C82.7663 91.824 82.9903 91.92 83.1716 92.112C83.3636 92.304 83.4596 92.5387 83.4596 92.816C83.4596 93.0933 83.3636 93.328 83.1716 93.52C82.9903 93.712 82.7663 93.808 82.4996 93.808ZM83.2036 95.232V104H81.7476V95.232H83.2036ZM85.1411 99.584C85.1411 98.688 85.3225 97.904 85.6851 97.232C86.0478 96.5493 86.5438 96.0213 87.1731 95.648C87.8131 95.2747 88.5278 95.088 89.3171 95.088C90.0745 95.088 90.7358 95.2587 91.3011 95.6C91.8771 95.9307 92.2985 96.3413 92.5651 96.832V95.232H94.0371V108.16H92.5651V102.384C92.2878 102.875 91.8611 103.291 91.2851 103.632C90.7091 103.973 90.0371 104.144 89.2691 104.144C88.5011 104.144 87.8025 103.952 87.1731 103.568C86.5438 103.184 86.0478 102.645 85.6851 101.952C85.3225 101.259 85.1411 100.469 85.1411 99.584ZM92.5651 99.6C92.5651 98.9387 92.4318 98.3627 92.1651 97.872C91.8985 97.3813 91.5358 97.008 91.0771 96.752C90.6291 96.4853 90.1331 96.352 89.5891 96.352C89.0451 96.352 88.5491 96.48 88.1011 96.736C87.6531 96.992 87.2958 97.3653 87.0291 97.856C86.7625 98.3467 86.6291 98.9227 86.6291 99.584C86.6291 100.256 86.7625 100.843 87.0291 101.344C87.2958 101.835 87.6531 102.213 88.1011 102.48C88.5491 102.736 89.0451 102.864 89.5891 102.864C90.1331 102.864 90.6291 102.736 91.0771 102.48C91.5358 102.213 91.8985 101.835 92.1651 101.344C92.4318 100.843 92.5651 100.261 92.5651 99.6ZM104.274 95.232V104H102.818V102.704C102.54 103.152 102.151 103.504 101.65 103.76C101.159 104.005 100.615 104.128 100.018 104.128C99.335 104.128 98.7216 103.989 98.1776 103.712C97.6336 103.424 97.2016 102.997 96.8816 102.432C96.5723 101.867 96.4176 101.179 96.4176 100.368V95.232H97.8576V100.176C97.8576 101.04 98.0763 101.707 98.5136 102.176C98.951 102.635 99.5483 102.864 100.306 102.864C101.084 102.864 101.698 102.624 102.146 102.144C102.594 101.664 102.818 100.965 102.818 100.048V95.232H104.274ZM106.188 99.584C106.188 98.688 106.369 97.904 106.732 97.232C107.095 96.5493 107.591 96.0213 108.22 95.648C108.86 95.2747 109.569 95.088 110.348 95.088C111.116 95.088 111.783 95.2533 112.348 95.584C112.913 95.9147 113.335 96.3307 113.612 96.832V95.232H115.084V104H113.612V102.368C113.324 102.88 112.892 103.307 112.316 103.648C111.751 103.979 111.089 104.144 110.332 104.144C109.553 104.144 108.849 103.952 108.22 103.568C107.591 103.184 107.095 102.645 106.732 101.952C106.369 101.259 106.188 100.469 106.188 99.584ZM113.612 99.6C113.612 98.9387 113.479 98.3627 113.212 97.872C112.945 97.3813 112.583 97.008 112.124 96.752C111.676 96.4853 111.18 96.352 110.636 96.352C110.092 96.352 109.596 96.48 109.148 96.736C108.7 96.992 108.343 97.3653 108.076 97.856C107.809 98.3467 107.676 98.9227 107.676 99.584C107.676 100.256 107.809 100.843 108.076 101.344C108.343 101.835 108.7 102.213 109.148 102.48C109.596 102.736 110.092 102.864 110.636 102.864C111.18 102.864 111.676 102.736 112.124 102.48C112.583 102.213 112.945 101.835 113.212 101.344C113.479 100.843 113.612 100.261 113.612 99.6ZM121.266 99.584C121.266 98.688 121.447 97.904 121.81 97.232C122.173 96.5493 122.669 96.0213 123.298 95.648C123.938 95.2747 124.653 95.088 125.442 95.088C126.125 95.088 126.759 95.248 127.346 95.568C127.933 95.8773 128.381 96.288 128.69 96.8V92.16H130.162V104H128.69V102.352C128.402 102.875 127.975 103.307 127.41 103.648C126.845 103.979 126.183 104.144 125.426 104.144C124.647 104.144 123.938 103.952 123.298 103.568C122.669 103.184 122.173 102.645 121.81 101.952C121.447 101.259 121.266 100.469 121.266 99.584ZM128.69 99.6C128.69 98.9387 128.557 98.3627 128.29 97.872C128.023 97.3813 127.661 97.008 127.202 96.752C126.754 96.4853 126.258 96.352 125.714 96.352C125.17 96.352 124.674 96.48 124.226 96.736C123.778 96.992 123.421 97.3653 123.154 97.856C122.887 98.3467 122.754 98.9227 122.754 99.584C122.754 100.256 122.887 100.843 123.154 101.344C123.421 101.835 123.778 102.213 124.226 102.48C124.674 102.736 125.17 102.864 125.714 102.864C126.258 102.864 126.754 102.736 127.202 102.48C127.661 102.213 128.023 101.835 128.29 101.344C128.557 100.843 128.69 100.261 128.69 99.6ZM136.447 104.144C135.625 104.144 134.879 103.957 134.207 103.584C133.545 103.211 133.023 102.683 132.639 102C132.265 101.307 132.079 100.507 132.079 99.6C132.079 98.704 132.271 97.9147 132.655 97.232C133.049 96.5387 133.583 96.0107 134.255 95.648C134.927 95.2747 135.679 95.088 136.511 95.088C137.343 95.088 138.095 95.2747 138.767 95.648C139.439 96.0107 139.967 96.5333 140.351 97.216C140.745 97.8987 140.943 98.6933 140.943 99.6C140.943 100.507 140.74 101.307 140.335 102C139.94 102.683 139.401 103.211 138.719 103.584C138.036 103.957 137.279 104.144 136.447 104.144ZM136.447 102.864C136.969 102.864 137.46 102.741 137.919 102.496C138.377 102.251 138.745 101.883 139.023 101.392C139.311 100.901 139.455 100.304 139.455 99.6C139.455 98.896 139.316 98.2987 139.039 97.808C138.761 97.3173 138.399 96.9547 137.951 96.72C137.503 96.4747 137.017 96.352 136.495 96.352C135.961 96.352 135.471 96.4747 135.023 96.72C134.585 96.9547 134.233 97.3173 133.967 97.808C133.7 98.2987 133.567 98.896 133.567 99.6C133.567 100.315 133.695 100.917 133.951 101.408C134.217 101.899 134.569 102.267 135.007 102.512C135.444 102.747 135.924 102.864 136.447 102.864ZM144.313 92.16V104H142.857V92.16H144.313ZM150.619 104.144C149.797 104.144 149.051 103.957 148.379 103.584C147.717 103.211 147.195 102.683 146.811 102C146.437 101.307 146.251 100.507 146.251 99.6C146.251 98.704 146.443 97.9147 146.827 97.232C147.221 96.5387 147.755 96.0107 148.427 95.648C149.099 95.2747 149.851 95.088 150.683 95.088C151.515 95.088 152.267 95.2747 152.939 95.648C153.611 96.0107 154.139 96.5333 154.523 97.216C154.917 97.8987 155.115 98.6933 155.115 99.6C155.115 100.507 154.912 101.307 154.507 102C154.112 102.683 153.573 103.211 152.891 103.584C152.208 103.957 151.451 104.144 150.619 104.144ZM150.619 102.864C151.141 102.864 151.632 102.741 152.091 102.496C152.549 102.251 152.917 101.883 153.195 101.392C153.483 100.901 153.627 100.304 153.627 99.6C153.627 98.896 153.488 98.2987 153.211 97.808C152.933 97.3173 152.571 96.9547 152.123 96.72C151.675 96.4747 151.189 96.352 150.667 96.352C150.133 96.352 149.643 96.4747 149.195 96.72C148.757 96.9547 148.405 97.3173 148.139 97.808C147.872 98.2987 147.739 98.896 147.739 99.6C147.739 100.315 147.867 100.917 148.123 101.408C148.389 101.899 148.741 102.267 149.179 102.512C149.616 102.747 150.096 102.864 150.619 102.864ZM162.751 92.848V104H161.295V92.848H162.751ZM164.688 99.584C164.688 98.688 164.869 97.904 165.232 97.232C165.595 96.5493 166.091 96.0213 166.72 95.648C167.36 95.2747 168.075 95.088 168.864 95.088C169.547 95.088 170.181 95.248 170.768 95.568C171.355 95.8773 171.803 96.288 172.112 96.8V92.16H173.584V104H172.112V102.352C171.824 102.875 171.397 103.307 170.832 103.648C170.267 103.979 169.605 104.144 168.848 104.144C168.069 104.144 167.36 103.952 166.72 103.568C166.091 103.184 165.595 102.645 165.232 101.952C164.869 101.259 164.688 100.469 164.688 99.584ZM172.112 99.6C172.112 98.9387 171.979 98.3627 171.712 97.872C171.445 97.3813 171.083 97.008 170.624 96.752C170.176 96.4853 169.68 96.352 169.136 96.352C168.592 96.352 168.096 96.48 167.648 96.736C167.2 96.992 166.843 97.3653 166.576 97.856C166.309 98.3467 166.176 98.9227 166.176 99.584C166.176 100.256 166.309 100.843 166.576 101.344C166.843 101.835 167.2 102.213 167.648 102.48C168.096 102.736 168.592 102.864 169.136 102.864C169.68 102.864 170.176 102.736 170.624 102.48C171.083 102.213 171.445 101.835 171.712 101.344C171.979 100.843 172.112 100.261 172.112 99.6ZM184.045 99.28C184.045 99.5573 184.029 99.8507 183.997 100.16H176.989C177.042 101.024 177.335 101.701 177.869 102.192C178.413 102.672 179.069 102.912 179.837 102.912C180.466 102.912 180.989 102.768 181.405 102.48C181.831 102.181 182.13 101.787 182.301 101.296H183.869C183.634 102.139 183.165 102.827 182.461 103.36C181.757 103.883 180.882 104.144 179.837 104.144C179.005 104.144 178.258 103.957 177.597 103.584C176.946 103.211 176.434 102.683 176.061 102C175.687 101.307 175.501 100.507 175.501 99.6C175.501 98.6933 175.682 97.8987 176.045 97.216C176.407 96.5333 176.914 96.0107 177.565 95.648C178.226 95.2747 178.983 95.088 179.837 95.088C180.669 95.088 181.405 95.2693 182.045 95.632C182.685 95.9947 183.175 96.496 183.517 97.136C183.869 97.7653 184.045 98.48 184.045 99.28ZM182.541 98.976C182.541 98.4213 182.418 97.9467 182.173 97.552C181.927 97.1467 181.591 96.8427 181.165 96.64C180.749 96.4267 180.285 96.32 179.773 96.32C179.037 96.32 178.407 96.5547 177.885 97.024C177.373 97.4933 177.079 98.144 177.005 98.976H182.541ZM185.422 99.584C185.422 98.688 185.604 97.904 185.966 97.232C186.329 96.5493 186.825 96.0213 187.454 95.648C188.094 95.2747 188.804 95.088 189.582 95.088C190.35 95.088 191.017 95.2533 191.582 95.584C192.148 95.9147 192.569 96.3307 192.846 96.832V95.232H194.318V104H192.846V102.368C192.558 102.88 192.126 103.307 191.55 103.648C190.985 103.979 190.324 104.144 189.566 104.144C188.788 104.144 188.084 103.952 187.454 103.568C186.825 103.184 186.329 102.645 185.966 101.952C185.604 101.259 185.422 100.469 185.422 99.584ZM192.846 99.6C192.846 98.9387 192.713 98.3627 192.446 97.872C192.18 97.3813 191.817 97.008 191.358 96.752C190.91 96.4853 190.414 96.352 189.87 96.352C189.326 96.352 188.83 96.48 188.382 96.736C187.934 96.992 187.577 97.3653 187.31 97.856C187.044 98.3467 186.91 98.9227 186.91 99.584C186.91 100.256 187.044 100.843 187.31 101.344C187.577 101.835 187.934 102.213 188.382 102.48C188.83 102.736 189.326 102.864 189.87 102.864C190.414 102.864 190.91 102.736 191.358 102.48C191.817 102.213 192.18 101.835 192.446 101.344C192.713 100.843 192.846 100.261 192.846 99.6ZM207.323 95.072C208.006 95.072 208.614 95.216 209.147 95.504C209.68 95.7813 210.102 96.2027 210.411 96.768C210.72 97.3333 210.875 98.0213 210.875 98.832V104H209.435V99.04C209.435 98.1653 209.216 97.4987 208.779 97.04C208.352 96.5707 207.771 96.336 207.035 96.336C206.278 96.336 205.675 96.5813 205.227 97.072C204.779 97.552 204.555 98.2507 204.555 99.168V104H203.115V99.04C203.115 98.1653 202.896 97.4987 202.459 97.04C202.032 96.5707 201.451 96.336 200.715 96.336C199.958 96.336 199.355 96.5813 198.907 97.072C198.459 97.552 198.235 98.2507 198.235 99.168V104H196.779V95.232H198.235V96.496C198.523 96.0373 198.907 95.6853 199.387 95.44C199.878 95.1947 200.416 95.072 201.003 95.072C201.739 95.072 202.39 95.2373 202.955 95.568C203.52 95.8987 203.942 96.384 204.219 97.024C204.464 96.4053 204.87 95.9253 205.435 95.584C206 95.2427 206.63 95.072 207.323 95.072ZM221.263 99.28C221.263 99.5573 221.247 99.8507 221.215 100.16H214.207C214.261 101.024 214.554 101.701 215.087 102.192C215.631 102.672 216.287 102.912 217.055 102.912C217.685 102.912 218.207 102.768 218.623 102.48C219.05 102.181 219.349 101.787 219.519 101.296H221.087C220.853 102.139 220.383 102.827 219.679 103.36C218.975 103.883 218.101 104.144 217.055 104.144C216.223 104.144 215.477 103.957 214.815 103.584C214.165 103.211 213.653 102.683 213.279 102C212.906 101.307 212.719 100.507 212.719 99.6C212.719 98.6933 212.901 97.8987 213.263 97.216C213.626 96.5333 214.133 96.0107 214.783 95.648C215.445 95.2747 216.202 95.088 217.055 95.088C217.887 95.088 218.623 95.2693 219.263 95.632C219.903 95.9947 220.394 96.496 220.735 97.136C221.087 97.7653 221.263 98.48 221.263 99.28ZM219.759 98.976C219.759 98.4213 219.637 97.9467 219.391 97.552C219.146 97.1467 218.81 96.8427 218.383 96.64C217.967 96.4267 217.503 96.32 216.991 96.32C216.255 96.32 215.626 96.5547 215.103 97.024C214.591 97.4933 214.298 98.144 214.223 98.976H219.759ZM224.961 96.432V101.6C224.961 102.027 225.052 102.331 225.233 102.512C225.414 102.683 225.729 102.768 226.177 102.768H227.249V104H225.937C225.126 104 224.518 103.813 224.113 103.44C223.708 103.067 223.505 102.453 223.505 101.6V96.432H222.369V95.232H223.505V93.024H224.961V95.232H227.249V96.432H224.961ZM243.823 95.072C244.506 95.072 245.114 95.216 245.647 95.504C246.18 95.7813 246.602 96.2027 246.911 96.768C247.22 97.3333 247.375 98.0213 247.375 98.832V104H245.935V99.04C245.935 98.1653 245.716 97.4987 245.279 97.04C244.852 96.5707 244.271 96.336 243.535 96.336C242.778 96.336 242.175 96.5813 241.727 97.072C241.279 97.552 241.055 98.2507 241.055 99.168V104H239.615V99.04C239.615 98.1653 239.396 97.4987 238.959 97.04C238.532 96.5707 237.951 96.336 237.215 96.336C236.458 96.336 235.855 96.5813 235.407 97.072C234.959 97.552 234.735 98.2507 234.735 99.168V104H233.279V95.232H234.735V96.496C235.023 96.0373 235.407 95.6853 235.887 95.44C236.378 95.1947 236.916 95.072 237.503 95.072C238.239 95.072 238.89 95.2373 239.455 95.568C240.02 95.8987 240.442 96.384 240.719 97.024C240.964 96.4053 241.37 95.9253 241.935 95.584C242.5 95.2427 243.13 95.072 243.823 95.072ZM250.515 93.808C250.238 93.808 250.003 93.712 249.811 93.52C249.619 93.328 249.523 93.0933 249.523 92.816C249.523 92.5387 249.619 92.304 249.811 92.112C250.003 91.92 250.238 91.824 250.515 91.824C250.782 91.824 251.006 91.92 251.187 92.112C251.379 92.304 251.475 92.5387 251.475 92.816C251.475 93.0933 251.379 93.328 251.187 93.52C251.006 93.712 250.782 93.808 250.515 93.808ZM251.219 95.232V104H249.763V95.232H251.219ZM257.973 95.072C259.039 95.072 259.903 95.3973 260.565 96.048C261.226 96.688 261.557 97.616 261.557 98.832V104H260.117V99.04C260.117 98.1653 259.898 97.4987 259.461 97.04C259.023 96.5707 258.426 96.336 257.669 96.336C256.901 96.336 256.287 96.576 255.829 97.056C255.381 97.536 255.157 98.2347 255.157 99.152V104H253.701V95.232H255.157V96.48C255.445 96.032 255.834 95.6853 256.325 95.44C256.826 95.1947 257.375 95.072 257.973 95.072ZM264.687 93.808C264.41 93.808 264.175 93.712 263.983 93.52C263.791 93.328 263.695 93.0933 263.695 92.816C263.695 92.5387 263.791 92.304 263.983 92.112C264.175 91.92 264.41 91.824 264.687 91.824C264.954 91.824 265.178 91.92 265.359 92.112C265.551 92.304 265.647 92.5387 265.647 92.816C265.647 93.0933 265.551 93.328 265.359 93.52C265.178 93.712 264.954 93.808 264.687 93.808ZM265.391 95.232V104H263.935V95.232H265.391ZM278.417 95.072C279.099 95.072 279.707 95.216 280.241 95.504C280.774 95.7813 281.195 96.2027 281.505 96.768C281.814 97.3333 281.969 98.0213 281.969 98.832V104H280.529V99.04C280.529 98.1653 280.31 97.4987 279.873 97.04C279.446 96.5707 278.865 96.336 278.129 96.336C277.371 96.336 276.769 96.5813 276.321 97.072C275.873 97.552 275.649 98.2507 275.649 99.168V104H274.209V99.04C274.209 98.1653 273.99 97.4987 273.553 97.04C273.126 96.5707 272.545 96.336 271.809 96.336C271.051 96.336 270.449 96.5813 270.001 97.072C269.553 97.552 269.329 98.2507 269.329 99.168V104H267.873V95.232H269.329V96.496C269.617 96.0373 270.001 95.6853 270.481 95.44C270.971 95.1947 271.51 95.072 272.097 95.072C272.833 95.072 273.483 95.2373 274.049 95.568C274.614 95.8987 275.035 96.384 275.313 97.024C275.558 96.4053 275.963 95.9253 276.529 95.584C277.094 95.2427 277.723 95.072 278.417 95.072ZM299.167 95.072C299.849 95.072 300.457 95.216 300.991 95.504C301.524 95.7813 301.945 96.2027 302.255 96.768C302.564 97.3333 302.719 98.0213 302.719 98.832V104H301.279V99.04C301.279 98.1653 301.06 97.4987 300.623 97.04C300.196 96.5707 299.615 96.336 298.879 96.336C298.121 96.336 297.519 96.5813 297.071 97.072C296.623 97.552 296.399 98.2507 296.399 99.168V104H294.959V99.04C294.959 98.1653 294.74 97.4987 294.303 97.04C293.876 96.5707 293.295 96.336 292.559 96.336C291.801 96.336 291.199 96.5813 290.751 97.072C290.303 97.552 290.079 98.2507 290.079 99.168V104H288.623V95.232H290.079V96.496C290.367 96.0373 290.751 95.6853 291.231 95.44C291.721 95.1947 292.26 95.072 292.847 95.072C293.583 95.072 294.233 95.2373 294.799 95.568C295.364 95.8987 295.785 96.384 296.063 97.024C296.308 96.4053 296.713 95.9253 297.279 95.584C297.844 95.2427 298.473 95.072 299.167 95.072ZM308.931 104.144C308.11 104.144 307.363 103.957 306.691 103.584C306.03 103.211 305.507 102.683 305.123 102C304.75 101.307 304.563 100.507 304.563 99.6C304.563 98.704 304.755 97.9147 305.139 97.232C305.534 96.5387 306.067 96.0107 306.739 95.648C307.411 95.2747 308.163 95.088 308.995 95.088C309.827 95.088 310.579 95.2747 311.251 95.648C311.923 96.0107 312.451 96.5333 312.835 97.216C313.23 97.8987 313.427 98.6933 313.427 99.6C313.427 100.507 313.224 101.307 312.819 102C312.424 102.683 311.886 103.211 311.203 103.584C310.52 103.957 309.763 104.144 308.931 104.144ZM308.931 102.864C309.454 102.864 309.944 102.741 310.403 102.496C310.862 102.251 311.23 101.883 311.507 101.392C311.795 100.901 311.939 100.304 311.939 99.6C311.939 98.896 311.8 98.2987 311.523 97.808C311.246 97.3173 310.883 96.9547 310.435 96.72C309.987 96.4747 309.502 96.352 308.979 96.352C308.446 96.352 307.955 96.4747 307.507 96.72C307.07 96.9547 306.718 97.3173 306.451 97.808C306.184 98.2987 306.051 98.896 306.051 99.6C306.051 100.315 306.179 100.917 306.435 101.408C306.702 101.899 307.054 102.267 307.491 102.512C307.928 102.747 308.408 102.864 308.931 102.864ZM316.797 92.16V104H315.341V92.16H316.797ZM320.735 92.16V104H319.279V92.16H320.735ZM323.968 93.808C323.691 93.808 323.456 93.712 323.264 93.52C323.072 93.328 322.976 93.0933 322.976 92.816C322.976 92.5387 323.072 92.304 323.264 92.112C323.456 91.92 323.691 91.824 323.968 91.824C324.235 91.824 324.459 91.92 324.64 92.112C324.832 92.304 324.928 92.5387 324.928 92.816C324.928 93.0933 324.832 93.328 324.64 93.52C324.459 93.712 324.235 93.808 323.968 93.808ZM324.672 95.232V104H323.216V95.232H324.672ZM328.93 96.432V101.6C328.93 102.027 329.021 102.331 329.202 102.512C329.383 102.683 329.698 102.768 330.146 102.768H331.218V104H329.906C329.095 104 328.487 103.813 328.082 103.44C327.677 103.067 327.474 102.453 327.474 101.6V96.432H326.338V95.232H327.474V93.024H328.93V95.232H331.218V96.432H328.93ZM341.52 95.072C342.586 95.072 343.45 95.3973 344.112 96.048C344.773 96.688 345.104 97.616 345.104 98.832V104H343.664V99.04C343.664 98.1653 343.445 97.4987 343.008 97.04C342.57 96.5707 341.973 96.336 341.216 96.336C340.448 96.336 339.834 96.576 339.376 97.056C338.928 97.536 338.704 98.2347 338.704 99.152V104H337.248V95.232H338.704V96.48C338.992 96.032 339.381 95.6853 339.872 95.44C340.373 95.1947 340.922 95.072 341.52 95.072ZM351.306 104.144C350.485 104.144 349.738 103.957 349.066 103.584C348.405 103.211 347.882 102.683 347.498 102C347.125 101.307 346.938 100.507 346.938 99.6C346.938 98.704 347.13 97.9147 347.514 97.232C347.909 96.5387 348.442 96.0107 349.114 95.648C349.786 95.2747 350.538 95.088 351.37 95.088C352.202 95.088 352.954 95.2747 353.626 95.648C354.298 96.0107 354.826 96.5333 355.21 97.216C355.605 97.8987 355.802 98.6933 355.802 99.6C355.802 100.507 355.599 101.307 355.194 102C354.799 102.683 354.261 103.211 353.578 103.584C352.895 103.957 352.138 104.144 351.306 104.144ZM351.306 102.864C351.829 102.864 352.319 102.741 352.778 102.496C353.237 102.251 353.605 101.883 353.882 101.392C354.17 100.901 354.314 100.304 354.314 99.6C354.314 98.896 354.175 98.2987 353.898 97.808C353.621 97.3173 353.258 96.9547 352.81 96.72C352.362 96.4747 351.877 96.352 351.354 96.352C350.821 96.352 350.33 96.4747 349.882 96.72C349.445 96.9547 349.093 97.3173 348.826 97.808C348.559 98.2987 348.426 98.896 348.426 99.6C348.426 100.315 348.554 100.917 348.81 101.408C349.077 101.899 349.429 102.267 349.866 102.512C350.303 102.747 350.783 102.864 351.306 102.864ZM361.988 95.072C363.055 95.072 363.919 95.3973 364.58 96.048C365.242 96.688 365.572 97.616 365.572 98.832V104H364.132V99.04C364.132 98.1653 363.914 97.4987 363.476 97.04C363.039 96.5707 362.442 96.336 361.684 96.336C360.916 96.336 360.303 96.576 359.844 97.056C359.396 97.536 359.172 98.2347 359.172 99.152V104H357.716V95.232H359.172V96.48C359.46 96.032 359.85 95.6853 360.34 95.44C360.842 95.1947 361.391 95.072 361.988 95.072ZM15.688 123.584C15.688 122.688 15.8693 121.904 16.232 121.232C16.5947 120.549 17.0907 120.021 17.72 119.648C18.36 119.275 19.0747 119.088 19.864 119.088C20.5467 119.088 21.1813 119.248 21.768 119.568C22.3547 119.877 22.8027 120.288 23.112 120.8V116.16H24.584V128H23.112V126.352C22.824 126.875 22.3973 127.307 21.832 127.648C21.2667 127.979 20.6053 128.144 19.848 128.144C19.0693 128.144 18.36 127.952 17.72 127.568C17.0907 127.184 16.5947 126.645 16.232 125.952C15.8693 125.259 15.688 124.469 15.688 123.584ZM23.112 123.6C23.112 122.939 22.9787 122.363 22.712 121.872C22.4453 121.381 22.0827 121.008 21.624 120.752C21.176 120.485 20.68 120.352 20.136 120.352C19.592 120.352 19.096 120.48 18.648 120.736C18.2 120.992 17.8427 121.365 17.576 121.856C17.3093 122.347 17.176 122.923 17.176 123.584C17.176 124.256 17.3093 124.843 17.576 125.344C17.8427 125.835 18.2 126.213 18.648 126.48C19.096 126.736 19.592 126.864 20.136 126.864C20.68 126.864 21.176 126.736 21.624 126.48C22.0827 126.213 22.4453 125.835 22.712 125.344C22.9787 124.843 23.112 124.261 23.112 123.6ZM35.0445 123.28C35.0445 123.557 35.0285 123.851 34.9965 124.16H27.9885C28.0418 125.024 28.3352 125.701 28.8685 126.192C29.4125 126.672 30.0685 126.912 30.8365 126.912C31.4658 126.912 31.9885 126.768 32.4045 126.48C32.8312 126.181 33.1298 125.787 33.3005 125.296H34.8685C34.6338 126.139 34.1645 126.827 33.4605 127.36C32.7565 127.883 31.8818 128.144 30.8365 128.144C30.0045 128.144 29.2578 127.957 28.5965 127.584C27.9458 127.211 27.4338 126.683 27.0605 126C26.6872 125.307 26.5005 124.507 26.5005 123.6C26.5005 122.693 26.6818 121.899 27.0445 121.216C27.4072 120.533 27.9138 120.011 28.5645 119.648C29.2258 119.275 29.9832 119.088 30.8365 119.088C31.6685 119.088 32.4045 119.269 33.0445 119.632C33.6845 119.995 34.1752 120.496 34.5165 121.136C34.8685 121.765 35.0445 122.48 35.0445 123.28ZM33.5405 122.976C33.5405 122.421 33.4178 121.947 33.1725 121.552C32.9272 121.147 32.5912 120.843 32.1645 120.64C31.7485 120.427 31.2845 120.32 30.7725 120.32C30.0365 120.32 29.4072 120.555 28.8845 121.024C28.3725 121.493 28.0792 122.144 28.0045 122.976H33.5405ZM40.0704 128.144C39.3984 128.144 38.7957 128.032 38.2624 127.808C37.729 127.573 37.3077 127.253 36.9984 126.848C36.689 126.432 36.5184 125.957 36.4864 125.424H37.9904C38.033 125.861 38.2357 126.219 38.5984 126.496C38.9717 126.773 39.457 126.912 40.0544 126.912C40.609 126.912 41.0464 126.789 41.3664 126.544C41.6864 126.299 41.8464 125.989 41.8464 125.616C41.8464 125.232 41.6757 124.949 41.3344 124.768C40.993 124.576 40.465 124.389 39.7504 124.208C39.0997 124.037 38.5664 123.867 38.1504 123.696C37.745 123.515 37.393 123.253 37.0944 122.912C36.8064 122.56 36.6624 122.101 36.6624 121.536C36.6624 121.088 36.7957 120.677 37.0624 120.304C37.329 119.931 37.7077 119.637 38.1984 119.424C38.689 119.2 39.249 119.088 39.8784 119.088C40.849 119.088 41.633 119.333 42.2304 119.824C42.8277 120.315 43.1477 120.987 43.1904 121.84H41.7344C41.7024 121.381 41.5157 121.013 41.1744 120.736C40.8437 120.459 40.3957 120.32 39.8304 120.32C39.3077 120.32 38.8917 120.432 38.5824 120.656C38.273 120.88 38.1184 121.173 38.1184 121.536C38.1184 121.824 38.209 122.064 38.3904 122.256C38.5824 122.437 38.817 122.587 39.0944 122.704C39.3824 122.811 39.777 122.933 40.2784 123.072C40.9077 123.243 41.4197 123.413 41.8144 123.584C42.209 123.744 42.545 123.989 42.8224 124.32C43.1104 124.651 43.2597 125.083 43.2704 125.616C43.2704 126.096 43.137 126.528 42.8704 126.912C42.6037 127.296 42.225 127.6 41.7344 127.824C41.2544 128.037 40.6997 128.144 40.0704 128.144ZM53.3258 123.28C53.3258 123.557 53.3098 123.851 53.2778 124.16H46.2698C46.3231 125.024 46.6164 125.701 47.1498 126.192C47.6938 126.672 48.3498 126.912 49.1178 126.912C49.7471 126.912 50.2698 126.768 50.6858 126.48C51.1124 126.181 51.4111 125.787 51.5818 125.296H53.1498C52.9151 126.139 52.4458 126.827 51.7418 127.36C51.0378 127.883 50.1631 128.144 49.1178 128.144C48.2858 128.144 47.5391 127.957 46.8778 127.584C46.2271 127.211 45.7151 126.683 45.3418 126C44.9684 125.307 44.7818 124.507 44.7818 123.6C44.7818 122.693 44.9631 121.899 45.3258 121.216C45.6884 120.533 46.1951 120.011 46.8458 119.648C47.5071 119.275 48.2644 119.088 49.1178 119.088C49.9498 119.088 50.6858 119.269 51.3258 119.632C51.9658 119.995 52.4564 120.496 52.7978 121.136C53.1498 121.765 53.3258 122.48 53.3258 123.28ZM51.8218 122.976C51.8218 122.421 51.6991 121.947 51.4538 121.552C51.2084 121.147 50.8724 120.843 50.4458 120.64C50.0298 120.427 49.5658 120.32 49.0538 120.32C48.3178 120.32 47.6884 120.555 47.1658 121.024C46.6538 121.493 46.3604 122.144 46.2858 122.976H51.8218ZM56.7036 120.656C56.9596 120.155 57.3223 119.765 57.7916 119.488C58.2716 119.211 58.853 119.072 59.5356 119.072V120.576H59.1516C57.5196 120.576 56.7036 121.461 56.7036 123.232V128H55.2476V119.232H56.7036V120.656ZM68.9924 119.232V128H67.5364V126.704C67.259 127.152 66.8697 127.504 66.3684 127.76C65.8777 128.005 65.3337 128.128 64.7364 128.128C64.0537 128.128 63.4404 127.989 62.8964 127.712C62.3524 127.424 61.9204 126.997 61.6004 126.432C61.291 125.867 61.1364 125.179 61.1364 124.368V119.232H62.5764V124.176C62.5764 125.04 62.795 125.707 63.2324 126.176C63.6697 126.635 64.267 126.864 65.0244 126.864C65.803 126.864 66.4164 126.624 66.8644 126.144C67.3124 125.664 67.5364 124.965 67.5364 124.048V119.232H68.9924ZM75.7228 119.072C76.7894 119.072 77.6534 119.397 78.3148 120.048C78.9761 120.688 79.3068 121.616 79.3068 122.832V128H77.8668V123.04C77.8668 122.165 77.6481 121.499 77.2108 121.04C76.7734 120.571 76.1761 120.336 75.4188 120.336C74.6508 120.336 74.0374 120.576 73.5788 121.056C73.1308 121.536 72.9068 122.235 72.9068 123.152V128H71.4508V119.232H72.9068V120.48C73.1948 120.032 73.5841 119.685 74.0748 119.44C74.5761 119.195 75.1254 119.072 75.7228 119.072ZM83.4611 120.432V125.6C83.4611 126.027 83.5518 126.331 83.7331 126.512C83.9145 126.683 84.2291 126.768 84.6771 126.768H85.7491V128H84.4371C83.6265 128 83.0185 127.813 82.6131 127.44C82.2078 127.067 82.0051 126.453 82.0051 125.6V120.432H80.8691V119.232H82.0051V117.024H83.4611V119.232H85.7491V120.432H83.4611ZM99.5549 119.232V128H98.0989V126.704C97.8215 127.152 97.4322 127.504 96.9309 127.76C96.4402 128.005 95.8962 128.128 95.2989 128.128C94.6162 128.128 94.0029 127.989 93.4589 127.712C92.9149 127.424 92.4829 126.997 92.1629 126.432C91.8535 125.867 91.6989 125.179 91.6989 124.368V119.232H93.1389V124.176C93.1389 125.04 93.3575 125.707 93.7949 126.176C94.2322 126.635 94.8295 126.864 95.5869 126.864C96.3655 126.864 96.9789 126.624 97.4269 126.144C97.8749 125.664 98.0989 124.965 98.0989 124.048V119.232H99.5549ZM103.469 116.16V128H102.013V116.16H103.469ZM107.407 116.16V128H105.951V116.16H107.407ZM109.344 123.584C109.344 122.688 109.526 121.904 109.888 121.232C110.251 120.549 110.747 120.021 111.376 119.648C112.016 119.275 112.726 119.088 113.504 119.088C114.272 119.088 114.939 119.253 115.504 119.584C116.07 119.915 116.491 120.331 116.768 120.832V119.232H118.24V128H116.768V126.368C116.48 126.88 116.048 127.307 115.472 127.648C114.907 127.979 114.246 128.144 113.488 128.144C112.71 128.144 112.006 127.952 111.376 127.568C110.747 127.184 110.251 126.645 109.888 125.952C109.526 125.259 109.344 124.469 109.344 123.584ZM116.768 123.6C116.768 122.939 116.635 122.363 116.368 121.872C116.102 121.381 115.739 121.008 115.28 120.752C114.832 120.485 114.336 120.352 113.792 120.352C113.248 120.352 112.752 120.48 112.304 120.736C111.856 120.992 111.499 121.365 111.232 121.856C110.966 122.347 110.832 122.923 110.832 123.584C110.832 124.256 110.966 124.843 111.232 125.344C111.499 125.835 111.856 126.213 112.304 126.48C112.752 126.736 113.248 126.864 113.792 126.864C114.336 126.864 114.832 126.736 115.28 126.48C115.739 126.213 116.102 125.835 116.368 125.344C116.635 124.843 116.768 124.261 116.768 123.6ZM131.245 119.072C131.927 119.072 132.535 119.216 133.069 119.504C133.602 119.781 134.023 120.203 134.333 120.768C134.642 121.333 134.797 122.021 134.797 122.832V128H133.357V123.04C133.357 122.165 133.138 121.499 132.701 121.04C132.274 120.571 131.693 120.336 130.957 120.336C130.199 120.336 129.597 120.581 129.149 121.072C128.701 121.552 128.477 122.251 128.477 123.168V128H127.037V123.04C127.037 122.165 126.818 121.499 126.381 121.04C125.954 120.571 125.373 120.336 124.637 120.336C123.879 120.336 123.277 120.581 122.829 121.072C122.381 121.552 122.157 122.251 122.157 123.168V128H120.701V119.232H122.157V120.496C122.445 120.037 122.829 119.685 123.309 119.44C123.799 119.195 124.338 119.072 124.925 119.072C125.661 119.072 126.311 119.237 126.877 119.568C127.442 119.899 127.863 120.384 128.141 121.024C128.386 120.405 128.791 119.925 129.357 119.584C129.922 119.243 130.551 119.072 131.245 119.072ZM136.641 123.6C136.641 122.693 136.822 121.904 137.185 121.232C137.548 120.549 138.049 120.021 138.689 119.648C139.34 119.275 140.081 119.088 140.913 119.088C141.99 119.088 142.876 119.349 143.569 119.872C144.273 120.395 144.737 121.12 144.961 122.048H143.393C143.244 121.515 142.95 121.093 142.513 120.784C142.086 120.475 141.553 120.32 140.913 120.32C140.081 120.32 139.409 120.608 138.897 121.184C138.385 121.749 138.129 122.555 138.129 123.6C138.129 124.656 138.385 125.472 138.897 126.048C139.409 126.624 140.081 126.912 140.913 126.912C141.553 126.912 142.086 126.763 142.513 126.464C142.94 126.165 143.233 125.739 143.393 125.184H144.961C144.726 126.08 144.257 126.8 143.553 127.344C142.849 127.877 141.969 128.144 140.913 128.144C140.081 128.144 139.34 127.957 138.689 127.584C138.049 127.211 137.548 126.683 137.185 126C136.822 125.317 136.641 124.517 136.641 123.6ZM150.728 128.144C149.907 128.144 149.16 127.957 148.488 127.584C147.827 127.211 147.304 126.683 146.92 126C146.547 125.307 146.36 124.507 146.36 123.6C146.36 122.704 146.552 121.915 146.936 121.232C147.331 120.539 147.864 120.011 148.536 119.648C149.208 119.275 149.96 119.088 150.792 119.088C151.624 119.088 152.376 119.275 153.048 119.648C153.72 120.011 154.248 120.533 154.632 121.216C155.027 121.899 155.224 122.693 155.224 123.6C155.224 124.507 155.021 125.307 154.616 126C154.221 126.683 153.683 127.211 153 127.584C152.317 127.957 151.56 128.144 150.728 128.144ZM150.728 126.864C151.251 126.864 151.741 126.741 152.2 126.496C152.659 126.251 153.027 125.883 153.304 125.392C153.592 124.901 153.736 124.304 153.736 123.6C153.736 122.896 153.597 122.299 153.32 121.808C153.043 121.317 152.68 120.955 152.232 120.72C151.784 120.475 151.299 120.352 150.776 120.352C150.243 120.352 149.752 120.475 149.304 120.72C148.867 120.955 148.515 121.317 148.248 121.808C147.981 122.299 147.848 122.896 147.848 123.6C147.848 124.315 147.976 124.917 148.232 125.408C148.499 125.899 148.851 126.267 149.288 126.512C149.725 126.747 150.205 126.864 150.728 126.864ZM169.404 123.28C169.404 123.557 169.388 123.851 169.356 124.16H162.348C162.401 125.024 162.695 125.701 163.228 126.192C163.772 126.672 164.428 126.912 165.196 126.912C165.825 126.912 166.348 126.768 166.764 126.48C167.191 126.181 167.489 125.787 167.66 125.296H169.228C168.993 126.139 168.524 126.827 167.82 127.36C167.116 127.883 166.241 128.144 165.196 128.144C164.364 128.144 163.617 127.957 162.956 127.584C162.305 127.211 161.793 126.683 161.42 126C161.047 125.307 160.86 124.507 160.86 123.6C160.86 122.693 161.041 121.899 161.404 121.216C161.767 120.533 162.273 120.011 162.924 119.648C163.585 119.275 164.343 119.088 165.196 119.088C166.028 119.088 166.764 119.269 167.404 119.632C168.044 119.995 168.535 120.496 168.876 121.136C169.228 121.765 169.404 122.48 169.404 123.28ZM167.9 122.976C167.9 122.421 167.777 121.947 167.532 121.552C167.287 121.147 166.951 120.843 166.524 120.64C166.108 120.427 165.644 120.32 165.132 120.32C164.396 120.32 163.767 120.555 163.244 121.024C162.732 121.493 162.439 122.144 162.364 122.976H167.9ZM174.43 128.144C173.758 128.144 173.155 128.032 172.622 127.808C172.088 127.573 171.667 127.253 171.358 126.848C171.048 126.432 170.878 125.957 170.846 125.424H172.35C172.392 125.861 172.595 126.219 172.958 126.496C173.331 126.773 173.816 126.912 174.414 126.912C174.968 126.912 175.406 126.789 175.726 126.544C176.046 126.299 176.206 125.989 176.206 125.616C176.206 125.232 176.035 124.949 175.694 124.768C175.352 124.576 174.824 124.389 174.11 124.208C173.459 124.037 172.926 123.867 172.51 123.696C172.104 123.515 171.752 123.253 171.454 122.912C171.166 122.56 171.022 122.101 171.022 121.536C171.022 121.088 171.155 120.677 171.422 120.304C171.688 119.931 172.067 119.637 172.558 119.424C173.048 119.2 173.608 119.088 174.238 119.088C175.208 119.088 175.992 119.333 176.59 119.824C177.187 120.315 177.507 120.987 177.55 121.84H176.094C176.062 121.381 175.875 121.013 175.534 120.736C175.203 120.459 174.755 120.32 174.19 120.32C173.667 120.32 173.251 120.432 172.942 120.656C172.632 120.88 172.478 121.173 172.478 121.536C172.478 121.824 172.568 122.064 172.75 122.256C172.942 122.437 173.176 122.587 173.454 122.704C173.742 122.811 174.136 122.933 174.638 123.072C175.267 123.243 175.779 123.413 176.174 123.584C176.568 123.744 176.904 123.989 177.182 124.32C177.47 124.651 177.619 125.083 177.63 125.616C177.63 126.096 177.496 126.528 177.23 126.912C176.963 127.296 176.584 127.6 176.094 127.824C175.614 128.037 175.059 128.144 174.43 128.144ZM181.461 120.432V125.6C181.461 126.027 181.552 126.331 181.733 126.512C181.914 126.683 182.229 126.768 182.677 126.768H183.749V128H182.437C181.626 128 181.018 127.813 180.613 127.44C180.208 127.067 180.005 126.453 180.005 125.6V120.432H178.869V119.232H180.005V117.024H181.461V119.232H183.749V120.432H181.461ZM192.883 128.144C192.211 128.144 191.608 128.032 191.075 127.808C190.542 127.573 190.12 127.253 189.811 126.848C189.502 126.432 189.331 125.957 189.299 125.424H190.803C190.846 125.861 191.048 126.219 191.411 126.496C191.784 126.773 192.27 126.912 192.867 126.912C193.422 126.912 193.859 126.789 194.179 126.544C194.499 126.299 194.659 125.989 194.659 125.616C194.659 125.232 194.488 124.949 194.147 124.768C193.806 124.576 193.278 124.389 192.563 124.208C191.912 124.037 191.379 123.867 190.963 123.696C190.558 123.515 190.206 123.253 189.907 122.912C189.619 122.56 189.475 122.101 189.475 121.536C189.475 121.088 189.608 120.677 189.875 120.304C190.142 119.931 190.52 119.637 191.011 119.424C191.502 119.2 192.062 119.088 192.691 119.088C193.662 119.088 194.446 119.333 195.043 119.824C195.64 120.315 195.96 120.987 196.003 121.84H194.547C194.515 121.381 194.328 121.013 193.987 120.736C193.656 120.459 193.208 120.32 192.643 120.32C192.12 120.32 191.704 120.432 191.395 120.656C191.086 120.88 190.931 121.173 190.931 121.536C190.931 121.824 191.022 122.064 191.203 122.256C191.395 122.437 191.63 122.587 191.907 122.704C192.195 122.811 192.59 122.933 193.091 123.072C193.72 123.243 194.232 123.413 194.627 123.584C195.022 123.744 195.358 123.989 195.635 124.32C195.923 124.651 196.072 125.083 196.083 125.616C196.083 126.096 195.95 126.528 195.683 126.912C195.416 127.296 195.038 127.6 194.547 127.824C194.067 128.037 193.512 128.144 192.883 128.144ZM198.89 117.808C198.613 117.808 198.378 117.712 198.186 117.52C197.994 117.328 197.898 117.093 197.898 116.816C197.898 116.539 197.994 116.304 198.186 116.112C198.378 115.92 198.613 115.824 198.89 115.824C199.157 115.824 199.381 115.92 199.562 116.112C199.754 116.304 199.85 116.539 199.85 116.816C199.85 117.093 199.754 117.328 199.562 117.52C199.381 117.712 199.157 117.808 198.89 117.808ZM199.594 119.232V128H198.138V119.232H199.594ZM203.852 120.432V125.6C203.852 126.027 203.942 126.331 204.124 126.512C204.305 126.683 204.62 126.768 205.068 126.768H206.14V128H204.828C204.017 128 203.409 127.813 203.004 127.44C202.598 127.067 202.396 126.453 202.396 125.6V120.432H201.26V119.232H202.396V117.024H203.852V119.232H206.14V120.432H203.852ZM211.626 123.584C211.626 122.688 211.807 121.904 212.17 121.232C212.532 120.549 213.028 120.021 213.658 119.648C214.298 119.275 215.007 119.088 215.786 119.088C216.554 119.088 217.22 119.253 217.786 119.584C218.351 119.915 218.772 120.331 219.05 120.832V119.232H220.522V128H219.05V126.368C218.762 126.88 218.33 127.307 217.754 127.648C217.188 127.979 216.527 128.144 215.77 128.144C214.991 128.144 214.287 127.952 213.658 127.568C213.028 127.184 212.532 126.645 212.17 125.952C211.807 125.259 211.626 124.469 211.626 123.584ZM219.05 123.6C219.05 122.939 218.916 122.363 218.65 121.872C218.383 121.381 218.02 121.008 217.562 120.752C217.114 120.485 216.618 120.352 216.074 120.352C215.53 120.352 215.034 120.48 214.586 120.736C214.138 120.992 213.78 121.365 213.514 121.856C213.247 122.347 213.114 122.923 213.114 123.584C213.114 124.256 213.247 124.843 213.514 125.344C213.78 125.835 214.138 126.213 214.586 126.48C215.034 126.736 215.53 126.864 216.074 126.864C216.618 126.864 217.114 126.736 217.562 126.48C218.02 126.213 218.383 125.835 218.65 125.344C218.916 124.843 219.05 124.261 219.05 123.6ZM224.438 116.16V128H222.982V116.16H224.438ZM227.672 117.808C227.394 117.808 227.16 117.712 226.968 117.52C226.776 117.328 226.68 117.093 226.68 116.816C226.68 116.539 226.776 116.304 226.968 116.112C227.16 115.92 227.394 115.824 227.672 115.824C227.938 115.824 228.162 115.92 228.344 116.112C228.536 116.304 228.632 116.539 228.632 116.816C228.632 117.093 228.536 117.328 228.344 117.52C228.162 117.712 227.938 117.808 227.672 117.808ZM228.376 119.232V128H226.92V119.232H228.376ZM230.313 123.584C230.313 122.688 230.494 121.904 230.857 121.232C231.22 120.549 231.716 120.021 232.345 119.648C232.985 119.275 233.7 119.088 234.489 119.088C235.246 119.088 235.908 119.259 236.473 119.6C237.049 119.931 237.47 120.341 237.737 120.832V119.232H239.209V132.16H237.737V126.384C237.46 126.875 237.033 127.291 236.457 127.632C235.881 127.973 235.209 128.144 234.441 128.144C233.673 128.144 232.974 127.952 232.345 127.568C231.716 127.184 231.22 126.645 230.857 125.952C230.494 125.259 230.313 124.469 230.313 123.584ZM237.737 123.6C237.737 122.939 237.604 122.363 237.337 121.872C237.07 121.381 236.708 121.008 236.249 120.752C235.801 120.485 235.305 120.352 234.761 120.352C234.217 120.352 233.721 120.48 233.273 120.736C232.825 120.992 232.468 121.365 232.201 121.856C231.934 122.347 231.801 122.923 231.801 123.584C231.801 124.256 231.934 124.843 232.201 125.344C232.468 125.835 232.825 126.213 233.273 126.48C233.721 126.736 234.217 126.864 234.761 126.864C235.305 126.864 235.801 126.736 236.249 126.48C236.708 126.213 237.07 125.835 237.337 125.344C237.604 124.843 237.737 124.261 237.737 123.6ZM249.446 119.232V128H247.99V126.704C247.712 127.152 247.323 127.504 246.822 127.76C246.331 128.005 245.787 128.128 245.19 128.128C244.507 128.128 243.894 127.989 243.35 127.712C242.806 127.424 242.374 126.997 242.054 126.432C241.744 125.867 241.59 125.179 241.59 124.368V119.232H243.03V124.176C243.03 125.04 243.248 125.707 243.686 126.176C244.123 126.635 244.72 126.864 245.478 126.864C246.256 126.864 246.87 126.624 247.318 126.144C247.766 125.664 247.99 124.965 247.99 124.048V119.232H249.446ZM251.36 123.584C251.36 122.688 251.541 121.904 251.904 121.232C252.267 120.549 252.763 120.021 253.392 119.648C254.032 119.275 254.741 119.088 255.52 119.088C256.288 119.088 256.955 119.253 257.52 119.584C258.085 119.915 258.507 120.331 258.784 120.832V119.232H260.256V128H258.784V126.368C258.496 126.88 258.064 127.307 257.488 127.648C256.923 127.979 256.261 128.144 255.504 128.144C254.725 128.144 254.021 127.952 253.392 127.568C252.763 127.184 252.267 126.645 251.904 125.952C251.541 125.259 251.36 124.469 251.36 123.584ZM258.784 123.6C258.784 122.939 258.651 122.363 258.384 121.872C258.117 121.381 257.755 121.008 257.296 120.752C256.848 120.485 256.352 120.352 255.808 120.352C255.264 120.352 254.768 120.48 254.32 120.736C253.872 120.992 253.515 121.365 253.248 121.856C252.981 122.347 252.848 122.923 252.848 123.584C252.848 124.256 252.981 124.843 253.248 125.344C253.515 125.835 253.872 126.213 254.32 126.48C254.768 126.736 255.264 126.864 255.808 126.864C256.352 126.864 256.848 126.736 257.296 126.48C257.755 126.213 258.117 125.835 258.384 125.344C258.651 124.843 258.784 124.261 258.784 123.6ZM266.438 123.584C266.438 122.688 266.619 121.904 266.982 121.232C267.345 120.549 267.841 120.021 268.47 119.648C269.11 119.275 269.825 119.088 270.614 119.088C271.297 119.088 271.931 119.248 272.518 119.568C273.105 119.877 273.553 120.288 273.862 120.8V116.16H275.334V128H273.862V126.352C273.574 126.875 273.147 127.307 272.582 127.648C272.017 127.979 271.355 128.144 270.598 128.144C269.819 128.144 269.11 127.952 268.47 127.568C267.841 127.184 267.345 126.645 266.982 125.952C266.619 125.259 266.438 124.469 266.438 123.584ZM273.862 123.6C273.862 122.939 273.729 122.363 273.462 121.872C273.195 121.381 272.833 121.008 272.374 120.752C271.926 120.485 271.43 120.352 270.886 120.352C270.342 120.352 269.846 120.48 269.398 120.736C268.95 120.992 268.593 121.365 268.326 121.856C268.059 122.347 267.926 122.923 267.926 123.584C267.926 124.256 268.059 124.843 268.326 125.344C268.593 125.835 268.95 126.213 269.398 126.48C269.846 126.736 270.342 126.864 270.886 126.864C271.43 126.864 271.926 126.736 272.374 126.48C272.833 126.213 273.195 125.835 273.462 125.344C273.729 124.843 273.862 124.261 273.862 123.6ZM281.619 128.144C280.797 128.144 280.051 127.957 279.379 127.584C278.717 127.211 278.195 126.683 277.811 126C277.437 125.307 277.251 124.507 277.251 123.6C277.251 122.704 277.443 121.915 277.827 121.232C278.221 120.539 278.755 120.011 279.427 119.648C280.099 119.275 280.851 119.088 281.683 119.088C282.515 119.088 283.267 119.275 283.939 119.648C284.611 120.011 285.139 120.533 285.523 121.216C285.917 121.899 286.115 122.693 286.115 123.6C286.115 124.507 285.912 125.307 285.507 126C285.112 126.683 284.573 127.211 283.891 127.584C283.208 127.957 282.451 128.144 281.619 128.144ZM281.619 126.864C282.141 126.864 282.632 126.741 283.091 126.496C283.549 126.251 283.917 125.883 284.195 125.392C284.483 124.901 284.627 124.304 284.627 123.6C284.627 122.896 284.488 122.299 284.211 121.808C283.933 121.317 283.571 120.955 283.123 120.72C282.675 120.475 282.189 120.352 281.667 120.352C281.133 120.352 280.643 120.475 280.195 120.72C279.757 120.955 279.405 121.317 279.139 121.808C278.872 122.299 278.739 122.896 278.739 123.6C278.739 124.315 278.867 124.917 279.123 125.408C279.389 125.899 279.741 126.267 280.179 126.512C280.616 126.747 281.096 126.864 281.619 126.864ZM289.485 116.16V128H288.029V116.16H289.485ZM295.79 128.144C294.969 128.144 294.222 127.957 293.55 127.584C292.889 127.211 292.366 126.683 291.982 126C291.609 125.307 291.422 124.507 291.422 123.6C291.422 122.704 291.614 121.915 291.998 121.232C292.393 120.539 292.926 120.011 293.598 119.648C294.27 119.275 295.022 119.088 295.854 119.088C296.686 119.088 297.438 119.275 298.11 119.648C298.782 120.011 299.31 120.533 299.694 121.216C300.089 121.899 300.286 122.693 300.286 123.6C300.286 124.507 300.084 125.307 299.678 126C299.284 126.683 298.745 127.211 298.062 127.584C297.38 127.957 296.622 128.144 295.79 128.144ZM295.79 126.864C296.313 126.864 296.804 126.741 297.262 126.496C297.721 126.251 298.089 125.883 298.366 125.392C298.654 124.901 298.798 124.304 298.798 123.6C298.798 122.896 298.66 122.299 298.382 121.808C298.105 121.317 297.742 120.955 297.294 120.72C296.846 120.475 296.361 120.352 295.838 120.352C295.305 120.352 294.814 120.475 294.366 120.72C293.929 120.955 293.577 121.317 293.31 121.808C293.044 122.299 292.91 122.896 292.91 123.6C292.91 124.315 293.038 124.917 293.294 125.408C293.561 125.899 293.913 126.267 294.35 126.512C294.788 126.747 295.268 126.864 295.79 126.864Z" fill="#031D44"/>
</svg>
