<svg width="484" height="131" viewBox="0 0 484 131" fill="none" xmlns="http://www.w3.org/2000/svg">
<path d="M484 3H0V131H484V3Z" fill="#FAFAFA"/>
<path d="M483.565 130.873C483.565 129.334 483.406 81.7971 483.169 3.37238L483.565 3.56837L0.514477 3.62717L1.02895 3.37238C1.02895 48.4497 1.02895 91.5671 1.02895 130.873L0.534268 130.637L347.882 130.755L447.769 130.814H474.403H481.269H483.624H481.329H474.443H447.928L348.159 130.882L0.474894 131H0V130.755C0 91.4201 0 48.2831 0 3.25479V3H0.554045L483.604 3.0588H484V3.25479C483.743 81.7971 483.565 129.334 483.565 130.873Z" fill="#263238"/>
<path d="M178 36.5C178 36.7692 152.928 37 122 37C91.0721 37 66 36.7692 66 36.5C66 36.2308 91.0721 36 122 36C152.928 36 178 36.2115 178 36.5Z" fill="#E0E0E0"/>
<path d="M48.3165 43.4549C55.2219 36.5494 55.2219 25.3534 48.3165 18.4479C41.411 11.5425 30.215 11.5425 23.3095 18.4479C16.404 25.3534 16.404 36.5494 23.3095 43.4549C30.215 50.3604 41.411 50.3604 48.3165 43.4549Z" fill="#263238"/>
<path d="M42.1125 28.9478C42.1125 30.1946 41.7428 31.4135 41.0501 32.4502C40.3574 33.4869 39.3728 34.2949 38.2209 34.7721C37.069 35.2492 35.8014 35.374 34.5785 35.1308C33.3556 34.8876 32.2324 34.2871 31.3507 33.4055C30.4691 32.5238 29.8687 31.4006 29.6254 30.1777C29.3822 28.9548 29.507 27.6872 29.9841 26.5353C30.4613 25.3834 31.2693 24.3988 32.306 23.7061C33.3427 23.0134 34.5616 22.6437 35.8084 22.6437C37.4804 22.6437 39.0838 23.3079 40.2661 24.4901C41.4484 25.6724 42.1125 27.2758 42.1125 28.9478V28.9478Z" fill="#FAFAFA"/>
<path d="M26.2468 43.9491C26.2468 43.9491 29.4155 37.6671 35.8415 37.6671C42.2675 37.6671 45.8129 43.6389 45.8129 43.6389C43.0769 46.0821 39.508 47.3828 35.8415 47.2729C29.4488 47.2175 26.2468 43.9491 26.2468 43.9491Z" fill="#FAFAFA"/>
<path d="M66.66 23.96C66.66 22.5733 66.96 21.34 67.56 20.26C68.16 19.1667 68.9933 18.32 70.06 17.72C71.14 17.1067 72.36 16.8 73.72 16.8C75.3867 16.8 76.8133 17.24 78 18.12C79.1867 19 79.98 20.2 80.38 21.72H76.62C76.34 21.1333 75.94 20.6867 75.42 20.38C74.9133 20.0733 74.3333 19.92 73.68 19.92C72.6267 19.92 71.7733 20.2867 71.12 21.02C70.4667 21.7533 70.14 22.7333 70.14 23.96C70.14 25.1867 70.4667 26.1667 71.12 26.9C71.7733 27.6333 72.6267 28 73.68 28C74.3333 28 74.9133 27.8467 75.42 27.54C75.94 27.2333 76.34 26.7867 76.62 26.2H80.38C79.98 27.72 79.1867 28.92 78 29.8C76.8133 30.6667 75.3867 31.1 73.72 31.1C72.36 31.1 71.14 30.8 70.06 30.2C68.9933 29.5867 68.16 28.74 67.56 27.66C66.96 26.58 66.66 25.3467 66.66 23.96ZM85.8944 21.7C86.2944 21.0867 86.7944 20.6067 87.3944 20.26C87.9944 19.9 88.661 19.72 89.3944 19.72V23.34H88.4544C87.601 23.34 86.961 23.5267 86.5344 23.9C86.1077 24.26 85.8944 24.9 85.8944 25.82V31H82.4744V19.84H85.8944V21.7ZM92.7491 18.68C92.1491 18.68 91.6557 18.5067 91.2691 18.16C90.8957 17.8 90.7091 17.36 90.7091 16.84C90.7091 16.3067 90.8957 15.8667 91.2691 15.52C91.6557 15.16 92.1491 14.98 92.7491 14.98C93.3357 14.98 93.8157 15.16 94.1891 15.52C94.5757 15.8667 94.7691 16.3067 94.7691 16.84C94.7691 17.36 94.5757 17.8 94.1891 18.16C93.8157 18.5067 93.3357 18.68 92.7491 18.68ZM94.4491 19.84V31H91.0291V19.84H94.4491ZM101.468 31.16C100.494 31.16 99.6275 30.9933 98.8675 30.66C98.1075 30.3267 97.5075 29.8733 97.0675 29.3C96.6275 28.7133 96.3808 28.06 96.3275 27.34H99.7075C99.7475 27.7267 99.9275 28.04 100.248 28.28C100.568 28.52 100.961 28.64 101.428 28.64C101.854 28.64 102.181 28.56 102.408 28.4C102.648 28.2267 102.768 28.0067 102.768 27.74C102.768 27.42 102.601 27.1867 102.268 27.04C101.934 26.88 101.394 26.7067 100.648 26.52C99.8475 26.3333 99.1808 26.14 98.6475 25.94C98.1142 25.7267 97.6542 25.4 97.2675 24.96C96.8808 24.5067 96.6875 23.9 96.6875 23.14C96.6875 22.5 96.8608 21.92 97.2075 21.4C97.5675 20.8667 98.0875 20.4467 98.7675 20.14C99.4608 19.8333 100.281 19.68 101.228 19.68C102.628 19.68 103.728 20.0267 104.528 20.72C105.341 21.4133 105.808 22.3333 105.928 23.48H102.768C102.714 23.0933 102.541 22.7867 102.248 22.56C101.968 22.3333 101.594 22.22 101.128 22.22C100.728 22.22 100.421 22.3 100.208 22.46C99.9942 22.6067 99.8875 22.8133 99.8875 23.08C99.8875 23.4 100.054 23.64 100.388 23.8C100.734 23.96 101.268 24.12 101.988 24.28C102.814 24.4933 103.488 24.7067 104.008 24.92C104.528 25.12 104.981 25.4533 105.368 25.92C105.768 26.3733 105.974 26.9867 105.988 27.76C105.988 28.4133 105.801 29 105.428 29.52C105.068 30.0267 104.541 30.4267 103.848 30.72C103.168 31.0133 102.374 31.16 101.468 31.16ZM114.3 28.1V31H112.56C111.32 31 110.353 30.7 109.66 30.1C108.967 29.4867 108.62 28.4933 108.62 27.12V22.68H107.26V19.84H108.62V17.12H112.04V19.84H114.28V22.68H112.04V27.16C112.04 27.4933 112.12 27.7333 112.28 27.88C112.44 28.0267 112.707 28.1 113.08 28.1H114.3ZM117.925 18.68C117.325 18.68 116.832 18.5067 116.445 18.16C116.072 17.8 115.885 17.36 115.885 16.84C115.885 16.3067 116.072 15.8667 116.445 15.52C116.832 15.16 117.325 14.98 117.925 14.98C118.512 14.98 118.992 15.16 119.365 15.52C119.752 15.8667 119.945 16.3067 119.945 16.84C119.945 17.36 119.752 17.8 119.365 18.16C118.992 18.5067 118.512 18.68 117.925 18.68ZM119.625 19.84V31H116.205V19.84H119.625ZM121.423 25.4C121.423 24.2533 121.637 23.2467 122.063 22.38C122.503 21.5133 123.097 20.8467 123.843 20.38C124.59 19.9133 125.423 19.68 126.343 19.68C127.13 19.68 127.817 19.84 128.403 20.16C129.003 20.48 129.463 20.9 129.783 21.42V19.84H133.203V31H129.783V29.42C129.45 29.94 128.983 30.36 128.383 30.68C127.797 31 127.11 31.16 126.323 31.16C125.417 31.16 124.59 30.9267 123.843 30.46C123.097 29.98 122.503 29.3067 122.063 28.44C121.637 27.56 121.423 26.5467 121.423 25.4ZM129.783 25.42C129.783 24.5667 129.543 23.8933 129.063 23.4C128.597 22.9067 128.023 22.66 127.343 22.66C126.663 22.66 126.083 22.9067 125.603 23.4C125.137 23.88 124.903 24.5467 124.903 25.4C124.903 26.2533 125.137 26.9333 125.603 27.44C126.083 27.9333 126.663 28.18 127.343 28.18C128.023 28.18 128.597 27.9333 129.063 27.44C129.543 26.9467 129.783 26.2733 129.783 25.42ZM142.478 19.72C143.784 19.72 144.824 20.1467 145.598 21C146.384 21.84 146.778 23 146.778 24.48V31H143.378V24.94C143.378 24.1933 143.184 23.6133 142.798 23.2C142.411 22.7867 141.891 22.58 141.238 22.58C140.584 22.58 140.064 22.7867 139.678 23.2C139.291 23.6133 139.098 24.1933 139.098 24.94V31H135.678V19.84H139.098V21.32C139.444 20.8267 139.911 20.44 140.498 20.16C141.084 19.8667 141.744 19.72 142.478 19.72Z" fill="#340962"/>
<path d="M17.688 68.848V80H16.232V68.848H17.688ZM19.6255 75.584C19.6255 74.688 19.8068 73.904 20.1695 73.232C20.5322 72.5493 21.0282 72.0213 21.6575 71.648C22.2975 71.2747 23.0122 71.088 23.8015 71.088C24.4842 71.088 25.1188 71.248 25.7055 71.568C26.2922 71.8773 26.7402 72.288 27.0495 72.8V68.16H28.5215V80H27.0495V78.352C26.7615 78.8747 26.3348 79.3067 25.7695 79.648C25.2042 79.9787 24.5428 80.144 23.7855 80.144C23.0068 80.144 22.2975 79.952 21.6575 79.568C21.0282 79.184 20.5322 78.6453 20.1695 77.952C19.8068 77.2587 19.6255 76.4693 19.6255 75.584ZM27.0495 75.6C27.0495 74.9387 26.9162 74.3627 26.6495 73.872C26.3828 73.3813 26.0202 73.008 25.5615 72.752C25.1135 72.4853 24.6175 72.352 24.0735 72.352C23.5295 72.352 23.0335 72.48 22.5855 72.736C22.1375 72.992 21.7802 73.3653 21.5135 73.856C21.2468 74.3467 21.1135 74.9227 21.1135 75.584C21.1135 76.256 21.2468 76.8427 21.5135 77.344C21.7802 77.8347 22.1375 78.2133 22.5855 78.48C23.0335 78.736 23.5295 78.864 24.0735 78.864C24.6175 78.864 25.1135 78.736 25.5615 78.48C26.0202 78.2133 26.3828 77.8347 26.6495 77.344C26.9162 76.8427 27.0495 76.2613 27.0495 75.6ZM38.982 75.28C38.982 75.5573 38.966 75.8507 38.934 76.16H31.926C31.9793 77.024 32.2727 77.7013 32.806 78.192C33.35 78.672 34.006 78.912 34.774 78.912C35.4033 78.912 35.926 78.768 36.342 78.48C36.7687 78.1813 37.0673 77.7867 37.238 77.296H38.806C38.5713 78.1387 38.102 78.8267 37.398 79.36C36.694 79.8827 35.8193 80.144 34.774 80.144C33.942 80.144 33.1953 79.9573 32.534 79.584C31.8833 79.2107 31.3713 78.6827 30.998 78C30.6247 77.3067 30.438 76.5067 30.438 75.6C30.438 74.6933 30.6193 73.8987 30.982 73.216C31.3447 72.5333 31.8513 72.0107 32.502 71.648C33.1633 71.2747 33.9207 71.088 34.774 71.088C35.606 71.088 36.342 71.2693 36.982 71.632C37.622 71.9947 38.1127 72.496 38.454 73.136C38.806 73.7653 38.982 74.48 38.982 75.28ZM37.478 74.976C37.478 74.4213 37.3553 73.9467 37.11 73.552C36.8647 73.1467 36.5287 72.8427 36.102 72.64C35.686 72.4267 35.222 72.32 34.71 72.32C33.974 72.32 33.3447 72.5547 32.822 73.024C32.31 73.4933 32.0167 74.144 31.942 74.976H37.478ZM40.3599 75.584C40.3599 74.688 40.5412 73.904 40.9039 73.232C41.2665 72.5493 41.7625 72.0213 42.3919 71.648C43.0319 71.2747 43.7412 71.088 44.5199 71.088C45.2879 71.088 45.9545 71.2533 46.5199 71.584C47.0852 71.9147 47.5065 72.3307 47.7839 72.832V71.232H49.2559V80H47.7839V78.368C47.4959 78.88 47.0639 79.3067 46.4879 79.648C45.9225 79.9787 45.2612 80.144 44.5039 80.144C43.7252 80.144 43.0212 79.952 42.3919 79.568C41.7625 79.184 41.2665 78.6453 40.9039 77.952C40.5412 77.2587 40.3599 76.4693 40.3599 75.584ZM47.7839 75.6C47.7839 74.9387 47.6505 74.3627 47.3839 73.872C47.1172 73.3813 46.7545 73.008 46.2959 72.752C45.8479 72.4853 45.3519 72.352 44.8079 72.352C44.2639 72.352 43.7679 72.48 43.3199 72.736C42.8719 72.992 42.5145 73.3653 42.2479 73.856C41.9812 74.3467 41.8479 74.9227 41.8479 75.584C41.8479 76.256 41.9812 76.8427 42.2479 77.344C42.5145 77.8347 42.8719 78.2133 43.3199 78.48C43.7679 78.736 44.2639 78.864 44.8079 78.864C45.3519 78.864 45.8479 78.736 46.2959 78.48C46.7545 78.2133 47.1172 77.8347 47.3839 77.344C47.6505 76.8427 47.7839 76.2613 47.7839 75.6ZM62.2604 71.072C62.943 71.072 63.551 71.216 64.0844 71.504C64.6177 71.7813 65.039 72.2027 65.3484 72.768C65.6577 73.3333 65.8124 74.0213 65.8124 74.832V80H64.3724V75.04C64.3724 74.1653 64.1537 73.4987 63.7164 73.04C63.2897 72.5707 62.7084 72.336 61.9724 72.336C61.215 72.336 60.6124 72.5813 60.1644 73.072C59.7164 73.552 59.4924 74.2507 59.4924 75.168V80H58.0524V75.04C58.0524 74.1653 57.8337 73.4987 57.3964 73.04C56.9697 72.5707 56.3884 72.336 55.6524 72.336C54.895 72.336 54.2924 72.5813 53.8444 73.072C53.3964 73.552 53.1724 74.2507 53.1724 75.168V80H51.7164V71.232H53.1724V72.496C53.4604 72.0373 53.8444 71.6853 54.3244 71.44C54.815 71.1947 55.3537 71.072 55.9404 71.072C56.6764 71.072 57.327 71.2373 57.8924 71.568C58.4577 71.8987 58.879 72.384 59.1564 73.024C59.4017 72.4053 59.807 71.9253 60.3724 71.584C60.9377 71.2427 61.567 71.072 62.2604 71.072ZM76.2008 75.28C76.2008 75.5573 76.1848 75.8507 76.1528 76.16H69.1448C69.1981 77.024 69.4914 77.7013 70.0248 78.192C70.5688 78.672 71.2248 78.912 71.9928 78.912C72.6221 78.912 73.1448 78.768 73.5608 78.48C73.9874 78.1813 74.2861 77.7867 74.4568 77.296H76.0248C75.7901 78.1387 75.3208 78.8267 74.6168 79.36C73.9128 79.8827 73.0381 80.144 71.9928 80.144C71.1608 80.144 70.4141 79.9573 69.7528 79.584C69.1021 79.2107 68.5901 78.6827 68.2168 78C67.8434 77.3067 67.6568 76.5067 67.6568 75.6C67.6568 74.6933 67.8381 73.8987 68.2008 73.216C68.5634 72.5333 69.0701 72.0107 69.7208 71.648C70.3821 71.2747 71.1394 71.088 71.9928 71.088C72.8248 71.088 73.5608 71.2693 74.2008 71.632C74.8408 71.9947 75.3314 72.496 75.6728 73.136C76.0248 73.7653 76.2008 74.48 76.2008 75.28ZM74.6968 74.976C74.6968 74.4213 74.5741 73.9467 74.3288 73.552C74.0834 73.1467 73.7474 72.8427 73.3208 72.64C72.9048 72.4267 72.4408 72.32 71.9288 72.32C71.1928 72.32 70.5634 72.5547 70.0408 73.024C69.5288 73.4933 69.2354 74.144 69.1608 74.976H74.6968ZM79.8986 72.432V77.6C79.8986 78.0267 79.9893 78.3307 80.1706 78.512C80.352 78.6827 80.6666 78.768 81.1146 78.768H82.1866V80H80.8746C80.064 80 79.456 79.8133 79.0506 79.44C78.6453 79.0667 78.4426 78.4533 78.4426 77.6V72.432H77.3066V71.232H78.4426V69.024H79.8986V71.232H82.1866V72.432H79.8986ZM98.7604 71.072C99.443 71.072 100.051 71.216 100.584 71.504C101.118 71.7813 101.539 72.2027 101.848 72.768C102.158 73.3333 102.312 74.0213 102.312 74.832V80H100.872V75.04C100.872 74.1653 100.654 73.4987 100.216 73.04C99.7897 72.5707 99.2084 72.336 98.4724 72.336C97.715 72.336 97.1124 72.5813 96.6644 73.072C96.2164 73.552 95.9924 74.2507 95.9924 75.168V80H94.5524V75.04C94.5524 74.1653 94.3337 73.4987 93.8964 73.04C93.4697 72.5707 92.8884 72.336 92.1524 72.336C91.395 72.336 90.7924 72.5813 90.3444 73.072C89.8964 73.552 89.6724 74.2507 89.6724 75.168V80H88.2164V71.232H89.6724V72.496C89.9604 72.0373 90.3444 71.6853 90.8244 71.44C91.315 71.1947 91.8537 71.072 92.4404 71.072C93.1764 71.072 93.827 71.2373 94.3924 71.568C94.9577 71.8987 95.379 72.384 95.6564 73.024C95.9017 72.4053 96.307 71.9253 96.8724 71.584C97.4377 71.2427 98.067 71.072 98.7604 71.072ZM105.453 69.808C105.175 69.808 104.941 69.712 104.749 69.52C104.557 69.328 104.461 69.0933 104.461 68.816C104.461 68.5387 104.557 68.304 104.749 68.112C104.941 67.92 105.175 67.824 105.453 67.824C105.719 67.824 105.943 67.92 106.125 68.112C106.317 68.304 106.413 68.5387 106.413 68.816C106.413 69.0933 106.317 69.328 106.125 69.52C105.943 69.712 105.719 69.808 105.453 69.808ZM106.157 71.232V80H104.701V71.232H106.157ZM112.91 71.072C113.977 71.072 114.841 71.3973 115.502 72.048C116.164 72.688 116.494 73.616 116.494 74.832V80H115.054V75.04C115.054 74.1653 114.836 73.4987 114.398 73.04C113.961 72.5707 113.364 72.336 112.606 72.336C111.838 72.336 111.225 72.576 110.766 73.056C110.318 73.536 110.094 74.2347 110.094 75.152V80H108.638V71.232H110.094V72.48C110.382 72.032 110.772 71.6853 111.262 71.44C111.764 71.1947 112.313 71.072 112.91 71.072ZM119.625 69.808C119.347 69.808 119.113 69.712 118.921 69.52C118.729 69.328 118.633 69.0933 118.633 68.816C118.633 68.5387 118.729 68.304 118.921 68.112C119.113 67.92 119.347 67.824 119.625 67.824C119.891 67.824 120.115 67.92 120.297 68.112C120.489 68.304 120.585 68.5387 120.585 68.816C120.585 69.0933 120.489 69.328 120.297 69.52C120.115 69.712 119.891 69.808 119.625 69.808ZM120.329 71.232V80H118.873V71.232H120.329ZM133.354 71.072C134.037 71.072 134.645 71.216 135.178 71.504C135.711 71.7813 136.133 72.2027 136.442 72.768C136.751 73.3333 136.906 74.0213 136.906 74.832V80H135.466V75.04C135.466 74.1653 135.247 73.4987 134.81 73.04C134.383 72.5707 133.802 72.336 133.066 72.336C132.309 72.336 131.706 72.5813 131.258 73.072C130.81 73.552 130.586 74.2507 130.586 75.168V80H129.146V75.04C129.146 74.1653 128.927 73.4987 128.49 73.04C128.063 72.5707 127.482 72.336 126.746 72.336C125.989 72.336 125.386 72.5813 124.938 73.072C124.49 73.552 124.266 74.2507 124.266 75.168V80H122.81V71.232H124.266V72.496C124.554 72.0373 124.938 71.6853 125.418 71.44C125.909 71.1947 126.447 71.072 127.034 71.072C127.77 71.072 128.421 71.2373 128.986 71.568C129.551 71.8987 129.973 72.384 130.25 73.024C130.495 72.4053 130.901 71.9253 131.466 71.584C132.031 71.2427 132.661 71.072 133.354 71.072ZM154.104 71.072C154.787 71.072 155.395 71.216 155.928 71.504C156.461 71.7813 156.883 72.2027 157.192 72.768C157.501 73.3333 157.656 74.0213 157.656 74.832V80H156.216V75.04C156.216 74.1653 155.997 73.4987 155.56 73.04C155.133 72.5707 154.552 72.336 153.816 72.336C153.059 72.336 152.456 72.5813 152.008 73.072C151.56 73.552 151.336 74.2507 151.336 75.168V80H149.896V75.04C149.896 74.1653 149.677 73.4987 149.24 73.04C148.813 72.5707 148.232 72.336 147.496 72.336C146.739 72.336 146.136 72.5813 145.688 73.072C145.24 73.552 145.016 74.2507 145.016 75.168V80H143.56V71.232H145.016V72.496C145.304 72.0373 145.688 71.6853 146.168 71.44C146.659 71.1947 147.197 71.072 147.784 71.072C148.52 71.072 149.171 71.2373 149.736 71.568C150.301 71.8987 150.723 72.384 151 73.024C151.245 72.4053 151.651 71.9253 152.216 71.584C152.781 71.2427 153.411 71.072 154.104 71.072ZM163.869 80.144C163.047 80.144 162.301 79.9573 161.629 79.584C160.967 79.2107 160.445 78.6827 160.061 78C159.687 77.3067 159.501 76.5067 159.501 75.6C159.501 74.704 159.693 73.9147 160.077 73.232C160.471 72.5387 161.005 72.0107 161.677 71.648C162.349 71.2747 163.101 71.088 163.933 71.088C164.765 71.088 165.517 71.2747 166.189 71.648C166.861 72.0107 167.389 72.5333 167.773 73.216C168.167 73.8987 168.365 74.6933 168.365 75.6C168.365 76.5067 168.162 77.3067 167.757 78C167.362 78.6827 166.823 79.2107 166.141 79.584C165.458 79.9573 164.701 80.144 163.869 80.144ZM163.869 78.864C164.391 78.864 164.882 78.7413 165.341 78.496C165.799 78.2507 166.167 77.8827 166.445 77.392C166.733 76.9013 166.877 76.304 166.877 75.6C166.877 74.896 166.738 74.2987 166.461 73.808C166.183 73.3173 165.821 72.9547 165.373 72.72C164.925 72.4747 164.439 72.352 163.917 72.352C163.383 72.352 162.893 72.4747 162.445 72.72C162.007 72.9547 161.655 73.3173 161.389 73.808C161.122 74.2987 160.989 74.896 160.989 75.6C160.989 76.3147 161.117 76.9173 161.373 77.408C161.639 77.8987 161.991 78.2667 162.429 78.512C162.866 78.7467 163.346 78.864 163.869 78.864ZM171.735 68.16V80H170.279V68.16H171.735ZM175.672 68.16V80H174.216V68.16H175.672ZM178.906 69.808C178.629 69.808 178.394 69.712 178.202 69.52C178.01 69.328 177.914 69.0933 177.914 68.816C177.914 68.5387 178.01 68.304 178.202 68.112C178.394 67.92 178.629 67.824 178.906 67.824C179.173 67.824 179.397 67.92 179.578 68.112C179.77 68.304 179.866 68.5387 179.866 68.816C179.866 69.0933 179.77 69.328 179.578 69.52C179.397 69.712 179.173 69.808 178.906 69.808ZM179.61 71.232V80H178.154V71.232H179.61ZM183.867 72.432V77.6C183.867 78.0267 183.958 78.3307 184.139 78.512C184.321 78.6827 184.635 78.768 185.083 78.768H186.155V80H184.843C184.033 80 183.425 79.8133 183.019 79.44C182.614 79.0667 182.411 78.4533 182.411 77.6V72.432H181.275V71.232H182.411V69.024H183.867V71.232H186.155V72.432H183.867ZM196.457 71.072C197.524 71.072 198.388 71.3973 199.049 72.048C199.71 72.688 200.041 73.616 200.041 74.832V80H198.601V75.04C198.601 74.1653 198.382 73.4987 197.945 73.04C197.508 72.5707 196.91 72.336 196.153 72.336C195.385 72.336 194.772 72.576 194.313 73.056C193.865 73.536 193.641 74.2347 193.641 75.152V80H192.185V71.232H193.641V72.48C193.929 72.032 194.318 71.6853 194.809 71.44C195.31 71.1947 195.86 71.072 196.457 71.072ZM206.244 80.144C205.422 80.144 204.676 79.9573 204.004 79.584C203.342 79.2107 202.82 78.6827 202.436 78C202.062 77.3067 201.876 76.5067 201.876 75.6C201.876 74.704 202.068 73.9147 202.452 73.232C202.846 72.5387 203.38 72.0107 204.052 71.648C204.724 71.2747 205.476 71.088 206.308 71.088C207.14 71.088 207.892 71.2747 208.564 71.648C209.236 72.0107 209.764 72.5333 210.148 73.216C210.542 73.8987 210.74 74.6933 210.74 75.6C210.74 76.5067 210.537 77.3067 210.132 78C209.737 78.6827 209.198 79.2107 208.516 79.584C207.833 79.9573 207.076 80.144 206.244 80.144ZM206.244 78.864C206.766 78.864 207.257 78.7413 207.716 78.496C208.174 78.2507 208.542 77.8827 208.82 77.392C209.108 76.9013 209.252 76.304 209.252 75.6C209.252 74.896 209.113 74.2987 208.836 73.808C208.558 73.3173 208.196 72.9547 207.748 72.72C207.3 72.4747 206.814 72.352 206.292 72.352C205.758 72.352 205.268 72.4747 204.82 72.72C204.382 72.9547 204.03 73.3173 203.764 73.808C203.497 74.2987 203.364 74.896 203.364 75.6C203.364 76.3147 203.492 76.9173 203.748 77.408C204.014 77.8987 204.366 78.2667 204.804 78.512C205.241 78.7467 205.721 78.864 206.244 78.864ZM216.926 71.072C217.993 71.072 218.857 71.3973 219.518 72.048C220.179 72.688 220.51 73.616 220.51 74.832V80H219.07V75.04C219.07 74.1653 218.851 73.4987 218.414 73.04C217.977 72.5707 217.379 72.336 216.622 72.336C215.854 72.336 215.241 72.576 214.782 73.056C214.334 73.536 214.11 74.2347 214.11 75.152V80H212.654V71.232H214.11V72.48C214.398 72.032 214.787 71.6853 215.278 71.44C215.779 71.1947 216.329 71.072 216.926 71.072ZM226.61 75.584C226.61 74.688 226.791 73.904 227.154 73.232C227.517 72.5493 228.013 72.0213 228.642 71.648C229.282 71.2747 229.997 71.088 230.786 71.088C231.469 71.088 232.103 71.248 232.69 71.568C233.277 71.8773 233.725 72.288 234.034 72.8V68.16H235.506V80H234.034V78.352C233.746 78.8747 233.319 79.3067 232.754 79.648C232.189 79.9787 231.527 80.144 230.77 80.144C229.991 80.144 229.282 79.952 228.642 79.568C228.013 79.184 227.517 78.6453 227.154 77.952C226.791 77.2587 226.61 76.4693 226.61 75.584ZM234.034 75.6C234.034 74.9387 233.901 74.3627 233.634 73.872C233.367 73.3813 233.005 73.008 232.546 72.752C232.098 72.4853 231.602 72.352 231.058 72.352C230.514 72.352 230.018 72.48 229.57 72.736C229.122 72.992 228.765 73.3653 228.498 73.856C228.231 74.3467 228.098 74.9227 228.098 75.584C228.098 76.256 228.231 76.8427 228.498 77.344C228.765 77.8347 229.122 78.2133 229.57 78.48C230.018 78.736 230.514 78.864 231.058 78.864C231.602 78.864 232.098 78.736 232.546 78.48C233.005 78.2133 233.367 77.8347 233.634 77.344C233.901 76.8427 234.034 76.2613 234.034 75.6ZM245.966 75.28C245.966 75.5573 245.95 75.8507 245.918 76.16H238.91C238.964 77.024 239.257 77.7013 239.79 78.192C240.334 78.672 240.99 78.912 241.758 78.912C242.388 78.912 242.91 78.768 243.326 78.48C243.753 78.1813 244.052 77.7867 244.222 77.296H245.79C245.556 78.1387 245.086 78.8267 244.382 79.36C243.678 79.8827 242.804 80.144 241.758 80.144C240.926 80.144 240.18 79.9573 239.518 79.584C238.868 79.2107 238.356 78.6827 237.982 78C237.609 77.3067 237.422 76.5067 237.422 75.6C237.422 74.6933 237.604 73.8987 237.966 73.216C238.329 72.5333 238.836 72.0107 239.486 71.648C240.148 71.2747 240.905 71.088 241.758 71.088C242.59 71.088 243.326 71.2693 243.966 71.632C244.606 71.9947 245.097 72.496 245.438 73.136C245.79 73.7653 245.966 74.48 245.966 75.28ZM244.462 74.976C244.462 74.4213 244.34 73.9467 244.094 73.552C243.849 73.1467 243.513 72.8427 243.086 72.64C242.67 72.4267 242.206 72.32 241.694 72.32C240.958 72.32 240.329 72.5547 239.806 73.024C239.294 73.4933 239.001 74.144 238.926 74.976H244.462ZM250.992 80.144C250.32 80.144 249.718 80.032 249.184 79.808C248.651 79.5733 248.23 79.2533 247.92 78.848C247.611 78.432 247.44 77.9573 247.408 77.424H248.912C248.955 77.8613 249.158 78.2187 249.52 78.496C249.894 78.7733 250.379 78.912 250.976 78.912C251.531 78.912 251.968 78.7893 252.288 78.544C252.608 78.2987 252.768 77.9893 252.768 77.616C252.768 77.232 252.598 76.9493 252.256 76.768C251.915 76.576 251.387 76.3893 250.672 76.208C250.022 76.0373 249.488 75.8667 249.072 75.696C248.667 75.5147 248.315 75.2533 248.016 74.912C247.728 74.56 247.584 74.1013 247.584 73.536C247.584 73.088 247.718 72.6773 247.984 72.304C248.251 71.9307 248.63 71.6373 249.12 71.424C249.611 71.2 250.171 71.088 250.8 71.088C251.771 71.088 252.555 71.3333 253.152 71.824C253.75 72.3147 254.07 72.9867 254.112 73.84H252.656C252.624 73.3813 252.438 73.0133 252.096 72.736C251.766 72.4587 251.318 72.32 250.752 72.32C250.23 72.32 249.814 72.432 249.504 72.656C249.195 72.88 249.04 73.1733 249.04 73.536C249.04 73.824 249.131 74.064 249.312 74.256C249.504 74.4373 249.739 74.5867 250.016 74.704C250.304 74.8107 250.699 74.9333 251.2 75.072C251.83 75.2427 252.342 75.4133 252.736 75.584C253.131 75.744 253.467 75.9893 253.744 76.32C254.032 76.6507 254.182 77.0827 254.192 77.616C254.192 78.096 254.059 78.528 253.792 78.912C253.526 79.296 253.147 79.6 252.656 79.824C252.176 80.0373 251.622 80.144 250.992 80.144ZM264.248 75.28C264.248 75.5573 264.232 75.8507 264.2 76.16H257.192C257.245 77.024 257.538 77.7013 258.072 78.192C258.616 78.672 259.272 78.912 260.04 78.912C260.669 78.912 261.192 78.768 261.608 78.48C262.034 78.1813 262.333 77.7867 262.504 77.296H264.072C263.837 78.1387 263.368 78.8267 262.664 79.36C261.96 79.8827 261.085 80.144 260.04 80.144C259.208 80.144 258.461 79.9573 257.8 79.584C257.149 79.2107 256.637 78.6827 256.264 78C255.89 77.3067 255.704 76.5067 255.704 75.6C255.704 74.6933 255.885 73.8987 256.248 73.216C256.61 72.5333 257.117 72.0107 257.768 71.648C258.429 71.2747 259.186 71.088 260.04 71.088C260.872 71.088 261.608 71.2693 262.248 71.632C262.888 71.9947 263.378 72.496 263.72 73.136C264.072 73.7653 264.248 74.48 264.248 75.28ZM262.744 74.976C262.744 74.4213 262.621 73.9467 262.376 73.552C262.13 73.1467 261.794 72.8427 261.368 72.64C260.952 72.4267 260.488 72.32 259.976 72.32C259.24 72.32 258.61 72.5547 258.088 73.024C257.576 73.4933 257.282 74.144 257.208 74.976H262.744ZM267.626 72.656C267.882 72.1547 268.244 71.7653 268.714 71.488C269.194 71.2107 269.775 71.072 270.458 71.072V72.576H270.074C268.442 72.576 267.626 73.4613 267.626 75.232V80H266.17V71.232H267.626V72.656ZM279.914 71.232V80H278.458V78.704C278.181 79.152 277.792 79.504 277.29 79.76C276.8 80.0053 276.256 80.128 275.658 80.128C274.976 80.128 274.362 79.9893 273.818 79.712C273.274 79.424 272.842 78.9973 272.522 78.432C272.213 77.8667 272.058 77.1787 272.058 76.368V71.232H273.498V76.176C273.498 77.04 273.717 77.7067 274.154 78.176C274.592 78.6347 275.189 78.864 275.946 78.864C276.725 78.864 277.338 78.624 277.786 78.144C278.234 77.664 278.458 76.9653 278.458 76.048V71.232H279.914ZM286.645 71.072C287.711 71.072 288.575 71.3973 289.237 72.048C289.898 72.688 290.229 73.616 290.229 74.832V80H288.789V75.04C288.789 74.1653 288.57 73.4987 288.133 73.04C287.695 72.5707 287.098 72.336 286.341 72.336C285.573 72.336 284.959 72.576 284.501 73.056C284.053 73.536 283.829 74.2347 283.829 75.152V80H282.373V71.232H283.829V72.48C284.117 72.032 284.506 71.6853 284.997 71.44C285.498 71.1947 286.047 71.072 286.645 71.072ZM294.383 72.432V77.6C294.383 78.0267 294.474 78.3307 294.655 78.512C294.836 78.6827 295.151 78.768 295.599 78.768H296.671V80H295.359C294.548 80 293.94 79.8133 293.535 79.44C293.13 79.0667 292.927 78.4533 292.927 77.6V72.432H291.791V71.232H292.927V69.024H294.383V71.232H296.671V72.432H294.383ZM310.477 71.232V80H309.021V78.704C308.743 79.152 308.354 79.504 307.853 79.76C307.362 80.0053 306.818 80.128 306.221 80.128C305.538 80.128 304.925 79.9893 304.381 79.712C303.837 79.424 303.405 78.9973 303.085 78.432C302.775 77.8667 302.621 77.1787 302.621 76.368V71.232H304.061V76.176C304.061 77.04 304.279 77.7067 304.717 78.176C305.154 78.6347 305.751 78.864 306.509 78.864C307.287 78.864 307.901 78.624 308.349 78.144C308.797 77.664 309.021 76.9653 309.021 76.048V71.232H310.477ZM314.391 68.16V80H312.935V68.16H314.391ZM318.329 68.16V80H316.873V68.16H318.329ZM320.266 75.584C320.266 74.688 320.447 73.904 320.81 73.232C321.173 72.5493 321.669 72.0213 322.298 71.648C322.938 71.2747 323.647 71.088 324.426 71.088C325.194 71.088 325.861 71.2533 326.426 71.584C326.991 71.9147 327.413 72.3307 327.69 72.832V71.232H329.162V80H327.69V78.368C327.402 78.88 326.97 79.3067 326.394 79.648C325.829 79.9787 325.167 80.144 324.41 80.144C323.631 80.144 322.927 79.952 322.298 79.568C321.669 79.184 321.173 78.6453 320.81 77.952C320.447 77.2587 320.266 76.4693 320.266 75.584ZM327.69 75.6C327.69 74.9387 327.557 74.3627 327.29 73.872C327.023 73.3813 326.661 73.008 326.202 72.752C325.754 72.4853 325.258 72.352 324.714 72.352C324.17 72.352 323.674 72.48 323.226 72.736C322.778 72.992 322.421 73.3653 322.154 73.856C321.887 74.3467 321.754 74.9227 321.754 75.584C321.754 76.256 321.887 76.8427 322.154 77.344C322.421 77.8347 322.778 78.2133 323.226 78.48C323.674 78.736 324.17 78.864 324.714 78.864C325.258 78.864 325.754 78.736 326.202 78.48C326.661 78.2133 327.023 77.8347 327.29 77.344C327.557 76.8427 327.69 76.2613 327.69 75.6ZM342.167 71.072C342.849 71.072 343.457 71.216 343.991 71.504C344.524 71.7813 344.945 72.2027 345.255 72.768C345.564 73.3333 345.719 74.0213 345.719 74.832V80H344.279V75.04C344.279 74.1653 344.06 73.4987 343.623 73.04C343.196 72.5707 342.615 72.336 341.879 72.336C341.121 72.336 340.519 72.5813 340.071 73.072C339.623 73.552 339.399 74.2507 339.399 75.168V80H337.959V75.04C337.959 74.1653 337.74 73.4987 337.303 73.04C336.876 72.5707 336.295 72.336 335.559 72.336C334.801 72.336 334.199 72.5813 333.751 73.072C333.303 73.552 333.079 74.2507 333.079 75.168V80H331.623V71.232H333.079V72.496C333.367 72.0373 333.751 71.6853 334.231 71.44C334.721 71.1947 335.26 71.072 335.847 71.072C336.583 71.072 337.233 71.2373 337.799 71.568C338.364 71.8987 338.785 72.384 339.063 73.024C339.308 72.4053 339.713 71.9253 340.279 71.584C340.844 71.2427 341.473 71.072 342.167 71.072ZM347.563 75.6C347.563 74.6933 347.744 73.904 348.107 73.232C348.47 72.5493 348.971 72.0213 349.611 71.648C350.262 71.2747 351.003 71.088 351.835 71.088C352.912 71.088 353.798 71.3493 354.491 71.872C355.195 72.3947 355.659 73.12 355.883 74.048H354.315C354.166 73.5147 353.872 73.0933 353.435 72.784C353.008 72.4747 352.475 72.32 351.835 72.32C351.003 72.32 350.331 72.608 349.819 73.184C349.307 73.7493 349.051 74.5547 349.051 75.6C349.051 76.656 349.307 77.472 349.819 78.048C350.331 78.624 351.003 78.912 351.835 78.912C352.475 78.912 353.008 78.7627 353.435 78.464C353.862 78.1653 354.155 77.7387 354.315 77.184H355.883C355.648 78.08 355.179 78.8 354.475 79.344C353.771 79.8773 352.891 80.144 351.835 80.144C351.003 80.144 350.262 79.9573 349.611 79.584C348.971 79.2107 348.47 78.6827 348.107 78C347.744 77.3173 347.563 76.5173 347.563 75.6ZM361.65 80.144C360.828 80.144 360.082 79.9573 359.41 79.584C358.748 79.2107 358.226 78.6827 357.842 78C357.468 77.3067 357.282 76.5067 357.282 75.6C357.282 74.704 357.474 73.9147 357.858 73.232C358.252 72.5387 358.786 72.0107 359.458 71.648C360.13 71.2747 360.882 71.088 361.714 71.088C362.546 71.088 363.298 71.2747 363.97 71.648C364.642 72.0107 365.17 72.5333 365.554 73.216C365.948 73.8987 366.146 74.6933 366.146 75.6C366.146 76.5067 365.943 77.3067 365.538 78C365.143 78.6827 364.604 79.2107 363.922 79.584C363.239 79.9573 362.482 80.144 361.65 80.144ZM361.65 78.864C362.172 78.864 362.663 78.7413 363.122 78.496C363.58 78.2507 363.948 77.8827 364.226 77.392C364.514 76.9013 364.658 76.304 364.658 75.6C364.658 74.896 364.519 74.2987 364.242 73.808C363.964 73.3173 363.602 72.9547 363.154 72.72C362.706 72.4747 362.22 72.352 361.698 72.352C361.164 72.352 360.674 72.4747 360.226 72.72C359.788 72.9547 359.436 73.3173 359.17 73.808C358.903 74.2987 358.77 74.896 358.77 75.6C358.77 76.3147 358.898 76.9173 359.154 77.408C359.42 77.8987 359.772 78.2667 360.21 78.512C360.647 78.7467 361.127 78.864 361.65 78.864ZM380.326 75.28C380.326 75.5573 380.31 75.8507 380.278 76.16H373.27C373.323 77.024 373.616 77.7013 374.15 78.192C374.694 78.672 375.35 78.912 376.118 78.912C376.747 78.912 377.27 78.768 377.686 78.48C378.112 78.1813 378.411 77.7867 378.582 77.296H380.15C379.915 78.1387 379.446 78.8267 378.742 79.36C378.038 79.8827 377.163 80.144 376.118 80.144C375.286 80.144 374.539 79.9573 373.878 79.584C373.227 79.2107 372.715 78.6827 372.342 78C371.968 77.3067 371.782 76.5067 371.782 75.6C371.782 74.6933 371.963 73.8987 372.326 73.216C372.688 72.5333 373.195 72.0107 373.846 71.648C374.507 71.2747 375.264 71.088 376.118 71.088C376.95 71.088 377.686 71.2693 378.326 71.632C378.966 71.9947 379.456 72.496 379.798 73.136C380.15 73.7653 380.326 74.48 380.326 75.28ZM378.822 74.976C378.822 74.4213 378.699 73.9467 378.454 73.552C378.208 73.1467 377.872 72.8427 377.446 72.64C377.03 72.4267 376.566 72.32 376.054 72.32C375.318 72.32 374.688 72.5547 374.166 73.024C373.654 73.4933 373.36 74.144 373.286 74.976H378.822ZM385.352 80.144C384.68 80.144 384.077 80.032 383.544 79.808C383.01 79.5733 382.589 79.2533 382.28 78.848C381.97 78.432 381.8 77.9573 381.768 77.424H383.272C383.314 77.8613 383.517 78.2187 383.88 78.496C384.253 78.7733 384.738 78.912 385.336 78.912C385.89 78.912 386.328 78.7893 386.648 78.544C386.968 78.2987 387.128 77.9893 387.128 77.616C387.128 77.232 386.957 76.9493 386.616 76.768C386.274 76.576 385.746 76.3893 385.032 76.208C384.381 76.0373 383.848 75.8667 383.432 75.696C383.026 75.5147 382.674 75.2533 382.376 74.912C382.088 74.56 381.944 74.1013 381.944 73.536C381.944 73.088 382.077 72.6773 382.344 72.304C382.61 71.9307 382.989 71.6373 383.48 71.424C383.97 71.2 384.53 71.088 385.16 71.088C386.13 71.088 386.914 71.3333 387.512 71.824C388.109 72.3147 388.429 72.9867 388.472 73.84H387.016C386.984 73.3813 386.797 73.0133 386.456 72.736C386.125 72.4587 385.677 72.32 385.112 72.32C384.589 72.32 384.173 72.432 383.864 72.656C383.554 72.88 383.4 73.1733 383.4 73.536C383.4 73.824 383.49 74.064 383.672 74.256C383.864 74.4373 384.098 74.5867 384.376 74.704C384.664 74.8107 385.058 74.9333 385.56 75.072C386.189 75.2427 386.701 75.4133 387.096 75.584C387.49 75.744 387.826 75.9893 388.104 76.32C388.392 76.6507 388.541 77.0827 388.552 77.616C388.552 78.096 388.418 78.528 388.152 78.912C387.885 79.296 387.506 79.6 387.016 79.824C386.536 80.0373 385.981 80.144 385.352 80.144ZM392.383 72.432V77.6C392.383 78.0267 392.474 78.3307 392.655 78.512C392.836 78.6827 393.151 78.768 393.599 78.768H394.671V80H393.359C392.548 80 391.94 79.8133 391.535 79.44C391.13 79.0667 390.927 78.4533 390.927 77.6V72.432H389.791V71.232H390.927V69.024H392.383V71.232H394.671V72.432H392.383ZM403.805 80.144C403.133 80.144 402.53 80.032 401.997 79.808C401.463 79.5733 401.042 79.2533 400.733 78.848C400.423 78.432 400.253 77.9573 400.221 77.424H401.725C401.767 77.8613 401.97 78.2187 402.333 78.496C402.706 78.7733 403.191 78.912 403.789 78.912C404.343 78.912 404.781 78.7893 405.101 78.544C405.421 78.2987 405.581 77.9893 405.581 77.616C405.581 77.232 405.41 76.9493 405.069 76.768C404.727 76.576 404.199 76.3893 403.485 76.208C402.834 76.0373 402.301 75.8667 401.885 75.696C401.479 75.5147 401.127 75.2533 400.829 74.912C400.541 74.56 400.397 74.1013 400.397 73.536C400.397 73.088 400.53 72.6773 400.797 72.304C401.063 71.9307 401.442 71.6373 401.933 71.424C402.423 71.2 402.983 71.088 403.613 71.088C404.583 71.088 405.367 71.3333 405.965 71.824C406.562 72.3147 406.882 72.9867 406.925 73.84H405.469C405.437 73.3813 405.25 73.0133 404.909 72.736C404.578 72.4587 404.13 72.32 403.565 72.32C403.042 72.32 402.626 72.432 402.317 72.656C402.007 72.88 401.853 73.1733 401.853 73.536C401.853 73.824 401.943 74.064 402.125 74.256C402.317 74.4373 402.551 74.5867 402.829 74.704C403.117 74.8107 403.511 74.9333 404.013 75.072C404.642 75.2427 405.154 75.4133 405.549 75.584C405.943 75.744 406.279 75.9893 406.557 76.32C406.845 76.6507 406.994 77.0827 407.005 77.616C407.005 78.096 406.871 78.528 406.605 78.912C406.338 79.296 405.959 79.6 405.469 79.824C404.989 80.0373 404.434 80.144 403.805 80.144ZM409.812 69.808C409.535 69.808 409.3 69.712 409.108 69.52C408.916 69.328 408.82 69.0933 408.82 68.816C408.82 68.5387 408.916 68.304 409.108 68.112C409.3 67.92 409.535 67.824 409.812 67.824C410.079 67.824 410.303 67.92 410.484 68.112C410.676 68.304 410.772 68.5387 410.772 68.816C410.772 69.0933 410.676 69.328 410.484 69.52C410.303 69.712 410.079 69.808 409.812 69.808ZM410.516 71.232V80H409.06V71.232H410.516ZM414.774 72.432V77.6C414.774 78.0267 414.864 78.3307 415.046 78.512C415.227 78.6827 415.542 78.768 415.99 78.768H417.062V80H415.75C414.939 80 414.331 79.8133 413.926 79.44C413.52 79.0667 413.318 78.4533 413.318 77.6V72.432H412.182V71.232H413.318V69.024H414.774V71.232H417.062V72.432H414.774ZM15.688 99.584C15.688 98.688 15.8693 97.904 16.232 97.232C16.5947 96.5493 17.0907 96.0213 17.72 95.648C18.36 95.2747 19.0693 95.088 19.848 95.088C20.616 95.088 21.2827 95.2533 21.848 95.584C22.4133 95.9147 22.8347 96.3307 23.112 96.832V95.232H24.584V104H23.112V102.368C22.824 102.88 22.392 103.307 21.816 103.648C21.2507 103.979 20.5893 104.144 19.832 104.144C19.0533 104.144 18.3493 103.952 17.72 103.568C17.0907 103.184 16.5947 102.645 16.232 101.952C15.8693 101.259 15.688 100.469 15.688 99.584ZM23.112 99.6C23.112 98.9387 22.9787 98.3627 22.712 97.872C22.4453 97.3813 22.0827 97.008 21.624 96.752C21.176 96.4853 20.68 96.352 20.136 96.352C19.592 96.352 19.096 96.48 18.648 96.736C18.2 96.992 17.8427 97.3653 17.576 97.856C17.3093 98.3467 17.176 98.9227 17.176 99.584C17.176 100.256 17.3093 100.843 17.576 101.344C17.8427 101.835 18.2 102.213 18.648 102.48C19.096 102.736 19.592 102.864 20.136 102.864C20.68 102.864 21.176 102.736 21.624 102.48C22.0827 102.213 22.4453 101.835 22.712 101.344C22.9787 100.843 23.112 100.261 23.112 99.6ZM28.5005 92.16V104H27.0445V92.16H28.5005ZM31.734 93.808C31.4567 93.808 31.222 93.712 31.03 93.52C30.838 93.328 30.742 93.0933 30.742 92.816C30.742 92.5387 30.838 92.304 31.03 92.112C31.222 91.92 31.4567 91.824 31.734 91.824C32.0007 91.824 32.2247 91.92 32.406 92.112C32.598 92.304 32.694 92.5387 32.694 92.816C32.694 93.0933 32.598 93.328 32.406 93.52C32.2247 93.712 32.0007 93.808 31.734 93.808ZM32.438 95.232V104H30.982V95.232H32.438ZM34.3755 99.584C34.3755 98.688 34.5568 97.904 34.9195 97.232C35.2822 96.5493 35.7782 96.0213 36.4075 95.648C37.0475 95.2747 37.7622 95.088 38.5515 95.088C39.3088 95.088 39.9702 95.2587 40.5355 95.6C41.1115 95.9307 41.5328 96.3413 41.7995 96.832V95.232H43.2715V108.16H41.7995V102.384C41.5222 102.875 41.0955 103.291 40.5195 103.632C39.9435 103.973 39.2715 104.144 38.5035 104.144C37.7355 104.144 37.0368 103.952 36.4075 103.568C35.7782 103.184 35.2822 102.645 34.9195 101.952C34.5568 101.259 34.3755 100.469 34.3755 99.584ZM41.7995 99.6C41.7995 98.9387 41.6662 98.3627 41.3995 97.872C41.1328 97.3813 40.7702 97.008 40.3115 96.752C39.8635 96.4853 39.3675 96.352 38.8235 96.352C38.2795 96.352 37.7835 96.48 37.3355 96.736C36.8875 96.992 36.5302 97.3653 36.2635 97.856C35.9968 98.3467 35.8635 98.9227 35.8635 99.584C35.8635 100.256 35.9968 100.843 36.2635 101.344C36.5302 101.835 36.8875 102.213 37.3355 102.48C37.7835 102.736 38.2795 102.864 38.8235 102.864C39.3675 102.864 39.8635 102.736 40.3115 102.48C40.7702 102.213 41.1328 101.835 41.3995 101.344C41.6662 100.843 41.7995 100.261 41.7995 99.6ZM53.508 95.232V104H52.052V102.704C51.7747 103.152 51.3853 103.504 50.884 103.76C50.3933 104.005 49.8493 104.128 49.252 104.128C48.5693 104.128 47.956 103.989 47.412 103.712C46.868 103.424 46.436 102.997 46.116 102.432C45.8067 101.867 45.652 101.179 45.652 100.368V95.232H47.092V100.176C47.092 101.04 47.3107 101.707 47.748 102.176C48.1853 102.635 48.7827 102.864 49.54 102.864C50.3187 102.864 50.932 102.624 51.38 102.144C51.828 101.664 52.052 100.965 52.052 100.048V95.232H53.508ZM55.4224 99.584C55.4224 98.688 55.6037 97.904 55.9664 97.232C56.329 96.5493 56.825 96.0213 57.4544 95.648C58.0944 95.2747 58.8037 95.088 59.5824 95.088C60.3504 95.088 61.017 95.2533 61.5824 95.584C62.1477 95.9147 62.569 96.3307 62.8464 96.832V95.232H64.3184V104H62.8464V102.368C62.5584 102.88 62.1264 103.307 61.5504 103.648C60.985 103.979 60.3237 104.144 59.5664 104.144C58.7877 104.144 58.0837 103.952 57.4544 103.568C56.825 103.184 56.329 102.645 55.9664 101.952C55.6037 101.259 55.4224 100.469 55.4224 99.584ZM62.8464 99.6C62.8464 98.9387 62.713 98.3627 62.4464 97.872C62.1797 97.3813 61.817 97.008 61.3584 96.752C60.9104 96.4853 60.4144 96.352 59.8704 96.352C59.3264 96.352 58.8304 96.48 58.3824 96.736C57.9344 96.992 57.577 97.3653 57.3104 97.856C57.0437 98.3467 56.9104 98.9227 56.9104 99.584C56.9104 100.256 57.0437 100.843 57.3104 101.344C57.577 101.835 57.9344 102.213 58.3824 102.48C58.8304 102.736 59.3264 102.864 59.8704 102.864C60.4144 102.864 60.9104 102.736 61.3584 102.48C61.817 102.213 62.1797 101.835 62.4464 101.344C62.713 100.843 62.8464 100.261 62.8464 99.6ZM70.5005 99.584C70.5005 98.688 70.6818 97.904 71.0445 97.232C71.4072 96.5493 71.9032 96.0213 72.5325 95.648C73.1725 95.2747 73.8872 95.088 74.6765 95.088C75.3592 95.088 75.9938 95.248 76.5805 95.568C77.1672 95.8773 77.6152 96.288 77.9245 96.8V92.16H79.3965V104H77.9245V102.352C77.6365 102.875 77.2098 103.307 76.6445 103.648C76.0792 103.979 75.4178 104.144 74.6605 104.144C73.8818 104.144 73.1725 103.952 72.5325 103.568C71.9032 103.184 71.4072 102.645 71.0445 101.952C70.6818 101.259 70.5005 100.469 70.5005 99.584ZM77.9245 99.6C77.9245 98.9387 77.7912 98.3627 77.5245 97.872C77.2578 97.3813 76.8952 97.008 76.4365 96.752C75.9885 96.4853 75.4925 96.352 74.9485 96.352C74.4045 96.352 73.9085 96.48 73.4605 96.736C73.0125 96.992 72.6552 97.3653 72.3885 97.856C72.1218 98.3467 71.9885 98.9227 71.9885 99.584C71.9885 100.256 72.1218 100.843 72.3885 101.344C72.6552 101.835 73.0125 102.213 73.4605 102.48C73.9085 102.736 74.4045 102.864 74.9485 102.864C75.4925 102.864 75.9885 102.736 76.4365 102.48C76.8952 102.213 77.2578 101.835 77.5245 101.344C77.7912 100.843 77.9245 100.261 77.9245 99.6ZM85.681 104.144C84.8597 104.144 84.113 103.957 83.441 103.584C82.7797 103.211 82.257 102.683 81.873 102C81.4997 101.307 81.313 100.507 81.313 99.6C81.313 98.704 81.505 97.9147 81.889 97.232C82.2837 96.5387 82.817 96.0107 83.489 95.648C84.161 95.2747 84.913 95.088 85.745 95.088C86.577 95.088 87.329 95.2747 88.001 95.648C88.673 96.0107 89.201 96.5333 89.585 97.216C89.9797 97.8987 90.177 98.6933 90.177 99.6C90.177 100.507 89.9743 101.307 89.569 102C89.1743 102.683 88.6357 103.211 87.953 103.584C87.2703 103.957 86.513 104.144 85.681 104.144ZM85.681 102.864C86.2037 102.864 86.6943 102.741 87.153 102.496C87.6117 102.251 87.9797 101.883 88.257 101.392C88.545 100.901 88.689 100.304 88.689 99.6C88.689 98.896 88.5503 98.2987 88.273 97.808C87.9957 97.3173 87.633 96.9547 87.185 96.72C86.737 96.4747 86.2517 96.352 85.729 96.352C85.1957 96.352 84.705 96.4747 84.257 96.72C83.8197 96.9547 83.4677 97.3173 83.201 97.808C82.9343 98.2987 82.801 98.896 82.801 99.6C82.801 100.315 82.929 100.917 83.185 101.408C83.4517 101.899 83.8037 102.267 84.241 102.512C84.6783 102.747 85.1583 102.864 85.681 102.864ZM93.5474 92.16V104H92.0914V92.16H93.5474ZM99.8529 104.144C99.0315 104.144 98.2849 103.957 97.6129 103.584C96.9515 103.211 96.4289 102.683 96.0449 102C95.6715 101.307 95.4849 100.507 95.4849 99.6C95.4849 98.704 95.6769 97.9147 96.0609 97.232C96.4555 96.5387 96.9889 96.0107 97.6609 95.648C98.3329 95.2747 99.0849 95.088 99.9169 95.088C100.749 95.088 101.501 95.2747 102.173 95.648C102.845 96.0107 103.373 96.5333 103.757 97.216C104.152 97.8987 104.349 98.6933 104.349 99.6C104.349 100.507 104.146 101.307 103.741 102C103.346 102.683 102.808 103.211 102.125 103.584C101.442 103.957 100.685 104.144 99.8529 104.144ZM99.8529 102.864C100.376 102.864 100.866 102.741 101.325 102.496C101.784 102.251 102.152 101.883 102.429 101.392C102.717 100.901 102.861 100.304 102.861 99.6C102.861 98.896 102.722 98.2987 102.445 97.808C102.168 97.3173 101.805 96.9547 101.357 96.72C100.909 96.4747 100.424 96.352 99.9009 96.352C99.3675 96.352 98.8769 96.4747 98.4289 96.72C97.9915 96.9547 97.6395 97.3173 97.3729 97.808C97.1062 98.2987 96.9729 98.896 96.9729 99.6C96.9729 100.315 97.1009 100.917 97.3569 101.408C97.6235 101.899 97.9755 102.267 98.4129 102.512C98.8502 102.747 99.3302 102.864 99.8529 102.864ZM111.985 92.848V104H110.529V92.848H111.985ZM113.922 99.584C113.922 98.688 114.104 97.904 114.466 97.232C114.829 96.5493 115.325 96.0213 115.954 95.648C116.594 95.2747 117.309 95.088 118.098 95.088C118.781 95.088 119.416 95.248 120.002 95.568C120.589 95.8773 121.037 96.288 121.346 96.8V92.16H122.818V104H121.346V102.352C121.058 102.875 120.632 103.307 120.066 103.648C119.501 103.979 118.84 104.144 118.082 104.144C117.304 104.144 116.594 103.952 115.954 103.568C115.325 103.184 114.829 102.645 114.466 101.952C114.104 101.259 113.922 100.469 113.922 99.584ZM121.346 99.6C121.346 98.9387 121.213 98.3627 120.946 97.872C120.68 97.3813 120.317 97.008 119.858 96.752C119.41 96.4853 118.914 96.352 118.37 96.352C117.826 96.352 117.33 96.48 116.882 96.736C116.434 96.992 116.077 97.3653 115.81 97.856C115.544 98.3467 115.41 98.9227 115.41 99.584C115.41 100.256 115.544 100.843 115.81 101.344C116.077 101.835 116.434 102.213 116.882 102.48C117.33 102.736 117.826 102.864 118.37 102.864C118.914 102.864 119.41 102.736 119.858 102.48C120.317 102.213 120.68 101.835 120.946 101.344C121.213 100.843 121.346 100.261 121.346 99.6ZM133.279 99.28C133.279 99.5573 133.263 99.8507 133.231 100.16H126.223C126.276 101.024 126.57 101.701 127.103 102.192C127.647 102.672 128.303 102.912 129.071 102.912C129.7 102.912 130.223 102.768 130.639 102.48C131.066 102.181 131.364 101.787 131.535 101.296H133.103C132.868 102.139 132.399 102.827 131.695 103.36C130.991 103.883 130.116 104.144 129.071 104.144C128.239 104.144 127.492 103.957 126.831 103.584C126.18 103.211 125.668 102.683 125.295 102C124.922 101.307 124.735 100.507 124.735 99.6C124.735 98.6933 124.916 97.8987 125.279 97.216C125.642 96.5333 126.148 96.0107 126.799 95.648C127.46 95.2747 128.218 95.088 129.071 95.088C129.903 95.088 130.639 95.2693 131.279 95.632C131.919 95.9947 132.41 96.496 132.751 97.136C133.103 97.7653 133.279 98.48 133.279 99.28ZM131.775 98.976C131.775 98.4213 131.652 97.9467 131.407 97.552C131.162 97.1467 130.826 96.8427 130.399 96.64C129.983 96.4267 129.519 96.32 129.007 96.32C128.271 96.32 127.642 96.5547 127.119 97.024C126.607 97.4933 126.314 98.144 126.239 98.976H131.775ZM134.657 99.584C134.657 98.688 134.838 97.904 135.201 97.232C135.563 96.5493 136.059 96.0213 136.689 95.648C137.329 95.2747 138.038 95.088 138.817 95.088C139.585 95.088 140.251 95.2533 140.817 95.584C141.382 95.9147 141.803 96.3307 142.081 96.832V95.232H143.553V104H142.081V102.368C141.793 102.88 141.361 103.307 140.785 103.648C140.219 103.979 139.558 104.144 138.801 104.144C138.022 104.144 137.318 103.952 136.689 103.568C136.059 103.184 135.563 102.645 135.201 101.952C134.838 101.259 134.657 100.469 134.657 99.584ZM142.081 99.6C142.081 98.9387 141.947 98.3627 141.681 97.872C141.414 97.3813 141.051 97.008 140.593 96.752C140.145 96.4853 139.649 96.352 139.105 96.352C138.561 96.352 138.065 96.48 137.617 96.736C137.169 96.992 136.811 97.3653 136.545 97.856C136.278 98.3467 136.145 98.9227 136.145 99.584C136.145 100.256 136.278 100.843 136.545 101.344C136.811 101.835 137.169 102.213 137.617 102.48C138.065 102.736 138.561 102.864 139.105 102.864C139.649 102.864 140.145 102.736 140.593 102.48C141.051 102.213 141.414 101.835 141.681 101.344C141.947 100.843 142.081 100.261 142.081 99.6ZM156.557 95.072C157.24 95.072 157.848 95.216 158.381 95.504C158.915 95.7813 159.336 96.2027 159.645 96.768C159.955 97.3333 160.109 98.0213 160.109 98.832V104H158.669V99.04C158.669 98.1653 158.451 97.4987 158.013 97.04C157.587 96.5707 157.005 96.336 156.269 96.336C155.512 96.336 154.909 96.5813 154.461 97.072C154.013 97.552 153.789 98.2507 153.789 99.168V104H152.349V99.04C152.349 98.1653 152.131 97.4987 151.693 97.04C151.267 96.5707 150.685 96.336 149.949 96.336C149.192 96.336 148.589 96.5813 148.141 97.072C147.693 97.552 147.469 98.2507 147.469 99.168V104H146.013V95.232H147.469V96.496C147.757 96.0373 148.141 95.6853 148.621 95.44C149.112 95.1947 149.651 95.072 150.237 95.072C150.973 95.072 151.624 95.2373 152.189 95.568C152.755 95.8987 153.176 96.384 153.453 97.024C153.699 96.4053 154.104 95.9253 154.669 95.584C155.235 95.2427 155.864 95.072 156.557 95.072ZM170.498 99.28C170.498 99.5573 170.482 99.8507 170.45 100.16H163.442C163.495 101.024 163.788 101.701 164.322 102.192C164.866 102.672 165.522 102.912 166.29 102.912C166.919 102.912 167.442 102.768 167.858 102.48C168.284 102.181 168.583 101.787 168.754 101.296H170.322C170.087 102.139 169.618 102.827 168.914 103.36C168.21 103.883 167.335 104.144 166.29 104.144C165.458 104.144 164.711 103.957 164.05 103.584C163.399 103.211 162.887 102.683 162.514 102C162.14 101.307 161.954 100.507 161.954 99.6C161.954 98.6933 162.135 97.8987 162.498 97.216C162.86 96.5333 163.367 96.0107 164.018 95.648C164.679 95.2747 165.436 95.088 166.29 95.088C167.122 95.088 167.858 95.2693 168.498 95.632C169.138 95.9947 169.628 96.496 169.97 97.136C170.322 97.7653 170.498 98.48 170.498 99.28ZM168.994 98.976C168.994 98.4213 168.871 97.9467 168.626 97.552C168.38 97.1467 168.044 96.8427 167.618 96.64C167.202 96.4267 166.738 96.32 166.226 96.32C165.49 96.32 164.86 96.5547 164.338 97.024C163.826 97.4933 163.532 98.144 163.458 98.976H168.994ZM174.196 96.432V101.6C174.196 102.027 174.286 102.331 174.468 102.512C174.649 102.683 174.964 102.768 175.411 102.768H176.484V104H175.172C174.361 104 173.753 103.813 173.348 103.44C172.942 103.067 172.74 102.453 172.74 101.6V96.432H171.604V95.232H172.74V93.024H174.196V95.232H176.484V96.432H174.196ZM193.057 95.072C193.74 95.072 194.348 95.216 194.881 95.504C195.415 95.7813 195.836 96.2027 196.145 96.768C196.455 97.3333 196.609 98.0213 196.609 98.832V104H195.169V99.04C195.169 98.1653 194.951 97.4987 194.513 97.04C194.087 96.5707 193.505 96.336 192.769 96.336C192.012 96.336 191.409 96.5813 190.961 97.072C190.513 97.552 190.289 98.2507 190.289 99.168V104H188.849V99.04C188.849 98.1653 188.631 97.4987 188.193 97.04C187.767 96.5707 187.185 96.336 186.449 96.336C185.692 96.336 185.089 96.5813 184.641 97.072C184.193 97.552 183.969 98.2507 183.969 99.168V104H182.513V95.232H183.969V96.496C184.257 96.0373 184.641 95.6853 185.121 95.44C185.612 95.1947 186.151 95.072 186.737 95.072C187.473 95.072 188.124 95.2373 188.689 95.568C189.255 95.8987 189.676 96.384 189.953 97.024C190.199 96.4053 190.604 95.9253 191.169 95.584C191.735 95.2427 192.364 95.072 193.057 95.072ZM199.75 93.808C199.472 93.808 199.238 93.712 199.046 93.52C198.854 93.328 198.758 93.0933 198.758 92.816C198.758 92.5387 198.854 92.304 199.046 92.112C199.238 91.92 199.472 91.824 199.75 91.824C200.016 91.824 200.24 91.92 200.422 92.112C200.614 92.304 200.71 92.5387 200.71 92.816C200.71 93.0933 200.614 93.328 200.422 93.52C200.24 93.712 200.016 93.808 199.75 93.808ZM200.454 95.232V104H198.998V95.232H200.454ZM207.207 95.072C208.274 95.072 209.138 95.3973 209.799 96.048C210.46 96.688 210.791 97.616 210.791 98.832V104H209.351V99.04C209.351 98.1653 209.132 97.4987 208.695 97.04C208.258 96.5707 207.66 96.336 206.903 96.336C206.135 96.336 205.522 96.576 205.063 97.056C204.615 97.536 204.391 98.2347 204.391 99.152V104H202.935V95.232H204.391V96.48C204.679 96.032 205.068 95.6853 205.559 95.44C206.06 95.1947 206.61 95.072 207.207 95.072ZM213.922 93.808C213.644 93.808 213.41 93.712 213.218 93.52C213.026 93.328 212.93 93.0933 212.93 92.816C212.93 92.5387 213.026 92.304 213.218 92.112C213.41 91.92 213.644 91.824 213.922 91.824C214.188 91.824 214.412 91.92 214.594 92.112C214.786 92.304 214.882 92.5387 214.882 92.816C214.882 93.0933 214.786 93.328 214.594 93.52C214.412 93.712 214.188 93.808 213.922 93.808ZM214.626 95.232V104H213.17V95.232H214.626ZM227.651 95.072C228.334 95.072 228.942 95.216 229.475 95.504C230.008 95.7813 230.43 96.2027 230.739 96.768C231.048 97.3333 231.203 98.0213 231.203 98.832V104H229.763V99.04C229.763 98.1653 229.544 97.4987 229.107 97.04C228.68 96.5707 228.099 96.336 227.363 96.336C226.606 96.336 226.003 96.5813 225.555 97.072C225.107 97.552 224.883 98.2507 224.883 99.168V104H223.443V99.04C223.443 98.1653 223.224 97.4987 222.787 97.04C222.36 96.5707 221.779 96.336 221.043 96.336C220.286 96.336 219.683 96.5813 219.235 97.072C218.787 97.552 218.563 98.2507 218.563 99.168V104H217.107V95.232H218.563V96.496C218.851 96.0373 219.235 95.6853 219.715 95.44C220.206 95.1947 220.744 95.072 221.331 95.072C222.067 95.072 222.718 95.2373 223.283 95.568C223.848 95.8987 224.27 96.384 224.547 97.024C224.792 96.4053 225.198 95.9253 225.763 95.584C226.328 95.2427 226.958 95.072 227.651 95.072ZM248.401 95.072C249.084 95.072 249.692 95.216 250.225 95.504C250.758 95.7813 251.18 96.2027 251.489 96.768C251.798 97.3333 251.953 98.0213 251.953 98.832V104H250.513V99.04C250.513 98.1653 250.294 97.4987 249.857 97.04C249.43 96.5707 248.849 96.336 248.113 96.336C247.356 96.336 246.753 96.5813 246.305 97.072C245.857 97.552 245.633 98.2507 245.633 99.168V104H244.193V99.04C244.193 98.1653 243.974 97.4987 243.537 97.04C243.11 96.5707 242.529 96.336 241.793 96.336C241.036 96.336 240.433 96.5813 239.985 97.072C239.537 97.552 239.313 98.2507 239.313 99.168V104H237.857V95.232H239.313V96.496C239.601 96.0373 239.985 95.6853 240.465 95.44C240.956 95.1947 241.494 95.072 242.081 95.072C242.817 95.072 243.468 95.2373 244.033 95.568C244.598 95.8987 245.02 96.384 245.297 97.024C245.542 96.4053 245.948 95.9253 246.513 95.584C247.078 95.2427 247.708 95.072 248.401 95.072ZM258.165 104.144C257.344 104.144 256.597 103.957 255.925 103.584C255.264 103.211 254.741 102.683 254.357 102C253.984 101.307 253.797 100.507 253.797 99.6C253.797 98.704 253.989 97.9147 254.373 97.232C254.768 96.5387 255.301 96.0107 255.973 95.648C256.645 95.2747 257.397 95.088 258.229 95.088C259.061 95.088 259.813 95.2747 260.485 95.648C261.157 96.0107 261.685 96.5333 262.069 97.216C262.464 97.8987 262.661 98.6933 262.661 99.6C262.661 100.507 262.459 101.307 262.053 102C261.659 102.683 261.12 103.211 260.437 103.584C259.755 103.957 258.997 104.144 258.165 104.144ZM258.165 102.864C258.688 102.864 259.179 102.741 259.637 102.496C260.096 102.251 260.464 101.883 260.741 101.392C261.029 100.901 261.173 100.304 261.173 99.6C261.173 98.896 261.035 98.2987 260.757 97.808C260.48 97.3173 260.117 96.9547 259.669 96.72C259.221 96.4747 258.736 96.352 258.213 96.352C257.68 96.352 257.189 96.4747 256.741 96.72C256.304 96.9547 255.952 97.3173 255.685 97.808C255.419 98.2987 255.285 98.896 255.285 99.6C255.285 100.315 255.413 100.917 255.669 101.408C255.936 101.899 256.288 102.267 256.725 102.512C257.163 102.747 257.643 102.864 258.165 102.864ZM266.032 92.16V104H264.576V92.16H266.032ZM269.969 92.16V104H268.513V92.16H269.969ZM273.203 93.808C272.925 93.808 272.691 93.712 272.499 93.52C272.307 93.328 272.211 93.0933 272.211 92.816C272.211 92.5387 272.307 92.304 272.499 92.112C272.691 91.92 272.925 91.824 273.203 91.824C273.469 91.824 273.693 91.92 273.875 92.112C274.067 92.304 274.163 92.5387 274.163 92.816C274.163 93.0933 274.067 93.328 273.875 93.52C273.693 93.712 273.469 93.808 273.203 93.808ZM273.907 95.232V104H272.451V95.232H273.907ZM278.164 96.432V101.6C278.164 102.027 278.255 102.331 278.436 102.512C278.618 102.683 278.932 102.768 279.38 102.768H280.452V104H279.14C278.33 104 277.722 103.813 277.316 103.44C276.911 103.067 276.708 102.453 276.708 101.6V96.432H275.572V95.232H276.708V93.024H278.164V95.232H280.452V96.432H278.164ZM290.754 95.072C291.821 95.072 292.685 95.3973 293.346 96.048C294.007 96.688 294.338 97.616 294.338 98.832V104H292.898V99.04C292.898 98.1653 292.679 97.4987 292.242 97.04C291.805 96.5707 291.207 96.336 290.45 96.336C289.682 96.336 289.069 96.576 288.61 97.056C288.162 97.536 287.938 98.2347 287.938 99.152V104H286.482V95.232H287.938V96.48C288.226 96.032 288.615 95.6853 289.106 95.44C289.607 95.1947 290.157 95.072 290.754 95.072ZM300.54 104.144C299.719 104.144 298.972 103.957 298.3 103.584C297.639 103.211 297.116 102.683 296.732 102C296.359 101.307 296.172 100.507 296.172 99.6C296.172 98.704 296.364 97.9147 296.748 97.232C297.143 96.5387 297.676 96.0107 298.348 95.648C299.02 95.2747 299.772 95.088 300.604 95.088C301.436 95.088 302.188 95.2747 302.86 95.648C303.532 96.0107 304.06 96.5333 304.444 97.216C304.839 97.8987 305.036 98.6933 305.036 99.6C305.036 100.507 304.834 101.307 304.428 102C304.034 102.683 303.495 103.211 302.812 103.584C302.13 103.957 301.372 104.144 300.54 104.144ZM300.54 102.864C301.063 102.864 301.554 102.741 302.012 102.496C302.471 102.251 302.839 101.883 303.116 101.392C303.404 100.901 303.548 100.304 303.548 99.6C303.548 98.896 303.41 98.2987 303.132 97.808C302.855 97.3173 302.492 96.9547 302.044 96.72C301.596 96.4747 301.111 96.352 300.588 96.352C300.055 96.352 299.564 96.4747 299.116 96.72C298.679 96.9547 298.327 97.3173 298.06 97.808C297.794 98.2987 297.66 98.896 297.66 99.6C297.66 100.315 297.788 100.917 298.044 101.408C298.311 101.899 298.663 102.267 299.1 102.512C299.538 102.747 300.018 102.864 300.54 102.864ZM311.223 95.072C312.289 95.072 313.153 95.3973 313.815 96.048C314.476 96.688 314.807 97.616 314.807 98.832V104H313.367V99.04C313.367 98.1653 313.148 97.4987 312.711 97.04C312.273 96.5707 311.676 96.336 310.919 96.336C310.151 96.336 309.537 96.576 309.079 97.056C308.631 97.536 308.407 98.2347 308.407 99.152V104H306.951V95.232H308.407V96.48C308.695 96.032 309.084 95.6853 309.575 95.44C310.076 95.1947 310.625 95.072 311.223 95.072ZM320.907 99.584C320.907 98.688 321.088 97.904 321.451 97.232C321.813 96.5493 322.309 96.0213 322.939 95.648C323.579 95.2747 324.293 95.088 325.083 95.088C325.765 95.088 326.4 95.248 326.987 95.568C327.573 95.8773 328.021 96.288 328.331 96.8V92.16H329.803V104H328.331V102.352C328.043 102.875 327.616 103.307 327.051 103.648C326.485 103.979 325.824 104.144 325.067 104.144C324.288 104.144 323.579 103.952 322.939 103.568C322.309 103.184 321.813 102.645 321.451 101.952C321.088 101.259 320.907 100.469 320.907 99.584ZM328.331 99.6C328.331 98.9387 328.197 98.3627 327.931 97.872C327.664 97.3813 327.301 97.008 326.843 96.752C326.395 96.4853 325.899 96.352 325.355 96.352C324.811 96.352 324.315 96.48 323.867 96.736C323.419 96.992 323.061 97.3653 322.795 97.856C322.528 98.3467 322.395 98.9227 322.395 99.584C322.395 100.256 322.528 100.843 322.795 101.344C323.061 101.835 323.419 102.213 323.867 102.48C324.315 102.736 324.811 102.864 325.355 102.864C325.899 102.864 326.395 102.736 326.843 102.48C327.301 102.213 327.664 101.835 327.931 101.344C328.197 100.843 328.331 100.261 328.331 99.6ZM340.263 99.28C340.263 99.5573 340.247 99.8507 340.215 100.16H333.207C333.261 101.024 333.554 101.701 334.087 102.192C334.631 102.672 335.287 102.912 336.055 102.912C336.685 102.912 337.207 102.768 337.623 102.48C338.05 102.181 338.349 101.787 338.519 101.296H340.087C339.853 102.139 339.383 102.827 338.679 103.36C337.975 103.883 337.101 104.144 336.055 104.144C335.223 104.144 334.477 103.957 333.815 103.584C333.165 103.211 332.653 102.683 332.279 102C331.906 101.307 331.719 100.507 331.719 99.6C331.719 98.6933 331.901 97.8987 332.263 97.216C332.626 96.5333 333.133 96.0107 333.783 95.648C334.445 95.2747 335.202 95.088 336.055 95.088C336.887 95.088 337.623 95.2693 338.263 95.632C338.903 95.9947 339.394 96.496 339.735 97.136C340.087 97.7653 340.263 98.48 340.263 99.28ZM338.759 98.976C338.759 98.4213 338.637 97.9467 338.391 97.552C338.146 97.1467 337.81 96.8427 337.383 96.64C336.967 96.4267 336.503 96.32 335.991 96.32C335.255 96.32 334.626 96.5547 334.103 97.024C333.591 97.4933 333.298 98.144 333.223 98.976H338.759ZM345.289 104.144C344.617 104.144 344.014 104.032 343.481 103.808C342.948 103.573 342.526 103.253 342.217 102.848C341.908 102.432 341.737 101.957 341.705 101.424H343.209C343.252 101.861 343.454 102.219 343.817 102.496C344.19 102.773 344.676 102.912 345.273 102.912C345.828 102.912 346.265 102.789 346.585 102.544C346.905 102.299 347.065 101.989 347.065 101.616C347.065 101.232 346.894 100.949 346.553 100.768C346.212 100.576 345.684 100.389 344.969 100.208C344.318 100.037 343.785 99.8667 343.369 99.696C342.964 99.5147 342.612 99.2533 342.313 98.912C342.025 98.56 341.881 98.1013 341.881 97.536C341.881 97.088 342.014 96.6773 342.281 96.304C342.548 95.9307 342.926 95.6373 343.417 95.424C343.908 95.2 344.468 95.088 345.097 95.088C346.068 95.088 346.852 95.3333 347.449 95.824C348.046 96.3147 348.366 96.9867 348.409 97.84H346.953C346.921 97.3813 346.734 97.0133 346.393 96.736C346.062 96.4587 345.614 96.32 345.049 96.32C344.526 96.32 344.11 96.432 343.801 96.656C343.492 96.88 343.337 97.1733 343.337 97.536C343.337 97.824 343.428 98.064 343.609 98.256C343.801 98.4373 344.036 98.5867 344.313 98.704C344.601 98.8107 344.996 98.9333 345.497 99.072C346.126 99.2427 346.638 99.4133 347.033 99.584C347.428 99.744 347.764 99.9893 348.041 100.32C348.329 100.651 348.478 101.083 348.489 101.616C348.489 102.096 348.356 102.528 348.089 102.912C347.822 103.296 347.444 103.6 346.953 103.824C346.473 104.037 345.918 104.144 345.289 104.144ZM358.545 99.28C358.545 99.5573 358.529 99.8507 358.497 100.16H351.489C351.542 101.024 351.835 101.701 352.369 102.192C352.913 102.672 353.569 102.912 354.337 102.912C354.966 102.912 355.489 102.768 355.905 102.48C356.331 102.181 356.63 101.787 356.801 101.296H358.369C358.134 102.139 357.665 102.827 356.961 103.36C356.257 103.883 355.382 104.144 354.337 104.144C353.505 104.144 352.758 103.957 352.097 103.584C351.446 103.211 350.934 102.683 350.561 102C350.187 101.307 350.001 100.507 350.001 99.6C350.001 98.6933 350.182 97.8987 350.545 97.216C350.907 96.5333 351.414 96.0107 352.065 95.648C352.726 95.2747 353.483 95.088 354.337 95.088C355.169 95.088 355.905 95.2693 356.545 95.632C357.185 95.9947 357.675 96.496 358.017 97.136C358.369 97.7653 358.545 98.48 358.545 99.28ZM357.041 98.976C357.041 98.4213 356.918 97.9467 356.673 97.552C356.427 97.1467 356.091 96.8427 355.665 96.64C355.249 96.4267 354.785 96.32 354.273 96.32C353.537 96.32 352.907 96.5547 352.385 97.024C351.873 97.4933 351.579 98.144 351.505 98.976H357.041ZM361.922 96.656C362.178 96.1547 362.541 95.7653 363.01 95.488C363.49 95.2107 364.072 95.072 364.754 95.072V96.576H364.37C362.738 96.576 361.922 97.4613 361.922 99.232V104H360.466V95.232H361.922V96.656ZM374.211 95.232V104H372.755V102.704C372.478 103.152 372.088 103.504 371.587 103.76C371.096 104.005 370.552 104.128 369.955 104.128C369.272 104.128 368.659 103.989 368.115 103.712C367.571 103.424 367.139 102.997 366.819 102.432C366.51 101.867 366.355 101.179 366.355 100.368V95.232H367.795V100.176C367.795 101.04 368.014 101.707 368.451 102.176C368.888 102.635 369.486 102.864 370.243 102.864C371.022 102.864 371.635 102.624 372.083 102.144C372.531 101.664 372.755 100.965 372.755 100.048V95.232H374.211ZM380.942 95.072C382.008 95.072 382.872 95.3973 383.534 96.048C384.195 96.688 384.526 97.616 384.526 98.832V104H383.086V99.04C383.086 98.1653 382.867 97.4987 382.43 97.04C381.992 96.5707 381.395 96.336 380.638 96.336C379.87 96.336 379.256 96.576 378.798 97.056C378.35 97.536 378.126 98.2347 378.126 99.152V104H376.67V95.232H378.126V96.48C378.414 96.032 378.803 95.6853 379.294 95.44C379.795 95.1947 380.344 95.072 380.942 95.072ZM388.68 96.432V101.6C388.68 102.027 388.771 102.331 388.952 102.512C389.133 102.683 389.448 102.768 389.896 102.768H390.968V104H389.656C388.845 104 388.237 103.813 387.832 103.44C387.427 103.067 387.224 102.453 387.224 101.6V96.432H386.088V95.232H387.224V93.024H388.68V95.232H390.968V96.432H388.68ZM397.462 104.096C397.184 104.096 396.95 104 396.758 103.808C396.566 103.616 396.47 103.381 396.47 103.104C396.47 102.827 396.566 102.592 396.758 102.4C396.95 102.208 397.184 102.112 397.462 102.112C397.728 102.112 397.952 102.208 398.134 102.4C398.326 102.592 398.422 102.827 398.422 103.104C398.422 103.381 398.326 103.616 398.134 103.808C397.952 104 397.728 104.096 397.462 104.096Z" fill="#031D44"/>
</svg>
