<svg width="16" height="31" viewBox="0 0 16 31" fill="none" xmlns="http://www.w3.org/2000/svg">
<path d="M10.1259 1.98184L10.3117 2.0128H12.8819V4.98556H10.3117C10.1672 4.98556 10.0279 4.99588 9.8937 5.01652C9.75951 5.03717 9.65113 5.07329 9.56855 5.12491C9.48598 5.17652 9.40856 5.23329 9.33631 5.29522C9.26405 5.35715 9.20212 5.41908 9.15051 5.48102C9.0989 5.54295 9.05761 5.61004 9.02665 5.6823C8.99568 5.75455 8.97504 5.81648 8.96471 5.86809L8.93375 6.02292L8.91826 6.13131V10.9001H13.9348L13.2226 13.8729H8.91826V28.7366H5.94551V13.8729H1.98184V10.9001H5.94551V6.28614C5.94551 5.64617 6.02809 5.07329 6.19324 4.56751C6.35839 4.06173 6.58032 3.66433 6.85901 3.37532C7.13771 3.0863 7.42156 2.83857 7.71058 2.63213C7.9996 2.42569 8.31958 2.28118 8.67053 2.1986C9.02148 2.11602 9.30018 2.05925 9.50662 2.02829C9.71306 1.99732 9.9195 1.98184 10.1259 1.98184ZM10.1259 0C8.84601 0 7.70026 0.309662 6.6887 0.928986C4.87201 2.02312 3.96367 3.80884 3.96367 6.28614V8.91826H1.98184C1.44509 8.91826 0.980596 9.11438 0.588358 9.50662C0.196119 9.89886 0 10.3634 0 10.9001V13.8729C0 14.4096 0.196119 14.8741 0.588358 15.2663C0.980596 15.6586 1.44509 15.8547 1.98184 15.8547H3.96367V28.7057C3.96367 29.2631 4.15463 29.7327 4.53655 30.1146C4.91846 30.4965 5.38812 30.6875 5.94551 30.6875H8.91826C9.45501 30.6875 9.9195 30.4965 10.3117 30.1146C10.704 29.7327 10.9001 29.2631 10.9001 28.7057V15.8547H13.2226C13.6767 15.8547 14.0793 15.7205 14.4302 15.4521C14.7812 15.1838 15.0186 14.8431 15.1425 14.4302L15.8237 11.4575C16.0095 10.8175 15.9063 10.2343 15.5141 9.7079C15.1218 9.18148 14.5954 8.91826 13.9348 8.91826H10.9001V6.96739H12.8819C13.4187 6.96739 13.8832 6.77127 14.2754 6.37904C14.6677 5.9868 14.8638 5.5223 14.8638 4.98556V2.0128C14.8638 1.45541 14.6728 0.985757 14.2909 0.603841C13.909 0.221924 13.4497 0.0309662 12.9129 0.0309662H10.3737C10.2911 0.0103221 10.2085 0 10.1259 0Z" fill="white"/>
</svg>
