<svg width="32" height="31" viewBox="0 0 32 31" fill="none" xmlns="http://www.w3.org/2000/svg">
<path d="M31.1875 30.6562H24.6875C24.4583 30.6562 24.2604 30.5781 24.0938 30.4219C23.9271 30.2656 23.8438 30.0729 23.8438 29.8437V19.375C23.8438 18.6875 23.776 18.1042 23.6406 17.625C23.5052 17.1458 23.349 16.7917 23.1719 16.5625C22.9948 16.3333 22.7708 16.151 22.5 16.0156C22.2292 15.8802 22.026 15.8073 21.8906 15.7969C21.7552 15.7865 21.5833 15.7812 21.375 15.7812C20.875 15.7812 20.4271 15.9062 20.0312 16.1562C19.6354 16.4062 19.3594 16.651 19.2031 16.8906C19.0469 17.1302 18.9167 17.375 18.8125 17.625C18.7708 17.75 18.7344 17.9219 18.7031 18.1406C18.6719 18.3594 18.6562 18.6146 18.6562 18.9062V29.8437C18.6562 30.0729 18.5729 30.2708 18.4062 30.4375C18.2396 30.6042 18.0417 30.6875 17.8125 30.6875H11.3125C11.2083 30.6875 11.1042 30.6667 11 30.625C10.8958 30.5833 10.8021 30.5208 10.7188 30.4375C10.5521 30.2708 10.4792 30.0729 10.5 29.8437V26.9687L10.5156 24.0625L10.5312 20.6875V14.0937L10.5156 11.6562L10.5 10.3125C10.4792 10.0833 10.5521 9.88021 10.7188 9.70312C10.8854 9.52604 11.0833 9.4375 11.3125 9.4375H17.8125C17.9375 9.4375 18.0521 9.45833 18.1562 9.5C18.2604 9.54167 18.349 9.59896 18.4219 9.67187C18.4948 9.74479 18.5521 9.83333 18.5938 9.9375C18.6354 10.0417 18.6562 10.1562 18.6562 10.2812V10.75C19.9896 9.5625 21.6667 8.96875 23.6875 8.96875C26.2917 8.96875 28.3281 9.82292 29.7969 11.5312C31.2656 13.2396 32 15.6042 32 18.625V29.8437C32 29.9479 31.9792 30.0521 31.9375 30.1562C31.8958 30.2604 31.8385 30.349 31.7656 30.4219C31.6927 30.4948 31.6042 30.5521 31.5 30.5937C31.3958 30.6354 31.2917 30.6562 31.1875 30.6562ZM25.5 29H30.3438V18.625C30.3438 16.0833 29.7656 14.1198 28.6094 12.7344C27.4531 11.349 25.8125 10.6562 23.6875 10.6562C21.5208 10.6562 19.8333 11.5521 18.625 13.3437C18.5208 13.7396 18.2604 13.9375 17.8438 13.9375H17.7812C17.4688 13.9375 17.2292 13.7917 17.0625 13.5C16.9375 13.2917 16.9167 13.0729 17 12.8437V11.0937H12.1562C12.1979 13.4062 12.1979 19.375 12.1562 29H17V18.9062C17 18.0937 17.0938 17.4583 17.2812 17C17.4271 16.6458 17.6042 16.3177 17.8125 16.0156C18.0208 15.7135 18.2552 15.4427 18.5156 15.2031C18.776 14.9635 19.0573 14.7656 19.3594 14.6094C19.6615 14.4531 19.9844 14.3281 20.3281 14.2344C20.6719 14.1406 21.0208 14.0937 21.375 14.0937C22.25 14.0937 22.9948 14.3021 23.6094 14.7187C24.224 15.1354 24.6927 15.7344 25.0156 16.5156C25.3385 17.2969 25.5 18.25 25.5 19.375V29ZM7.71875 30.6562H1.21875C0.989583 30.6562 0.791667 30.5781 0.625 30.4219C0.458333 30.2656 0.375 30.0729 0.375 29.8437V10.2812C0.375 10.0521 0.458333 9.85417 0.625 9.6875C0.791667 9.52083 0.989583 9.4375 1.21875 9.4375H7.71875C7.94792 9.4375 8.14583 9.52083 8.3125 9.6875C8.47917 9.85417 8.5625 10.0521 8.5625 10.2812V29.8437C8.5625 29.9896 8.52604 30.125 8.45312 30.25C8.38021 30.375 8.27604 30.474 8.14062 30.5469C8.00521 30.6198 7.86458 30.6562 7.71875 30.6562ZM2.0625 29H6.90625V11.0937H2.0625V29ZM4.46875 8.4375H4.4375C3.14583 8.4375 2.08333 8.03646 1.25 7.23437C0.416667 6.43229 0 5.42187 0 4.20312C0 2.98437 0.427083 1.97917 1.28125 1.1875C2.13542 0.395833 3.21875 0 4.53125 0C5.80208 0 6.85417 0.390625 7.6875 1.17187C8.52083 1.95312 8.94792 2.95833 8.96875 4.1875C8.96875 5.41667 8.54688 6.43229 7.70312 7.23437C6.85938 8.03646 5.78125 8.4375 4.46875 8.4375ZM4.53125 1.65625C3.67708 1.65625 2.98438 1.89062 2.45312 2.35937C1.92188 2.82812 1.65625 3.44792 1.65625 4.21875C1.65625 4.96875 1.91667 5.58333 2.4375 6.0625C2.95833 6.54167 3.625 6.78125 4.4375 6.78125H4.46875C5.03125 6.78125 5.52604 6.67187 5.95312 6.45312C6.38021 6.23437 6.71354 5.93229 6.95312 5.54687C7.19271 5.16146 7.3125 4.71875 7.3125 4.21875C7.29167 3.44792 7.03125 2.82812 6.53125 2.35937C6.03125 1.89062 5.36458 1.65625 4.53125 1.65625Z" fill="white"/>
</svg>
