<svg width="187" height="187" viewBox="0 0 187 187" fill="none" xmlns="http://www.w3.org/2000/svg">
<path d="M147.143 68.4981C143.518 70.2599 139.342 70.5101 135.533 69.1937C131.724 67.8772 128.594 65.102 126.831 61.4781V61.4781C125.069 57.8536 124.819 53.6777 126.135 49.8687C127.452 46.0597 130.227 42.9294 133.851 41.1662V41.1662C135.645 40.2933 137.594 39.7825 139.586 39.6629C141.579 39.5433 143.575 39.8173 145.461 40.4692C147.347 41.121 149.086 42.1381 150.579 43.4622C152.072 44.7862 153.29 46.3915 154.163 48.1862V48.1862C155.036 49.9808 155.546 51.9298 155.666 53.9218C155.786 55.9139 155.512 57.91 154.86 59.7961C154.208 61.6823 153.191 63.4216 151.867 64.9147C150.543 66.4078 148.937 67.6254 147.143 68.4981V68.4981Z" fill="#F8C325"/>
<path d="M136.742 58.2281C136.798 58.2268 136.852 58.2131 136.902 58.188C136.952 58.1628 136.995 58.1269 137.029 58.0828C137.063 58.0387 137.087 57.9876 137.099 57.9331C137.111 57.8787 137.11 57.8223 137.097 57.7681C137.06 57.5848 136.959 57.1211 136.921 56.9303C136.869 56.6648 136.805 56.5937 136.547 56.474C135.877 56.166 135.344 55.6212 135.051 54.9444C133.907 52.5882 134.644 49.6224 137.471 48.2498C139.973 47.0305 142.094 47.8758 143.081 49.9328C144.386 52.6218 144.3 55.468 142.535 56.3282C142.315 56.4493 142.07 56.5171 141.819 56.526C141.568 56.535 141.318 56.4849 141.09 56.3797C140.862 56.2746 140.661 56.1173 140.505 55.9206C140.349 55.7239 140.241 55.4933 140.19 55.2473C139.898 53.9308 139.816 52.3937 139.405 51.541C139.031 50.793 138.313 50.3404 137.467 50.7518C136.469 51.238 136.17 52.6592 136.843 54.0393C137.083 54.5497 137.428 55.0035 137.856 55.3707C137.856 55.3707 138.941 60.1879 139.128 61.0331C139.502 62.7124 140.706 64.3991 140.822 64.5898C140.839 64.611 140.861 64.6271 140.886 64.6361C140.912 64.6452 140.939 64.6469 140.965 64.641C140.991 64.6351 141.016 64.6219 141.035 64.6029C141.054 64.584 141.067 64.56 141.073 64.5337C141.106 64.3692 141.581 62.3271 141.271 60.6666C141.185 60.1953 140.68 57.783 140.68 57.783C141.305 58.2431 142.516 58.3291 143.523 57.8391C146.515 56.3805 147.225 52.6592 145.445 49.0015C144.102 46.2377 140.504 44.8015 136.948 46.5331C132.516 48.6874 131.828 52.9472 133.114 55.5951C133.892 57.1996 135.182 58.344 136.742 58.2281Z" fill="white"/>
<path d="M162.316 111.362C161.03 110.872 159.853 110.133 158.853 109.187C157.852 108.241 157.048 107.107 156.487 105.851C155.925 104.594 155.617 103.239 155.579 101.862C155.542 100.486 155.776 99.1164 156.268 97.8309V97.8309C156.758 96.5448 157.497 95.3679 158.443 94.3676C159.388 93.3672 160.521 92.5631 161.778 92.001C163.034 91.439 164.389 91.1302 165.765 91.0922C167.141 91.0542 168.51 91.2878 169.796 91.7796V91.7796C171.082 92.2701 172.259 93.0094 173.259 93.9552C174.26 94.9009 175.064 96.0346 175.625 97.2914C176.187 98.5482 176.495 99.9034 176.533 101.279C176.57 102.656 176.336 104.025 175.844 105.311V105.311C175.353 106.597 174.614 107.774 173.669 108.774C172.724 109.775 171.591 110.579 170.334 111.141C169.078 111.703 167.723 112.012 166.347 112.05C164.971 112.088 163.601 111.854 162.316 111.362V111.362Z" fill="#F8C325"/>
<path fill-rule="evenodd" clip-rule="evenodd" d="M171.531 103.351C171.999 101.976 171.918 100.474 171.307 99.1574C170.695 97.8404 169.599 96.8099 168.247 96.2801C166.895 95.7502 165.391 95.7619 164.047 96.3127C162.704 96.8634 161.624 97.9109 161.033 99.2372C160.999 99.312 160.97 99.3905 160.94 99.4653C160.574 100.418 160.478 101.454 160.663 102.457L158.64 104.9L161.916 105.087C162.547 105.833 163.362 106.403 164.28 106.74C165.198 107.077 166.187 107.17 167.152 107.009C168.117 106.848 169.023 106.44 169.782 105.824C170.541 105.207 171.127 104.404 171.483 103.493C171.502 103.447 171.518 103.399 171.531 103.351V103.351ZM164.53 105.868C163.663 105.539 162.912 104.961 162.372 104.208L160.461 104.099L161.639 102.678C161.375 101.721 161.423 100.704 161.777 99.7757C161.833 99.6336 161.897 99.4915 161.964 99.3569C162.497 98.3015 163.405 97.4829 164.509 97.0615C165.614 96.64 166.836 96.6461 167.937 97.0784C169.037 97.5107 169.936 98.3381 170.459 99.3987C170.981 100.459 171.089 101.677 170.761 102.813C170.727 102.932 170.69 103.048 170.645 103.164C170.192 104.333 169.293 105.274 168.147 105.781C167 106.288 165.7 106.32 164.53 105.868V105.868Z" fill="white"/>
<path fill-rule="evenodd" clip-rule="evenodd" d="M168.225 103.448C168.117 103.336 167.604 102.783 167.5 102.7C167.395 102.618 167.32 102.558 167.185 102.656C167.051 102.753 166.688 102.943 166.583 103C166.479 103.056 166.396 103.037 166.292 102.925C165.968 102.628 165.698 102.278 165.495 101.889C165.313 101.523 165.187 101.132 165.121 100.729C165.099 100.572 165.188 100.527 165.278 100.49C165.368 100.453 165.465 100.389 165.559 100.34L165.63 100.296C165.679 100.258 165.725 100.216 165.768 100.172C165.8 100.144 165.824 100.109 165.838 100.069C165.851 100.028 165.854 99.9856 165.847 99.944C165.847 99.8692 165.82 99.1362 165.809 98.8407C165.798 98.5452 165.674 98.5452 165.6 98.5153C165.525 98.4854 165.443 98.4405 165.357 98.4106C165.29 98.3868 165.22 98.3768 165.15 98.3813C165.08 98.3858 165.011 98.4047 164.949 98.4368C164.751 98.5196 164.573 98.6425 164.425 98.7976C164.277 98.9527 164.162 99.1367 164.089 99.3381C164.034 99.4862 164 99.6409 163.988 99.7981C163.966 100.158 164.008 100.519 164.111 100.864C164.145 100.972 164.463 102.626 165.577 103.643C166.692 104.66 166.763 104.488 167.01 104.555C167.206 104.594 167.407 104.589 167.601 104.541C167.795 104.493 167.976 104.404 168.132 104.279C168.291 104.121 168.399 103.919 168.442 103.699C168.401 103.628 168.33 103.561 168.225 103.448Z" fill="white"/>
<path d="M26.0416 62.9218C23.9219 62.9218 21.889 62.0797 20.3901 60.5809C18.8912 59.082 18.0492 57.0491 18.0492 54.9294V54.9294C18.0492 52.8097 18.8912 50.7768 20.3901 49.2779C21.889 47.7791 23.9219 46.937 26.0416 46.937V46.937C27.0911 46.937 28.1304 47.1437 29.1001 47.5454C30.0698 47.947 30.9509 48.5358 31.693 49.2779C32.4352 50.0201 33.0239 50.9012 33.4256 51.8708C33.8272 52.8405 34.034 53.8798 34.034 54.9294V54.9294C34.034 55.979 33.8272 57.0183 33.4256 57.9879C33.0239 58.9576 32.4352 59.8387 31.693 60.5809C30.9509 61.323 30.0698 61.9117 29.1001 62.3134C28.1304 62.715 27.0911 62.9218 26.0416 62.9218Z" fill="#F8C325"/>
<path d="M21.7854 57.596C22.553 58.0857 23.4402 58.3553 24.3505 58.3754C25.2607 58.3956 26.159 58.1655 26.9475 57.7103C27.7361 57.2551 28.3845 56.5922 28.8222 55.7939C29.2599 54.9956 29.4702 54.0924 29.43 53.1828C29.7678 52.9375 30.0602 52.635 30.2939 52.289C29.9737 52.4295 29.6348 52.5227 29.2878 52.5657C29.6536 52.3519 29.9299 52.0133 30.0658 51.612C29.7196 51.8179 29.3397 51.961 28.9438 52.0346C28.6815 51.7477 28.3311 51.5563 27.948 51.4905C27.5648 51.4248 27.1707 51.4885 26.8278 51.6715C26.4848 51.8546 26.2126 52.1466 26.0539 52.5015C25.8953 52.8564 25.8594 53.254 25.9518 53.6316C25.2569 53.5958 24.5772 53.4146 23.9568 53.0995C23.3364 52.7845 22.789 52.3427 22.3501 51.8028C22.1278 52.188 22.0601 52.6434 22.1607 53.0766C22.2614 53.5099 22.523 53.8888 22.8924 54.1365C22.6145 54.1293 22.3424 54.0549 22.0996 53.9196C22.0949 54.3268 22.2325 54.723 22.4885 55.0397C22.7445 55.3565 23.1029 55.574 23.5021 55.655C23.2447 55.725 22.9748 55.7353 22.7129 55.6849C22.8249 56.0314 23.0422 56.3343 23.3344 56.5515C23.6267 56.7687 23.9795 56.8894 24.3436 56.8966C23.615 57.4551 22.6968 57.7062 21.7854 57.596V57.596Z" fill="white"/>
<path d="M40.3919 152.446C36.8425 153.289 33.1036 152.688 29.9968 150.776C26.8901 148.863 24.6697 145.796 23.8237 142.247C23.4043 140.488 23.3357 138.663 23.6219 136.877C23.9081 135.091 24.5435 133.38 25.4918 131.839C26.44 130.299 27.6825 128.961 29.1482 127.902C30.614 126.842 32.2742 126.082 34.0339 125.664V125.664C35.7922 125.245 37.6158 125.176 39.4007 125.462C41.1855 125.748 42.8965 126.382 44.4361 127.329C45.9756 128.277 47.3136 129.518 48.3735 130.982C49.4334 132.446 50.1945 134.105 50.6133 135.863V135.863C51.0326 137.623 51.1007 139.449 50.8138 141.235C50.5269 143.021 49.8905 144.734 48.9411 146.274C47.9918 147.814 46.748 149.152 45.281 150.211C43.8141 151.27 42.1527 152.03 40.3919 152.446V152.446Z" fill="#455A64"/>
<path d="M35.7805 133.039C37.7403 132.572 37.9759 132.523 38.7725 132.374C39.2387 132.269 39.7194 132.245 40.1937 132.302C40.5409 132.344 40.8744 132.463 41.1699 132.65C41.4681 132.831 41.7233 133.075 41.9179 133.365C42.1826 133.763 42.3774 134.203 42.4938 134.666C42.7145 135.433 42.7781 135.665 43.2418 137.625C43.7056 139.584 43.7542 139.82 43.9038 140.617C44.0105 141.082 44.0345 141.563 43.9749 142.038C43.9367 142.386 43.8176 142.72 43.6271 143.014C43.4485 143.313 43.2058 143.568 42.9165 143.762C42.5171 144.026 42.0758 144.221 41.6112 144.338C40.8632 144.558 40.6164 144.622 38.6566 145.086C36.6968 145.55 36.4612 145.602 35.6646 145.752C35.1974 145.858 34.7151 145.882 34.2397 145.823C33.8922 145.782 33.5585 145.663 33.2635 145.475C32.9683 145.288 32.72 145.036 32.538 144.738C32.2709 144.341 32.0748 143.901 31.9583 143.436C31.7413 142.67 31.6778 142.442 31.2103 140.482C30.7428 138.522 30.6941 138.286 30.5445 137.49C30.4418 137.022 30.4178 136.541 30.4735 136.065C30.5195 135.719 30.6378 135.387 30.8208 135.09C31.0038 134.793 31.2474 134.537 31.5356 134.341C31.9331 134.074 32.3733 133.878 32.8372 133.761C33.5852 133.544 33.8357 133.481 35.7955 133.013L35.7805 133.039ZM35.4813 131.689C33.4879 132.164 33.2373 132.231 32.4632 132.456C31.8574 132.606 31.2818 132.859 30.7615 133.204C30.32 133.509 29.9467 133.903 29.6654 134.36C29.384 134.817 29.2007 135.328 29.1271 135.859C29.0485 136.483 29.0763 137.115 29.2094 137.729C29.3627 138.518 29.4113 138.773 29.8863 140.766C30.3613 142.76 30.4286 143.01 30.6343 143.781C30.7839 144.387 31.0369 144.962 31.3823 145.482C31.6866 145.94 32.089 146.325 32.5604 146.608C33.014 146.893 33.5246 147.076 34.0564 147.143C34.6799 147.222 35.3123 147.194 35.9264 147.061C36.7155 146.911 36.9699 146.859 38.9633 146.384C40.9567 145.909 41.2073 145.841 41.9777 145.636C42.5826 145.483 43.1577 145.23 43.6794 144.888C44.1255 144.587 44.5007 144.192 44.779 143.732C45.0629 143.277 45.2465 142.767 45.3175 142.236C45.3949 141.612 45.3659 140.98 45.2315 140.366C45.0819 139.573 45.0296 139.322 44.5546 137.329C44.0796 135.336 44.0123 135.085 43.8066 134.311C43.6529 133.706 43.4002 133.131 43.0586 132.609C42.7576 132.164 42.3632 131.79 41.9029 131.513C41.45 131.226 40.9392 131.042 40.4069 130.975C39.7834 130.896 39.151 130.924 38.5369 131.057C37.744 131.21 37.4935 131.259 35.5 131.734" fill="white"/>
<path d="M36.3153 135.287C35.5699 135.465 34.8939 135.859 34.3728 136.421C33.8516 136.983 33.5088 137.687 33.3875 138.443C33.2663 139.2 33.3722 139.975 33.6917 140.672C34.0112 141.368 34.5301 141.954 35.1827 142.356C35.8353 142.758 36.5923 142.957 37.3581 142.928C38.1238 142.899 38.8639 142.644 39.4847 142.195C40.1055 141.746 40.5792 141.123 40.8458 140.405C41.1125 139.686 41.1602 138.905 40.9828 138.159C40.744 137.16 40.1184 136.296 39.2433 135.758C38.3681 135.219 37.3151 135.05 36.3153 135.287V135.287ZM37.8113 141.507C37.327 141.621 36.8197 141.589 36.3535 141.415C35.8872 141.242 35.483 140.933 35.1918 140.53C34.9006 140.126 34.7355 139.646 34.7175 139.148C34.6994 138.651 34.8292 138.16 35.0903 137.736C35.3514 137.312 35.7323 136.976 36.1847 136.769C36.6371 136.561 37.1407 136.493 37.632 136.572C38.1233 136.651 38.5802 136.874 38.945 137.212C39.3097 137.55 39.5659 137.989 39.6813 138.473C39.758 138.795 39.7705 139.129 39.718 139.456C39.6655 139.783 39.5491 140.096 39.3754 140.378C39.2017 140.66 38.9741 140.904 38.7058 141.098C38.4374 141.292 38.1334 141.431 37.8113 141.507" fill="white"/>
<path d="M41.0801 133.997C41.121 134.171 41.1094 134.353 41.0468 134.521C40.9842 134.688 40.8733 134.833 40.7282 134.938C40.5832 135.043 40.4104 135.102 40.2317 135.108C40.0529 135.115 39.8763 135.068 39.7241 134.974C39.5719 134.88 39.4508 134.743 39.3763 134.581C39.3018 134.418 39.2771 134.237 39.3053 134.061C39.3335 133.884 39.4135 133.72 39.535 133.589C39.6565 133.458 39.8141 133.365 39.988 133.324C40.104 133.295 40.2244 133.29 40.3423 133.309C40.4602 133.327 40.5732 133.369 40.6748 133.432C40.7764 133.495 40.8645 133.577 40.9341 133.674C41.0037 133.771 41.0533 133.88 41.0801 133.997" fill="white"/>
<path d="M144.667 140.332C143.824 140.333 142.989 140.167 142.21 139.845C141.431 139.523 140.723 139.05 140.126 138.454C139.53 137.858 139.057 137.15 138.734 136.371C138.411 135.592 138.245 134.758 138.245 133.914C138.245 133.071 138.411 132.236 138.734 131.458C139.057 130.679 139.53 129.971 140.126 129.375C140.723 128.779 141.431 128.306 142.21 127.984C142.989 127.662 143.824 127.496 144.667 127.497V127.497C145.511 127.495 146.346 127.66 147.126 127.982C147.906 128.304 148.615 128.776 149.212 129.372C149.809 129.968 150.283 130.676 150.606 131.456C150.93 132.235 151.096 133.071 151.096 133.914C151.096 134.758 150.93 135.594 150.606 136.373C150.283 137.152 149.809 137.86 149.212 138.456C148.615 139.053 147.906 139.525 147.126 139.847C146.346 140.169 145.511 140.334 144.667 140.332V140.332Z" fill="#455A64"/>
<path d="M143.687 137.793H145.25V133.892H146.339L146.458 132.583H145.25V131.835C145.25 131.528 145.314 131.405 145.624 131.405H146.473V130.044H145.389C144.226 130.044 143.702 130.556 143.702 131.54V132.587H142.868V133.892H143.68L143.687 137.793Z" fill="white"/>
<path d="M122.773 175.799L71.2022 175.78C68.2264 175.78 65.3726 174.598 63.2684 172.494C61.1643 170.39 59.9822 167.536 59.9822 164.56L60.0046 35.2757C60.0046 33.8004 60.2956 32.3395 60.8608 30.9768C61.4261 29.6141 62.2546 28.3762 63.2988 27.334C64.3431 26.2918 65.5826 25.4658 66.9465 24.9033C68.3103 24.3408 69.7717 24.0527 71.2471 24.0557L122.814 24.0856C125.79 24.0856 128.644 25.2677 130.748 27.3719C132.852 29.476 134.034 32.3299 134.034 35.3056L134.012 164.56C134.014 166.037 133.725 167.499 133.161 168.864C132.597 170.228 131.77 171.468 130.725 172.512C129.681 173.557 128.441 174.384 127.077 174.948C125.712 175.512 124.25 175.801 122.773 175.799V175.799Z" fill="#263238"/>
<path d="M122.758 28.6185H112.757C112.101 28.6342 111.477 28.9088 111.023 29.3824C110.568 29.856 110.319 30.4903 110.33 31.1467V32.9606C110.337 33.2866 110.281 33.6108 110.163 33.9148C110.045 34.2187 109.868 34.4964 109.642 34.7319C109.417 34.9674 109.147 35.1562 108.849 35.2874C108.55 35.4185 108.229 35.4895 107.903 35.4963H88.4136C88.0875 35.4891 87.766 35.4176 87.4674 35.286C87.1689 35.1544 86.8993 34.9653 86.6739 34.7295C86.4484 34.4937 86.2717 34.2157 86.1538 33.9116C86.0358 33.6074 85.9789 33.283 85.9864 32.9569V31.1318C85.9994 30.4737 85.7514 29.8371 85.2966 29.3613C84.8418 28.8854 84.2171 28.609 83.5591 28.5923H80.036H71.2882C70.2552 28.5898 69.2319 28.7912 68.2768 29.1848C67.3218 29.5784 66.4537 30.1565 65.7225 30.8861C64.9912 31.6156 64.411 32.4823 64.0151 33.4364C63.6192 34.3905 63.4155 35.4133 63.4155 36.4463L63.3893 162.638C63.3893 164.721 64.2168 166.718 65.6897 168.191C67.1626 169.664 69.1603 170.492 71.2433 170.492L122.713 170.522C123.745 170.522 124.766 170.318 125.719 169.924C126.672 169.529 127.537 168.95 128.267 168.221C128.996 167.492 129.575 166.626 129.969 165.673C130.364 164.72 130.567 163.699 130.567 162.668L130.593 36.4725C130.593 34.3927 129.768 32.3978 128.3 30.9255C126.831 29.4531 124.838 28.6234 122.758 28.6185Z" fill="white"/>
<path d="M123.51 38.8698C123.51 38.9035 122.208 38.9409 120.608 38.9521C119.007 38.9633 117.702 38.9521 117.702 38.9184C117.702 38.8848 118.999 38.8436 120.604 38.8324C122.208 38.8212 123.51 38.8362 123.51 38.8698Z" fill="#263238"/>
<path d="M123.521 40.3546C123.521 40.3883 122.223 40.4257 120.619 40.4406C119.014 40.4556 117.713 40.4406 117.713 40.4032C117.713 40.3658 119.014 40.3322 120.619 40.3172C122.223 40.3023 123.521 40.321 123.521 40.3546Z" fill="#263238"/>
<path d="M123.536 41.8394C123.536 41.873 122.234 41.9142 120.63 41.9254C119.026 41.9366 117.728 41.9254 117.724 41.888C117.72 41.8506 119.026 41.8169 120.63 41.802C122.234 41.787 123.536 41.8057 123.536 41.8394Z" fill="#263238"/>
<path d="M68.816 43.2905H68.9694H69.392L70.9553 43.2531L70.9104 43.2942C70.9104 42.9501 70.9104 42.5724 70.8917 42.1722C70.8917 41.9628 70.8917 41.7646 70.8917 41.5215C70.9164 41.3958 70.9804 41.2813 71.0746 41.1946C71.1687 41.1078 71.2881 41.0533 71.4153 41.039C71.6696 41.039 71.8903 41.039 72.1633 41.039C72.3063 41.0621 72.4365 41.1354 72.5304 41.2457C72.6242 41.3561 72.6758 41.4963 72.6757 41.6411C72.6757 42.1722 72.6757 42.722 72.6944 43.2942L72.6233 43.2232H74.5943L74.5195 43.298C74.5195 42.5051 74.5195 41.6823 74.4971 40.8408C74.4971 40.6313 74.4971 40.4256 74.4971 40.2162C74.4886 40.1231 74.4593 40.0331 74.4114 39.9529C74.3635 39.8726 74.2982 39.8041 74.2203 39.7524L73.3601 38.8997L72.5261 38.0807L72.1259 37.6842C71.9875 37.5496 71.8791 37.4112 71.7182 37.3775C71.6412 37.3573 71.5605 37.3545 71.4822 37.3693C71.4039 37.3842 71.33 37.4164 71.2657 37.4636C71.146 37.5645 71.0189 37.7067 70.8917 37.8376L70.1811 38.5519C69.736 39.0119 69.2723 39.4345 68.9357 39.8347C68.8358 40.0706 68.8021 40.3292 68.8384 40.5827C68.8384 40.8258 68.8384 41.0577 68.8384 41.2746C68.8384 41.701 68.8384 42.075 68.8384 42.3966C68.8384 42.7183 68.8384 42.9165 68.8384 43.111C68.8438 43.1969 68.8438 43.2831 68.8384 43.369C68.8341 43.2905 68.8341 43.2119 68.8384 43.1334C68.8384 42.9427 68.8384 42.707 68.8384 42.4265C68.8384 42.146 68.8385 41.7272 68.8123 41.3045C68.8123 41.0801 68.8123 40.8445 68.8123 40.5939C68.8123 40.4668 68.8123 40.3396 68.8123 40.2199C68.8114 40.0756 68.8488 39.9337 68.9207 39.8085C69.2947 39.3635 69.7211 38.967 70.1699 38.4921L70.873 37.7702C71.0002 37.6468 71.1011 37.5234 71.247 37.3962C71.3274 37.335 71.4207 37.2927 71.5198 37.2726C71.6189 37.2525 71.7213 37.2552 71.8192 37.2803C72.0054 37.3487 72.1696 37.4663 72.2942 37.6206L72.6981 38.0171L73.5321 38.8361L74.3961 39.6814C74.477 39.754 74.5509 39.8342 74.6167 39.9207C74.6815 40.02 74.7177 40.1352 74.7215 40.2536C74.7215 40.463 74.7215 40.6725 74.7215 40.8819C74.7215 41.7234 74.7215 42.5462 74.7402 43.3391V43.4139H74.6654H72.6944H72.556V43.3428C72.556 42.7706 72.556 42.2208 72.556 41.6898C72.5585 41.5757 72.5198 41.4645 72.447 41.3766C72.3742 41.2886 72.2721 41.2299 72.1596 41.211C71.9314 41.211 71.6622 41.211 71.4415 41.211C71.3407 41.2211 71.2456 41.2627 71.1698 41.3298C71.0939 41.3969 71.0411 41.4862 71.0189 41.585C71.0189 41.7833 71.0189 42.0114 71.0189 42.2134C71.0189 42.621 71.0189 43.0025 71.0189 43.3354V43.3802H70.974H69.3845H68.9694C68.9153 43.3557 68.8639 43.3256 68.816 43.2905Z" fill="#263238"/>
<path d="M102.85 141.899C102.671 141.928 102.489 141.94 102.308 141.937L100.834 141.967C99.5925 141.985 97.8721 141.997 95.9722 141.997C94.0723 141.997 92.3519 141.997 91.1102 141.967L89.6367 141.937C89.4552 141.94 89.2737 141.927 89.0944 141.899C89.2735 141.869 89.4551 141.857 89.6367 141.862L91.1102 141.828C92.3519 141.828 94.0723 141.802 95.9722 141.802C97.8721 141.802 99.5888 141.802 100.834 141.828L102.308 141.862C102.489 141.856 102.671 141.869 102.85 141.899V141.899Z" fill="#455A64"/>
<path d="M124.456 145.28C124.456 145.336 116.538 145.378 106.773 145.378C97.0081 145.378 89.0906 145.336 89.0906 145.28C89.0906 145.224 97.0081 145.183 106.773 145.183C116.538 145.183 124.456 145.228 124.456 145.28Z" fill="#455A64"/>
<path d="M113.404 148.478C113.404 148.534 107.963 148.575 101.249 148.575C94.536 148.575 89.0906 148.534 89.0906 148.478C89.0906 148.422 94.5323 148.381 101.249 148.381C107.966 148.381 113.404 148.411 113.404 148.478Z" fill="#455A64"/>
<path d="M125.155 154.66L124.056 153.557L123.009 154.6V151.444H125.152L125.155 154.66ZM124.056 153.419L124.09 153.452L125.058 154.425V151.545H123.11V154.369L124.056 153.419Z" fill="#263238"/>
<path d="M95.8974 154.249L95.5234 154.077C95.3001 154.182 95.0456 154.2 94.8097 154.127C94.5739 154.055 94.3736 153.897 94.2481 153.684C94.1226 153.472 94.0809 153.22 94.1311 152.978C94.1813 152.737 94.3199 152.522 94.5197 152.378C94.7195 152.233 94.9662 152.168 95.2114 152.195C95.4567 152.222 95.6829 152.34 95.8459 152.526C96.0088 152.711 96.0967 152.951 96.0924 153.197C96.0881 153.444 95.9919 153.68 95.8226 153.86L95.8974 154.249ZM94.9961 152.147C94.7403 152.165 94.5011 152.28 94.3271 152.468C94.1531 152.656 94.0576 152.904 94.06 153.16C94.0624 153.416 94.1625 153.662 94.3399 153.847C94.5174 154.032 94.7588 154.142 95.0148 154.155C95.1855 154.144 95.351 154.091 95.4972 154.002V154.002L95.7852 154.129L95.7179 153.849C95.8497 153.705 95.9367 153.525 95.968 153.333C95.9994 153.14 95.9738 152.942 95.8943 152.764C95.8149 152.585 95.6851 152.434 95.5208 152.329C95.3566 152.223 95.1651 152.168 94.9699 152.169L94.9961 152.147Z" fill="#263238"/>
<path d="M98.3883 154.088L97.9469 153.003L97.1129 152.255H99.1325L98.3883 154.088ZM97.2999 152.319L98.0105 152.97L98.3845 153.893L99.0203 152.304L97.2999 152.319Z" fill="#263238"/>
<path d="M99.0903 152.231L97.9868 152.949L98.0276 153.012L99.1311 152.294L99.0903 152.231Z" fill="#263238"/>
<path d="M92.7147 152.465C92.6849 152.321 92.6051 152.191 92.4894 152.1C92.3736 152.009 92.2294 151.962 92.0821 151.967C91.9349 151.972 91.7941 152.029 91.6847 152.127C91.5753 152.226 91.5043 152.36 91.4842 152.506C91.4641 152.358 91.3918 152.223 91.2803 152.124C91.1689 152.025 91.0258 151.969 90.8767 151.966C90.7277 151.963 90.5826 152.014 90.4677 152.109C90.3527 152.204 90.2756 152.337 90.25 152.484C90.2213 152.699 90.2761 152.917 90.4034 153.093C90.5297 153.266 90.6781 153.422 90.8447 153.557C91.0728 153.755 91.2785 153.931 91.5029 154.14C91.7273 153.938 91.9143 153.748 92.1387 153.546C92.3032 153.408 92.449 153.25 92.5726 153.074C92.6977 152.898 92.7487 152.679 92.7147 152.465V152.465Z" fill="#F8C325"/>
<path d="M127.407 157.454C127.407 157.454 127.407 157.331 127.407 157.102C127.407 156.874 127.407 156.526 127.407 156.078C127.407 155.176 127.407 153.834 127.388 152.128C127.388 148.691 127.37 143.691 127.355 137.419L127.418 137.482L67.6118 137.516L67.7091 137.419C67.7091 144.383 67.7091 151.133 67.7091 157.454L67.6156 157.361L110.412 157.402L122.904 157.428H126.27H127.138H127.437H127.149H126.292H122.96L110.487 157.454L67.6268 157.499H67.5295V157.454C67.5295 151.133 67.5295 144.383 67.5295 137.419V137.322H67.6343L127.441 137.355H127.504V137.419C127.504 143.706 127.478 148.721 127.471 152.169C127.471 153.882 127.471 155.203 127.471 156.104C127.471 156.545 127.471 156.882 127.471 157.114C127.471 157.346 127.407 157.454 127.407 157.454Z" fill="#263238"/>
<path d="M70.0884 140.769L70.0121 154.015L86.58 154.111L86.6563 140.864L70.0884 140.769Z" fill="#EBEBEB"/>
<path d="M86.6521 140.856H86.3342H85.4291H82.0295L70.0615 140.83L70.1512 140.744C70.1325 144.689 70.1101 149.207 70.0876 153.987C70.1063 154.013 69.9044 153.804 69.9904 153.89H71.1311H72.2531H74.4971L78.7981 153.916L86.5549 153.972L86.4763 154.054C86.5137 150.075 86.5474 146.776 86.5736 144.457C86.5736 143.306 86.5997 142.4 86.6072 141.768C86.6072 141.465 86.6072 141.23 86.6072 141.058C86.6072 140.886 86.6072 140.807 86.6072 140.807C86.6072 140.807 86.6072 140.882 86.6072 141.039C86.6072 141.196 86.6072 141.439 86.6072 141.739C86.6072 142.363 86.6072 143.264 86.6072 144.409C86.6072 146.739 86.6072 150.056 86.6072 154.054V154.133H86.5249L78.7682 154.103L74.4672 154.081H72.2232H71.1012H69.9605L69.8595 153.98C69.8932 149.196 69.9193 144.678 69.9455 140.736V140.646H70.0353L82.0407 140.755L85.4067 140.8H86.2931H86.5175L86.6521 140.856Z" fill="#263238"/>
<path d="M70.6558 141.606L70.5891 153.185L85.9939 153.274L86.0606 141.695L70.6558 141.606Z" fill="#E0E0E0"/>
<path d="M70.5813 153.175L76.0043 146.01L79.3105 150.531L81.5844 148.138L85.9864 153.265L70.5813 153.175Z" fill="#F5F5F5"/>
<path d="M80.7579 145.157C80.7572 145.397 80.685 145.632 80.5507 145.832C80.4164 146.031 80.2258 146.187 80.0032 146.278C79.7806 146.369 79.536 146.392 79.3002 146.344C79.0645 146.296 78.8483 146.18 78.679 146.009C78.5096 145.838 78.3948 145.62 78.3491 145.384C78.3033 145.148 78.3287 144.904 78.4219 144.682C78.5152 144.46 78.6722 144.271 78.8729 144.139C79.0737 144.006 79.3093 143.936 79.5499 143.938C79.7093 143.938 79.8671 143.97 80.0142 144.032C80.1613 144.093 80.2947 144.183 80.407 144.297C80.5192 144.41 80.6079 144.544 80.6682 144.692C80.7284 144.839 80.7589 144.997 80.7579 145.157V145.157Z" fill="#F5F5F5"/>
<path d="M98.0217 54.9294C97.9623 54.9394 97.9016 54.9394 97.8422 54.9294L97.3373 54.9481L95.4673 54.9817C93.8928 54.9817 91.7273 55.0079 89.3113 55.0079C86.8953 55.0079 84.7298 55.0079 83.1553 54.9817L81.2853 54.9481L80.7766 54.9294C80.7185 54.9397 80.659 54.9397 80.6008 54.9294C80.6583 54.9152 80.7174 54.9089 80.7766 54.9107H81.2853L83.1553 54.8808C84.7298 54.8621 86.8953 54.8508 89.3113 54.8508C91.7273 54.8508 93.8928 54.8508 95.4673 54.8808L97.3373 54.9107H97.8422C97.9026 54.9091 97.963 54.9154 98.0217 54.9294Z" fill="#263238"/>
<path d="M122.496 128.151L120.866 126.513L119.306 128.065V123.375H122.493L122.496 128.151ZM120.866 126.311L120.914 126.36L122.354 127.803V123.525H119.452V127.721L120.866 126.311Z" fill="#263238"/>
<path d="M81.0347 127.657L80.2867 127.317C79.8511 127.52 79.3556 127.553 78.8971 127.409C78.4386 127.266 78.0501 126.957 77.8074 126.542C77.5647 126.128 77.4854 125.637 77.5849 125.167C77.6844 124.697 77.9557 124.282 78.3455 124.001C78.7354 123.72 79.216 123.595 79.6932 123.65C80.1704 123.705 80.61 123.936 80.9261 124.297C81.2422 124.659 81.412 125.126 81.4023 125.606C81.3927 126.086 81.2042 126.546 80.8739 126.894L81.0347 127.657ZM79.2507 123.525C78.9914 123.527 78.735 123.58 78.4963 123.681C78.2575 123.783 78.0411 123.93 77.8593 124.115C77.6775 124.3 77.5339 124.519 77.4367 124.759C77.3395 125 77.2906 125.257 77.2928 125.516C77.295 125.776 77.3483 126.032 77.4496 126.271C77.5508 126.509 77.6982 126.726 77.8831 126.908C78.068 127.09 78.2869 127.233 78.5274 127.33C78.7678 127.428 79.025 127.476 79.2844 127.474C79.6208 127.454 79.947 127.351 80.2343 127.175L80.268 127.156L80.829 127.407L80.7018 126.853L80.728 126.827C80.9878 126.544 81.159 126.19 81.2205 125.811C81.282 125.431 81.231 125.042 81.074 124.691C80.917 124.34 80.6607 124.042 80.3367 123.835C80.0127 123.628 79.6352 123.52 79.2507 123.525V123.525Z" fill="#263238"/>
<path d="M85.9415 127.332L85.0663 125.197L83.4282 123.701L87.4076 123.671L85.9415 127.332ZM83.7985 123.843L85.1972 125.125L85.9452 126.943L87.1944 123.816L83.7985 123.843Z" fill="#263238"/>
<path d="M87.3285 123.664L85.1592 125.076L85.2387 125.198L87.408 123.786L87.3285 123.664Z" fill="#263238"/>
<path d="M74.7739 124.168C74.7174 123.882 74.561 123.625 74.3326 123.443C74.1042 123.261 73.8186 123.167 73.5269 123.176C73.2352 123.186 72.9564 123.299 72.7402 123.495C72.524 123.691 72.3845 123.957 72.3467 124.247C72.3038 123.958 72.16 123.695 71.9409 123.503C71.7219 123.311 71.4418 123.202 71.1505 123.197C70.8591 123.193 70.5755 123.291 70.3501 123.476C70.1247 123.66 69.972 123.919 69.9194 124.205C69.8632 124.628 69.9717 125.057 70.2223 125.402C70.4733 125.743 70.7661 126.051 71.0938 126.319C71.5388 126.693 71.9465 127.067 72.3915 127.467C72.8254 127.07 73.1994 126.696 73.637 126.296C73.9602 126.024 74.248 125.712 74.4934 125.369C74.7368 125.019 74.8372 124.589 74.7739 124.168V124.168Z" fill="#F8C325"/>
<path d="M74.4111 57.6297C75.9024 57.6297 77.1114 56.4207 77.1114 54.9294C77.1114 53.4381 75.9024 52.2291 74.4111 52.2291C72.9198 52.2291 71.7108 53.4381 71.7108 54.9294C71.7108 56.4207 72.9198 57.6297 74.4111 57.6297Z" fill="#EBEBEB"/>
<path d="M121.479 112.667C121.479 112.724 110.162 112.768 96.2041 112.768C82.2464 112.768 70.9254 112.724 70.9254 112.667C70.9254 112.611 82.2427 112.57 96.2041 112.57C110.165 112.57 121.479 112.615 121.479 112.667Z" fill="#455A64"/>
<path d="M121.479 108.46C121.479 108.512 110.162 108.557 96.2041 108.557C82.2464 108.557 70.9254 108.512 70.9254 108.46C70.9254 108.408 82.2427 108.363 96.2041 108.363C110.165 108.363 121.479 108.408 121.479 108.46Z" fill="#455A64"/>
<path d="M98.4406 116.935C98.4406 116.987 92.2808 117.032 84.6849 117.032C77.0889 117.032 70.9254 116.987 70.9254 116.935C70.9254 116.882 77.0852 116.838 84.6849 116.838C92.2846 116.838 98.4406 116.882 98.4406 116.935Z" fill="#455A64"/>
<path d="M95.0484 162.798C95.0447 163.011 94.9782 163.218 94.8573 163.392C94.7364 163.567 94.5664 163.702 94.3689 163.781C94.1713 163.859 93.955 163.878 93.7471 163.833C93.5392 163.789 93.3491 163.684 93.2006 163.532C93.0521 163.38 92.952 163.187 92.9128 162.979C92.8736 162.77 92.897 162.554 92.9802 162.358C93.0634 162.163 93.2026 161.996 93.3803 161.879C93.558 161.763 93.7662 161.701 93.9787 161.703C94.121 161.704 94.2616 161.734 94.3924 161.79C94.5232 161.845 94.6417 161.927 94.7411 162.028C94.8405 162.13 94.9188 162.251 94.9715 162.383C95.0242 162.515 95.0503 162.656 95.0484 162.798V162.798Z" fill="#263238"/>
<path d="M98.3621 162.813C98.3577 163.025 98.2909 163.23 98.1701 163.404C98.0494 163.578 97.88 163.712 97.6833 163.789C97.4866 163.867 97.2713 163.885 97.0645 163.841C96.8577 163.796 96.6686 163.692 96.5208 163.541C96.3731 163.389 96.2734 163.198 96.2342 162.99C96.195 162.782 96.218 162.567 96.3005 162.373C96.3829 162.178 96.521 162.012 96.6975 161.895C96.874 161.779 97.081 161.717 97.2925 161.718C97.4349 161.719 97.5757 161.748 97.7067 161.803C97.8378 161.859 97.9565 161.94 98.0559 162.042C98.1554 162.144 98.2337 162.265 98.2862 162.397C98.3388 162.53 98.3646 162.671 98.3621 162.813V162.813Z" fill="#263238"/>
<path d="M101.702 162.828C101.697 163.04 101.631 163.245 101.51 163.419C101.389 163.592 101.22 163.727 101.023 163.804C100.826 163.882 100.611 163.9 100.404 163.856C100.197 163.811 100.008 163.707 99.8606 163.556C99.7128 163.404 99.6131 163.213 99.5739 163.005C99.5347 162.797 99.5578 162.582 99.6402 162.388C99.7226 162.193 99.8607 162.027 100.037 161.91C100.214 161.794 100.421 161.732 100.632 161.733C100.774 161.734 100.915 161.764 101.046 161.819C101.177 161.875 101.295 161.957 101.395 162.058C101.494 162.16 101.572 162.281 101.625 162.413C101.678 162.545 101.704 162.686 101.702 162.828V162.828Z" fill="#263238"/>
<path d="M127.766 60.2701H67.9521V96.8473H127.766V60.2701Z" fill="#E0E0E0"/>
<path d="M73.4761 96.8585L90.6128 73.9174L101.242 88.264L108.441 80.5895L122.567 96.8436L73.4761 96.8585Z" fill="#F5F5F5"/>
<path d="M105.745 71.1012C105.746 71.8662 105.519 72.6142 105.095 73.2506C104.67 73.8871 104.067 74.3833 103.36 74.6766C102.654 74.9699 101.876 75.047 101.126 74.8982C100.375 74.7494 99.6857 74.3814 99.1445 73.8407C98.6033 73.3 98.2346 72.611 98.0851 71.8607C97.9356 71.1105 98.0119 70.3327 98.3045 69.6259C98.5971 68.919 99.0928 68.3148 99.7288 67.8897C100.365 67.4646 101.113 67.2377 101.878 67.2377C102.903 67.2377 103.886 67.6446 104.611 68.3691C105.336 69.0935 105.744 70.0762 105.745 71.1012Z" fill="#F5F5F5"/>
<path d="M127.605 130.844C127.605 130.062 127.568 97.0193 127.515 48.1001L127.605 48.1899H67.7988L67.8961 48.0927C67.8961 79.0374 67.8961 107.675 67.8961 130.836L67.8138 130.758L127.628 130.836L67.8138 130.919H67.7353V130.836C67.7353 107.675 67.7353 79.0374 67.7166 48.0927V47.9954H67.8213H127.628H127.717V48.0814C127.699 72.5672 127.684 93.2606 127.672 107.839C127.672 115.117 127.654 120.866 127.65 124.8C127.65 126.76 127.65 128.267 127.65 129.288C127.65 129.793 127.65 130.178 127.65 130.44C127.65 130.702 127.605 130.844 127.605 130.844Z" fill="#263238"/>
<path d="M99.484 141.11L100.808 136.663C101.04 135.698 101.346 134.561 101.758 133.264C102.132 132.097 103.082 130.87 103.95 129.987C105.3 128.615 105.943 128.607 106.848 127.878C106.93 127.826 107.024 127.747 107.102 127.706C107.273 127.613 107.424 127.486 107.544 127.332C108.325 126.487 107.574 125.174 105.984 125.301C104.791 125.395 102.839 125.735 99.6672 129.008C99.6261 129.06 99.5849 129.101 99.5475 129.15C97.8832 131.315 96.3199 125.137 96.0357 122.837C95.9805 122.48 95.8459 122.141 95.6418 121.843C95.4376 121.546 95.1692 121.298 94.8564 121.119C94.5435 120.939 94.1943 120.832 93.8346 120.806C93.4748 120.779 93.1138 120.834 92.7781 120.967L85.0513 124.579C84.3143 124.366 83.5284 124.392 82.8073 124.654C82.2666 124.844 81.816 125.228 81.5435 125.733C81.2711 126.237 81.1963 126.824 81.3337 127.381L84.4716 139.876L75.2675 170.507H95.1082L99.484 141.11Z" fill="#FFBE9D"/>
<path d="M114.743 112.978L108.61 124.998L105.543 124.146L90.1339 136.686C89.5051 137.2 88.7002 137.449 87.8906 137.379C87.0811 137.309 86.3307 136.926 85.7993 136.312L79.9275 129.494C79.9275 129.494 91.7646 124.396 93.9525 120.177C96.1404 115.959 93.6121 114.998 93.6121 114.998L99.181 108.669L114.743 112.978Z" fill="#F8C325"/>
<path d="M106.788 88.4286C106.788 88.4286 97.8122 86.4426 85.1748 74.2951C72.5373 62.1476 66.6057 46.002 65.076 46.0918C63.5463 46.1815 56.7769 43.0362 43.9338 70.9703C31.0906 98.9043 36.1508 105.378 38.6978 105.341C41.2447 105.303 58.6021 100.453 69.4406 101.683C80.2791 102.914 94.2106 108.565 94.2106 108.565L106.788 88.4286Z" fill="#F8C325"/>
<path d="M125.859 103.654L122.795 109.477L121.423 112.095C120.517 113.819 118.984 115.129 117.141 115.755C115.297 116.381 113.284 116.276 111.516 115.461L92.2733 108.755L103.493 83.1739L122.717 93.4177C124.485 94.3641 125.808 95.9712 126.397 97.8887C126.985 99.8062 126.792 101.879 125.859 103.654Z" fill="#F8C325"/>
<g opacity="0.4">
<path opacity="0.4" d="M125.859 103.654L122.795 109.477L121.423 112.095C120.517 113.819 118.984 115.129 117.141 115.755C115.297 116.381 113.284 116.276 111.516 115.461L92.2733 108.755L103.493 83.1739L122.717 93.4177C124.485 94.3641 125.808 95.9712 126.397 97.8887C126.985 99.8062 126.792 101.879 125.859 103.654Z" fill="black"/>
</g>
<path d="M44.9585 71.4789C38.1255 86.6109 35.2794 100.097 38.6005 101.597C41.9216 103.097 50.1609 92.0489 56.9938 76.9131C63.8268 61.7773 66.673 48.2984 63.3518 46.7949C60.0307 45.2914 51.7915 56.3468 44.9585 71.4789Z" fill="#F8C325"/>
<g opacity="0.5">
<path opacity="0.5" d="M44.9585 71.4789C38.1255 86.6109 35.2794 100.097 38.6005 101.597C41.9216 103.097 50.1609 92.0489 56.9938 76.9131C63.8268 61.7773 66.673 48.2984 63.3518 46.7949C60.0307 45.2914 51.7915 56.3468 44.9585 71.4789Z" fill="black"/>
</g>
<path d="M127.512 112.069L122.294 110.431L125.522 104.297L129.434 106.728L127.512 112.069Z" fill="#F8C325"/>
<g opacity="0.6">
<path opacity="0.6" d="M125.522 104.297L122.294 110.431L123.368 110.768L125.989 104.585L125.522 104.297Z" fill="black"/>
</g>
<path d="M121.924 105.711C121.849 105.879 119.246 104.87 116.112 103.467C112.978 102.065 110.502 100.763 110.573 100.595C110.644 100.427 113.251 101.44 116.389 102.857C119.527 104.275 122.003 105.543 121.924 105.711Z" fill="#F8C325"/>
<path d="M123.532 102.057C123.45 102.222 121.094 101.231 118.27 99.8393C115.446 98.448 113.225 97.1877 113.307 97.0194C113.389 96.8511 115.742 97.8459 118.565 99.2372C121.389 100.628 123.614 101.889 123.532 102.057Z" fill="#F8C325"/>
<path d="M119.904 109.545C119.878 109.634 119.257 109.492 118.27 109.171C117.776 109.017 117.189 108.823 116.542 108.602C115.895 108.381 115.233 108.03 114.519 107.705C111.665 106.381 109.485 105.087 109.556 104.929C109.627 104.772 111.972 105.786 114.792 107.099C115.502 107.42 116.161 107.772 116.781 108.03C117.402 108.288 117.96 108.516 118.427 108.726C119.362 109.156 119.931 109.455 119.904 109.545Z" fill="#F8C325"/>
<path d="M58.89 68.1167C58.89 68.1167 51.0884 63.2771 46.821 73.8202C42.5537 84.3632 50.7592 86.0948 50.7592 86.0948C54.3027 80.5149 57.04 74.4624 58.89 68.1167V68.1167Z" fill="#F8C325"/>
<g opacity="0.5">
<path opacity="0.5" d="M67.1891 55.5502C67.2377 55.5502 67.1255 56.2758 66.8861 57.5661C66.6468 58.8564 66.2877 60.7227 65.7866 63.019L64.702 66.7104C64.505 67.3711 64.3018 68.0555 64.0924 68.7637L63.7745 69.837C63.6585 70.211 63.5052 70.5514 63.3705 70.9142L61.609 75.462C61.4557 75.8584 61.2986 76.2549 61.1452 76.6551C60.9919 77.0552 60.7712 77.4367 60.5955 77.8332L59.4361 80.2267L58.2729 82.6166C58.0747 82.9906 57.8989 83.4095 57.6857 83.776C57.4726 84.1425 57.2482 84.524 57.035 84.8793L54.5479 89.0793C54.3459 89.4084 54.1739 89.7488 53.9495 90.0629L53.3025 90.9792L52.0608 92.7296L49.8168 95.8599C48.3208 97.6664 47.0716 99.0913 46.2114 100.082C45.7889 100.619 45.3223 101.119 44.8164 101.578C45.168 100.995 45.5684 100.442 46.0132 99.9253C46.8435 98.8669 48.0141 97.3859 49.4503 95.5645L51.6008 92.4117L52.805 90.6576C53.0145 90.3584 53.2239 90.0517 53.4371 89.7413C53.6503 89.4309 53.8111 89.0906 54.0168 88.7577L56.474 84.5614L57.1135 83.4619C57.3342 83.0879 57.4875 82.7139 57.6932 82.3099L58.8451 79.935C59.2191 79.1309 59.6193 78.3418 60.0008 77.5601C60.1803 77.1861 60.3972 76.7897 60.5468 76.3932L61.0143 75.2114L62.8021 70.7234C62.9404 70.3494 63.0975 70.0166 63.2172 69.6575C63.3369 69.2985 63.4379 68.9469 63.5463 68.5954L64.1821 66.5645L65.3303 62.918L66.6281 57.5324C66.7583 56.8569 66.9459 56.1938 67.1891 55.5502V55.5502Z" fill="black"/>
</g>
<g opacity="0.4">
<path opacity="0.4" d="M81.79 128.656C82.5044 129.95 83.2299 131.274 84.2809 132.295C85.3318 133.316 86.768 134.042 88.264 133.892C89.76 133.742 91.1251 132.523 91.14 131.05C91.8432 131.577 92.924 131.293 93.5075 130.631C94.0909 129.969 94.2816 129.052 94.349 128.174C95.3064 128.738 96.6378 128.293 97.2774 127.384C97.571 126.911 97.7568 126.379 97.8214 125.825C97.8861 125.272 97.828 124.711 97.6514 124.183C97.287 123.131 96.769 122.14 96.1142 121.24C96.8622 121.299 97.6327 121.352 98.2909 121.019C98.9492 120.686 99.4129 119.811 99.0127 119.183C98.7498 118.832 98.3683 118.589 97.9394 118.498C96.7837 118.124 95.9759 117.847 94.7716 117.986C94.4948 117.986 95.254 121.157 87.7105 125.488C83.2337 128.05 81.79 128.656 81.79 128.656Z" fill="black"/>
</g>
<path d="M98.7772 133.219C98.7772 133.252 98.2723 133.155 97.457 133.178C96.3974 133.203 95.3554 133.453 94.3998 133.912C93.4443 134.37 92.5971 135.026 91.9143 135.837C91.387 136.458 91.1663 136.91 91.1177 136.891C91.1487 136.775 91.198 136.664 91.2635 136.562C91.4237 136.277 91.605 136.005 91.8058 135.747C92.4782 134.894 93.3371 134.206 94.3168 133.737C95.2965 133.267 96.3707 133.029 97.457 133.039C97.7831 133.041 98.1084 133.071 98.4294 133.129C98.5497 133.138 98.6675 133.169 98.7772 133.219V133.219Z" fill="#EB996E"/>
<path d="M82.28 126.633C83.4955 127.8 84.3258 129.09 85.6012 130.264C86.1809 130.799 87.0972 131.809 87.8452 131.943C88.5932 132.078 89.1168 131.977 89.4234 131.252C89.674 130.664 89.2252 129.86 88.9185 129.382C88.1069 128.106 87.329 127.111 86.7232 126.12C86.4352 125.657 86.8054 125.559 86.9401 125.776C87.5235 126.382 88.3987 126.898 88.9223 127.568C89.6403 128.469 89.7675 129.67 91.645 129.288C91.8961 129.247 92.1343 129.149 92.3406 129C93.0475 128.458 93.0886 127.504 92.782 126.756C92.5171 126.179 92.1638 125.646 91.7347 125.178C92.5351 126.079 93.4065 127.048 94.6781 127.13C95.0373 127.174 95.4012 127.105 95.7194 126.932C96.0376 126.76 96.2946 126.493 96.4546 126.169C96.8286 125.316 96.2938 124.49 95.7515 123.824C94.7916 122.64 93.7236 121.548 92.5613 120.563C92.1272 120.198 91.5798 119.996 91.0129 119.99C90.3547 119.99 89.5169 120.11 89.1429 120.679C88.9293 120.953 88.7737 121.268 88.6856 121.604C88.5975 121.94 88.5788 122.291 88.6305 122.635C88.6305 122.635 86.9849 121.801 85.661 122.672C84.846 123.244 84.2603 124.087 84.0079 125.051L82.28 126.633Z" fill="#FFBE9D"/>
<path d="M91.0503 119.631C90.7871 119.326 90.6238 118.947 90.5824 118.546C90.5409 118.145 90.6233 117.74 90.8184 117.387C91.0989 116.838 91.4505 116.303 91.8095 116.183C93.3766 115.656 100.228 116.841 100.165 118.36C100.101 119.878 99.5999 120.604 95.8861 120.069C95.2316 119.975 94.2068 119.848 94.2068 119.848L93.3092 121.195L91.0503 119.631Z" fill="#FFBE9D"/>
<path d="M92.2771 125.997C91.3779 124.514 90.0667 123.325 88.5034 122.575C88.7584 122.616 89.0041 122.702 89.229 122.829C90.3547 123.373 91.3 124.23 91.9517 125.297C92.1026 125.508 92.2129 125.746 92.2771 125.997Z" fill="#EB996E"/>
<path d="M93.429 121.326C93.3953 121.356 92.9428 120.989 92.3257 120.611C92.0676 120.448 91.8004 120.299 91.5253 120.166C91.3122 120.069 91.17 120.043 91.1738 120.013C91.1775 119.983 91.3346 119.968 91.5702 120.039C91.8736 120.137 92.1628 120.274 92.4304 120.447C93.0625 120.832 93.4776 121.284 93.429 121.326Z" fill="#EB996E"/>
<path d="M94.5809 119.912C94.1352 119.964 93.6835 119.913 93.2607 119.762C92.9514 119.668 92.6641 119.513 92.4154 119.306C92.2284 119.145 92.1499 119.014 92.1686 118.996C92.5283 119.228 92.9136 119.419 93.3168 119.564C93.7454 119.652 94.1677 119.768 94.5809 119.912Z" fill="#EB996E"/>
<path d="M87.9236 127.878C87.6875 127.63 87.4781 127.358 87.2991 127.067C86.872 126.376 86.3322 125.761 85.7021 125.249C85.0489 124.771 84.2395 124.557 83.4356 124.65C83.1059 124.709 82.7853 124.811 82.4819 124.953C82.4819 124.953 82.5493 124.875 82.7026 124.781C82.921 124.649 83.1618 124.558 83.4132 124.512C83.8319 124.444 84.2598 124.461 84.672 124.56C85.0843 124.66 85.4726 124.841 85.8143 125.092C86.4651 125.615 87.0086 126.259 87.415 126.988C87.6093 127.27 87.7794 127.568 87.9236 127.878V127.878Z" fill="#EB996E"/>
<path d="M93.1635 143.025C92.241 143.221 91.3064 143.355 90.3659 143.425C89.4307 143.561 88.4872 143.631 87.5422 143.635C88.466 143.439 89.4018 143.305 90.3435 143.235C91.2777 143.101 92.2198 143.031 93.1635 143.025V143.025Z" fill="#EB996E"/>
<path d="M152.08 18.6401L152.502 19.4143L153.273 19.8369L152.502 20.2596L152.08 21.03L151.657 20.2596L150.887 19.8369L151.657 19.4143L152.08 18.6401Z" fill="#F8C325"/>
<path d="M160.91 37.7777L161.332 38.5519L162.103 38.9745L161.332 39.3971L160.91 40.1676L160.487 39.3971L159.713 38.9745L160.487 38.5519L160.91 37.7777Z" fill="#F8C325"/>
<path d="M19.4106 88.8362L19.8332 89.6104L20.6074 90.033L19.8332 90.4519L19.4106 91.226L18.988 90.4519L18.2175 90.033L18.988 89.6104L19.4106 88.8362Z" fill="#F8C325"/>
<path d="M140.497 23.3974L141.473 25.1814L143.257 26.1575L141.473 27.1299L140.497 28.9139L139.524 27.1299L137.74 26.1575L139.524 25.1814L140.497 23.3974Z" fill="#F8C325"/>
<path d="M27.3244 76.7074L28.2968 78.4839L30.0771 79.4563L28.2968 80.4324L27.3244 82.2089L26.352 80.4324L24.5718 79.4563L26.352 78.4839L27.3244 76.7074Z" fill="#F8C325"/>
<path d="M163.311 119.141L164.283 120.922L166.06 121.894L164.283 122.866L163.311 124.647L162.338 122.866L160.558 121.894L162.338 120.922L163.311 119.141Z" fill="#F8C325"/>
</svg>
