<svg width="271" height="145" viewBox="0 0 271 145" fill="none" xmlns="http://www.w3.org/2000/svg">
<path d="M270.745 0.421021H0.265869V144.574H270.745V0.421021Z" fill="#FAFAFA"/>
<path d="M270.756 144.574C270.756 142.835 270.668 89.0888 270.535 0.421015L270.756 0.642602L0.288064 0.70908L0.576129 0.421015C0.576129 51.3859 0.576129 100.135 0.576129 144.574L0.299146 144.308L194.785 144.441L250.714 144.507H265.627H269.471H270.789H269.504H265.649H250.802L194.941 144.585L0.265901 144.718H0V144.441C0 99.9686 0 51.1975 0 0.288064V0H0.310219L270.778 0.0664774H271V0.288064C270.856 89.0888 270.756 142.835 270.756 144.574Z" fill="#263238"/>
<path d="M178 33.5C178 33.7692 152.928 34 122 34C91.0721 34 66 33.7692 66 33.5C66 33.2308 91.0721 33 122 33C152.928 33 178 33.2115 178 33.5Z" fill="#E0E0E0"/>
<path d="M48.3165 40.4549C55.2219 33.5494 55.2219 22.3534 48.3165 15.4479C41.411 8.54247 30.215 8.54246 23.3095 15.4479C16.404 22.3534 16.404 33.5494 23.3095 40.4549C30.215 47.3604 41.411 47.3604 48.3165 40.4549Z" fill="#263238"/>
<path d="M42.1125 25.9478C42.1125 27.1946 41.7428 28.4135 41.0501 29.4502C40.3574 30.4869 39.3728 31.2949 38.2209 31.7721C37.069 32.2492 35.8014 32.374 34.5785 32.1308C33.3556 31.8876 32.2324 31.2871 31.3507 30.4055C30.4691 29.5238 29.8687 28.4006 29.6254 27.1777C29.3822 25.9548 29.507 24.6872 29.9841 23.5353C30.4613 22.3834 31.2693 21.3988 32.306 20.7061C33.3427 20.0134 34.5616 19.6437 35.8084 19.6437C37.4804 19.6437 39.0838 20.3079 40.2661 21.4901C41.4484 22.6724 42.1125 24.2758 42.1125 25.9478V25.9478Z" fill="#FAFAFA"/>
<path d="M26.2468 40.9491C26.2468 40.9491 29.4155 34.6671 35.8415 34.6671C42.2675 34.6671 45.8129 40.6389 45.8129 40.6389C43.0769 43.0821 39.508 44.3828 35.8415 44.2729C29.4488 44.2175 26.2468 40.9491 26.2468 40.9491Z" fill="#FAFAFA"/>
</svg>
