<svg width="192" height="192" viewBox="0 0 192 192" fill="none" xmlns="http://www.w3.org/2000/svg">
<path d="M120.484 176.287L108.76 133.102L73.8777 132.768C70.4217 145.329 68.3673 161.353 67.4342 176.287" fill="#F8C325"/>
<path d="M81.7612 164.713C82.1066 164.907 82.4776 165.052 82.8633 165.143C83.3277 165.229 83.8069 165.186 84.2483 165.018C84.6898 164.85 85.0765 164.564 85.366 164.19C85.6555 163.817 85.8367 163.372 85.8897 162.902C85.9427 162.433 85.8655 161.958 85.6665 161.53C85.4867 161.177 85.255 160.853 84.9791 160.57C84.9791 160.57 85.0905 160.62 85.2479 160.758C85.4735 160.958 85.6597 161.199 85.7971 161.468C86.0022 161.872 86.1001 162.321 86.0812 162.774C86.0595 163.331 85.8649 163.868 85.5244 164.31C85.1785 164.748 84.7068 165.069 84.1727 165.231C83.7388 165.362 83.2784 165.378 82.8364 165.277C82.542 165.211 82.2623 165.091 82.0108 164.924C81.838 164.805 81.7535 164.736 81.7612 164.713Z" fill="#FAFAFA"/>
<path d="M93.4656 154.076C93.2702 153.96 93.0433 153.907 92.8166 153.926C92.7026 153.948 92.5954 153.997 92.5039 154.068C92.4124 154.14 92.3392 154.232 92.2906 154.337C92.233 154.465 92.2158 154.608 92.241 154.746C92.2663 154.883 92.333 155.01 92.4322 155.11C92.5313 155.209 92.6583 155.275 92.7963 155.301C92.9342 155.326 93.0766 155.309 93.2045 155.251C93.3103 155.203 93.4028 155.13 93.4744 155.039C93.5459 154.947 93.5943 154.839 93.6154 154.725C93.6336 154.499 93.5812 154.272 93.4656 154.076C93.4656 154.076 93.5347 154.103 93.6154 154.211C93.7259 154.365 93.7752 154.555 93.7536 154.744C93.7396 154.888 93.6888 155.025 93.606 155.143C93.5232 155.26 93.4113 155.355 93.2813 155.416C93.1201 155.493 92.9389 155.518 92.7628 155.488C92.5867 155.458 92.4243 155.374 92.298 155.248C92.1716 155.121 92.0876 154.959 92.0574 154.783C92.0272 154.607 92.0523 154.426 92.1293 154.264C92.1916 154.135 92.286 154.023 92.4037 153.941C92.5213 153.858 92.6582 153.807 92.8013 153.792C92.9902 153.77 93.1804 153.82 93.335 153.93C93.4387 154.007 93.4733 154.072 93.4656 154.076Z" fill="#FAFAFA"/>
<path d="M100.416 171.475C100.22 171.36 99.9935 171.307 99.7669 171.325C99.6527 171.347 99.5451 171.395 99.4536 171.466C99.362 171.538 99.289 171.631 99.2409 171.736C99.1833 171.864 99.1661 172.007 99.1913 172.145C99.2166 172.282 99.2833 172.409 99.3825 172.509C99.4816 172.608 99.6086 172.674 99.7466 172.7C99.8845 172.725 100.027 172.708 100.155 172.65C100.26 172.602 100.352 172.528 100.424 172.437C100.495 172.345 100.544 172.238 100.566 172.124C100.585 171.898 100.532 171.671 100.416 171.475C100.416 171.475 100.485 171.502 100.566 171.61C100.675 171.763 100.725 171.952 100.704 172.14C100.687 172.282 100.634 172.417 100.55 172.533C100.466 172.648 100.354 172.74 100.224 172.8C100.063 172.877 99.8815 172.902 99.7054 172.872C99.5293 172.842 99.3669 172.758 99.2406 172.631C99.1143 172.505 99.0302 172.343 99 172.166C98.9698 171.99 98.9949 171.809 99.0719 171.648C99.1336 171.518 99.2279 171.406 99.3457 171.323C99.4634 171.241 99.6006 171.19 99.7439 171.176C99.9328 171.154 100.123 171.203 100.278 171.314C100.389 171.406 100.424 171.468 100.416 171.475Z" fill="#FAFAFA"/>
<path d="M73.2288 161.303C73.2288 161.322 73.0867 161.322 72.8448 161.391C72.5075 161.492 72.2121 161.699 72.0038 161.983C71.8361 162.211 71.7347 162.481 71.7107 162.763C71.6867 163.045 71.741 163.328 71.8677 163.581C71.9945 163.834 72.1886 164.047 72.4288 164.196C72.669 164.346 72.9458 164.427 73.2288 164.429C73.5121 164.427 73.7895 164.347 74.0302 164.198C74.2709 164.049 74.4656 163.836 74.5928 163.582C74.72 163.329 74.7747 163.046 74.7508 162.763C74.7269 162.481 74.6255 162.211 74.4576 161.983C74.2479 161.699 73.9513 161.491 73.6128 161.391C73.3747 161.322 73.2288 161.322 73.2288 161.303C73.3612 161.271 73.4996 161.271 73.632 161.303C74.0032 161.381 74.335 161.588 74.569 161.887C74.7453 162.109 74.8621 162.373 74.9084 162.653C74.9548 162.933 74.9291 163.221 74.8339 163.488C74.7164 163.819 74.4992 164.106 74.2121 164.309C73.925 164.511 73.5822 164.62 73.2307 164.62C72.8793 164.62 72.5364 164.511 72.2493 164.309C71.9623 164.106 71.745 163.819 71.6275 163.488C71.5323 163.221 71.5066 162.933 71.553 162.653C71.5993 162.373 71.7162 162.109 71.8925 161.887C72.1245 161.588 72.4552 161.381 72.8256 161.303C72.958 161.27 73.0964 161.27 73.2288 161.303Z" fill="#FAFAFA"/>
<path d="M98.9452 161.629C98.9452 161.629 98.7993 161.629 98.5612 161.718C98.2227 161.818 97.9261 162.025 97.7164 162.309C97.5446 162.537 97.4398 162.809 97.4137 163.093C97.3876 163.377 97.4413 163.663 97.5687 163.919C97.6961 164.174 97.8923 164.389 98.1351 164.539C98.3779 164.69 98.6578 164.769 98.9433 164.769C99.2288 164.769 99.5087 164.69 99.7515 164.539C99.9943 164.389 100.19 164.174 100.318 163.919C100.445 163.663 100.499 163.377 100.473 163.093C100.447 162.809 100.342 162.537 100.17 162.309C99.9627 162.025 99.667 161.817 99.3292 161.718C99.0873 161.649 98.9452 161.649 98.9452 161.629C99.0778 161.598 99.2158 161.598 99.3484 161.629C99.7194 161.706 100.051 161.912 100.285 162.209C100.46 162.433 100.576 162.697 100.621 162.976C100.667 163.256 100.641 163.543 100.546 163.811C100.43 164.142 100.213 164.43 99.9264 164.633C99.6396 164.836 99.2967 164.945 98.9452 164.945C98.5937 164.945 98.2508 164.836 97.964 164.633C97.6771 164.43 97.4605 164.142 97.3439 163.811C97.2492 163.543 97.2235 163.256 97.2692 162.976C97.3148 162.697 97.4303 162.433 97.605 162.209C97.8392 161.912 98.171 161.706 98.542 161.629C98.6746 161.599 98.8126 161.599 98.9452 161.629Z" fill="#FAFAFA"/>
<path d="M75.2947 171.802C75.7252 171.802 76.0742 171.453 76.0742 171.022C76.0742 170.592 75.7252 170.243 75.2947 170.243C74.8641 170.243 74.5151 170.592 74.5151 171.022C74.5151 171.453 74.8641 171.802 75.2947 171.802Z" fill="#FAFAFA"/>
<path d="M89.4758 149.599C89.9063 149.599 90.2553 149.25 90.2553 148.819C90.2553 148.389 89.9063 148.04 89.4758 148.04C89.0453 148.04 88.6963 148.389 88.6963 148.819C88.6963 149.25 89.0453 149.599 89.4758 149.599Z" fill="#FAFAFA"/>
<path d="M104.836 154.856C105.266 154.856 105.615 154.507 105.615 154.076C105.615 153.646 105.266 153.297 104.836 153.297C104.405 153.297 104.056 153.646 104.056 154.076C104.056 154.507 104.405 154.856 104.836 154.856Z" fill="#FAFAFA"/>
<path d="M86.6917 153.039C86.6531 153.123 86.6068 153.203 86.5535 153.277L86.1196 153.926L84.5183 156.265L84.4569 156.353L84.3916 156.265C83.7119 155.351 82.9093 154.272 82.0415 153.097H82.1951L80.9509 154.752L79.822 156.288L79.7375 156.399L79.6607 156.284L77.518 153.097H77.6447L75.6326 155.401L75.0681 156.027C75.0035 156.104 74.9315 156.175 74.853 156.238C74.9049 156.153 74.964 156.072 75.0297 155.996L75.5634 155.34L77.5218 153.005L77.5909 152.924L77.6524 153.012C78.2898 153.946 79.0271 155.017 79.822 156.184H79.6646L80.7897 154.671L82.0415 153.005L82.1183 152.897L82.1989 153.005L84.5029 156.196H84.3724L86.0313 153.892L86.4997 153.266C86.5537 153.182 86.6182 153.106 86.6917 153.039Z" fill="#FAFAFA"/>
<path d="M94.4178 168.119C94.4029 168.21 94.3771 168.299 94.341 168.384C94.2681 168.572 94.1797 168.818 94.0684 169.114L93.0469 171.755L93.0047 171.859L92.9202 171.786L89.9058 169.244L90.0594 169.206C89.7906 169.82 89.5141 170.461 89.23 171.126L88.462 172.854L88.4044 172.98L88.3045 172.888C87.2677 171.928 86.3154 171.041 85.486 170.277L85.6127 170.254L84.1804 172.942C84.0153 173.245 83.877 173.491 83.7695 173.683C83.7262 173.773 83.6734 173.858 83.6121 173.937C83.6414 173.841 83.6799 173.748 83.7273 173.66L84.1113 172.892C84.453 172.212 84.9215 171.287 85.4821 170.17L85.5321 170.074L85.6127 170.147L88.4505 172.735L88.2969 172.769L89.0457 171.041C89.3337 170.385 89.6101 169.743 89.8789 169.121L89.9327 168.998L90.0325 169.087L93.0239 171.659L92.8972 171.69C93.3465 170.615 93.7151 169.724 93.9839 169.075L94.2949 168.357C94.3273 168.274 94.3685 168.194 94.4178 168.119Z" fill="#FAFAFA"/>
<path d="M107.639 161.303C107.721 161.344 107.799 161.394 107.869 161.453L108.495 161.917L110.746 163.638L110.834 163.703L110.742 163.764L107.459 165.949V165.792L109.064 167.124L110.511 168.33L110.619 168.419L110.5 168.488L107.205 170.465V170.339L109.386 172.466L109.985 173.065C110.06 173.13 110.126 173.205 110.181 173.288C110.1 173.231 110.023 173.168 109.951 173.1L109.325 172.531L107.09 170.458L107.013 170.385L107.105 170.327L110.381 168.319V168.48L108.933 167.278C108.38 166.821 107.846 166.372 107.328 165.946L107.228 165.857L107.339 165.788L110.642 163.634V163.761C109.732 163.035 108.983 162.428 108.434 161.987L107.831 161.491C107.704 161.372 107.631 161.311 107.639 161.303Z" fill="#FAFAFA"/>
<g opacity="0.2">
<path opacity="0.2" d="M68.663 161.944L115.638 158.442L114.62 154.687H69.5654L68.663 161.944Z" fill="black"/>
</g>
<path d="M93.3349 173.03C93.2812 173.03 93.2697 169.782 93.3119 165.777C93.3541 161.772 93.4386 158.523 93.4924 158.527C93.5461 158.531 93.5577 161.772 93.5154 165.777C93.4732 169.782 93.3887 173.03 93.3349 173.03Z" fill="#263238"/>
<path d="M103.146 173.03C103.075 172.864 103.019 172.692 102.977 172.516C102.874 172.132 102.739 171.667 102.593 171.095C102.263 169.897 101.798 168.246 101.265 166.426C100.731 164.605 100.216 162.97 99.8438 161.783L99.4061 160.378C99.3455 160.208 99.2992 160.033 99.2678 159.855C99.3563 160.012 99.4272 160.178 99.479 160.351C99.6019 160.677 99.7747 161.149 99.9782 161.737C100.385 162.916 100.915 164.548 101.457 166.372C101.998 168.196 102.432 169.851 102.728 171.06C102.877 171.663 102.993 172.155 103.066 172.497C103.112 172.671 103.139 172.85 103.146 173.03Z" fill="#263238"/>
<path d="M142.253 116.072L135.268 120.622V50.4922H142.253V116.072Z" fill="#F5F5F5"/>
<path d="M135.229 111.971C138.432 102.144 137 91.1654 140.544 81.408C140.882 80.471 141.274 79.511 141.174 78.5318C141.047 77.6837 140.673 76.8917 140.099 76.2547C139.469 75.4867 138.528 74.8032 137.453 74.8761C137.014 74.9226 136.595 75.0817 136.237 75.3381C135.878 75.5945 135.592 75.9394 135.406 76.3392C135.11 77.0911 134.979 77.8978 135.022 78.7046C134.964 81.6883 134.98 84.672 134.999 87.6518C135.037 95.1603 135.077 102.665 135.118 110.166" fill="#E0E0E0"/>
<path d="M135.203 68.3981V65.8023L142.187 63.8016V66.7968L135.203 68.3981Z" fill="#E0E0E0"/>
<path d="M50.5382 79.177C50.5382 79.177 50.0351 75.2756 50.2617 73.897C50.5036 72.4301 52.9497 69.3235 52.9497 69.3235C52.9151 69.1891 52.5119 68.8512 51.2601 69.3235C50.0083 69.7959 49.5705 70.6752 48.3839 71.52L42.3091 67.753L40.3199 74.112L45.4809 82.2375L50.5382 79.177Z" fill="#FFAD9D"/>
<path d="M77.3759 64.2585C74.2387 67.3305 77.2531 72.1113 75.2409 75.1987C74.0236 77.0688 71.4009 77.975 70.8518 80.1331C70.5753 81.2045 70.8863 82.3257 71.0515 83.4163C71.2166 84.5069 71.1782 85.7664 70.3833 86.5344C69.9817 86.85 69.5597 87.1386 69.1199 87.3984C67.8911 88.3008 67.4764 89.9827 67.6147 91.4995C67.7529 93.0163 68.3443 94.4448 68.7667 95.9117C69.9306 100.08 69.6725 104.517 68.0332 108.522C68.7536 108.526 69.4654 108.366 70.1147 108.054C70.764 107.742 71.3338 107.286 71.7811 106.721C71.7465 107.739 71.7081 108.753 71.6697 109.77C73.0214 109.855 74.327 109.129 75.2294 108.119C76.0843 107.066 76.7354 105.863 77.1494 104.571C79.2777 98.8375 79.9788 92.6722 79.1923 86.6073" fill="#263238"/>
<path d="M103.265 55.4803C105.057 58.1397 105.807 61.3656 105.373 64.5427C105.124 66.3283 104.505 68.1831 105.12 69.8803C105.646 71.3395 107.04 72.5299 106.975 74.0813C106.886 75.8477 104.893 77.042 104.717 78.8007C104.467 81.2391 107.739 82.8788 107.704 85.3287C107.685 86.592 106.779 87.6327 106.168 88.7309C105.558 89.8292 105.262 91.4189 106.245 92.2061L94.8479 91.392L96.8754 55.7607L103.265 55.4803Z" fill="#263238"/>
<path d="M136.608 85.8355H136.481L136.984 84.1574L138.593 77.7446C138.664 77.4578 138.624 77.155 138.481 76.8962C138.339 76.6373 138.105 76.4413 137.825 76.3469L136.673 76.3085L132.714 74.4538C132.542 74.3867 132.357 74.359 132.173 74.3729C131.988 74.3867 131.809 74.4417 131.649 74.5338C131.489 74.6259 131.351 74.7528 131.247 74.9051C131.142 75.0573 131.072 75.2312 131.044 75.4138C130.898 76.5926 130.095 79.7568 129.243 78.647C129.243 78.624 129.201 78.601 129.181 78.5741C127.983 76.9267 126.493 76.0358 125.875 76.0589C125.743 76.0705 125.617 76.12 125.512 76.2013C125.407 76.2826 125.328 76.3924 125.284 76.5175C125.24 76.6426 125.233 76.7777 125.263 76.9068C125.294 77.0359 125.361 77.1535 125.457 77.2454C125.518 77.325 125.595 77.3915 125.683 77.4413C125.721 77.4605 125.768 77.4989 125.81 77.5258C126.339 77.9973 126.817 78.5223 127.238 79.0925C127.623 79.5933 127.918 80.1572 128.11 80.759C128.321 81.4272 128.494 82.007 128.598 82.5024L128.29 85.7779" fill="#FFAD9D"/>
<path d="M126.04 56.7859C126.04 56.7859 130.648 55.8989 137.318 49.8739C143.988 43.849 147.241 35.6659 148.032 35.7158C148.823 35.7657 152.329 34.272 158.504 48.7718C164.678 63.2717 161.99 66.5203 160.681 66.455C159.371 66.3897 150.555 63.6633 144.983 64.151C139.411 64.6387 132.192 67.319 132.192 67.319L126.04 56.7859Z" fill="#455A64"/>
<path d="M116.045 64.3124L117.531 67.3383L118.195 68.6938C118.634 69.5903 119.4 70.2842 120.335 70.6322C121.271 70.9802 122.304 70.9557 123.222 70.5639L133.179 67.4074L127.803 54.1364L117.819 59.1284C116.901 59.5852 116.199 60.3856 115.867 61.356C115.535 62.3264 115.599 63.3887 116.045 64.3124Z" fill="#263238"/>
<path d="M121.594 69.2506L124.562 75.4944L126.148 75.1104L136.17 83.7504L139.196 78.217C139.196 78.217 133.206 75.433 132.146 73.225C131.086 71.017 132.395 70.5754 132.395 70.5754L129.634 67.2538L121.594 69.2506Z" fill="#263238"/>
<path d="M157.966 49.0022C161.245 56.855 162.509 63.8054 160.781 64.5235C159.053 65.2416 154.998 59.4662 151.715 51.6134C148.431 43.7606 147.172 36.8102 148.9 36.096C150.628 35.3817 154.683 41.1494 157.966 49.0022Z" fill="#263238"/>
<path d="M115.077 68.5978L117.773 67.8336L116.21 64.6426L114.171 65.833L115.077 68.5978Z" fill="#455A64"/>
<path d="M130.583 68.3981L123.272 72.7757L122.423 70.9939L130.583 68.3981Z" fill="#455A64"/>
<path d="M116.21 64.6426L117.773 67.8336L117.22 67.9911L115.964 64.7847L116.21 64.6426Z" fill="#455A64"/>
<path d="M118.03 65.4221C118.068 65.5104 119.416 65.0381 121.041 64.3469C122.665 63.6557 123.959 63.0451 123.921 62.9568C123.882 62.8685 122.538 63.3408 120.91 64.032C119.282 64.7232 117.995 65.3337 118.03 65.4221Z" fill="#455A64"/>
<path d="M117.262 63.5251C117.3 63.6135 118.522 63.1412 119.988 62.4653C121.455 61.7895 122.615 61.1789 122.573 61.0944C122.531 61.01 121.313 61.4784 119.846 62.1543C118.379 62.8301 117.224 63.4407 117.262 63.5251Z" fill="#455A64"/>
<path d="M119.009 67.415C119.009 67.4611 119.343 67.3958 119.854 67.2538C120.107 67.1846 120.411 67.0925 120.749 66.9888C121.087 66.8851 121.428 66.7162 121.797 66.5587C123.279 65.9213 124.416 65.2877 124.381 65.2109C124.347 65.1341 123.13 65.5949 121.663 66.2438C121.279 66.3974 120.952 66.5702 120.634 66.6931C120.315 66.816 120.019 66.9235 119.777 67.0233C119.293 67.223 118.998 67.369 119.009 67.415Z" fill="#455A64"/>
<path d="M150.874 47.0746C150.874 47.0746 154.944 44.7091 156.975 50.1735C159.007 55.6378 154.779 56.4058 154.779 56.4058C153.044 53.4948 151.729 50.3534 150.874 47.0746Z" fill="#455A64"/>
<path d="M146.803 40.5159C146.816 40.8646 146.86 41.2116 146.934 41.5527C147.041 42.217 147.191 43.1808 147.414 44.3635C147.567 44.9472 147.732 45.5847 147.913 46.2835C148.005 46.6291 148.097 46.9824 148.193 47.3472C148.243 47.5277 148.293 47.7312 148.343 47.9002C148.393 48.0691 148.47 48.2842 148.531 48.4608C148.8 49.2288 149.08 49.9968 149.368 50.8147C149.441 51.0183 149.514 51.2256 149.591 51.433C149.668 51.6403 149.768 51.84 149.856 52.0435C150.036 52.4544 150.24 52.8692 150.413 53.2877C150.586 53.7063 150.797 54.121 150.973 54.528C151.069 54.7315 151.15 54.9389 151.258 55.1309C151.365 55.3229 151.473 55.5149 151.576 55.7069L152.79 57.8919C152.89 58.0685 152.978 58.2413 153.082 58.4064L153.4 58.8864L154.011 59.8003L155.113 61.4362C155.85 62.3847 156.468 63.1335 156.895 63.6519C157.104 63.9274 157.336 64.1844 157.59 64.4199C157.42 64.1152 157.223 63.8261 157.002 63.5559C156.591 63.0029 156.011 62.2272 155.305 61.2711C154.978 60.768 154.625 60.2151 154.245 59.6237C154.057 59.328 153.861 59.0247 153.654 58.7098L153.346 58.2298C153.247 58.0685 153.158 57.8919 153.062 57.7191C152.678 57.024 152.294 56.2906 151.876 55.5341L151.561 54.9658C151.453 54.7738 151.377 54.5818 151.281 54.3629L150.728 53.1303C150.539 52.7155 150.344 52.3047 150.171 51.8976C150.082 51.6941 149.979 51.5136 149.906 51.2909C149.833 51.0682 149.756 50.88 149.683 50.6803C149.386 49.8714 149.103 49.0931 148.834 48.3456C148.769 48.1575 148.692 47.9616 148.635 47.7927C148.577 47.6237 148.535 47.4087 148.481 47.2435C148.381 46.8826 148.282 46.5331 148.186 46.1952C147.994 45.5168 147.816 44.8883 147.652 44.3098L147.072 41.5296C147.013 41.1843 146.923 40.845 146.803 40.5159Z" fill="#263238"/>
<path d="M126.904 84.457L124.9 102.252L114.897 92.2675C114.897 92.2675 109.544 103.404 109.471 103.853C109.421 104.156 115.085 109.755 119.293 112.984C121.571 114.735 124.646 117.443 127.484 116.986C132.215 116.218 135.026 113.103 135.437 108.326L137.249 84.7181L126.904 84.457Z" fill="#F8C325"/>
<path d="M74.5382 100.992L67.2 96.1152C69.2083 84.8371 85.4975 83.7082 85.4975 83.7082L97.9007 83.4893C97.9007 83.4893 107.094 82.2374 112.777 88.6272C118.656 95.232 123.091 100.447 123.091 100.447L115.027 109.256L107.136 103.062C108.349 104.814 109.017 106.886 109.056 109.018C109.056 112.689 106.318 116.198 106.318 116.198L105.635 122.469L108.672 134.623L73.5398 134.719C75.9321 130.921 77.6486 127.634 79.7798 122.02L76.4966 110.208L74.5382 100.992Z" fill="#F8C325"/>
<path d="M75.072 87.0682L57.2774 96.4839L50.8377 78.8928L42.9811 82.6291L48.5376 105.02C49.6435 109.471 54.3552 112.147 58.6598 110.561C58.8057 110.508 58.9478 110.45 59.0899 110.389L78.3744 102.04L75.072 87.0682Z" fill="#F8C325"/>
<path d="M86.9183 100.896C86.5269 100.956 86.1456 101.069 85.7855 101.234C85.3668 101.451 85.0158 101.78 84.7708 102.183C84.5259 102.586 84.3963 103.049 84.3963 103.521C84.3963 103.992 84.5259 104.455 84.7708 104.858C85.0158 105.262 85.3668 105.59 85.7855 105.807C86.1456 105.972 86.5269 106.086 86.9183 106.145C86.8106 106.167 86.6997 106.167 86.5919 106.145C86.2913 106.123 85.9971 106.047 85.7241 105.919C85.3129 105.727 84.9584 105.432 84.695 105.062C84.3708 104.607 84.1967 104.062 84.1967 103.503C84.1967 102.945 84.3708 102.4 84.695 101.944C84.9585 101.576 85.3131 101.282 85.7241 101.092C85.9965 100.962 86.291 100.885 86.5919 100.865C86.7017 100.854 86.8126 100.864 86.9183 100.896Z" fill="#FAFAFA"/>
<path d="M99.4559 107.013C99.6371 107.365 99.8687 107.688 100.143 107.973C100.452 108.264 100.826 108.476 101.234 108.591C101.733 108.732 102.264 108.717 102.755 108.549C103.246 108.381 103.674 108.067 103.983 107.651C104.236 107.312 104.403 106.916 104.467 106.499C104.508 106.104 104.492 105.706 104.421 105.316C104.48 105.41 104.522 105.514 104.544 105.623C104.619 105.915 104.641 106.218 104.609 106.518C104.56 106.968 104.396 107.397 104.133 107.766C103.807 108.22 103.348 108.561 102.82 108.742C102.291 108.923 101.719 108.935 101.184 108.776C100.745 108.651 100.347 108.411 100.032 108.081C99.8211 107.865 99.6519 107.613 99.5327 107.336C99.4868 107.234 99.4608 107.125 99.4559 107.013Z" fill="#FAFAFA"/>
<path d="M90.4589 127.043C90.8039 127.238 91.175 127.382 91.5609 127.473C92.025 127.557 92.5035 127.513 92.9442 127.345C93.3849 127.176 93.7709 126.89 94.0601 126.517C94.3492 126.145 94.5305 125.7 94.5841 125.231C94.6378 124.762 94.5617 124.288 94.3641 123.859C94.1843 123.507 93.9526 123.183 93.6768 122.899C93.6768 122.899 93.7843 122.949 93.9456 123.087C94.1709 123.287 94.356 123.528 94.4909 123.798C94.6992 124.2 94.7985 124.65 94.7789 125.103C94.7571 125.661 94.5625 126.198 94.2221 126.639C93.8761 127.077 93.4044 127.399 92.8704 127.561C92.4364 127.691 91.976 127.707 91.534 127.607C91.2397 127.54 90.9599 127.421 90.7085 127.254C90.5357 127.135 90.4512 127.054 90.4589 127.043Z" fill="#FAFAFA"/>
<path d="M127.38 96.2419C127.726 96.4346 128.097 96.578 128.482 96.6682C128.946 96.7525 129.424 96.7082 129.864 96.5398C130.304 96.3715 130.69 96.0857 130.979 95.7136C131.268 95.3414 131.449 94.8971 131.503 94.429C131.557 93.9608 131.482 93.4869 131.286 93.0586C131.106 92.7045 130.875 92.3795 130.598 92.0947C130.699 92.1402 130.79 92.204 130.867 92.2829C131.092 92.4844 131.277 92.7267 131.412 92.9971C131.621 93.3983 131.72 93.8472 131.7 94.2989C131.677 94.8586 131.48 95.3972 131.135 95.8392C130.791 96.2812 130.317 96.6046 129.78 96.7642C129.347 96.8918 128.888 96.9063 128.448 96.8064C128.153 96.7433 127.873 96.6247 127.622 96.457C127.53 96.4002 127.448 96.3274 127.38 96.2419Z" fill="#FAFAFA"/>
<path d="M130.714 114.202C130.628 113.815 130.489 113.443 130.299 113.096C130.078 112.732 129.77 112.429 129.404 112.212C129.09 112.028 128.74 111.912 128.378 111.872C128.016 111.833 127.649 111.87 127.303 111.983C126.956 112.095 126.637 112.28 126.368 112.525C126.098 112.77 125.883 113.069 125.737 113.403C125.597 113.773 125.509 114.161 125.476 114.555C125.442 114.449 125.429 114.339 125.437 114.228C125.441 113.926 125.498 113.627 125.606 113.345C125.767 112.926 126.031 112.555 126.374 112.266C126.676 112.016 127.03 111.836 127.41 111.739C127.789 111.642 128.186 111.629 128.571 111.702C128.956 111.776 129.32 111.933 129.637 112.163C129.955 112.394 130.217 112.691 130.406 113.034C130.555 113.298 130.651 113.587 130.69 113.887C130.718 113.989 130.726 114.096 130.714 114.202Z" fill="#FAFAFA"/>
<path d="M103.569 91.6263C103.825 91.9225 104.123 92.1811 104.452 92.3943C104.818 92.6086 105.23 92.7311 105.654 92.7514C106.018 92.7681 106.381 92.7075 106.72 92.5734C107.059 92.4393 107.366 92.2349 107.62 91.9736C107.874 91.7123 108.069 91.4001 108.194 91.0576C108.318 90.7151 108.369 90.35 108.342 89.9866C108.295 89.5898 108.192 89.2018 108.035 88.8346C108.113 88.9113 108.176 89.0026 108.219 89.1034C108.362 89.3703 108.452 89.6624 108.484 89.9636C108.538 90.4124 108.474 90.8676 108.3 91.2845C108.083 91.7998 107.711 92.2347 107.235 92.5286C106.759 92.8225 106.204 92.9608 105.646 92.9242C105.194 92.8946 104.758 92.7491 104.379 92.5018C104.127 92.337 103.907 92.1275 103.73 91.8836C103.607 91.7415 103.557 91.634 103.569 91.6263Z" fill="#FAFAFA"/>
<path d="M68.6861 101.207C68.9422 101.504 69.2397 101.763 69.5693 101.975C69.9742 102.216 70.4374 102.341 70.9085 102.337C71.3796 102.332 71.8405 102.199 72.2411 101.951C72.6418 101.703 72.9668 101.351 73.1809 100.931C73.3949 100.511 73.4899 100.041 73.4553 99.5712C73.4079 99.1746 73.3045 98.7867 73.1482 98.4192C73.2243 98.4992 73.2866 98.5914 73.3325 98.6918C73.4716 98.959 73.5613 99.2491 73.5974 99.5482C73.6503 99.9986 73.5855 100.455 73.4093 100.873C73.1926 101.388 72.8211 101.822 72.3463 102.116C71.8715 102.41 71.3169 102.548 70.7597 102.513C70.308 102.483 69.8716 102.338 69.4925 102.09C69.2402 101.925 69.0203 101.716 68.8435 101.472C68.736 101.318 68.6746 101.211 68.6861 101.207Z" fill="#FAFAFA"/>
<path d="M54.5279 101.914C54.7112 101.561 54.8406 101.183 54.9119 100.792C54.9748 100.325 54.9081 99.8491 54.7191 99.417C54.5302 98.9848 54.2263 98.6128 53.8405 98.3415C53.4547 98.0702 53.0019 97.91 52.5313 97.8783C52.0607 97.8466 51.5904 97.9447 51.1718 98.1619C50.829 98.3596 50.5172 98.6068 50.2463 98.8954C50.2463 98.8954 50.2886 98.784 50.4191 98.6189C50.6087 98.3831 50.8421 98.1862 51.1065 98.039C51.499 97.8126 51.9436 97.6921 52.3967 97.6896C52.9554 97.6879 53.501 97.8582 53.9596 98.1773C54.4149 98.4999 54.7584 98.9562 54.9427 99.4829C55.0934 99.9101 55.1318 100.369 55.054 100.815C54.9999 101.112 54.8932 101.397 54.7391 101.656C54.6316 101.833 54.551 101.921 54.5279 101.914Z" fill="#FAFAFA"/>
<path d="M94.222 104.321C94.0279 104.205 93.8023 104.153 93.5769 104.172C93.4624 104.192 93.3546 104.24 93.2629 104.312C93.1712 104.383 93.0984 104.476 93.0508 104.582C92.9933 104.71 92.976 104.853 93.0013 104.991C93.0266 105.129 93.0932 105.256 93.1924 105.355C93.2916 105.454 93.4186 105.521 93.5565 105.546C93.6944 105.571 93.8368 105.554 93.9647 105.496C94.0701 105.448 94.1623 105.375 94.2332 105.284C94.3041 105.192 94.3517 105.084 94.3718 104.97C94.3946 104.743 94.3419 104.515 94.222 104.321C94.222 104.321 94.295 104.348 94.3756 104.456C94.4845 104.611 94.5336 104.801 94.5138 104.989C94.4991 105.133 94.448 105.269 94.3653 105.387C94.2826 105.505 94.1711 105.599 94.0415 105.661C93.8803 105.736 93.7001 105.759 93.5252 105.728C93.3503 105.697 93.1891 105.613 93.0635 105.487C92.9379 105.362 92.8539 105.201 92.8227 105.026C92.7916 104.851 92.8149 104.671 92.8895 104.509C92.9521 104.379 93.0472 104.268 93.1656 104.185C93.2839 104.102 93.4216 104.051 93.5654 104.037C93.7543 104.016 93.9444 104.065 94.0991 104.175C94.1951 104.252 94.2297 104.314 94.222 104.321Z" fill="#FAFAFA"/>
<path d="M106.548 98.304C106.355 98.1841 106.126 98.1314 105.9 98.1542C105.785 98.1744 105.677 98.2224 105.585 98.294C105.493 98.3657 105.421 98.4588 105.373 98.5651C105.317 98.6929 105.301 98.8346 105.327 98.9718C105.353 99.109 105.419 99.2352 105.518 99.3337C105.617 99.4322 105.744 99.4984 105.881 99.5237C106.018 99.5489 106.16 99.532 106.287 99.4752C106.393 99.427 106.486 99.3541 106.557 99.2625C106.629 99.1709 106.677 99.0634 106.698 98.9491C106.717 98.7237 106.665 98.4981 106.548 98.304C106.548 98.304 106.618 98.3309 106.698 98.4346C106.809 98.5892 106.858 98.7794 106.836 98.9683C106.821 99.1117 106.77 99.2489 106.687 99.3671C106.605 99.4853 106.494 99.5806 106.364 99.6441C106.203 99.7187 106.023 99.742 105.848 99.7109C105.673 99.6798 105.512 99.5958 105.386 99.4702C105.261 99.3445 105.176 99.1834 105.145 99.0085C105.114 98.8336 105.138 98.6534 105.212 98.4921C105.274 98.3625 105.369 98.2511 105.487 98.1684C105.604 98.0857 105.741 98.0345 105.884 98.0198C106.074 97.9994 106.264 98.05 106.418 98.1619C106.522 98.2387 106.556 98.304 106.548 98.304Z" fill="#FAFAFA"/>
<path d="M133.309 88.32C133.115 88.2039 132.89 88.1516 132.664 88.1702C132.549 88.1905 132.441 88.2384 132.348 88.31C132.256 88.3816 132.183 88.4747 132.134 88.5811C132.077 88.709 132.06 88.8514 132.085 88.9893C132.11 89.1273 132.177 89.2543 132.276 89.3534C132.375 89.4526 132.502 89.5193 132.64 89.5446C132.778 89.5699 132.92 89.5526 133.048 89.495C133.154 89.4469 133.247 89.3739 133.318 89.2824C133.39 89.1908 133.438 89.0833 133.459 88.969C133.48 88.7422 133.428 88.5145 133.309 88.32C133.309 88.32 133.382 88.3469 133.459 88.4544C133.57 88.6091 133.619 88.7993 133.597 88.9882C133.583 89.1314 133.533 89.2686 133.45 89.3864C133.367 89.5042 133.255 89.5985 133.125 89.6602C132.964 89.7372 132.783 89.7623 132.607 89.7321C132.43 89.7019 132.268 89.6178 132.142 89.4915C132.015 89.3651 131.931 89.2027 131.901 89.0266C131.871 88.8505 131.896 88.6694 131.973 88.5082C132.036 88.378 132.131 88.2662 132.249 88.1835C132.367 88.1008 132.505 88.0499 132.649 88.0358C132.838 88.0143 133.028 88.0635 133.183 88.1741C133.282 88.2432 133.317 88.32 133.309 88.32Z" fill="#FAFAFA"/>
<path d="M103.115 117.231C102.921 117.115 102.696 117.063 102.47 117.082C102.356 117.103 102.248 117.151 102.155 117.223C102.063 117.294 101.99 117.387 101.94 117.493C101.883 117.62 101.866 117.763 101.891 117.901C101.916 118.039 101.983 118.166 102.082 118.265C102.181 118.364 102.308 118.431 102.446 118.456C102.584 118.481 102.726 118.464 102.854 118.406C102.96 118.358 103.053 118.285 103.124 118.194C103.196 118.102 103.244 117.995 103.265 117.88C103.283 117.654 103.231 117.427 103.115 117.231C103.115 117.231 103.188 117.258 103.265 117.366C103.376 117.52 103.425 117.711 103.403 117.9C103.39 118.043 103.339 118.18 103.256 118.298C103.173 118.416 103.061 118.51 102.931 118.572C102.77 118.649 102.589 118.674 102.413 118.643C102.237 118.613 102.074 118.529 101.948 118.403C101.822 118.277 101.737 118.114 101.707 117.938C101.677 117.762 101.702 117.581 101.779 117.42C101.842 117.29 101.937 117.178 102.056 117.095C102.174 117.013 102.311 116.962 102.455 116.947C102.643 116.927 102.831 116.976 102.985 117.085C103.089 117.162 103.123 117.228 103.115 117.231Z" fill="#FAFAFA"/>
<path d="M61.5167 104.321C61.3226 104.205 61.097 104.153 60.8716 104.172C60.7565 104.192 60.6481 104.24 60.5558 104.311C60.4634 104.383 60.3899 104.476 60.3417 104.582C60.2842 104.71 60.2669 104.853 60.2922 104.991C60.3175 105.129 60.3841 105.256 60.4833 105.355C60.5825 105.454 60.7095 105.521 60.8474 105.546C60.9854 105.571 61.1277 105.554 61.2556 105.496C61.3614 105.448 61.454 105.375 61.5255 105.284C61.5971 105.192 61.6454 105.085 61.6665 104.97C61.6847 104.744 61.6324 104.517 61.5167 104.321C61.5167 104.321 61.5897 104.348 61.6665 104.456C61.7771 104.61 61.8263 104.801 61.8047 104.989C61.7908 105.133 61.7399 105.27 61.6571 105.388C61.5744 105.505 61.4625 105.6 61.3324 105.661C61.1712 105.738 60.9901 105.764 60.814 105.733C60.6379 105.703 60.4755 105.619 60.3491 105.493C60.2228 105.366 60.1387 105.204 60.1085 105.028C60.0783 104.852 60.1034 104.671 60.1804 104.509C60.243 104.379 60.3381 104.268 60.4565 104.185C60.5749 104.102 60.7125 104.051 60.8563 104.037C61.0439 104.017 61.2325 104.066 61.3862 104.175C61.4899 104.252 61.5244 104.314 61.5167 104.321Z" fill="#FAFAFA"/>
<path d="M84.2957 122.139C84.2957 122.139 84.1497 122.139 83.9117 122.227C83.5727 122.326 83.2757 122.534 83.0669 122.819C82.8951 123.047 82.7902 123.318 82.7642 123.602C82.7381 123.887 82.7918 124.173 82.9192 124.428C83.0466 124.684 83.2427 124.899 83.4855 125.049C83.7283 125.199 84.0082 125.279 84.2937 125.279C84.5793 125.279 84.8591 125.199 85.1019 125.049C85.3447 124.899 85.5409 124.684 85.6683 124.428C85.7957 124.173 85.8494 123.887 85.8233 123.602C85.7972 123.318 85.6924 123.047 85.5206 122.819C85.3111 122.535 85.0164 122.327 84.6797 122.223C84.4377 122.154 84.2957 122.154 84.2957 122.139C84.4216 122.106 84.5537 122.106 84.6797 122.139C85.0492 122.216 85.3796 122.422 85.6128 122.719C85.7891 122.941 85.9059 123.205 85.9523 123.485C85.9986 123.765 85.973 124.053 85.8777 124.32C85.7602 124.651 85.543 124.938 85.2559 125.141C84.9688 125.343 84.626 125.452 84.2745 125.452C83.9231 125.452 83.5802 125.343 83.2932 125.141C83.0061 124.938 82.7889 124.651 82.6713 124.32C82.5761 124.053 82.5505 123.765 82.5968 123.485C82.6432 123.205 82.76 122.941 82.9363 122.719C83.1709 122.421 83.5025 122.216 83.8733 122.139C84.0113 122.099 84.1576 122.099 84.2957 122.139Z" fill="#FAFAFA"/>
<path d="M120.626 100.896C120.626 100.915 120.48 100.915 120.242 100.984C119.903 101.083 119.606 101.291 119.397 101.576C119.245 101.782 119.146 102.022 119.111 102.276C119.075 102.529 119.104 102.787 119.193 103.027C119.266 103.239 119.384 103.432 119.539 103.593C119.694 103.755 119.882 103.88 120.091 103.961C120.299 104.042 120.523 104.076 120.746 104.062C120.969 104.047 121.187 103.984 121.383 103.877C121.579 103.77 121.75 103.621 121.882 103.441C122.015 103.261 122.107 103.054 122.152 102.835C122.196 102.616 122.192 102.39 122.14 102.172C122.088 101.955 121.99 101.751 121.851 101.576C121.642 101.292 121.347 101.084 121.01 100.984C120.768 100.915 120.626 100.915 120.626 100.896C120.758 100.863 120.897 100.863 121.029 100.896C121.399 100.974 121.73 101.181 121.962 101.48C122.138 101.702 122.255 101.966 122.302 102.246C122.348 102.526 122.322 102.814 122.227 103.081C122.11 103.412 121.892 103.699 121.605 103.902C121.318 104.104 120.975 104.213 120.624 104.213C120.272 104.213 119.93 104.104 119.643 103.902C119.355 103.699 119.138 103.412 119.021 103.081C118.925 102.814 118.9 102.526 118.946 102.246C118.993 101.966 119.109 101.702 119.286 101.48C119.519 101.18 119.851 100.974 120.223 100.896C120.355 100.863 120.493 100.863 120.626 100.896Z" fill="#FAFAFA"/>
<path d="M81.6576 110.527C81.7659 110.422 81.9028 110.351 82.0511 110.323C82.1994 110.295 82.3527 110.312 82.4917 110.37C82.6307 110.429 82.7493 110.528 82.8327 110.653C82.9161 110.779 82.9606 110.927 82.9606 111.078C82.9606 111.229 82.9161 111.376 82.8327 111.502C82.7493 111.628 82.6307 111.726 82.4917 111.785C82.3527 111.844 82.1994 111.86 82.0511 111.833C81.9028 111.805 81.7659 111.734 81.6576 111.629C81.5839 111.557 81.5252 111.472 81.4852 111.377C81.4452 111.282 81.4246 111.181 81.4246 111.078C81.4246 110.975 81.4452 110.873 81.4852 110.779C81.5252 110.684 81.5839 110.598 81.6576 110.527Z" fill="#FAFAFA"/>
<path d="M52.9536 105.654C53.3841 105.654 53.7331 105.305 53.7331 104.874C53.7331 104.444 53.3841 104.095 52.9536 104.095C52.5231 104.095 52.1741 104.444 52.1741 104.874C52.1741 105.305 52.5231 105.654 52.9536 105.654Z" fill="#FAFAFA"/>
<path d="M133.179 100.42C133.609 100.42 133.958 100.071 133.958 99.6404C133.958 99.2098 133.609 98.8608 133.179 98.8608C132.748 98.8608 132.399 99.2098 132.399 99.6404C132.399 100.071 132.748 100.42 133.179 100.42Z" fill="#FAFAFA"/>
<path d="M103.657 87.072C103.765 86.9669 103.902 86.896 104.05 86.8682C104.199 86.8404 104.352 86.8569 104.491 86.9157C104.63 86.9745 104.749 87.0729 104.832 87.1987C104.915 87.3245 104.96 87.4721 104.96 87.623C104.96 87.774 104.915 87.9216 104.832 88.0474C104.749 88.1732 104.63 88.2716 104.491 88.3304C104.352 88.3892 104.199 88.4057 104.05 88.3779C103.902 88.3501 103.765 88.2792 103.657 88.1741C103.583 88.1025 103.525 88.0168 103.484 87.9222C103.444 87.8275 103.424 87.7258 103.424 87.623C103.424 87.5203 103.444 87.4185 103.484 87.3239C103.525 87.2292 103.583 87.1436 103.657 87.072Z" fill="#FAFAFA"/>
<path d="M85.8086 131.328C85.9169 131.223 86.0538 131.152 86.2021 131.124C86.3504 131.096 86.5037 131.113 86.6427 131.172C86.7817 131.23 86.9003 131.329 86.9837 131.455C87.0671 131.581 87.1116 131.728 87.1116 131.879C87.1116 132.03 87.0671 132.178 86.9837 132.303C86.9003 132.429 86.7817 132.528 86.6427 132.586C86.5037 132.645 86.3504 132.662 86.2021 132.634C86.0538 132.606 85.9169 132.535 85.8086 132.43C85.7349 132.358 85.6762 132.273 85.6362 132.178C85.5962 132.084 85.5756 131.982 85.5756 131.879C85.5756 131.776 85.5962 131.675 85.6362 131.58C85.6762 131.485 85.7349 131.4 85.8086 131.328Z" fill="#FAFAFA"/>
<path d="M97.7548 113.875C97.7174 113.958 97.6711 114.037 97.6166 114.109L97.1865 114.762L95.5814 117.097L95.5199 117.189L95.4546 117.101L93.1046 113.933H93.262L92.014 115.603C91.63 116.122 91.246 116.625 90.885 117.112L90.8044 117.224L90.7276 117.109L88.581 113.921H88.7039L86.6918 116.225L86.1234 116.851C86.0617 116.929 85.9908 116.998 85.9122 117.059C85.9607 116.973 86.0186 116.893 86.085 116.821L86.6188 116.164L88.581 113.829L88.6463 113.749L88.7078 113.837L90.8812 117.005H90.7199L91.8489 115.496L93.0969 113.825L93.1775 113.722L93.2543 113.829L95.5583 117.016H95.4316L97.0905 114.712L97.5551 114.086C97.6857 113.941 97.7471 113.868 97.7548 113.875Z" fill="#FAFAFA"/>
<path d="M105.485 126.958C105.469 127.049 105.442 127.138 105.404 127.223C105.335 127.415 105.243 127.657 105.132 127.953C104.878 128.613 104.529 129.512 104.11 130.595L104.072 130.698L103.983 130.625L100.969 128.083L101.123 128.049C100.858 128.663 100.577 129.3 100.293 129.969L99.5251 131.693L99.4714 131.82L99.3677 131.727L96.5491 129.116L96.6797 129.093L95.2435 131.781L94.848 132.515C94.8047 132.604 94.7519 132.689 94.6906 132.768C94.7175 132.671 94.7562 132.579 94.8058 132.492L95.1898 131.724C95.5315 131.048 96 130.118 96.5606 129.001L96.6067 128.909L96.6874 128.982L99.529 131.566L99.3715 131.601L100.14 129.873C100.424 129.216 100.704 128.575 100.973 127.953L101.023 127.834L101.126 127.918L104.114 130.491L103.991 130.522C104.436 129.446 104.805 128.556 105.078 127.907C105.204 127.615 105.304 127.377 105.389 127.188C105.414 127.109 105.446 127.032 105.485 126.958Z" fill="#FAFAFA"/>
<path d="M111.901 92.928C111.985 92.9657 112.065 93.012 112.139 93.0662L112.788 93.5001L115.115 95.1091L115.208 95.1744L115.119 95.2397L111.94 97.5782V97.4208L113.606 98.6726L115.108 99.8246L115.219 99.9053L115.104 99.9821L111.909 102.117V101.987L114.19 104.006L114.812 104.579C114.89 104.641 114.961 104.712 115.023 104.79C114.935 104.741 114.854 104.682 114.781 104.613L114.129 104.079L111.802 102.109L111.721 102.04L111.809 101.979L114.985 99.8208V99.9821L113.48 98.8493L111.817 97.5936L111.709 97.5129L111.817 97.4361L115.016 95.1321V95.2589L112.712 93.5923L112.128 93.1161C112.047 93.06 111.971 92.9971 111.901 92.928Z" fill="#FAFAFA"/>
<path d="M121.451 110.734C121.47 110.644 121.498 110.557 121.536 110.473L121.824 109.743C122.093 109.094 122.457 108.207 122.899 107.125L122.941 107.021L123.026 107.098L125.986 109.701L125.833 109.736C126.113 109.125 126.405 108.492 126.701 107.839C126.973 107.255 127.234 106.687 127.492 106.126L127.549 106.003L127.649 106.099L130.414 108.768L130.283 108.787L131.773 106.126C131.946 105.827 132.084 105.585 132.196 105.397C132.24 105.307 132.296 105.223 132.361 105.147C132.33 105.242 132.289 105.333 132.238 105.42L131.854 106.188L130.429 108.876L130.379 108.972L130.299 108.895L127.511 106.253L127.668 106.222L126.9 107.935C126.601 108.584 126.309 109.217 126.025 109.828L125.971 109.947L125.871 109.859L122.937 107.228L123.06 107.197L121.908 109.793L121.586 110.5C121.549 110.582 121.504 110.661 121.451 110.734Z" fill="#FAFAFA"/>
<path d="M60.5913 99.552C60.6106 99.4618 60.6402 99.3742 60.6796 99.2909L60.9638 98.5651L62.0428 95.9424L62.0812 95.8425L62.1657 95.9155L65.1264 98.5229L64.9727 98.5536L65.8444 96.6605L66.6316 94.9478L66.6892 94.8211L66.7891 94.9171L69.5539 97.5859L69.4233 97.6051L70.9132 94.944C71.086 94.6483 71.2281 94.4064 71.3356 94.2144C71.3817 94.1256 71.437 94.0419 71.5007 93.9648C71.4707 94.0602 71.4295 94.1517 71.3779 94.2374L70.9939 95.0054L69.5692 97.6934L69.5193 97.7856L69.4387 97.7126L66.6547 95.0669L66.8083 95.0361C66.5548 95.5891 66.2937 96.1651 66.0403 96.7488L65.1686 98.6419L65.111 98.7648L65.015 98.6765L62.0774 96.0422L62.208 96C61.7395 97.0637 61.3478 97.9469 61.056 98.592C60.9216 98.88 60.814 99.1142 60.7295 99.3024C60.6945 99.3912 60.648 99.4751 60.5913 99.552Z" fill="#FAFAFA"/>
<path d="M88.2163 94.9517C88.2881 94.8952 88.3638 94.8438 88.4429 94.7981L89.111 94.3949L91.561 92.9741L91.657 92.9165L91.68 93.0279C91.8989 94.1415 92.16 95.4624 92.448 96.8986L92.3098 96.8295L94.1491 95.8541L95.8195 94.9786L95.9424 94.9133V95.0477C96.1498 96.4455 96.3264 97.7357 96.5107 98.8493L96.3955 98.7879C97.5475 98.2925 98.4998 97.8855 99.1949 97.5821L99.9629 97.2595C100.053 97.2181 100.147 97.1859 100.243 97.1635C100.162 97.2205 100.074 97.2681 99.9821 97.3056L99.2141 97.6666L96.4416 98.9376L96.3456 98.9799V98.8762C96.1689 97.7587 95.9616 96.4723 95.7427 95.0784L95.8886 95.1514L94.2221 96.0307L92.375 97.0023L92.2598 97.0637L92.233 96.9331C91.9642 95.497 91.7184 94.176 91.5072 93.0586L91.6262 93.1123L89.1571 94.464L88.4659 94.8288C88.3885 94.8806 88.3045 94.9219 88.2163 94.9517Z" fill="#FAFAFA"/>
<path d="M97.6819 85.8163C97.7625 82.3603 97.9084 78.6624 97.9084 78.6624C97.9084 78.6624 103.162 77.9981 103.388 72.6413C103.561 68.5594 103.63 62.1466 103.657 59.3165C103.659 58.905 103.529 58.5037 103.285 58.1718C103.042 57.84 102.698 57.5951 102.305 57.4733L93.5654 54.7853L86.2118 60.215L86.039 85.632C86.016 88.8653 88.128 90.8582 91.3574 90.8582C94.5216 90.8659 97.6128 88.9805 97.6819 85.8163Z" fill="#FFAD9D"/>
<path d="M97.92 78.6624C95.4309 78.5962 93.0153 77.8048 90.9696 76.3853C90.9696 76.3853 92.6016 80.2905 97.8317 79.9757L97.92 78.6624Z" fill="#E88B79"/>
<path d="M97.4362 72.4186C97.4832 72.3172 97.5024 72.2052 97.4918 72.0939C97.4812 71.9827 97.4413 71.8763 97.376 71.7856C97.3107 71.6949 97.2225 71.6233 97.1204 71.5779C97.0183 71.5326 96.9059 71.5153 96.7949 71.5277C96.7672 71.283 96.649 71.0576 96.4635 70.8956C96.2781 70.7336 96.0388 70.6468 95.7926 70.6522C95.5467 70.6713 95.3139 70.7708 95.13 70.9352C94.9462 71.0997 94.8214 71.32 94.775 71.5622C94.74 71.807 94.7757 72.0566 94.8777 72.2817C94.9797 72.5069 95.144 72.6983 95.351 72.8333C95.561 72.9627 95.799 73.0397 96.0449 73.0578C96.2909 73.0758 96.5376 73.0344 96.7642 72.937C96.9451 72.87 97.1056 72.7574 97.2301 72.61C97.3546 72.4627 97.4388 72.2856 97.4746 72.096" fill="#E88B79"/>
<path d="M101.656 64.4045C101.659 64.5961 101.587 64.7812 101.455 64.9198C101.323 65.0585 101.141 65.1396 100.95 65.1456C100.856 65.1546 100.761 65.1444 100.67 65.1157C100.58 65.0871 100.497 65.0405 100.425 64.9788C100.353 64.9172 100.295 64.8417 100.253 64.7568C100.211 64.672 100.187 64.5796 100.182 64.4852C100.18 64.2929 100.253 64.1073 100.385 63.9682C100.518 63.829 100.7 63.7472 100.892 63.7402C100.986 63.7318 101.081 63.7425 101.171 63.7717C101.261 63.8008 101.344 63.8478 101.415 63.9098C101.487 63.9718 101.545 64.0476 101.586 64.1326C101.628 64.2176 101.651 64.3101 101.656 64.4045Z" fill="#263238"/>
<path d="M102.551 63.7901C102.459 63.8861 101.902 63.4714 101.111 63.4752C100.32 63.4791 99.7401 63.8592 99.6556 63.7747C99.5711 63.6903 99.7055 63.5597 99.959 63.3907C100.297 63.156 100.699 63.0301 101.111 63.0298C101.526 63.0298 101.931 63.1645 102.263 63.4138C102.528 63.5712 102.597 63.744 102.551 63.7901Z" fill="#263238"/>
<path d="M97.6435 69.8073C98.0607 69.6754 98.493 69.5967 98.9299 69.5731C99.1334 69.5539 99.3139 69.5117 99.3562 69.3734C99.3754 69.1646 99.3284 68.955 99.2218 68.7744L98.6266 67.2384C97.7933 65.0457 97.1942 63.2448 97.2826 63.2102C97.3709 63.1757 98.1158 64.9267 98.9453 67.1193L99.5174 68.6553C99.646 68.8993 99.6828 69.1814 99.6211 69.4502C99.5923 69.5215 99.5476 69.5851 99.4903 69.6364C99.4331 69.6877 99.3649 69.7251 99.2909 69.7459C99.1795 69.7762 99.0646 69.7917 98.9491 69.792C98.5161 69.8491 98.0778 69.8542 97.6435 69.8073Z" fill="#263238"/>
<path d="M95.3165 70.3527C95.4432 70.3527 95.447 71.2051 96.1805 71.8157C96.9139 72.4263 97.8317 72.3302 97.8355 72.4493C97.8355 72.503 97.632 72.6183 97.248 72.6259C96.7449 72.6348 96.255 72.4647 95.8656 72.1459C95.4898 71.8414 95.2485 71.4015 95.1936 70.921C95.159 70.56 95.255 70.3488 95.3165 70.3527Z" fill="#263238"/>
<path d="M95.1743 63.3945C95.0898 63.6019 94.4255 63.4483 93.6383 63.4982C92.8511 63.5481 92.1791 63.7517 92.1023 63.552C92.0601 63.456 92.1868 63.264 92.4633 63.0758C92.8122 62.8452 93.2167 62.7126 93.6345 62.6918C94.0466 62.6668 94.4575 62.7572 94.821 62.9529C95.0783 63.1142 95.2089 63.2947 95.1743 63.3945Z" fill="#263238"/>
<path d="M102.728 61.8509C102.559 62.0314 101.894 61.8509 101.099 61.8509C100.305 61.8509 99.6326 61.9699 99.479 61.7818C99.4098 61.6896 99.5135 61.513 99.8092 61.3402C100.216 61.1285 100.672 61.0279 101.13 61.0483C101.587 61.0499 102.036 61.1746 102.428 61.4093C102.708 61.5782 102.801 61.7626 102.728 61.8509Z" fill="#263238"/>
<path d="M94.9478 64.9344C94.9171 64.9344 94.8249 64.7923 94.5984 64.6349C94.3036 64.4329 93.9485 64.3381 93.5923 64.3661C93.2317 64.4043 92.8855 64.528 92.5824 64.7271C92.3404 64.8768 92.1984 64.992 92.1984 64.969C92.1984 64.9459 92.2828 64.8 92.5171 64.6119C92.8222 64.3581 93.1971 64.2028 93.5923 64.1664C93.7923 64.1491 93.9938 64.1717 94.185 64.233C94.3762 64.2943 94.5532 64.3931 94.7059 64.5235C94.9171 64.7347 94.967 64.9267 94.9478 64.9344Z" fill="#263238"/>
<path d="M92.2406 66.7469C92.2137 66.793 92.0985 66.7738 91.9872 66.7046C91.8758 66.6355 91.8067 66.5434 91.8374 66.4973C91.8681 66.4512 91.9795 66.4666 92.0908 66.5357C92.2022 66.6048 92.2713 66.7008 92.2406 66.7469Z" fill="#E88B79"/>
<path d="M93.6115 66.8429C93.5539 66.8429 93.527 66.7315 93.5423 66.6125C93.5577 66.4934 93.6191 66.3974 93.6729 66.4051C93.7267 66.4128 93.7574 66.5165 93.742 66.6393C93.7267 66.7622 93.6652 66.8505 93.6115 66.8429Z" fill="#E88B79"/>
<path d="M92.8626 69.12C92.8127 69.097 92.8089 69.001 92.8626 68.9088C92.9164 68.8166 92.9817 68.7552 93.0316 68.7782C93.0815 68.8013 93.0853 68.8934 93.0316 68.9894C92.9778 69.0854 92.9279 69.143 92.8626 69.12Z" fill="#E88B79"/>
<path d="M101.656 66.624C101.626 66.6701 101.537 66.6663 101.46 66.624C101.384 66.5818 101.345 66.4935 101.376 66.4474C101.407 66.4013 101.495 66.4051 101.572 66.4474C101.649 66.4896 101.687 66.5779 101.656 66.624Z" fill="#E88B79"/>
<path d="M102.528 66.4973C102.482 66.4704 102.49 66.3629 102.551 66.2592C102.612 66.1555 102.697 66.0941 102.747 66.1209C102.797 66.1478 102.785 66.2553 102.724 66.359C102.662 66.4627 102.574 66.5241 102.528 66.4973Z" fill="#E88B79"/>
<path d="M101.94 68.7782C101.887 68.7782 101.864 68.6362 101.891 68.4787C101.917 68.3213 101.979 68.2061 102.036 68.2176C102.094 68.2291 102.113 68.3597 102.086 68.5133C102.059 68.6669 101.994 68.7859 101.94 68.7782Z" fill="#E88B79"/>
<path d="M101.656 77.184C101.656 77.184 101.821 77.2493 102.121 77.3337C102.541 77.4534 102.98 77.4912 103.415 77.4451C104.058 77.3697 104.668 77.1215 105.181 76.727C105.803 76.2474 106.244 75.5702 106.429 74.807C106.605 74.0405 106.551 73.2394 106.276 72.503C106.05 71.8962 105.639 71.3761 105.101 71.0169C104.734 70.7793 104.32 70.6259 103.887 70.5677C103.58 70.5293 103.407 70.5677 103.403 70.5293C103.444 70.514 103.487 70.5049 103.53 70.5024C103.652 70.4913 103.774 70.4913 103.895 70.5024C104.349 70.5322 104.789 70.6719 105.178 70.9094C105.756 71.2696 106.201 71.809 106.445 72.4454C106.753 73.2195 106.814 74.0696 106.621 74.88C106.432 75.6948 105.962 76.4168 105.293 76.919C104.751 77.3264 104.106 77.5738 103.43 77.6333C102.978 77.6678 102.524 77.6063 102.098 77.4528C101.935 77.3928 101.785 77.3015 101.656 77.184Z" fill="#F8C325"/>
<g opacity="0.2">
<path opacity="0.2" d="M94.3103 112.842C94.4179 112.892 94.1644 113.748 93.239 114.824C92.6858 115.449 92.038 115.985 91.319 116.41C89.5459 117.485 87.4286 117.841 85.4015 117.404C84.5926 117.232 83.8153 116.936 83.0975 116.525C81.8726 115.814 81.3542 115.089 81.4387 114.989C81.5231 114.889 82.2067 115.373 83.4124 115.876C84.9515 116.544 86.6515 116.752 88.3064 116.474C89.9612 116.196 91.4999 115.444 92.7359 114.309C93.6959 113.464 94.1759 112.762 94.3103 112.842Z" fill="black"/>
</g>
<g opacity="0.2">
<path opacity="0.2" d="M75.0681 103.469C75.0681 103.469 81.7689 119.109 81.4118 121.156C81.0547 123.203 76.3622 129.865 76.3622 129.865L79.7798 122.02C77.8959 115.92 76.3233 109.728 75.0681 103.469Z" fill="black"/>
</g>
<path d="M126.29 106.679C125.53 105.331 125.025 103.855 124.8 102.324C124.858 102.324 125.119 103.308 125.53 104.506C125.94 105.704 126.336 106.652 126.29 106.679Z" fill="#263238"/>
<path d="M127.104 105.6C126.591 105.1 126.148 104.533 125.787 103.914C125.37 103.332 125.035 102.695 124.792 102.021C124.842 101.994 125.314 102.824 125.944 103.807C126.574 104.79 127.162 105.562 127.104 105.6Z" fill="#263238"/>
<path d="M102.643 119.662C102.491 119.803 102.328 119.932 102.155 120.046L100.792 120.96L96.2879 124.032L91.7951 127.15L90.4319 128.091C90.2704 128.214 90.0982 128.322 89.9174 128.413C90.0621 128.272 90.2189 128.144 90.3858 128.029C90.6969 127.788 91.1538 127.45 91.7145 127.035C92.8434 126.205 94.4025 125.084 96.1727 123.867C97.943 122.65 99.5404 121.563 100.715 120.822C101.303 120.438 101.779 120.138 102.113 119.931C102.283 119.828 102.46 119.738 102.643 119.662Z" fill="#263238"/>
<path d="M55.438 100.55C55.5781 99.8121 55.8117 99.0946 56.133 98.4153C56.3958 97.7113 56.7481 97.0441 57.1814 96.4301C57.2313 96.4569 56.7974 97.3593 56.3174 98.4921C56.0608 99.1933 55.7673 99.8803 55.438 100.55Z" fill="#263238"/>
<path d="M56.7052 102.259C56.6684 101.97 56.6684 101.677 56.7052 101.388C56.7052 100.85 56.7705 100.105 56.8703 99.2909C56.9702 98.4768 57.093 97.7549 57.2044 97.2135C57.2457 96.9238 57.3217 96.6401 57.431 96.3687C57.4307 96.6602 57.4011 96.9509 57.3426 97.2365C57.2697 97.7664 57.166 98.4999 57.0662 99.3139C56.9663 100.128 56.8972 100.85 56.8434 101.395C56.8289 101.687 56.7826 101.977 56.7052 102.259Z" fill="#263238"/>
<path d="M93.5193 51.6365C94.2888 53.033 94.5825 54.6421 94.3559 56.2204C94.1293 57.7987 93.3949 59.2603 92.2636 60.384C91.1116 61.4899 89.5296 62.2426 88.8076 63.6749C88.0396 65.1802 88.4505 67.0003 88.9996 68.5939C89.5488 70.1875 90.2438 71.831 90.0096 73.5014C89.7216 75.5789 88.0588 77.2531 87.7056 79.319C87.0297 83.2704 91.2806 86.7571 90.7776 90.7353C90.5625 92.4787 89.4604 93.9609 88.5043 95.4355C87.5481 96.9101 86.6803 98.6265 87.0105 100.355C87.168 101.172 87.863 101.891 87.7785 102.732C87.4675 106.095 82.7097 106.545 82.0185 105.957C82.8864 104.302 81.8611 101.733 81.7574 101.603C81.6052 102.335 81.2269 103.002 80.6758 103.508C80.1246 104.015 79.4285 104.335 78.6854 104.425C78.8715 103.138 78.7679 101.826 78.382 100.585C78.0963 101.058 77.7109 101.464 77.2527 101.774C76.7945 102.083 76.2745 102.29 75.7286 102.378C76.6285 97.6999 76.064 92.8578 74.112 88.512C73.4246 86.999 72.5491 85.44 72.7718 83.7811C73.0636 81.6461 75.0758 80.1945 76.0128 78.2592C77.0764 76.0819 76.7193 73.5168 76.4275 71.1091C76.1356 68.7014 75.9897 66.0595 77.3721 64.0704C78.2169 62.857 79.5532 62.016 80.2329 60.7027C80.8665 59.4854 80.8396 58.0378 81.2236 56.7206C81.9225 54.3322 83.6736 51.6365 86.0236 50.8224C88.3737 50.0083 92.0294 49.2211 93.5078 51.6365" fill="#263238"/>
<path d="M76.7117 97.3632C76.1357 99.0221 75.5597 100.742 75.6749 102.493C75.7901 104.245 76.8269 106.061 78.5203 106.549C79.1616 106.733 79.9142 106.744 80.3673 107.236C80.5408 107.452 80.655 107.71 80.6987 107.984C80.7425 108.258 80.7143 108.539 80.6169 108.799C80.4159 109.316 80.1247 109.793 79.7568 110.208C80.8135 109.709 81.706 108.919 82.3296 107.931C82.4773 108.605 82.4575 109.305 82.2721 109.97C82.0867 110.635 81.7412 111.244 81.2659 111.744C82.56 111.794 83.6889 110.903 84.6067 109.985C86.6957 107.889 88.4467 105.12 88.1894 102.175C87.9321 99.2295 85.7203 96.6874 85.728 93.7267C85.728 92.5747 86.0697 91.488 86.112 90.3552C86.1542 89.2224 85.8624 87.9667 84.9177 87.3408" fill="#263238"/>
<path d="M92.9856 51.84C93.5514 51.1789 94.2724 50.6683 95.0839 50.354C95.8954 50.0397 96.7722 49.9315 97.6358 50.0391C99.3736 50.28 100.962 51.1521 102.098 52.489C103.222 53.8235 104.02 55.4011 104.429 57.097C104.587 57.5926 104.649 58.1142 104.609 58.633C104.589 58.8906 104.509 59.1399 104.376 59.3612C104.243 59.5825 104.059 59.7696 103.841 59.9079C103.6 60.0221 103.335 60.0782 103.069 60.0715C102.802 60.0648 102.54 59.9956 102.305 59.8695C101.838 59.6155 101.414 59.2889 101.05 58.9018C100.932 59.4132 100.649 59.8715 100.244 60.2059C99.8395 60.5403 99.3361 60.7321 98.8117 60.7518C98.2872 60.7714 97.7709 60.6178 97.3425 60.3147C96.9141 60.0115 96.5975 59.5757 96.4416 59.0746C96.1579 59.7609 95.6607 60.3375 95.0237 60.7191C94.3867 61.1007 93.6437 61.267 92.9048 61.1933C92.1658 61.1197 91.4703 60.8099 90.9212 60.3101C90.372 59.8102 89.9985 59.1467 89.856 58.418C89.591 57.0816 90.1401 55.7069 90.9081 54.578C91.6761 53.449 92.6707 52.4967 93.4617 51.3869" fill="#263238"/>
<path d="M73.2173 87.4406C73.321 87.3186 73.4171 87.1904 73.5053 87.0566C73.7396 86.6655 73.879 86.225 73.9123 85.7702C73.9499 85.0495 73.9061 84.3269 73.7818 83.616C73.7212 83.163 73.7058 82.705 73.7357 82.249C73.7798 81.732 73.9344 81.2304 74.1888 80.7782C74.7149 79.8221 75.6403 79.0387 76.6464 78.2976C77.1494 77.9136 77.6717 77.5296 78.1824 77.0957C78.6969 76.6552 79.1264 76.1242 79.4496 75.529C79.7598 74.8891 79.9163 74.1856 79.9066 73.4746C79.893 72.7271 79.8081 71.9826 79.6531 71.2512C79.5072 70.5024 79.3306 69.7344 79.2691 68.9472C79.1647 68.1357 79.2182 67.3116 79.4266 66.5203C79.5437 66.1197 79.7281 65.7418 79.9718 65.4029C80.2171 65.0751 80.5081 64.7841 80.8358 64.5389C81.4837 64.0944 82.1655 63.7015 82.8749 63.3638C83.5485 63.0482 84.1588 62.6122 84.6758 62.0774C85.1387 61.5378 85.4195 60.8659 85.4784 60.1574C85.5667 59.4662 85.5437 58.7789 85.5629 58.1069C85.5643 57.4565 85.66 56.8098 85.847 56.1869C86.1988 55.0561 86.8567 54.0447 87.7478 53.2646C88.4786 52.6177 89.3609 52.166 90.313 51.9514C91.0319 51.7948 91.7782 51.8173 92.4864 52.0166C92.9325 52.1444 93.3444 52.37 93.6922 52.6771C93.781 52.7574 93.8632 52.8447 93.9379 52.9382C93.9878 52.9997 94.0147 53.0342 94.0109 53.0381C94.007 53.0419 93.9034 52.9075 93.6653 52.7078C93.3139 52.4197 92.9057 52.209 92.4672 52.0896C91.7694 51.9089 91.0382 51.8997 90.336 52.0627C89.4079 52.2813 88.5504 52.7318 87.8438 53.3722C86.9772 54.1382 86.3404 55.13 86.0045 56.2368C85.8255 56.8519 85.735 57.4893 85.7357 58.1299C85.747 58.8206 85.7226 59.5115 85.6627 60.1997C85.5973 60.9431 85.302 61.6477 84.8179 62.2157C84.2865 62.768 83.6594 63.2195 82.967 63.5482C82.2677 63.8798 81.5949 64.2649 80.9549 64.7002C80.643 64.9333 80.3663 65.2101 80.1331 65.5219C79.9034 65.8425 79.7295 66.1995 79.6186 66.5779C79.4176 67.3443 79.3667 68.1423 79.4688 68.928C79.5418 69.696 79.7184 70.464 79.8528 71.232C80.0087 71.9749 80.0936 72.731 80.1062 73.4899C80.1136 74.2308 79.9479 74.9632 79.6224 75.6288C79.2871 76.2423 78.842 76.789 78.3091 77.2416C77.8061 77.6947 77.2762 78.0749 76.7731 78.4474C75.7632 79.177 74.8531 79.9411 74.3386 80.8627C74.0894 81.2962 73.9362 81.7781 73.8893 82.2758C73.8547 82.7237 73.865 83.174 73.92 83.6198C74.0374 84.3393 74.0696 85.0701 74.016 85.7971C73.9736 86.2598 73.8194 86.7052 73.5667 87.095C73.4709 87.2294 73.3527 87.3463 73.2173 87.4406Z" fill="#455A64"/>
<path d="M82.4064 96.2534C82.3426 96.1073 82.2925 95.9556 82.2566 95.8003C82.1741 95.3464 82.1911 94.8799 82.3065 94.4333C82.4959 93.7362 82.7412 93.0556 83.04 92.3981C83.3433 91.6301 83.7235 90.7008 83.5737 89.6601C83.479 89.1221 83.2765 88.6088 82.9785 88.151C82.6527 87.6471 82.3016 87.1601 81.9264 86.6918C81.5194 86.1844 81.1703 85.6332 80.8857 85.0483C80.434 84.0502 80.2329 82.9569 80.2998 81.8634C80.3667 80.7699 80.6997 79.7093 81.2697 78.7737C82.0876 77.4413 83.3894 76.4697 84.526 75.3446C85.0962 74.7976 85.585 74.1717 85.9776 73.4861C86.1598 73.1494 86.3016 72.7924 86.4 72.4224C86.4877 72.0565 86.5302 71.6812 86.5267 71.3049C86.4883 69.7958 85.8854 68.4096 85.6857 67.008C85.561 66.3403 85.5869 65.6532 85.7617 64.9968C85.9364 64.3404 86.2555 63.7314 86.6956 63.2141C87.4617 62.331 88.344 61.5559 89.3184 60.9101C90.1103 60.3831 90.859 59.7937 91.5571 59.1475C92.0835 58.6607 92.5271 58.0913 92.8704 57.4617C93.1505 56.9183 93.3115 56.3213 93.3427 55.7107C93.3554 55.8692 93.3554 56.0284 93.3427 56.1869C93.2939 56.6428 93.1638 57.0862 92.9587 57.4963C92.6231 58.1423 92.1818 58.7277 91.6531 59.2281C90.9596 59.8885 90.212 60.4896 89.4182 61.0253C88.4635 61.6654 87.5983 62.4299 86.8454 63.2985C86.4225 63.799 86.1169 64.3877 85.9508 65.0216C85.7847 65.6554 85.7623 66.3183 85.8854 66.9619C86.0851 68.3328 86.6956 69.7152 86.7417 71.2819C86.7442 71.6697 86.7004 72.0565 86.6112 72.4339C86.5079 72.8198 86.3597 73.1923 86.1696 73.5437C85.768 74.2511 85.2676 74.8976 84.6835 75.4637C83.5315 76.6157 82.2412 77.5641 81.4502 78.8544C80.8965 79.7634 80.5721 80.7936 80.5052 81.8559C80.4383 82.9183 80.6309 83.9809 81.0662 84.9523C81.3434 85.5269 81.6834 86.0691 82.08 86.5689C82.464 87.0681 82.8249 87.5443 83.1283 88.0473C83.4334 88.5237 83.6397 89.0565 83.735 89.6141C83.8809 90.7085 83.4739 91.6493 83.1628 92.4173C82.856 93.0675 82.5993 93.7401 82.3948 94.4294C82.2746 94.8656 82.2471 95.3221 82.3142 95.7696C82.3603 96.096 82.4179 96.2496 82.4064 96.2534Z" fill="#455A64"/>
<path d="M102.528 58.2797C102.493 58.2797 102.417 57.6461 102.228 56.6362C102.116 56.0487 101.947 55.4738 101.722 54.9197C101.448 54.2459 101.027 53.6422 100.489 53.1533C99.9401 52.6798 99.262 52.3815 98.5421 52.297C97.9494 52.2191 97.3492 52.2191 96.7565 52.297C95.7389 52.4275 95.1168 52.5773 95.1091 52.5427C95.247 52.4818 95.3912 52.4367 95.5392 52.4083C95.9336 52.3028 96.3336 52.2195 96.7373 52.1587C97.3409 52.0543 97.9559 52.0336 98.5651 52.0973C99.321 52.1818 100.033 52.4938 100.608 52.992C101.17 53.5008 101.606 54.1331 101.883 54.839C102.104 55.4075 102.263 55.9985 102.355 56.6016C102.44 57.1123 102.478 57.5309 102.501 57.8189C102.527 57.971 102.536 58.1256 102.528 58.2797Z" fill="#455A64"/>
<path d="M97.4746 59.4048C97.4796 58.9978 97.5078 58.5914 97.559 58.1875C97.6639 57.2214 97.5844 56.2441 97.3248 55.3075C97.1722 54.8008 96.9203 54.3296 96.5837 53.9213C96.3049 53.5922 95.9644 53.3209 95.5814 53.1226C95.216 52.955 94.8278 52.8424 94.4294 52.7885C94.5366 52.757 94.6496 52.7505 94.7597 52.7693C95.064 52.7914 95.3619 52.8682 95.639 52.9958C96.0514 53.1858 96.4191 53.4606 96.7181 53.8022C97.0802 54.2233 97.3509 54.7149 97.513 55.2461C97.782 56.2064 97.8448 57.2127 97.6973 58.199C97.6512 58.583 97.5974 58.8787 97.5552 59.0861C97.5476 59.1963 97.5202 59.3042 97.4746 59.4048Z" fill="#455A64"/>
<path d="M142.187 44.4288V30.1594H42.3129V155.194H142.187V112.454L135.202 117.062V133.29H49.6588V44.279H135.202V51.6672C137.276 50.304 140.314 47.0131 142.187 44.4288Z" fill="#F5F5F5"/>
<path d="M52.3161 37.1559C52.5069 37.0716 52.6686 36.9331 52.7812 36.7576C52.8939 36.5822 52.9525 36.3775 52.9497 36.169C52.9582 36.0324 52.9386 35.8955 52.8922 35.7668C52.8457 35.6381 52.7734 35.5203 52.6797 35.4206C52.586 35.3208 52.4728 35.2414 52.3472 35.1871C52.2216 35.1328 52.0863 35.1047 51.9494 35.1047C51.8126 35.1047 51.6772 35.1328 51.5516 35.1871C51.426 35.2414 51.3129 35.3208 51.2191 35.4206C51.1254 35.5203 51.0531 35.6381 51.0067 35.7668C50.9602 35.8955 50.9406 36.0324 50.9491 36.169C50.9457 36.3791 51.0043 36.5855 51.1177 36.7625C51.2311 36.9394 51.3942 37.0789 51.5865 37.1635C51.2727 37.2007 50.9769 37.33 50.7364 37.535C50.4958 37.74 50.3213 38.0116 50.2349 38.3155C50.5962 38.7197 51.0884 38.9834 51.6249 39.0605H52.2432C52.7895 38.9842 53.2893 38.7111 53.6486 38.2925C53.564 37.9924 53.3922 37.7242 53.155 37.5218C52.9178 37.3194 52.6258 37.1921 52.3161 37.1559Z" fill="#455A64"/>
<path d="M51.9436 39.0951C51.9436 39.0951 52.1471 39.0951 52.4889 38.9914C52.9734 38.8536 53.3988 38.5592 53.6985 38.1543C53.9175 37.8589 54.0596 37.5136 54.1119 37.1496C54.1642 36.7856 54.125 36.4143 53.998 36.0691C53.8414 35.6485 53.56 35.2859 53.1914 35.0298C52.8228 34.7737 52.3847 34.6364 51.9359 34.6364C51.4871 34.6364 51.049 34.7737 50.6804 35.0298C50.3119 35.2859 50.0304 35.6485 49.8738 36.0691C49.7489 36.415 49.7116 36.7865 49.7652 37.1503C49.8188 37.5142 49.9616 37.8591 50.181 38.1543C50.4817 38.5583 50.9088 38.8503 51.3945 38.9837C51.7401 39.0759 51.9436 39.0682 51.9436 39.0874C51.9436 39.1066 51.8937 39.0874 51.7977 39.0874C51.6566 39.089 51.5159 39.0723 51.3791 39.0375C50.8655 38.9241 50.4078 38.6348 50.085 38.2195C49.8597 37.9358 49.7045 37.603 49.6319 37.248C49.5523 36.835 49.5841 36.4082 49.7241 36.0115C49.8789 35.5709 50.1625 35.187 50.5381 34.9095C50.9416 34.6093 51.4311 34.4472 51.934 34.4472C52.4369 34.4472 52.9264 34.6093 53.3298 34.9095C53.7067 35.1858 53.9906 35.5701 54.1439 36.0115C54.2866 36.4076 54.3198 36.8347 54.2399 37.248C54.1734 37.607 54.0205 37.9444 53.7945 38.2311C53.4711 38.6454 53.0159 38.9367 52.5042 39.0567C52.3668 39.0876 52.2265 39.1043 52.0857 39.1066C51.9935 39.1027 51.9436 39.1027 51.9436 39.0951Z" fill="#455A64"/>
<path d="M135.168 34.4909C135.169 34.5896 135.14 34.6863 135.086 34.7688C135.032 34.8513 134.954 34.9159 134.863 34.9544C134.772 34.9929 134.672 35.0035 134.575 34.985C134.478 34.9665 134.389 34.9196 134.318 34.8504C134.248 34.7811 134.2 34.6925 134.18 34.5958C134.16 34.4992 134.169 34.3987 134.206 34.3072C134.243 34.2157 134.307 34.1372 134.388 34.0818C134.47 34.0263 134.566 33.9963 134.665 33.9955C134.73 33.995 134.795 34.0074 134.856 34.032C134.917 34.0566 134.972 34.093 135.019 34.139C135.066 34.185 135.103 34.2397 135.128 34.3001C135.154 34.3605 135.167 34.4253 135.168 34.4909Z" fill="#455A64"/>
<path d="M135.168 36.2804C135.17 36.3792 135.142 36.4763 135.088 36.5594C135.034 36.6424 134.957 36.7075 134.866 36.7466C134.775 36.7857 134.675 36.7969 134.578 36.7788C134.48 36.7607 134.391 36.7142 134.32 36.6451C134.249 36.576 134.201 36.4874 134.18 36.3906C134.16 36.2938 134.169 36.1932 134.206 36.1015C134.243 36.0097 134.306 35.9311 134.388 35.8754C134.47 35.8197 134.566 35.7896 134.665 35.7888C134.797 35.7878 134.924 35.8389 135.018 35.931C135.112 36.023 135.166 36.1486 135.168 36.2804Z" fill="#455A64"/>
<path d="M135.203 38.0736C135.204 38.1725 135.176 38.2696 135.122 38.3526C135.069 38.4356 134.991 38.5008 134.901 38.5399C134.81 38.5789 134.709 38.5902 134.612 38.5721C134.515 38.554 134.425 38.5075 134.355 38.4383C134.284 38.3692 134.235 38.2807 134.215 38.1839C134.195 38.0871 134.203 37.9865 134.24 37.8947C134.277 37.803 134.341 37.7243 134.422 37.6687C134.504 37.613 134.601 37.5829 134.7 37.5821C134.831 37.5811 134.958 37.6322 135.052 37.7242C135.147 37.8163 135.201 37.9419 135.203 38.0736Z" fill="#455A64"/>
<path d="M100.8 36.864C100.8 36.9216 90.9542 36.9638 78.8159 36.9638C66.6777 36.9638 56.8319 36.9216 56.8319 36.864C56.8319 36.8064 66.6738 36.7642 78.8197 36.7642C90.9657 36.7642 100.8 36.8102 100.8 36.864Z" fill="#263238"/>
<path d="M65.184 144.273L64.1702 143.823C63.6339 144.106 63.0196 144.206 62.4214 144.106C61.8233 144.007 61.2742 143.714 60.8583 143.273C60.4425 142.831 60.1828 142.266 60.119 141.663C60.0553 141.06 60.191 140.453 60.5054 139.934C60.8198 139.415 61.2955 139.014 61.8596 138.792C62.4238 138.57 63.0453 138.538 63.6289 138.703C64.2125 138.868 64.7261 139.219 65.0908 139.704C65.4556 140.188 65.6516 140.779 65.6486 141.385C65.654 142.074 65.4052 142.741 64.9497 143.259L65.184 144.273ZM62.8147 138.793C62.4041 138.778 61.9956 138.859 61.6223 139.031C61.249 139.202 60.9213 139.459 60.6658 139.781C60.4102 140.103 60.234 140.48 60.1513 140.883C60.0686 141.285 60.0817 141.702 60.1897 142.098C60.2976 142.495 60.4973 142.86 60.7727 143.165C61.048 143.47 61.3913 143.706 61.7747 143.854C62.1581 144.001 62.5709 144.057 62.9797 144.016C63.3885 143.974 63.7818 143.837 64.128 143.616L64.1702 143.593L64.9152 143.923L64.7462 143.19L64.7808 143.155C65.1223 142.778 65.3467 142.31 65.4267 141.808C65.5066 141.306 65.4386 140.791 65.2309 140.327C65.0232 139.863 64.6849 139.469 64.2572 139.194C63.8295 138.919 63.3309 138.774 62.8224 138.778L62.8147 138.793Z" fill="#263238"/>
<path d="M71.6889 143.831L70.5369 141.005L68.3519 139.008L73.6281 138.962L71.6889 143.831ZM68.8396 139.223L70.6943 140.928L71.685 143.34L73.3362 139.192L68.8396 139.223Z" fill="#263238"/>
<path d="M73.4272 138.995L70.5546 140.868L70.6594 141.028L73.5321 139.156L73.4272 138.995Z" fill="#263238"/>
<path d="M134.957 143.919L132.753 141.757L130.702 143.85L130.644 137.595L134.899 137.557L134.957 143.919ZM132.753 141.485L132.822 141.554L134.742 143.474L134.692 137.764L130.825 137.798L130.875 143.397L132.753 141.485Z" fill="#263238"/>
<path d="M56.8819 139.626C56.8057 139.247 56.5977 138.908 56.2947 138.668C55.9917 138.428 55.6135 138.304 55.2273 138.317C54.8412 138.33 54.4721 138.479 54.1858 138.739C53.8995 138.998 53.7146 139.351 53.6639 139.734C53.6055 139.353 53.414 139.004 53.1234 138.751C52.8327 138.497 52.4617 138.355 52.0761 138.349C51.6905 138.343 51.3152 138.474 51.0168 138.718C50.7184 138.963 50.5162 139.305 50.446 139.684C50.3648 140.242 50.5024 140.81 50.83 141.27C51.1594 141.722 51.5467 142.128 51.982 142.479L53.6985 144.015C54.2783 143.485 54.7699 142.99 55.3497 142.46C55.7846 142.101 56.1717 141.688 56.5017 141.231C56.8295 140.765 56.9656 140.19 56.8819 139.626Z" fill="#F8C325"/>
<path d="M42.3129 77.3914C42.7392 77.6947 42.9197 77.879 43.3382 78.1939C43.5331 78.3675 43.772 78.484 44.0287 78.5307C44.2854 78.5775 44.5501 78.5526 44.7936 78.4589C45.2851 78.2054 45.4464 77.5642 45.3734 77.0112C45.3005 76.4582 45.0509 75.9514 44.9395 75.4099C45.1055 75.4733 45.2878 75.4805 45.4583 75.4306C45.6289 75.3807 45.7784 75.2763 45.8841 75.1334C45.9836 74.985 46.0522 74.8181 46.0858 74.6426C46.1195 74.4671 46.1175 74.2867 46.08 74.112C46.0106 73.7663 45.8943 73.4317 45.7344 73.1174C45.8611 73.3171 46.2067 73.2442 46.3219 73.0368C46.4105 72.8123 46.4105 72.5625 46.3219 72.3379C46.2124 71.7536 45.9254 71.2173 45.5001 70.8019C45.2837 70.5993 45.0078 70.4716 44.7133 70.4377C44.4187 70.4038 44.1211 70.4655 43.8643 70.6138C43.4803 70.8826 42.7737 71.2781 42.6585 71.7389C42.2553 73.3594 42.3936 75.7478 42.2745 77.4144" fill="#E0E0E0"/>
<path d="M134.016 73.2557C134.228 73.3445 134.398 73.5118 134.491 73.7228C134.583 73.9338 134.59 74.1722 134.511 74.3885C134.193 75.2525 133.678 76.6042 133.294 77.426C133.184 77.6969 133.024 77.9445 132.822 78.1555C132.722 78.2709 132.588 78.3521 132.44 78.3878C132.291 78.4236 132.135 78.4122 131.994 78.3551C131.852 78.298 131.732 78.1982 131.65 78.0695C131.567 77.9408 131.527 77.7896 131.535 77.6371C131.532 77.3278 131.59 77.0209 131.708 76.7347C131.981 75.9283 132.445 74.7226 132.86 73.7434C132.95 73.5277 133.121 73.3559 133.337 73.2648C133.552 73.1736 133.794 73.1704 134.012 73.2557H134.016Z" fill="#FFAD9D"/>
<path d="M135.283 74.8455C135.502 74.9327 135.677 75.1028 135.77 75.3186C135.864 75.5344 135.868 75.7784 135.782 75.9975C135.464 76.8615 134.949 78.2131 134.565 79.0349C134.453 79.3054 134.291 79.5528 134.089 79.7645C133.99 79.8806 133.856 79.9626 133.708 79.9989C133.559 80.0351 133.403 80.0238 133.261 79.9665C133.12 79.9092 132.999 79.8088 132.918 79.6796C132.836 79.5503 132.797 79.3987 132.806 79.2461C132.804 78.9372 132.861 78.6307 132.975 78.3437C133.248 77.5411 133.716 76.3315 134.127 75.3523C134.218 75.1366 134.389 74.9648 134.604 74.8737C134.819 74.7826 135.062 74.7793 135.279 74.8647L135.283 74.8455Z" fill="#FFAD9D"/>
<path d="M136.47 75.8554C136.655 75.9307 136.803 76.075 136.883 76.2578C136.963 76.4406 136.969 76.6475 136.9 76.8346C136.623 77.5834 136.178 78.7546 135.844 79.465C135.749 79.6997 135.611 79.9146 135.437 80.0986C135.35 80.1993 135.235 80.2704 135.106 80.3018C134.977 80.3332 134.842 80.3235 134.719 80.2739C134.596 80.2242 134.491 80.1373 134.42 80.0252C134.349 79.9132 134.315 79.7817 134.323 79.6493C134.322 79.3863 134.371 79.1255 134.469 78.8813C134.707 78.1824 135.11 77.138 135.46 76.2893C135.498 76.1948 135.554 76.1087 135.626 76.0361C135.697 75.9635 135.782 75.9059 135.876 75.8666C135.97 75.8273 136.071 75.8071 136.173 75.8071C136.275 75.8072 136.376 75.8275 136.47 75.8669V75.8554Z" fill="#FFAD9D"/>
<path d="M137.998 76.1933C138.185 76.2686 138.334 76.4142 138.415 76.5987C138.495 76.7833 138.5 76.9921 138.428 77.1802C138.152 77.929 137.706 79.1001 137.368 79.8221C137.273 80.0577 137.134 80.2728 136.957 80.4557C136.869 80.5468 136.757 80.6121 136.633 80.6446C136.51 80.677 136.381 80.6755 136.259 80.64C136.136 80.5848 136.032 80.496 135.957 80.3838C135.883 80.2717 135.843 80.1408 135.84 80.0064C135.84 79.7431 135.891 79.4824 135.99 79.2384C136.224 78.5357 136.631 77.4874 136.98 76.6349C137.018 76.539 137.074 76.4517 137.146 76.3781C137.218 76.3044 137.304 76.246 137.399 76.2062C137.494 76.1665 137.596 76.1462 137.699 76.1466C137.802 76.147 137.903 76.1681 137.998 76.2086V76.1933Z" fill="#FFAD9D"/>
<path d="M132.918 78.1901C133.053 77.6312 133.253 77.0899 133.513 76.5773C133.71 76.0379 133.968 75.5226 134.281 75.0413C134.148 75.6004 133.95 76.1417 133.69 76.6541C133.492 77.194 133.233 77.7094 132.918 78.1901Z" fill="#E88B79"/>
<path d="M134.289 79.511C134.444 78.8759 134.664 78.2583 134.945 77.6678C135.163 77.0533 135.444 76.4627 135.782 75.9053C135.627 76.5388 135.409 77.1551 135.13 77.7446C134.911 78.3611 134.63 78.9531 134.289 79.511Z" fill="#E88B79"/>
<path d="M135.729 79.6839C135.896 79.1355 136.106 78.6013 136.358 78.0864C136.547 77.5443 136.778 77.0179 137.05 76.512C136.819 77.6449 136.37 78.7221 135.729 79.6839Z" fill="#E88B79"/>
<path d="M142.188 44.4288C142.188 44.4288 142.188 44.1254 142.188 43.5187C142.188 42.912 142.188 42.0096 142.188 40.8307C142.188 38.4346 142.188 34.8672 142.168 30.1786L142.203 30.2131L42.3283 30.2669L42.4166 30.1786C42.4166 59.8195 42.4166 94.3066 42.4166 130.898V155.213L42.3168 155.117H142.191L142.111 155.197C142.111 127.699 142.138 105.028 142.145 89.2262C142.145 81.3312 142.145 75.1526 142.168 70.944C142.168 68.8435 142.168 67.2346 142.168 66.1478C142.168 65.0611 142.168 64.5082 142.168 64.5082C142.168 64.5082 142.168 65.065 142.168 66.1478C142.168 67.2307 142.168 68.8358 142.168 70.944C142.168 75.168 142.168 81.312 142.168 89.2262C142.168 105.028 142.191 127.699 142.207 155.197V155.282H142.122H42.2477H42.1478V130.879C42.1478 94.2682 42.1478 59.8003 42.1478 30.1594V30.071H42.2361L142.111 30.1248H142.149V30.1594C142.149 34.848 142.149 38.4154 142.149 40.8115C142.149 42.0096 142.149 42.9056 142.149 43.4995C142.195 44.1254 142.188 44.4288 142.188 44.4288Z" fill="#263238"/>
<path d="M40.2739 73.6896C40.3262 73.5962 40.397 73.5143 40.4819 73.449C40.5668 73.3837 40.6641 73.3363 40.7679 73.3098C40.8716 73.2832 40.9797 73.278 41.0856 73.2944C41.1914 73.3109 41.2928 73.3486 41.3836 73.4055C42.0326 73.8163 42.7353 74.2503 43.3459 74.6458C43.6246 74.7916 43.8653 75.0007 44.0486 75.2563C44.1347 75.3853 44.1705 75.5413 44.1492 75.6949C44.128 75.8484 44.0512 75.9889 43.9334 76.0896C43.7873 76.1605 43.6264 76.1954 43.464 76.1914C43.3017 76.1874 43.1427 76.1446 43.0003 76.0666C42.9043 76.0282 41.376 75.1066 40.5273 74.592C40.3759 74.5042 40.2646 74.3608 40.2173 74.1923C40.17 74.0238 40.1903 73.8434 40.2739 73.6896Z" fill="#FFAD9D"/>
<path d="M40.0895 71.5776C40.1462 71.4667 40.2259 71.3693 40.3233 71.2918C40.4208 71.2142 40.5337 71.1585 40.6545 71.1283C40.7753 71.0981 40.9012 71.0942 41.0236 71.1167C41.1461 71.1392 41.2623 71.1877 41.3644 71.2589C42.1055 71.7812 42.9004 72.3341 43.607 72.8333C43.9281 73.0267 44.2022 73.289 44.4095 73.6013C44.5076 73.7604 44.547 73.9487 44.5211 74.1338C44.4952 74.3189 44.4055 74.4891 44.2675 74.6151C44.0993 74.6988 43.9124 74.7379 43.7247 74.7285C43.5371 74.719 43.355 74.6615 43.1961 74.5613C43.0886 74.5152 41.3452 73.3402 40.3775 72.6874C40.2012 72.5695 40.0744 72.3908 40.0213 72.1855C39.9682 71.9801 39.9925 71.7624 40.0895 71.5738V71.5776Z" fill="#FFAD9D"/>
<path d="M40.4121 69.7881C40.4697 69.678 40.5502 69.5816 40.6482 69.5052C40.7462 69.4289 40.8595 69.3745 40.9804 69.3458C41.1013 69.317 41.2269 69.3145 41.3488 69.3385C41.4707 69.3625 41.586 69.4124 41.687 69.4848C42.4204 70.0147 43.223 70.583 43.9104 71.0899C44.2268 71.2852 44.4968 71.5474 44.7014 71.8579C44.7972 72.0195 44.8338 72.2093 44.8051 72.3949C44.7764 72.5805 44.6841 72.7504 44.544 72.8755C44.3748 72.9556 44.188 72.9912 44.0013 72.9792C43.8145 72.9671 43.6339 72.9076 43.4764 72.8064C43.3689 72.7565 41.6409 71.5584 40.6809 70.8864C40.5069 70.7655 40.3833 70.5849 40.3338 70.3788C40.2842 70.1728 40.3121 69.9558 40.4121 69.7689V69.7881Z" fill="#FFAD9D"/>
<path d="M40.5849 67.73C40.6463 67.6032 40.7346 67.4915 40.8438 67.4026C40.953 67.3137 41.0803 67.2498 41.2169 67.2154C41.3534 67.181 41.4958 67.1769 41.6341 67.2034C41.7723 67.23 41.9031 67.2865 42.0172 67.369C42.8505 67.9719 43.7567 68.6132 44.5439 69.193C44.9087 69.4171 45.2184 69.7202 45.4502 70.08C45.5613 70.2646 45.6063 70.4816 45.5777 70.6952C45.549 70.9088 45.4486 71.1062 45.2927 71.2551C44.9548 71.5047 44.4748 71.3664 44.0908 71.1898C43.9679 71.1322 42.0019 69.7728 40.9113 69.0164C40.712 68.8765 40.5694 68.6697 40.5095 68.4337C40.4496 68.1976 40.4764 67.948 40.5849 67.73Z" fill="#FFAD9D"/>
<path d="M44.3558 71.424C43.8025 71.159 43.2797 70.8346 42.7967 70.4563C42.2767 70.131 41.7927 69.7512 41.3529 69.3235C41.9062 69.5885 42.4289 69.913 42.9119 70.2912C43.4339 70.6139 43.9181 70.9939 44.3558 71.424Z" fill="#E88B79"/>
<path d="M43.8681 73.0253C43.3409 72.7973 42.8422 72.5086 42.382 72.1651C41.8848 71.8742 41.4223 71.5276 41.0034 71.1321C41.5316 71.3619 42.0316 71.6518 42.4933 71.9961C42.9893 72.2856 43.4506 72.6309 43.8681 73.0253Z" fill="#E88B79"/>
<path d="M43.9027 75.0451C43.3759 74.8148 42.8773 74.5249 42.4166 74.1811C41.9198 73.8928 41.4584 73.5474 41.0419 73.152C41.569 73.3799 42.0677 73.6686 42.528 74.0121C43.0244 74.3024 43.4857 74.649 43.9027 75.0451Z" fill="#E88B79"/>
<path d="M135.202 51.6672C135.202 51.6672 135.202 51.5098 135.202 51.191C135.202 50.8723 135.202 50.4038 135.202 49.7818C135.202 48.5376 135.202 46.7098 135.202 44.279L135.233 44.3098L49.6895 44.3712L49.7817 44.279C49.7817 60.4685 49.7817 78.2438 49.7817 96.8294C49.7817 109.425 49.7817 121.644 49.7817 133.279L49.6857 133.183L135.229 133.225L135.176 133.279C135.176 125.806 135.195 119.927 135.202 115.918C135.202 113.914 135.202 112.378 135.202 111.341C135.202 110.822 135.202 110.431 135.202 110.166C135.202 109.901 135.202 109.782 135.202 109.782C135.202 109.782 135.202 109.912 135.202 110.166C135.202 110.419 135.202 110.822 135.202 111.341C135.202 112.378 135.202 113.914 135.202 115.918C135.202 119.927 135.202 125.806 135.226 133.279V133.332H135.172L49.6281 133.375H49.5321V133.279C49.5321 121.644 49.5321 109.425 49.5321 96.8294C49.5321 78.2438 49.5321 60.4685 49.5321 44.279V44.183H49.6243L135.168 44.2445H135.199V44.279C135.199 46.6906 135.199 48.5376 135.199 49.7818C135.199 50.4038 135.199 50.8723 135.199 51.191C135.199 51.5098 135.202 51.6672 135.202 51.6672Z" fill="#263238"/>
<path d="M135.203 74.8454C135.149 74.8454 135.103 72.9254 135.103 70.56C135.103 68.1945 135.149 66.2745 135.203 66.2745C135.256 66.2745 135.302 68.1945 135.302 70.56C135.302 72.9254 135.26 74.8454 135.203 74.8454Z" fill="#263238"/>
<path d="M175.749 176.287C175.749 176.344 140.16 176.387 96.2611 176.387C52.3622 176.387 16.7731 176.344 16.7731 176.287C16.7731 176.229 52.3507 176.187 96.2611 176.187C140.171 176.187 175.749 176.233 175.749 176.287Z" fill="#263238"/>
<path d="M124.17 19.0925C124.566 18.9218 124.903 18.6386 125.139 18.2782C125.375 17.9178 125.5 17.4959 125.499 17.065C125.523 16.7814 125.489 16.4959 125.399 16.2261C125.308 15.9564 125.162 15.7082 124.971 15.4972C124.78 15.2862 124.548 15.1169 124.289 14.9998C124.029 14.8826 123.748 14.8203 123.464 14.8166C123.179 14.8129 122.897 14.8679 122.635 14.9782C122.372 15.0885 122.135 15.2518 121.939 15.4577C121.743 15.6637 121.591 15.908 121.493 16.1753C121.395 16.4426 121.354 16.7271 121.371 17.0112C121.358 17.4459 121.475 17.8744 121.706 18.2428C121.937 18.6112 122.272 18.9028 122.669 19.081C119.485 19.5303 119.597 22.9863 119.597 22.9863L127.112 23.0861C127.112 23.0861 127.315 19.584 124.17 19.0925Z" fill="#455A64"/>
<path d="M169.064 109.098H169.778L171.337 106.929V105.504C171.337 105.504 172.439 105.435 172.308 107.301C172.178 109.167 172.308 108.691 172.308 108.691C172.308 108.691 174.651 108.691 174.847 108.902C175.043 109.114 175.05 111.379 175.077 112.643C175.092 112.947 175.005 113.247 174.83 113.496C174.654 113.745 174.401 113.929 174.109 114.017C174.027 114.04 173.942 114.052 173.856 114.052C173.272 114.052 170.285 113.576 170.285 113.576H169.052L169.064 109.098Z" fill="#455A64"/>
<path d="M167.021 108.707L167.462 113.591H168.683V108.806L167.021 108.707Z" fill="#455A64"/>
<path d="M37.006 24.8717C36.8927 24.2962 36.5788 23.7796 36.1203 23.4139C35.6617 23.0482 35.0882 22.8571 34.5019 22.8746C33.9157 22.8921 33.3546 23.1171 32.9187 23.5095C32.4828 23.902 32.2003 24.4364 32.1216 25.0176C32.0395 24.4354 31.753 23.9013 31.3133 23.5109C30.8736 23.1205 30.3094 22.8993 29.7215 22.8868C29.1336 22.8744 28.5605 23.0715 28.1046 23.4428C27.6487 23.8142 27.3399 24.3357 27.2332 24.9139C27.1154 25.7649 27.33 26.6285 27.8323 27.3255C28.329 28.0167 28.9123 28.6413 29.568 29.184C30.4704 29.952 31.2921 30.72 32.183 31.488C33.0624 30.6893 33.815 29.952 34.6982 29.1379C35.3525 28.5961 35.9334 27.9713 36.4262 27.2794C36.9208 26.5807 37.1283 25.7189 37.006 24.8717Z" fill="#455A64"/>
<path d="M159.057 157.705C158.2 158.922 156.545 158.519 155.773 157.778C155.002 157.037 154.679 155.954 154.383 154.925C153.708 152.579 153.028 150.113 153.531 147.721C153.652 146.997 153.97 146.319 154.449 145.763C154.692 145.488 155.003 145.283 155.351 145.167C155.699 145.051 156.071 145.029 156.43 145.102C157.267 145.325 157.789 146.143 158.162 146.922C159.27 149.221 159.85 151.739 159.859 154.291C159.859 155.478 159.725 156.726 159.057 157.705Z" fill="#F8C325"/>
<g opacity="0.2">
<path opacity="0.2" d="M159.057 157.705C158.2 158.922 156.545 158.519 155.773 157.778C155.002 157.037 154.679 155.954 154.383 154.925C153.708 152.579 153.028 150.113 153.531 147.721C153.652 146.997 153.97 146.319 154.449 145.763C154.692 145.488 155.003 145.283 155.351 145.167C155.699 145.051 156.071 145.029 156.43 145.102C157.267 145.325 157.789 146.143 158.162 146.922C159.27 149.221 159.85 151.739 159.859 154.291C159.859 155.478 159.725 156.726 159.057 157.705Z" fill="black"/>
</g>
<path d="M155.858 163.876C154.427 163.205 152.819 163.01 151.269 163.319C150.44 163.457 149.572 163.703 149.004 164.329C148.435 164.955 148.332 166.057 148.98 166.595C149.4 166.878 149.905 167.006 150.409 166.956C151.622 166.956 152.966 166.729 153.938 167.459C154.491 167.873 154.86 168.564 155.52 168.772C155.851 168.848 156.197 168.814 156.507 168.676C156.817 168.537 157.073 168.301 157.236 168.004C157.554 167.396 157.624 166.689 157.432 166.03C157.353 165.574 157.17 165.143 156.897 164.769C156.624 164.395 156.268 164.09 155.858 163.876Z" fill="#F8C325"/>
<path d="M161.399 159.452C160.962 158.88 160.67 158.209 160.549 157.499C160.429 156.788 160.483 156.059 160.708 155.374C161.175 154.004 162.012 152.791 163.127 151.868C164.389 150.742 165.859 149.874 167.455 149.315C168.07 149.063 168.734 148.951 169.398 148.984C169.73 149.003 170.053 149.102 170.338 149.274C170.624 149.446 170.862 149.686 171.034 149.971C171.487 150.839 171.053 151.891 170.581 152.751C169.747 154.268 168.796 155.716 167.735 157.083C166.886 158.181 165.907 159.264 164.609 159.771C163.311 160.278 161.964 160.209 161.276 159.31" fill="#F8C325"/>
<path d="M159.114 176.087C159.066 175.906 159.041 175.721 159.038 175.534C158.995 175.131 158.949 174.624 158.888 174.025C158.814 173.28 158.701 172.539 158.55 171.805C158.351 170.914 158.081 170.039 157.743 169.19C157.41 168.342 156.961 167.545 156.407 166.821C155.955 166.234 155.378 165.756 154.718 165.419C154.27 165.198 153.791 165.048 153.297 164.974C153.11 164.967 152.925 164.942 152.744 164.897C152.93 164.877 153.118 164.877 153.304 164.897C153.819 164.937 154.322 165.067 154.791 165.281C155.485 165.609 156.094 166.094 156.568 166.698C157.148 167.43 157.616 168.244 157.955 169.114C158.3 169.974 158.567 170.863 158.753 171.771C158.898 172.513 158.997 173.263 159.049 174.017C159.099 174.659 159.114 175.169 159.126 175.553C159.14 175.731 159.136 175.91 159.114 176.087Z" fill="#263238"/>
<path d="M159.011 174.924C158.997 174.84 158.997 174.754 159.011 174.67V173.952C159.011 173.315 159.011 172.393 158.98 171.264C158.922 168.987 158.726 165.838 158.346 162.382C157.966 158.926 157.459 155.812 156.998 153.577C156.887 153.02 156.78 152.517 156.676 152.076C156.572 151.634 156.492 151.25 156.411 150.943C156.33 150.636 156.284 150.417 156.242 150.228C156.216 150.146 156.201 150.061 156.196 149.975C156.235 150.052 156.264 150.133 156.284 150.217C156.342 150.401 156.411 150.636 156.499 150.92C156.588 151.204 156.687 151.603 156.799 152.045C156.91 152.486 157.037 152.986 157.156 153.546C157.786 156.455 158.259 159.396 158.573 162.355C158.957 165.811 159.126 168.975 159.141 171.26C159.141 172.412 159.141 173.33 159.099 173.948C159.099 174.248 159.068 174.49 159.057 174.682C159.049 174.764 159.034 174.845 159.011 174.924Z" fill="#263238"/>
<path d="M158.995 168.841C158.972 168.586 158.972 168.328 158.995 168.073C159.022 167.578 159.091 166.867 159.229 165.992C159.399 164.97 159.625 163.959 159.905 162.962C160.242 161.739 160.666 160.542 161.173 159.379C162.055 157.244 163.317 155.286 164.897 153.6C165.173 153.312 165.465 153.04 165.773 152.786C165.907 152.671 166.026 152.559 166.157 152.471L166.495 152.237C166.698 152.081 166.914 151.942 167.14 151.822C166.397 152.408 165.69 153.039 165.024 153.711C163.496 155.411 162.268 157.359 161.395 159.471C160.891 160.626 160.466 161.812 160.12 163.023C159.831 164.012 159.591 165.014 159.402 166.026C159.241 166.89 159.149 167.593 159.095 168.084C159.08 168.339 159.046 168.591 158.995 168.841Z" fill="#263238"/>
<path d="M29.1495 151.864C29.7751 151.97 30.3731 152.2 30.9075 152.542C31.442 152.884 31.9019 153.33 32.2599 153.853C32.971 154.908 33.4319 156.111 33.6078 157.371C33.9918 159.79 33.3582 162.532 32.4558 164.813C29.9905 163.661 28.6772 160.788 28.1012 159.287C27.195 156.922 26.9915 152.087 29.1419 151.864" fill="#455A64"/>
<path d="M36.096 168.215C35.7262 167.609 35.523 166.917 35.5068 166.208C35.4906 165.498 35.6621 164.797 36.0039 164.175C36.3562 163.559 36.8276 163.02 37.3906 162.588C37.9537 162.156 38.597 161.841 39.2832 161.66C39.913 161.484 40.6388 161.418 41.1725 161.795C41.4131 161.986 41.5981 162.238 41.7082 162.525C41.8183 162.812 41.8494 163.123 41.7984 163.427C41.692 164.03 41.427 164.595 41.0304 165.062C39.7479 166.721 38.2003 168.092 36.1037 168.215" fill="#455A64"/>
<path d="M35.4701 175.872C35.4225 175.706 35.3955 175.534 35.3895 175.361C35.3549 175.035 35.3127 174.559 35.282 173.967C35.1684 172.426 35.2627 170.876 35.5623 169.359C35.8761 167.823 36.6023 166.401 37.6628 165.247C37.9854 164.902 38.3521 164.601 38.7533 164.352C38.8934 164.25 39.049 164.171 39.2141 164.118C38.7122 164.5 38.241 164.921 37.8048 165.377C36.817 166.537 36.1381 167.928 35.8311 169.421C35.5416 170.913 35.4218 172.433 35.474 173.952C35.5135 174.591 35.5122 175.233 35.4701 175.872Z" fill="#263238"/>
<path d="M29.7217 155.52C29.8478 155.774 29.9519 156.039 30.0327 156.311C30.217 156.822 30.4705 157.571 30.77 158.5C31.3767 160.355 32.1754 162.935 32.9818 165.796C33.7882 168.657 34.4564 171.279 34.9018 173.176C35.1246 174.129 35.2858 174.897 35.4126 175.43C35.4821 175.706 35.5322 175.985 35.5623 176.268C35.4632 176.015 35.3848 175.754 35.3281 175.488L34.7329 173.257C34.2337 171.368 33.5348 168.764 32.7284 165.9C31.922 163.035 31.1578 160.451 30.5972 158.581C30.3322 157.682 30.1095 156.933 29.9406 156.365C29.8436 156.09 29.7703 155.807 29.7217 155.52Z" fill="#263238"/>
<path d="M32.8129 170.496C32.1992 169.129 31.2684 167.928 30.0977 166.993C28.927 166.058 27.5501 165.416 26.0813 165.12C25.3364 164.978 24.4148 164.997 24.0001 165.635C23.5853 166.272 23.9425 167.124 24.3841 167.743C25.3427 169.009 26.6541 169.964 28.1536 170.488C29.6532 171.012 31.274 171.082 32.8129 170.688" fill="#455A64"/>
<path d="M26.9031 167.297C27.0673 167.29 27.2316 167.307 27.3908 167.347C27.583 167.374 27.773 167.415 27.9591 167.47C28.2077 167.529 28.4526 167.602 28.6926 167.689C29.3236 167.909 29.9309 168.192 30.5051 168.534C31.206 168.959 31.8588 169.458 32.4519 170.024C33.0292 170.6 33.544 171.236 33.9879 171.921C34.3485 172.484 34.6508 173.082 34.8903 173.706C34.9859 173.943 35.068 174.186 35.1361 174.432C35.1954 174.615 35.2416 174.803 35.2743 174.993C35.3187 175.153 35.3406 175.318 35.3396 175.484C35.2859 175.484 35.1515 174.804 34.7099 173.779C34.4564 173.179 34.1492 172.603 33.7921 172.059C33.34 171.398 32.8256 170.782 32.2561 170.22C31.6772 169.669 31.0457 169.176 30.3707 168.749C29.8157 168.405 29.2309 168.112 28.6235 167.873C27.5828 167.462 26.8801 167.351 26.9031 167.297Z" fill="#263238"/>
<path d="M158.415 87.2755C158.432 87.3175 158.443 87.3613 158.45 87.406C158.471 87.5329 158.481 87.6614 158.481 87.79C158.46 88.2883 158.313 88.7731 158.054 89.1993C157.642 89.8396 157.134 90.4132 156.549 90.9004L154.426 92.9011L154.368 92.9587L154.307 92.9011L152.233 91.0579C151.515 90.4128 150.67 89.7216 150.271 88.6886C150.135 88.3751 150.069 88.0358 150.078 87.6943C150.087 87.3528 150.169 87.0173 150.321 86.711C150.476 86.4232 150.69 86.1716 150.949 85.973C151.209 85.7744 151.508 85.6333 151.826 85.559C152.126 85.4969 152.435 85.5012 152.733 85.5715C153.031 85.6418 153.31 85.7765 153.55 85.966C154.002 86.3099 154.305 86.8145 154.395 87.3753H154.23C154.298 86.9678 154.477 86.5871 154.749 86.2754C155.02 85.9636 155.372 85.733 155.766 85.6089C156.07 85.5214 156.39 85.5053 156.701 85.5619C157.012 85.6185 157.306 85.7463 157.559 85.9353C157.886 86.1689 158.142 86.4895 158.296 86.8608C158.352 86.989 158.387 87.125 158.4 87.264C158.4 87.264 158.362 87.1219 158.25 86.88C158.086 86.5324 157.833 86.2343 157.517 86.016C157.275 85.8417 156.997 85.726 156.703 85.678C156.409 85.63 156.108 85.6511 155.823 85.7395C155.456 85.8579 155.128 86.0754 154.876 86.3681C154.624 86.6608 154.458 87.0173 154.395 87.3984L154.314 87.9552L154.23 87.3984C154.14 86.8841 153.857 86.4237 153.439 86.112C153.22 85.9385 152.965 85.8158 152.693 85.7527C152.42 85.6896 152.137 85.6877 151.864 85.7472C151.575 85.8151 151.303 85.9441 151.067 86.1255C150.831 86.307 150.637 86.5367 150.497 86.7993C150.36 87.0797 150.284 87.3867 150.277 87.699C150.27 88.0113 150.331 88.3215 150.455 88.608C150.839 89.5795 151.642 90.2553 152.375 90.912L154.441 92.7705H154.322L156.465 90.7891C157.048 90.3193 157.558 89.7654 157.978 89.1456C158.238 88.7374 158.396 88.2724 158.438 87.79C158.446 87.4598 158.4 87.2793 158.415 87.2755Z" fill="#263238"/>
<path d="M147.36 80.9433C147.36 80.9433 147.36 81.0393 147.36 81.2198C147.36 81.4003 147.36 81.6729 147.36 82.0185C147.36 82.7174 147.36 83.7427 147.36 85.056C147.36 87.6864 147.383 91.4764 147.398 96.1497L147.325 96.0768H157.091H157.179V96.1651C157.179 97.632 157.179 99.1948 157.179 100.804L157.021 100.739L161.656 96.096L161.687 96.0691H175.711L175.611 96.1689C175.611 90.7929 175.611 85.6742 175.611 80.9625L175.703 81.0547L155.274 81.0124L149.422 80.9856H147.859H147.456H147.314H147.84H149.376L155.209 80.9587L175.695 80.9126H175.788V81.0048C175.788 85.7164 175.788 90.8352 175.788 96.2112V96.311H161.764L161.833 96.2841L157.19 100.923L157.029 101.08V100.854C157.029 99.2448 157.029 97.6819 157.029 96.215L157.117 96.3033H147.352H147.279V96.2304C147.279 91.5417 147.31 87.7324 147.318 85.0944C147.318 83.7888 147.318 82.7904 147.318 82.0723C147.318 81.7344 147.318 81.4732 147.318 81.3043C147.318 81.1353 147.36 80.9433 147.36 80.9433Z" fill="#263238"/>
<path d="M163.012 88.8H161.814V89.952H161.534V88.8H160.335V88.5274H161.534V87.3754H161.814V88.5274H163.012V88.8Z" fill="#263238"/>
<path d="M164.824 86.4537V90.8659H164.502V86.7456H163.423V86.4537H164.824Z" fill="#263238"/>
<path d="M165.938 88.6618C165.938 87.2794 166.652 86.423 167.666 86.423C168.68 86.423 169.394 87.2794 169.394 88.6618C169.394 90.0442 168.68 90.9005 167.666 90.9005C166.652 90.9005 165.938 90.0403 165.938 88.6618ZM169.071 88.6618C169.071 87.433 168.499 86.7187 167.666 86.7187C166.833 86.7187 166.261 87.433 166.261 88.6618C166.261 89.8906 166.833 90.601 167.666 90.601C168.499 90.601 169.071 89.8906 169.071 88.6618Z" fill="#263238"/>
<path d="M170.085 88.6618C170.085 87.2794 170.799 86.423 171.813 86.423C172.827 86.423 173.541 87.2794 173.541 88.6618C173.541 90.0442 172.827 90.9005 171.813 90.9005C170.799 90.9005 170.085 90.0403 170.085 88.6618ZM173.219 88.6618C173.219 87.433 172.646 86.7187 171.813 86.7187C170.98 86.7187 170.408 87.433 170.408 88.6618C170.408 89.8906 170.98 90.601 171.813 90.601C172.646 90.601 173.219 89.8906 173.219 88.6618Z" fill="#263238"/>
<path d="M16.6003 45.2429H47.6467V61.8739H32.352L27.2755 66.9465V61.8739H16.6003V45.2429Z" fill="#F8C325"/>
<path d="M21.8611 53.0995C21.8611 53.0995 21.8611 53.2147 21.8918 53.4221C21.9225 53.6294 21.9302 53.9366 21.9571 54.3014C22.007 55.0694 22.08 56.1561 22.1644 57.4694L22.0838 57.4003L23.2896 57.3312C24.3148 57.4233 25.463 57.5539 26.6726 57.6C26.7437 57.6021 26.8148 57.5944 26.8838 57.5769C26.9533 57.568 27.0216 57.5513 27.0873 57.527C27.2219 57.4738 27.3436 57.3927 27.4444 57.2889C27.6614 57.077 27.7972 56.7957 27.8284 56.4941C27.8417 56.3369 27.8417 56.1789 27.8284 56.0217C27.8284 55.8566 27.8016 55.6953 27.79 55.5302C27.7632 55.2 27.7324 54.8659 27.7056 54.528C27.6787 54.1901 27.6326 53.76 27.5865 53.376C27.5596 53.1917 27.5366 52.992 27.4982 52.8269C27.4895 52.7852 27.4779 52.7441 27.4636 52.704C27.4636 52.704 27.4636 52.704 27.4636 52.6809C27.4636 52.6579 27.4636 52.6809 27.4329 52.6809C27.3493 52.6619 27.2647 52.6478 27.1795 52.6387C26.4696 52.6003 25.7582 52.6003 25.0483 52.6387L25.1328 52.5657C25.1344 52.5811 25.1344 52.5965 25.1328 52.6118V52.6425L25.102 52.6694C25.093 52.6782 25.0821 52.6848 25.0701 52.6888C25.0581 52.6928 25.0454 52.694 25.0329 52.6925H24.983V52.6694V52.6349C24.9818 52.6208 24.9818 52.6067 24.983 52.5926C24.9798 52.5466 24.9798 52.5004 24.983 52.4544V52.1933C24.983 52.0243 24.983 51.8553 24.983 51.6902C25.0024 51.3744 25.0024 51.0576 24.983 50.7417C24.9616 50.4524 24.8693 50.1728 24.7142 49.9277C24.6405 49.8219 24.5422 49.7356 24.4279 49.6761C24.3135 49.6166 24.1865 49.5856 24.0576 49.5859L24.1267 49.5053C24.1497 50.0121 24.1689 50.4729 24.1881 50.8992V50.9222C23.5545 51.8861 23.0668 52.6195 22.7481 53.1033H22.2297H22.0492C22.1024 53.0924 22.1563 53.0859 22.2105 53.0841L22.7443 53.0381H22.7212C23.0246 52.5465 23.4892 51.8016 24.0998 50.8224V50.8608C24.0768 50.4345 24.0499 49.9737 24.0192 49.4707V49.3939H24.0921C24.2473 49.386 24.402 49.417 24.5421 49.4841C24.6823 49.5511 24.8035 49.6521 24.8947 49.7779C25.0711 50.0425 25.1769 50.3479 25.2019 50.6649C25.2301 50.9892 25.239 51.3149 25.2288 51.6403C25.2288 51.8016 25.2288 51.9667 25.2288 52.1357V52.3853C25.2288 52.4237 25.2288 52.4659 25.2288 52.5005C25.2302 52.5068 25.2302 52.5133 25.2288 52.5197C25.2288 52.5197 25.2288 52.5197 25.2019 52.5197C25.175 52.5197 25.1558 52.5619 25.1596 52.5504C25.1635 52.5389 25.1596 52.5235 25.1289 52.5273L25.0905 52.5043V52.4352H25.1558C25.8759 52.3947 26.5977 52.3947 27.3177 52.4352C27.4177 52.4444 27.5166 52.4624 27.6134 52.4889C27.6488 52.5009 27.6824 52.5177 27.7132 52.5389C27.7394 52.5683 27.7602 52.6021 27.7747 52.6387C27.7906 52.6865 27.8034 52.7352 27.8131 52.7846C27.8553 52.9766 27.8822 53.1686 27.9052 53.3568C27.9552 53.7408 27.9897 54.1248 28.0281 54.5088C28.0665 54.8928 28.0819 55.1808 28.1126 55.5149L28.1472 56.0064C28.1628 56.175 28.1628 56.3447 28.1472 56.5133C28.112 56.8572 27.9618 57.1792 27.7209 57.4272C27.6006 57.5473 27.4568 57.6414 27.2985 57.7037C27.1419 57.7597 26.9772 57.7895 26.8108 57.792C25.5744 57.7382 24.4416 57.6 23.4124 57.4925L22.2067 57.5501H22.1337V57.4733C22.08 56.1408 22.0377 55.0464 22.0032 54.2553C22.0032 53.8982 21.984 53.6102 21.9801 53.3875C21.9296 53.2963 21.8897 53.1997 21.8611 53.0995Z" fill="white"/>
<path d="M19.8451 52.823C19.9812 52.8038 20.1186 52.7948 20.256 52.7962C20.5325 52.7962 20.9472 52.7731 21.4733 52.7654H21.5347V52.8307C21.6154 53.9366 21.7114 55.5494 21.8035 57.3427V57.5002V57.6038H21.7037L20.5094 57.6614H20.4173V57.5731C20.2253 56.1907 20.0755 54.9811 19.9757 54.1171C19.9296 53.7331 19.8912 53.399 19.8605 53.1302C19.8401 53.0188 19.8324 52.9055 19.8374 52.7923C19.8704 52.9187 19.896 53.047 19.9142 53.1763C19.9603 53.4477 20.0179 53.7818 20.087 54.1786C20.2253 55.0272 20.4173 56.1907 20.6131 57.527L20.5094 57.4464L21.7037 57.3811L21.6077 57.4848V57.3274C21.5155 55.5341 21.4426 53.9213 21.4042 52.8115L21.4733 52.8768C20.9818 52.8768 20.5824 52.8422 20.2982 52.8307C20.1472 52.8363 19.9959 52.8337 19.8451 52.823Z" fill="white"/>
<path d="M33.719 53.8329H32.4058V55.1078H32.0986V53.8329H30.7853V53.5373H32.0986V52.2547H32.4058V53.5373H33.719V53.8329Z" fill="white"/>
<path d="M35.712 51.2678V56.0947H35.328V51.5865H34.176V51.2678H35.712Z" fill="white"/>
<path d="M36.9177 53.6832C36.9177 52.1702 37.6857 51.2333 38.807 51.2333C39.9283 51.2333 40.6963 52.1702 40.6963 53.6832C40.6963 55.1962 39.9283 56.1293 38.807 56.1293C37.6857 56.1293 36.9177 55.1923 36.9177 53.6832ZM40.343 53.6832C40.343 52.3354 39.7171 51.5597 38.807 51.5597C37.8969 51.5597 37.271 52.3277 37.271 53.6832C37.271 55.0387 37.9008 55.8067 38.807 55.8067C39.7132 55.8067 40.343 55.0272 40.343 53.6832Z" fill="white"/>
<path d="M41.472 53.6832C41.472 52.1702 42.24 51.2333 43.3613 51.2333C44.4826 51.2333 45.2506 52.1702 45.2506 53.6832C45.2506 55.1962 44.4826 56.1293 43.3613 56.1293C42.24 56.1293 41.472 55.1923 41.472 53.6832ZM44.9012 53.6832C44.9012 52.3354 44.2714 51.5597 43.3652 51.5597C42.4589 51.5597 41.8292 52.3277 41.8292 53.6832C41.8292 55.0387 42.4551 55.8067 43.3652 55.8067C44.2752 55.8067 44.882 55.0272 44.882 53.6832H44.9012Z" fill="white"/>
</svg>
