<svg width="264" height="176" viewBox="0 0 264 176" fill="none" xmlns="http://www.w3.org/2000/svg">
<path d="M68.5555 103.565L84.3322 163.817H89.4291L73.9693 103.206L68.5555 103.565Z" fill="#455A64"/>
<path d="M47.9388 163.817L56.2848 107.082L61.079 107.219L53.9088 163.817H47.9388Z" fill="#455A64"/>
<path d="M46.3971 111.538L28.4557 163.817H34.232L49.8502 116.41L46.3971 111.538Z" fill="#455A64"/>
<path d="M80.9353 93.7235C87.0777 111.823 84.4307 128.997 72.5718 133.024C60.7129 137.051 44.1302 126.403 37.9843 108.303C31.8384 90.2035 36.4742 72.2656 48.3366 68.2387C60.199 64.2118 74.7894 75.6236 80.9353 93.7235Z" fill="#F8C325"/>
<g opacity="0.3">
<path opacity="0.3" d="M80.9353 93.7235C87.0777 111.823 84.4307 128.997 72.5718 133.024C60.7129 137.051 44.1302 126.403 37.9843 108.303C31.8384 90.2035 36.4742 72.2656 48.3366 68.2387C60.199 64.2118 74.7894 75.6236 80.9353 93.7235Z" fill="black"/>
</g>
<path d="M75.4183 131.685C87.279 127.659 91.9605 109.861 85.8747 91.9327C79.7889 74.0044 65.2403 62.7346 53.3796 66.7607C41.5188 70.7869 36.8373 88.5845 42.9232 106.513C49.009 124.441 63.5576 135.711 75.4183 131.685Z" fill="#F8C325"/>
<path d="M74.372 126.115C83.9427 122.866 87.5428 107.982 82.4131 92.8701C77.2833 77.7584 65.3663 68.1416 55.7956 71.3904C46.2249 74.6392 42.6248 89.5234 47.7545 104.635C52.8843 119.747 64.8013 129.364 74.372 126.115Z" fill="#FAFAFA"/>
<path d="M73.1067 120.805C80.542 118.281 83.2094 106.336 79.0645 94.126C74.9196 81.9154 65.532 74.0629 58.0967 76.5869C50.6614 79.1108 47.994 91.0554 52.1389 103.266C56.2838 115.476 65.6714 123.329 73.1067 120.805Z" fill="#F8C325"/>
<path d="M71.0262 112.301C76.0518 110.595 77.8898 102.625 75.1315 94.4989C72.3732 86.3733 66.0632 81.1691 61.0376 82.8751C56.012 84.581 54.174 92.5511 56.9323 100.677C59.6906 108.802 66.0006 114.006 71.0262 112.301Z" fill="#FAFAFA"/>
<path d="M71.1322 96.096C72.7444 100.852 71.8714 105.449 69.1821 106.364C66.4929 107.279 62.9975 104.16 61.3853 99.4048C59.7732 94.6493 60.6426 90.0522 63.3354 89.1405C66.0282 88.2288 69.5165 91.3264 71.1322 96.096Z" fill="#F8C325"/>
<path d="M85.888 91.9353C85.888 91.9353 85.8282 91.7875 85.7191 91.4989C85.61 91.2102 85.4551 90.7737 85.2474 90.2141C84.8003 89.0947 84.1491 87.4403 83.1354 85.3987C81.8833 82.9194 80.417 80.5544 78.753 78.3305C76.5622 75.3779 73.9439 72.7679 70.9843 70.5865C69.262 69.3203 67.3891 68.2727 65.4087 67.4678C64.8983 67.2461 64.3527 67.0877 63.8247 66.8941L63.001 66.6653C62.7255 66.5827 62.4458 66.5146 62.1632 66.4611C61.0149 66.1991 59.8421 66.0599 58.6644 66.0457C58.3652 66.0457 58.066 66.0246 57.7632 66.0457L56.8586 66.1021C56.2482 66.1692 55.6419 66.269 55.0423 66.4013C53.8147 66.6688 52.626 67.0911 51.5047 67.6579C49.1643 68.8635 47.139 70.6007 45.5911 72.7302C43.9499 74.9608 42.6979 77.4529 41.888 80.1011C41.4742 81.4659 41.1415 82.8541 40.8919 84.2582C40.6547 85.6932 40.4926 87.1395 40.4061 88.5913C39.9322 100.838 44.0002 112.827 51.8285 122.257C52.7824 123.356 53.7928 124.405 54.8557 125.4C55.9082 126.362 57.0166 127.261 58.1751 128.093C60.4183 129.706 62.9173 130.931 65.5671 131.715C68.0929 132.46 70.7581 132.605 73.3498 132.137C74.584 131.905 75.7834 131.515 76.9191 130.979C77.476 130.72 78.0178 130.43 78.5418 130.11L79.2951 129.606C79.552 129.444 79.7773 129.254 80.0167 129.064C80.9406 128.333 81.7853 127.507 82.537 126.6C82.7271 126.382 82.9101 126.16 83.0791 125.928L83.5895 125.245C83.8992 124.766 84.2301 124.312 84.4976 123.837C85.5806 121.995 86.4296 120.025 87.025 117.973C88.0418 114.436 88.5281 110.768 88.4682 107.089C88.4375 104.308 88.1631 101.536 87.648 98.8029C87.2256 96.5571 86.7363 94.8464 86.409 93.6883L86.0042 92.3824C85.9127 92.0867 85.8704 91.9353 85.8704 91.9353C85.8704 91.9353 85.9232 92.0832 86.0218 92.3753C86.1204 92.6675 86.2611 93.1075 86.4442 93.6777C86.7962 94.8323 87.2819 96.543 87.7184 98.7888C88.2488 101.52 88.5373 104.293 88.5808 107.075C88.6538 110.762 88.1793 114.439 87.1728 117.987C86.5765 120.057 85.7239 122.045 84.6349 123.904C84.3639 124.393 84.033 124.854 83.7232 125.333L83.2093 126.037C83.0393 126.273 82.8572 126.5 82.6637 126.716C81.906 127.629 81.0555 128.461 80.1258 129.198C79.8829 129.381 79.6541 129.585 79.3971 129.747C79.1402 129.909 78.8938 130.099 78.6368 130.261C78.1081 130.584 77.5616 130.876 77 131.138C75.8526 131.682 74.6401 132.077 73.392 132.313C70.7765 132.791 68.0852 132.648 65.5354 131.894C62.8622 131.103 60.3417 129.867 58.08 128.237C56.9139 127.402 55.7985 126.498 54.7395 125.53C53.6717 124.528 52.6566 123.47 51.6983 122.362C43.83 112.903 39.7444 100.865 40.2301 88.5702C40.3176 87.1113 40.4809 85.6579 40.7194 84.216C40.971 82.8035 41.306 81.4071 41.7226 80.0342C42.53 77.3694 43.7807 74.8597 45.4221 72.6105C46.9884 70.4603 49.0382 68.7083 51.4061 67.496C52.5397 66.9246 53.7415 66.4999 54.9824 66.2323C55.5865 66.0984 56.1976 65.9985 56.8128 65.9331L57.7315 65.8733C58.0343 65.8486 58.337 65.8733 58.6397 65.8733C59.8246 65.8901 61.0045 66.0317 62.1597 66.2957C62.4446 66.3507 62.7266 66.4201 63.0045 66.5033L63.8317 66.7357C64.3703 66.9293 64.9123 67.0877 65.4263 67.3165C67.4154 68.1273 69.2955 69.1832 71.0231 70.4598C73.9902 72.6579 76.6122 75.2871 78.8023 78.2601C80.4618 80.4928 81.9212 82.8674 83.1635 85.3565C84.1843 87.4051 84.8285 89.0665 85.2755 90.1894C85.4762 90.7561 85.6275 91.1856 85.7296 91.4813C85.8317 91.7769 85.888 91.9353 85.888 91.9353Z" fill="#263238"/>
<g opacity="0.3">
<path opacity="0.3" d="M84.9305 93.7833L72.512 97.0358L88.535 108.064C88.535 108.064 88.2604 99.9504 87.032 95.2336L84.9305 93.7833Z" fill="black"/>
</g>
<g opacity="0.3">
<path opacity="0.3" d="M42.6519 122.443L46.3127 127.146L47.3546 123.981L43.6691 119.479L42.6519 122.443Z" fill="black"/>
</g>
<g opacity="0.3">
<path opacity="0.3" d="M52.8 131.095C52.8 131.095 54.7889 133.514 57.7633 133.514L57.9885 131.715C56.2726 130.933 54.6314 129.996 53.0852 128.916L52.8 131.095Z" fill="black"/>
</g>
<g opacity="0.3">
<path opacity="0.3" d="M76.4897 133.873L75.8737 131.521C75.8737 131.521 79.193 130.286 80.4954 128.79L81.1431 131.331C81.1431 131.331 78.9079 133.658 76.4897 133.873Z" fill="black"/>
</g>
<path d="M193.427 141.624L204.156 148.826L207.529 144.348L197.461 135.457L193.427 141.624Z" fill="#BC8F86"/>
<path d="M202.713 147.914L203.009 148.143C203.009 148.143 201.157 154.7 202.066 155.485L209.679 145.506L206.272 143.109C206.059 144.119 205.631 145.071 205.017 145.9C204.403 146.729 203.617 147.416 202.713 147.914Z" fill="#F8C325"/>
<path d="M206.547 144.929C206.649 144.856 206.775 144.823 206.9 144.837C207.026 144.85 207.141 144.909 207.226 145.003C207.304 145.102 207.341 145.228 207.329 145.353C207.317 145.479 207.258 145.596 207.163 145.679C207.055 145.752 206.925 145.784 206.795 145.769C206.666 145.754 206.547 145.693 206.459 145.598C206.385 145.485 206.36 145.347 206.387 145.215C206.415 145.083 206.494 144.968 206.606 144.894" fill="white"/>
<path d="M209.679 145.506L208.856 144.932L201.861 154.704C201.861 154.704 201.717 155.295 202.066 155.485L209.679 145.506Z" fill="#263238"/>
<path d="M203.009 148.192C203.058 148.227 203.269 148.002 203.607 147.882C203.945 147.763 204.248 147.791 204.266 147.731C204.283 147.671 203.942 147.53 203.533 147.682C203.125 147.833 202.956 148.192 203.009 148.192Z" fill="#263238"/>
<path d="M202.643 149.575C202.682 149.625 202.928 149.477 203.259 149.47C203.59 149.463 203.847 149.579 203.882 149.53C203.917 149.48 203.664 149.237 203.252 149.255C202.84 149.273 202.597 149.54 202.643 149.575Z" fill="#263238"/>
<path d="M203.456 151.128C203.502 151.092 203.308 150.836 202.949 150.776C202.59 150.716 202.305 150.846 202.33 150.895C202.354 150.945 202.604 150.916 202.9 150.983C203.196 151.05 203.4 151.173 203.456 151.128Z" fill="#263238"/>
<path d="M161.55 147.502L160.684 160.396L166.246 161.079L168.911 147.91L161.55 147.502Z" fill="#BC8F86"/>
<path d="M160.751 158.692L160.699 159.062C160.699 159.062 154.099 160.737 153.873 161.916L166.32 163.518L166.672 159.354C165.695 159.674 164.661 159.781 163.64 159.667C162.618 159.553 161.633 159.22 160.751 158.692V158.692Z" fill="#F8C325"/>
<path d="M165.253 160.512C165.368 160.563 165.46 160.655 165.511 160.771C165.562 160.886 165.568 161.016 165.528 161.135C165.481 161.252 165.391 161.346 165.276 161.398C165.161 161.451 165.031 161.457 164.912 161.417C164.791 161.36 164.694 161.262 164.641 161.139C164.588 161.016 164.582 160.878 164.623 160.751C164.685 160.635 164.79 160.546 164.915 160.506C165.041 160.465 165.177 160.475 165.296 160.533" fill="white"/>
<path d="M166.32 163.518L166.408 162.518L154.44 161.35C154.44 161.35 153.852 161.519 153.866 161.917L166.32 163.518Z" fill="#263238"/>
<path d="M160.653 159.104C160.653 159.164 160.945 159.231 161.22 159.456C161.494 159.681 161.621 159.963 161.681 159.949C161.74 159.935 161.681 159.569 161.357 159.291C161.033 159.013 160.646 159.034 160.653 159.104Z" fill="#263238"/>
<path d="M159.277 159.456C159.255 159.516 159.505 159.653 159.678 159.935C159.85 160.216 159.875 160.498 159.938 160.505C160.002 160.512 160.083 160.171 159.857 159.822C159.632 159.474 159.287 159.403 159.277 159.456Z" fill="#263238"/>
<path d="M158.333 160.927C158.386 160.948 158.513 160.656 158.396 160.304C158.28 159.952 158.016 159.78 157.985 159.829C157.953 159.878 158.104 160.076 158.196 160.368C158.287 160.66 158.273 160.913 158.333 160.927Z" fill="#263238"/>
<path d="M185.944 41.0749C186.092 40.1175 186.954 39.3818 187.894 39.153C188.851 38.9693 189.84 39.0683 190.742 39.4381C191.777 39.7799 192.716 40.364 193.48 41.1418C193.858 41.5338 194.154 41.9965 194.353 42.5032C194.552 43.0099 194.649 43.5509 194.638 44.0951C194.582 45.1123 194.075 46.1331 194.36 47.1082C194.575 47.8509 195.202 48.393 195.832 48.84C196.462 49.2871 197.145 49.7095 197.571 50.3571C197.996 51.0048 198.063 51.9623 197.49 52.4691C196.979 52.9303 196.082 52.9831 195.853 53.6378C195.719 54.0426 195.944 54.465 196.067 54.8733C196.184 55.3107 196.207 55.7677 196.136 56.2146C196.064 56.6615 195.899 57.0884 195.652 57.4675C195.151 58.2227 194.468 58.8399 193.667 59.2627C192.287 60.0407 190.569 60.4032 189.115 59.7837C188.395 59.464 187.775 58.9556 187.32 58.3123C186.587 57.2245 186.176 55.952 186.134 54.641C186.095 53.337 186.18 52.0323 186.387 50.7443" fill="#263238"/>
<path d="M185.441 56.5523C186.043 56.7182 186.675 56.741 187.288 56.6189C187.9 56.4969 188.476 56.2333 188.968 55.8492C189.461 55.4652 189.856 54.9713 190.124 54.407C190.392 53.8427 190.524 53.2237 190.509 52.5993C190.485 51.4377 189.96 50.2515 190.319 49.1498C190.569 48.3894 191.203 47.8016 191.418 47.0378C191.734 45.8902 191.041 44.7321 190.379 43.743C189.985 43.0883 189.496 42.4953 188.929 41.983C188.644 41.7306 188.307 41.5435 187.943 41.4347C187.578 41.3258 187.194 41.2979 186.817 41.353" fill="#263238"/>
<path d="M174.729 41.448C174.796 42.3245 174.215 43.1094 173.635 43.7642C173.054 44.4189 172.403 45.1088 172.276 45.9782C172.051 47.52 173.561 48.9526 173.251 50.4768C173.082 51.297 172.413 51.9517 172.293 52.7789C172.174 53.6061 172.607 54.3594 173.138 54.9683C173.67 55.5773 174.314 56.0842 174.786 56.7283C174.786 56.7283 175.764 58.3299 178.774 57.3056" fill="#263238"/>
<path d="M188.204 42.7892C188.225 41.9936 187.5 41.3812 186.75 41.089C186 40.7968 185.187 40.6877 184.529 40.2442C183.945 39.85 183.55 39.2375 183.058 38.7341C182.447 38.1159 181.683 37.6713 180.844 37.4458C180.005 37.2204 179.121 37.2222 178.283 37.4512C177.445 37.6801 176.683 38.1279 176.075 38.7487C175.467 39.3694 175.036 40.1407 174.824 40.9834C174.539 42.1133 174.733 43.4474 175.627 44.2042C176.662 45.0772 178.196 44.8836 179.524 44.6125C180.851 44.3415 182.34 44.074 183.462 44.8519C184.131 45.3236 184.518 46.0874 184.923 46.7949C185.328 47.5024 185.842 48.224 186.616 48.4916C187.391 48.7591 188.436 48.298 188.468 47.4813" fill="#263238"/>
<path d="M185.068 42.944C185.399 42.98 185.705 43.1387 185.925 43.3888C186.145 43.639 186.264 43.9625 186.257 44.2957V44.2957L185.462 62.2477C185.43 64.3597 182.329 65.5635 180.055 65.5107C177.764 65.4544 177.686 64.3315 177.658 62.3111C177.612 58.9389 177.616 57.6752 177.616 57.6928C177.616 57.7104 174.715 57.2071 174.124 53.4231C173.828 51.5399 173.93 48.4563 174.096 45.936C174.244 43.6656 175.754 40.8883 178.013 41.1312L185.068 42.944Z" fill="#BC8F86"/>
<path d="M174.764 48.4457C174.763 48.5725 174.812 48.6948 174.899 48.7867C174.986 48.8786 175.106 48.9331 175.233 48.9385C175.294 48.9428 175.356 48.935 175.414 48.9153C175.473 48.8957 175.527 48.8647 175.573 48.8242C175.62 48.7836 175.658 48.7343 175.685 48.679C175.712 48.6237 175.728 48.5636 175.732 48.5021C175.733 48.3753 175.685 48.253 175.598 48.1611C175.511 48.0692 175.391 48.0147 175.264 48.0093C175.203 48.005 175.141 48.0128 175.083 48.0325C175.024 48.0521 174.97 48.0831 174.924 48.1236C174.877 48.1642 174.839 48.2135 174.812 48.2688C174.785 48.3241 174.768 48.3842 174.764 48.4457V48.4457Z" fill="#263238"/>
<path d="M174.641 47.168C174.701 47.2314 175.067 46.9603 175.592 46.9638C176.116 46.9674 176.493 47.2278 176.549 47.1645C176.605 47.1011 176.517 47.0202 176.352 46.9005C176.126 46.7426 175.857 46.6589 175.581 46.6611C175.309 46.6591 175.044 46.7442 174.824 46.904C174.666 47.0131 174.61 47.1258 174.641 47.168Z" fill="#263238"/>
<path d="M179.612 48.5373C179.611 48.6641 179.659 48.7863 179.746 48.8783C179.833 48.9702 179.953 49.0246 180.08 49.0301C180.141 49.0349 180.203 49.0273 180.262 49.0079C180.321 48.9884 180.375 48.9575 180.421 48.9168C180.468 48.8762 180.506 48.8267 180.533 48.7712C180.56 48.7157 180.576 48.6553 180.58 48.5936C180.582 48.4672 180.534 48.3449 180.447 48.2529C180.361 48.1609 180.241 48.1063 180.115 48.1008C180.053 48.096 179.991 48.1036 179.932 48.123C179.873 48.1424 179.819 48.1733 179.772 48.2139C179.725 48.2545 179.687 48.304 179.659 48.3595C179.632 48.415 179.616 48.4755 179.612 48.5373V48.5373Z" fill="#263238"/>
<path d="M179.89 47.4144C179.949 47.4778 180.319 47.2067 180.84 47.2067C181.361 47.2067 181.745 47.4707 181.801 47.4074C181.857 47.344 181.769 47.2666 181.604 47.1434C181.377 46.9875 181.108 46.9041 180.833 46.904C180.562 46.9036 180.297 46.9886 180.076 47.1469C179.918 47.2701 179.872 47.3862 179.89 47.4144Z" fill="#263238"/>
<path d="M177.989 51.5398C177.714 51.451 177.429 51.399 177.141 51.385C177.007 51.385 176.88 51.3427 176.859 51.2512C176.848 51.1135 176.88 50.9756 176.95 50.857C177.074 50.5331 177.207 50.1952 177.345 49.8432C177.897 48.4 178.295 47.2102 178.235 47.1891C178.175 47.168 177.686 48.3226 177.133 49.7658C177.003 50.1178 176.873 50.4698 176.753 50.7866C176.67 50.9468 176.645 51.131 176.683 51.3075C176.703 51.3542 176.733 51.3959 176.77 51.43C176.808 51.464 176.853 51.4895 176.901 51.5047C176.976 51.5241 177.053 51.5348 177.13 51.5363C177.415 51.5718 177.703 51.5729 177.989 51.5398Z" fill="#263238"/>
<path d="M177.616 57.728C179.399 57.7555 181.156 57.2863 182.688 56.3728C182.688 56.3728 181.407 58.9706 177.623 58.6115L177.616 57.728Z" fill="#7F473D"/>
<path d="M179.661 46.1437C179.714 46.2845 180.235 46.2176 180.847 46.295C181.46 46.3725 181.952 46.5379 182.037 46.4112C182.072 46.3478 181.988 46.2176 181.787 46.0768C181.522 45.9055 181.221 45.7993 180.907 45.767C180.593 45.7277 180.274 45.7652 179.978 45.8762C179.752 45.9642 179.64 46.0768 179.661 46.1437Z" fill="#263238"/>
<path d="M174.719 45.9958C174.821 46.1155 175.229 45.9958 175.718 45.9958C176.208 45.9958 176.627 46.0768 176.722 45.9536C176.764 45.8937 176.697 45.7741 176.517 45.6614C176.269 45.5212 175.986 45.4541 175.701 45.4678C175.417 45.4684 175.14 45.5503 174.902 45.7037C174.729 45.8163 174.673 45.9395 174.719 45.9958Z" fill="#263238"/>
<path d="M187.711 55.3943C187.188 55.5004 186.648 55.4805 186.135 55.336C185.621 55.1916 185.15 54.9269 184.759 54.5639C184.369 54.2008 184.07 53.7499 183.889 53.2485C183.707 52.747 183.648 52.2096 183.716 51.6807C183.832 50.7514 184.332 49.808 184.012 48.928C183.586 47.7664 181.956 47.4074 181.523 46.2493C181.273 45.5735 181.498 44.785 181.213 44.1373C180.928 43.4896 180.291 43.1587 179.654 42.9299C179.017 42.7011 178.337 42.5392 177.802 42.1274C177.267 41.7155 176.936 40.9271 177.278 40.3463C180.103 40.685 182.877 41.3585 185.543 42.3527C186.162 42.5815 186.81 42.8595 187.176 43.4087C187.542 43.9578 187.528 44.7392 187.528 45.4362L187.035 55.616" fill="#263238"/>
<path d="M189.707 43.1059C189.744 43.1497 189.766 43.2038 189.77 43.2608C189.781 43.3424 189.773 43.4254 189.748 43.5039C189.724 43.5823 189.682 43.6543 189.626 43.7149C189.544 43.817 189.441 43.901 189.325 43.9616C189.209 44.0222 189.081 44.058 188.95 44.0669C188.612 44.0491 188.282 43.9514 187.989 43.7818C187.65 43.5929 187.274 43.4812 186.887 43.4544C186.438 43.4437 185.989 43.4851 185.55 43.5776C185.053 43.6846 184.548 43.7493 184.04 43.7712C183.47 43.7931 182.914 43.5909 182.491 43.208C182.112 42.8049 181.811 42.3361 181.6 41.8246C181.413 41.3678 181.177 40.9323 180.896 40.5258C180.65 40.1944 180.312 39.9424 179.924 39.801C179.536 39.6596 179.116 39.635 178.714 39.7302C178.167 39.8728 177.695 40.2207 177.397 40.7018C177.291 40.8824 177.198 41.0706 177.119 41.265C177.118 41.2085 177.127 41.1522 177.148 41.0995C177.192 40.9478 177.254 40.8014 177.331 40.663C177.623 40.1465 178.107 39.7668 178.679 39.607C179.077 39.5 179.498 39.5073 179.893 39.6282C180.348 39.7677 180.748 40.0458 181.037 40.4237C181.336 40.8371 181.589 41.2821 181.79 41.7507C181.993 42.2393 182.281 42.6876 182.642 43.0742C183.027 43.422 183.532 43.6074 184.05 43.5917C184.547 43.5708 185.042 43.5096 185.529 43.4086C185.984 43.316 186.448 43.2781 186.912 43.296C187.318 43.3266 187.712 43.4468 188.067 43.648C188.339 43.8127 188.644 43.9149 188.961 43.9472C189.078 43.9445 189.193 43.9182 189.299 43.8698C189.406 43.8214 189.501 43.7519 189.58 43.6656C189.633 43.6131 189.675 43.5506 189.703 43.4817C189.732 43.4127 189.746 43.3389 189.746 43.2643C189.728 43.1622 189.696 43.1094 189.707 43.1059Z" fill="#455A64"/>
<path d="M190.133 43.465C190.084 43.5072 189.506 42.5427 188.345 41.888C187.635 41.5169 186.869 41.2637 186.078 41.1382C186.31 41.0893 186.55 41.0893 186.782 41.1382C187.949 41.315 189.008 41.9229 189.749 42.8419C189.919 43.0204 190.05 43.2327 190.133 43.465Z" fill="#455A64"/>
<path d="M185.888 40.9412C185.888 40.9412 185.888 40.9834 185.835 41.0538C185.768 41.152 185.686 41.2387 185.592 41.3108C185.413 41.4378 185.21 41.5278 184.995 41.5756C184.781 41.6233 184.559 41.6278 184.342 41.5888C183.71 41.4395 183.138 41.0991 182.706 40.6138C182.192 40.114 181.717 39.4733 181.023 39.0756C180.36 38.712 179.584 38.6138 178.851 38.801C178.253 38.9561 177.721 39.3006 177.334 39.7831C177.072 40.1079 176.876 40.481 176.757 40.8813C176.676 41.17 176.662 41.3354 176.644 41.3319C176.627 41.3284 176.644 41.2896 176.644 41.2122C176.651 41.0937 176.668 40.976 176.693 40.8602C176.785 40.4362 176.97 40.0381 177.236 39.6951C177.63 39.1784 178.185 38.807 178.812 38.6391C179.59 38.4298 180.418 38.5307 181.122 38.9207C181.868 39.3466 182.34 40.0048 182.836 40.4976C183.239 40.9664 183.774 41.3036 184.371 41.4656C184.778 41.5497 185.202 41.4754 185.557 41.258C185.678 41.1647 185.789 41.0584 185.888 40.9412V40.9412Z" fill="#455A64"/>
<path d="M185.715 57.024C185.769 57.047 185.826 57.0624 185.884 57.0698C186.048 57.0986 186.214 57.1151 186.38 57.119C187 57.1292 187.614 56.9904 188.169 56.7142C189.003 56.3049 189.675 55.6267 190.076 54.7888C190.575 53.7645 190.689 52.5952 190.397 51.4941C190.238 50.9522 190.128 50.3974 190.066 49.8362C190.044 49.3198 190.174 48.8083 190.439 48.3648C190.695 47.9477 190.893 47.4977 191.027 47.0272C191.126 46.6058 191.138 46.1686 191.062 45.7424C190.959 45.1284 190.689 44.5548 190.281 44.0845C190.176 43.9556 190.058 43.8376 189.929 43.7325C189.837 43.6621 189.788 43.6304 189.781 43.6374C189.781 43.655 189.96 43.7958 190.224 44.1302C190.595 44.6024 190.838 45.1627 190.928 45.7565C190.989 46.1614 190.967 46.5744 190.865 46.9709C190.727 47.4246 190.53 47.8578 190.277 48.2592C190.146 48.4928 190.04 48.7394 189.96 48.9949C189.884 49.2684 189.853 49.5526 189.869 49.8362C189.927 50.4106 190.038 50.9786 190.2 51.5328C190.482 52.5896 190.38 53.7124 189.911 54.7008C189.596 55.3763 189.101 55.9518 188.48 56.3636C187.859 56.7754 187.136 57.0076 186.391 57.0346C185.955 57.0416 185.719 56.9994 185.715 57.024Z" fill="#455A64"/>
<path d="M192.414 40.2688C192.24 40.0882 192.015 39.9653 191.77 39.9168C191.189 39.7517 190.568 39.7993 190.019 40.0509C189.47 40.3026 189.028 40.7418 188.774 41.2896C188.65 41.5025 188.592 41.7477 188.609 41.9936C188.644 41.9936 188.7 41.7331 188.915 41.36C189.185 40.8727 189.604 40.4846 190.111 40.2522C190.618 40.0198 191.185 39.9553 191.731 40.0681C192.153 40.1702 192.396 40.3005 192.414 40.2688Z" fill="#455A64"/>
<path d="M189.619 42.6554C189.619 42.6554 189.619 42.5709 189.601 42.409C189.596 42.177 189.654 41.948 189.77 41.7472C189.95 41.4279 190.222 41.1712 190.552 41.0116C190.766 40.9043 191 40.8456 191.24 40.8395C191.479 40.8334 191.716 40.8801 191.935 40.9764C192.473 41.2153 192.91 41.6333 193.174 42.1591C193.475 42.7667 193.607 43.4437 193.558 44.1197C193.507 44.876 193.389 45.6263 193.206 46.362C193.002 47.1672 192.905 47.9955 192.917 48.826C192.993 49.6567 193.21 50.4685 193.558 51.2266C193.871 51.9151 194.145 52.6202 194.382 53.3386C194.583 53.9871 194.641 54.6719 194.55 55.345C194.463 55.9327 194.286 56.5036 194.026 57.0381C193.636 57.8137 193.172 58.5493 192.639 59.2346L192.213 59.8048C192.158 59.8663 192.112 59.935 192.076 60.009C192.14 59.9567 192.197 59.8977 192.248 59.833C192.358 59.7098 192.512 59.5303 192.71 59.2874C193.273 58.6154 193.763 57.885 194.17 57.1085C194.446 56.5622 194.637 55.9771 194.737 55.3732C194.837 54.6718 194.783 53.9571 194.579 53.2788C194.347 52.5472 194.074 51.8291 193.762 51.128C193.427 50.3914 193.217 49.6037 193.142 48.7978C193.072 47.1399 193.744 45.6052 193.769 44.1127C193.812 43.4014 193.664 42.6914 193.34 42.057C193.052 41.4987 192.577 41.059 191.998 40.8144C191.759 40.7149 191.5 40.6696 191.241 40.6817C190.982 40.6939 190.728 40.7633 190.499 40.8848C190.154 41.0636 189.874 41.3454 189.696 41.6909C189.583 41.9071 189.535 42.1519 189.559 42.3949C189.563 42.4846 189.584 42.5729 189.619 42.6554V42.6554Z" fill="#455A64"/>
<path d="M178.186 52.8C178.262 53.027 178.371 53.2416 178.51 53.4371C178.579 53.5356 178.669 53.618 178.772 53.6787C178.876 53.7395 178.992 53.7771 179.112 53.7891C179.24 53.7899 179.367 53.758 179.479 53.6964C179.592 53.6349 179.687 53.5456 179.756 53.4371C179.891 53.2179 179.954 52.9618 179.935 52.705C179.935 52.4762 179.819 52.2016 179.583 52.1734C179.487 52.17 179.391 52.1919 179.305 52.2368L178.112 52.7296" fill="#7F473D"/>
<path d="M178.668 53.7962C178.885 53.8122 179.102 53.7859 179.309 53.7187C179.519 53.6362 179.692 53.4797 179.795 53.2787C179.849 53.1544 179.877 53.0202 179.877 52.8845C179.877 52.7488 179.849 52.6146 179.795 52.4902C179.768 52.4258 179.732 52.3654 179.689 52.3107C179.643 52.2614 179.65 52.2614 179.597 52.272C179.545 52.2826 179.471 52.3213 179.407 52.3459L179.21 52.4269L178.506 52.6944C178.3 52.7948 178.079 52.8613 177.852 52.8915C178.033 52.7522 178.233 52.6396 178.446 52.5571L179.115 52.2438L179.312 52.1558C179.383 52.1222 179.456 52.0929 179.531 52.0678C179.589 52.0485 179.652 52.0485 179.71 52.0678C179.762 52.0927 179.808 52.1287 179.844 52.1734C179.898 52.2438 179.943 52.3207 179.978 52.4022C180.043 52.5551 180.074 52.7205 180.068 52.8867C180.062 53.0528 180.019 53.2156 179.942 53.3632C179.878 53.4819 179.791 53.5866 179.686 53.6712C179.581 53.7558 179.46 53.8186 179.33 53.856C179.162 53.9111 178.981 53.9184 178.809 53.8771C178.717 53.856 178.661 53.8102 178.668 53.7962Z" fill="#263238"/>
<path d="M190.432 125.689L188.183 107.631C189.647 104.21 190.179 100.792 189.753 98.6691C189.777 98.8909 189.788 99.1655 189.728 98.5424C189.376 94.7831 186.116 92.0199 186.116 92.0199L185.029 87.4438L171.118 89.408L171.642 97.0429L162.916 125.4L160.864 156.056L168.281 156.883C168.281 156.883 171.097 142.968 171.878 137.375C172.299 134.341 172.54 131.285 172.6 128.223L179.425 118.015C180.235 122.239 181.146 127.435 181.618 130.148C181.828 131.363 182.35 132.501 183.132 133.454L200.992 147.488L205.262 141.948C203.572 137.907 190.432 125.689 190.432 125.689Z" fill="#263238"/>
<path d="M172.902 95.0787C172.772 94.8405 172.674 94.586 172.61 94.3219C172.422 93.697 172.278 93.0594 172.181 92.4141C172.082 91.7687 172.032 91.1169 172.029 90.464C172.013 90.193 172.031 89.921 172.082 89.6544C172.126 89.9209 172.148 90.1905 172.149 90.4605C172.181 90.9568 172.237 91.6397 172.35 92.3895C172.462 93.1392 172.61 93.7975 172.73 94.2903C172.81 94.5476 172.868 94.8114 172.902 95.0787V95.0787Z" fill="#455A64"/>
<path d="M173.536 89.8832C173.536 89.8832 173.589 89.8304 173.716 89.8023C173.896 89.7685 174.083 89.7957 174.247 89.8797C174.375 89.9389 174.485 90.0298 174.568 90.1438C174.65 90.2578 174.702 90.3911 174.719 90.5309C174.733 90.7037 174.699 90.877 174.621 91.0317C174.542 91.1864 174.423 91.3164 174.275 91.4074C174.122 91.4918 173.947 91.5283 173.774 91.512C173.6 91.4956 173.435 91.4273 173.3 91.3159C173.189 91.2307 173.101 91.1191 173.044 90.9913C172.986 90.8634 172.962 90.7233 172.973 90.5837C172.988 90.4046 173.041 90.2308 173.128 90.0733C173.188 89.9642 173.23 89.9114 173.24 89.9149C173.251 89.9184 173.24 89.9853 173.191 90.1015C173.132 90.2579 173.099 90.4234 173.096 90.5907C173.096 90.7189 173.13 90.8449 173.193 90.9566C173.255 91.0683 173.346 91.1619 173.455 91.2287C173.565 91.2954 173.69 91.333 173.818 91.3378C173.946 91.3425 174.073 91.3144 174.187 91.256C174.307 91.1826 174.404 91.0787 174.47 90.9549C174.535 90.8311 174.567 90.692 174.56 90.552C174.55 90.436 174.51 90.3244 174.446 90.2273C174.381 90.1302 174.294 90.0507 174.191 89.9959C173.991 89.8869 173.761 89.8473 173.536 89.8832Z" fill="#455A64"/>
<path d="M182.688 93.5651C182.688 93.5651 182.607 93.6144 182.445 93.6672C182.217 93.7442 181.981 93.7973 181.741 93.8256C181.392 93.8765 181.038 93.8895 180.685 93.8643C180.248 93.8292 179.816 93.7466 179.397 93.6179C178.98 93.4805 178.578 93.2988 178.2 93.0759C177.895 92.8892 177.61 92.6722 177.348 92.4282C177.171 92.2655 177.009 92.0863 176.866 91.8931C176.764 91.7558 176.715 91.6749 176.725 91.6679C176.736 91.6608 176.975 91.9494 177.429 92.3366C177.695 92.5624 177.98 92.7638 178.281 92.9386C178.652 93.1485 179.044 93.3206 179.45 93.4525C179.857 93.5766 180.276 93.6614 180.699 93.7059C181.051 93.7366 181.404 93.7366 181.755 93.7059C182.315 93.6496 182.688 93.5334 182.688 93.5651Z" fill="#455A64"/>
<path d="M187.155 107.191C187.111 107.267 187.06 107.339 187.004 107.406L186.56 107.99C186.176 108.511 185.617 109.261 184.948 110.204C183.607 112.087 181.78 114.72 179.812 117.638L174.733 125.129L173.184 127.399L172.762 128.012C172.715 128.084 172.662 128.153 172.603 128.216C172.641 128.138 172.684 128.062 172.734 127.991L173.128 127.361L174.62 125.062C175.887 123.126 177.658 120.465 179.64 117.543C181.622 114.622 183.452 111.999 184.821 110.134C185.504 109.197 186.078 108.458 186.479 107.948C186.683 107.712 186.831 107.525 186.965 107.381C187.022 107.312 187.086 107.248 187.155 107.191V107.191Z" fill="#455A64"/>
<path d="M185.694 65.5917C185.722 65.5917 185.722 65.2397 185.821 64.6519C185.95 63.9091 186.207 63.1945 186.581 62.5399C186.921 61.8647 187.464 61.3132 188.133 60.9629C188.422 60.8507 188.732 60.8015 189.042 60.8186C188.966 60.7749 188.879 60.7518 188.792 60.7517C188.553 60.7283 188.312 60.7608 188.088 60.8467C187.369 61.1767 186.785 61.7433 186.433 62.4519C186.046 63.1284 185.796 63.8748 185.698 64.6483C185.642 64.9602 185.641 65.2794 185.694 65.5917V65.5917Z" fill="#263238"/>
<path d="M184.49 59.9667L177.45 61.0579L173.071 66.8307C171.322 69.1506 170.425 72.002 170.53 74.9056C170.663 76.4019 171.031 77.8679 171.621 79.2493L170.523 87.5178C170.361 88.4682 170.977 89.3798 171.392 89.3798L184.585 87.6198C186.303 87.2678 187.011 86.3843 186.905 85.3882L186.708 83.5437L191.059 64.9475C191.389 66.0598 191.199 61.3571 188.683 60.4314C187.356 59.887 185.904 59.726 184.49 59.9667V59.9667Z" fill="#F8C325"/>
<path d="M175.317 63.793C175.275 63.8291 175.239 63.8705 175.208 63.9162L174.916 64.2893C174.669 64.6167 174.314 65.0954 173.891 65.6973C172.763 67.2368 171.833 68.9127 171.125 70.6851C170.428 72.4633 170.214 74.3944 170.505 76.2819C170.603 76.8504 170.766 77.4055 170.991 77.9363C171.05 78.0818 171.117 78.224 171.192 78.3622C171.217 78.4121 171.245 78.4603 171.276 78.5066C171.216 78.3047 171.141 78.1071 171.054 77.9152C170.857 77.3796 170.714 76.8252 170.628 76.2608C170.381 74.3978 170.61 72.5025 171.294 70.752C171.999 68.9938 172.906 67.3235 173.997 65.7747L174.972 64.3421L175.236 63.9514C175.269 63.9019 175.296 63.8487 175.317 63.793V63.793Z" fill="#263238"/>
<path d="M185.891 68.288C185.885 68.343 185.885 68.3985 185.891 68.4535C185.891 68.5837 185.926 68.7421 185.947 68.9322C186.004 69.344 186.099 69.9424 186.229 70.6922C186.493 72.16 186.912 74.1735 187.412 76.3911C187.912 78.6087 188.401 80.6151 188.774 82.0477C188.961 82.7693 189.126 83.3501 189.232 83.7514C189.288 83.9344 189.334 84.0858 189.369 84.2125C189.404 84.3392 189.422 84.3709 189.429 84.3674C189.428 84.3113 189.42 84.2557 189.404 84.2019L189.299 83.7338C189.2 83.3008 189.063 82.7235 188.897 82.0195L187.584 76.3523C187.084 74.1347 186.648 72.1283 186.352 70.6675L186.018 68.9392C185.983 68.7491 185.951 68.5872 185.93 68.4675C185.909 68.3479 185.898 68.288 185.891 68.288Z" fill="#263238"/>
<g opacity="0.3">
<path opacity="0.3" d="M185.55 87.3488C184.793 86.592 184.635 85.4375 184.515 84.3709C184.137 80.9823 183.759 77.5926 183.381 74.2016C183.146 72.0896 182.924 69.872 183.733 67.9008C183.775 67.7461 183.851 67.6026 183.955 67.4808C184.059 67.359 184.189 67.262 184.335 67.1968C184.485 67.1694 184.64 67.1857 184.781 67.2437C184.922 67.3017 185.044 67.3991 185.131 67.5242C185.314 67.7671 185.835 68.1191 185.902 68.4112C186.673 71.4349 187.007 74.3952 187.778 77.433C187.979 78.232 188.246 78.2003 188.07 79.0064C187.813 80.1751 186.718 83.5296 186.718 83.5296C186.718 83.5296 186.873 84.7511 186.919 85.4621C186.943 85.8843 186.821 86.302 186.574 86.6449C186.327 86.9879 185.969 87.2352 185.56 87.3453" fill="black"/>
</g>
<path d="M177.14 61.6985L176.919 59.8365L186.257 58.6432V60.7305L177.14 61.6985Z" fill="#F8C325"/>
<path d="M138.118 149.072L142.169 155.887C142.169 155.887 136.604 162.293 137.241 163.631L150.737 156.239L144.848 145.376L138.118 149.072Z" fill="#455A64"/>
<path d="M146.024 153.018C146.175 152.986 146.333 153.012 146.466 153.09C146.599 153.168 146.699 153.293 146.745 153.44C146.778 153.587 146.754 153.741 146.678 153.872C146.603 154.002 146.481 154.099 146.337 154.144C146.176 154.177 146.009 154.149 145.867 154.066C145.725 153.983 145.619 153.85 145.57 153.694C145.548 153.533 145.589 153.371 145.684 153.24C145.779 153.109 145.921 153.019 146.08 152.99" fill="#E0E0E0"/>
<path d="M150.723 156.242L150.089 155.186L137.386 162.649C137.386 162.649 136.928 163.237 137.227 163.624L150.723 156.242Z" fill="#263238"/>
<path d="M141.912 155.936C141.951 155.999 142.296 155.852 142.736 155.887C143.176 155.922 143.5 156.101 143.549 156.042C143.598 155.982 143.289 155.658 142.754 155.623C142.219 155.588 141.856 155.883 141.912 155.936Z" fill="#263238"/>
<path d="M140.818 157.295C140.839 157.369 141.17 157.323 141.56 157.481C141.951 157.64 142.162 157.897 142.226 157.858C142.289 157.819 142.127 157.421 141.655 157.238C141.184 157.055 140.8 157.231 140.818 157.295Z" fill="#263238"/>
<path d="M140.941 159.431C141.008 159.41 140.92 159.03 140.554 158.763C140.187 158.495 139.8 158.52 139.8 158.59C139.8 158.661 140.099 158.749 140.399 158.974C140.698 159.199 140.87 159.456 140.941 159.431Z" fill="#263238"/>
<path d="M141.152 154.282C141.212 154.327 141.465 154.07 141.856 153.891C142.247 153.711 142.599 153.673 142.602 153.595C142.606 153.518 142.197 153.437 141.747 153.655C141.296 153.873 141.099 154.246 141.152 154.282Z" fill="#263238"/>
<path d="M138.642 151.849L138.941 159.769C138.941 159.769 130.986 162.733 130.898 164.201L146.281 164.18L146.326 151.814L138.642 151.849Z" fill="#455A64"/>
<path d="M143.697 159.104C143.842 159.149 143.966 159.245 144.046 159.375C144.126 159.504 144.155 159.658 144.13 159.808C144.091 159.958 143.997 160.087 143.866 160.169C143.735 160.251 143.577 160.279 143.426 160.248C143.269 160.2 143.136 160.096 143.052 159.955C142.967 159.815 142.938 159.649 142.968 159.488C143.025 159.335 143.138 159.211 143.285 159.141C143.431 159.071 143.599 159.06 143.753 159.111" fill="#E0E0E0"/>
<path d="M146.281 164.18L146.238 162.934L131.507 163.42C131.507 163.42 130.803 163.719 130.898 164.201L146.281 164.18Z" fill="#263238"/>
<path d="M138.688 159.692C138.688 159.769 139.065 159.801 139.434 160.044C139.804 160.287 140.001 160.604 140.071 160.572C140.142 160.54 140.029 160.107 139.575 159.826C139.121 159.544 138.688 159.625 138.688 159.692Z" fill="#263238"/>
<path d="M137.079 160.361C137.062 160.435 137.386 160.561 137.643 160.878C137.9 161.195 137.974 161.533 138.047 161.529C138.121 161.526 138.171 161.1 137.843 160.713C137.516 160.325 137.079 160.29 137.079 160.361Z" fill="#263238"/>
<path d="M136.164 162.293C136.235 162.311 136.337 161.941 136.143 161.522C135.95 161.103 135.598 160.948 135.566 161.012C135.534 161.075 135.752 161.293 135.918 161.635C136.083 161.976 136.09 162.272 136.164 162.293Z" fill="#263238"/>
<path d="M138.825 157.879C138.853 157.949 139.198 157.844 139.624 157.879C140.05 157.914 140.381 158.041 140.42 157.978C140.459 157.914 140.138 157.643 139.638 157.626C139.139 157.608 138.787 157.819 138.825 157.879Z" fill="#263238"/>
<path d="M146.4 103.224C146.4 103.224 147.266 107.589 146.83 108.215C146.363 109.061 145.957 109.938 145.615 110.841L145.869 130.455L147.213 159.319L138.061 159.139L134.626 133.647C133.854 132.261 133.243 130.791 132.806 129.265C132.313 127.241 129.578 107.156 129.578 107.156L129.73 99.433L146.4 103.224Z" fill="#263238"/>
<path d="M125.569 99.8694C125.569 99.8694 126.977 126.167 127.558 128.512C128.139 130.856 140.701 154.947 140.701 154.947L148.628 151.244L138.706 125.872L139.181 101.584L125.569 99.8694Z" fill="#263238"/>
<path d="M128.66 102.193C128.655 102.242 128.655 102.291 128.66 102.34C128.66 102.446 128.691 102.59 128.712 102.777C128.765 103.168 128.836 103.731 128.931 104.449C129.131 105.906 129.416 108.004 129.772 110.591C130.127 113.179 130.564 116.269 131.043 119.698C131.285 121.408 131.525 123.218 131.81 125.073C132.077 127.005 132.517 128.908 133.126 130.761C133.778 132.655 134.728 134.387 135.024 136.249C135.376 138.09 135.622 139.892 135.858 141.606C136.308 145.038 136.664 148.132 136.97 150.733C137.276 153.335 137.519 155.436 137.709 156.886C137.804 157.615 137.882 158.178 137.942 158.558C137.973 158.741 137.998 158.882 138.016 158.991C138.022 159.04 138.033 159.089 138.047 159.136C138.047 159.136 138.047 159.086 138.047 158.988C138.047 158.889 138.016 158.734 137.995 158.551L137.797 156.879C137.636 155.415 137.403 153.31 137.118 150.716C136.833 148.122 136.488 145.017 136.062 141.585C135.833 139.867 135.597 138.065 135.238 136.21C134.939 134.32 133.982 132.57 133.338 130.698C132.725 128.857 132.277 126.965 132 125.044C131.715 123.186 131.472 121.384 131.222 119.673L129.913 110.57C129.532 107.99 129.226 105.896 129.012 104.438L128.762 102.784C128.73 102.601 128.709 102.457 128.691 102.351C128.686 102.297 128.675 102.244 128.66 102.193V102.193Z" fill="#455A64"/>
<path d="M146.492 143.817C146.474 144.018 146.474 144.221 146.492 144.422C146.492 144.813 146.513 145.376 146.538 146.073C146.59 147.481 146.689 149.392 146.809 151.515C146.928 153.637 147.03 155.566 147.094 156.957C147.125 157.629 147.15 158.185 147.171 158.608C147.17 158.811 147.186 159.013 147.22 159.213C147.246 159.011 147.254 158.807 147.245 158.604C147.245 158.217 147.245 157.65 147.245 156.953C147.217 155.545 147.136 153.63 147.016 151.504C146.897 149.378 146.773 147.492 146.689 146.066C146.647 145.397 146.608 144.841 146.583 144.419C146.568 144.216 146.538 144.015 146.492 143.817V143.817Z" fill="#455A64"/>
<path d="M136.84 44.2851L138.734 58.784C139.054 61.248 139.026 64.9405 135.101 65.2714C131.673 65.2995 130.398 62.2055 130.103 59.9034C129.958 58.8087 129.839 57.9005 129.818 57.7914C129.818 57.7914 126.079 57.9252 125.337 54.3031C124.985 52.5431 124.531 48.8893 124.165 45.57C123.976 43.8508 124.442 42.1237 125.469 40.7324C126.497 39.3411 128.01 38.3877 129.709 38.0618L130.061 37.9914C133.876 37.4915 136.442 40.4519 136.84 44.2851Z" fill="#FFD5BD"/>
<path d="M129.804 57.7456C131.484 57.4552 133.041 56.671 134.274 55.4928C134.274 55.4928 133.658 58.3088 129.976 58.689L129.804 57.7456Z" fill="#FFB294"/>
<path d="M125.055 47.2807C125.132 47.344 125.622 47.1293 126.305 47.1786C126.987 47.2279 127.477 47.5024 127.554 47.4496C127.632 47.3968 127.515 47.3159 127.301 47.1891C126.993 47.0218 126.651 46.9245 126.301 46.904C125.962 46.8761 125.621 46.9279 125.305 47.0554C125.09 47.168 125.016 47.2525 125.055 47.2807Z" fill="#263238"/>
<path d="M130.765 46.816C130.86 46.8371 131.205 46.4323 131.821 46.1754C132.437 45.9184 133.01 45.9395 133.053 45.8586C133.095 45.7776 132.961 45.76 132.701 45.7424C132.352 45.7324 132.005 45.7972 131.683 45.9325C131.368 46.056 131.087 46.2526 130.863 46.5062C130.74 46.6787 130.719 46.816 130.765 46.816Z" fill="#263238"/>
<path d="M130.655 47.9776C130.675 48.0819 130.735 48.1743 130.821 48.2354C130.908 48.2965 131.015 48.3215 131.12 48.305C131.173 48.3012 131.224 48.2866 131.271 48.2619C131.318 48.2373 131.359 48.2033 131.392 48.162C131.425 48.1206 131.449 48.0729 131.463 48.0218C131.477 47.9707 131.48 47.9173 131.472 47.865C131.453 47.761 131.394 47.6686 131.308 47.6074C131.222 47.5463 131.115 47.5212 131.011 47.5376C130.958 47.5415 130.906 47.5561 130.859 47.5807C130.812 47.6052 130.771 47.6392 130.738 47.6805C130.704 47.7217 130.68 47.7694 130.666 47.8205C130.651 47.8716 130.648 47.9251 130.655 47.9776V47.9776Z" fill="#263238"/>
<path d="M125.435 48.576C125.454 48.6809 125.513 48.7742 125.6 48.836C125.687 48.8978 125.795 48.9233 125.9 48.9069C125.952 48.9026 126.004 48.8876 126.05 48.8628C126.097 48.8381 126.138 48.804 126.171 48.7628C126.204 48.7216 126.228 48.6741 126.242 48.6232C126.256 48.5723 126.259 48.5191 126.252 48.4669C126.234 48.3623 126.175 48.269 126.089 48.2071C126.003 48.1452 125.896 48.1197 125.791 48.136C125.738 48.1403 125.687 48.1553 125.64 48.18C125.593 48.2047 125.552 48.2387 125.519 48.2798C125.485 48.321 125.461 48.3684 125.447 48.4193C125.432 48.4702 125.428 48.5235 125.435 48.576V48.576Z" fill="#263238"/>
<path d="M129.561 50.783C129.25 50.7448 128.935 50.7448 128.624 50.783C128.48 50.783 128.339 50.783 128.297 50.7021C128.25 50.5592 128.25 50.405 128.297 50.2621L128.508 49.0969C128.797 47.439 128.973 46.0873 128.91 46.0768C128.846 46.0662 128.558 47.4003 128.265 49.0582C128.198 49.463 128.135 49.8537 128.072 50.2269C128.015 50.4151 128.028 50.6172 128.107 50.7971C128.136 50.8444 128.177 50.8841 128.224 50.9129C128.272 50.9417 128.326 50.9587 128.382 50.9625C128.463 50.9738 128.546 50.9738 128.628 50.9625C128.945 50.9439 129.259 50.8836 129.561 50.783V50.783Z" fill="#263238"/>
<path d="M130.592 44C130.666 44.1267 131.145 43.9683 131.736 43.9296C132.327 43.8909 132.824 43.9613 132.876 43.824C132.901 43.7571 132.792 43.641 132.581 43.5459C132.3 43.4301 131.996 43.3818 131.694 43.405C131.391 43.4283 131.098 43.5224 130.838 43.6797C130.634 43.8135 130.55 43.9437 130.592 44Z" fill="#263238"/>
<path d="M124.897 45.8269C124.974 45.929 125.439 45.7494 126.016 45.6649C126.593 45.5805 127.072 45.5945 127.132 45.4713C127.149 45.415 127.044 45.327 126.829 45.2637C126.545 45.1858 126.247 45.1714 125.956 45.2214C125.662 45.266 125.38 45.3715 125.129 45.5312C124.96 45.6579 124.861 45.7776 124.897 45.8269Z" fill="#263238"/>
<path d="M137.062 47.0308C137.118 46.992 139.413 45.8128 139.811 48.3085C140.209 50.8042 137.632 50.688 137.607 50.6176C137.583 50.5472 137.062 47.0308 137.062 47.0308Z" fill="#FFD5BD"/>
<path d="M138.22 49.551C138.22 49.551 138.266 49.5757 138.347 49.5968C138.456 49.6249 138.573 49.6084 138.67 49.551C138.819 49.4233 138.93 49.2576 138.992 49.0717C139.054 48.8857 139.065 48.6864 139.022 48.495C138.996 48.28 138.92 48.074 138.801 47.8931C138.765 47.8188 138.712 47.7543 138.645 47.7053C138.579 47.6562 138.502 47.624 138.42 47.6115C138.369 47.6054 138.317 47.618 138.273 47.6471C138.23 47.6761 138.199 47.7197 138.185 47.7699C138.16 47.8474 138.185 47.8931 138.185 47.9002C138.185 47.9072 138.125 47.8685 138.128 47.7594C138.135 47.6957 138.161 47.6355 138.202 47.5869C138.264 47.5252 138.347 47.4888 138.435 47.4848C138.54 47.4891 138.643 47.5204 138.733 47.5759C138.823 47.6314 138.897 47.7091 138.948 47.8016C139.09 48.0011 139.18 48.2318 139.212 48.4739C139.276 48.9773 139.093 49.4912 138.748 49.6531C138.684 49.6835 138.614 49.6992 138.544 49.6992C138.473 49.6992 138.403 49.6835 138.34 49.6531C138.234 49.6109 138.209 49.5581 138.22 49.551Z" fill="#FFB294"/>
<path d="M130.356 52.448C130.324 52.3882 130.796 52.184 131.088 51.6807C131.208 51.4583 131.299 51.2218 131.359 50.9767C131.409 50.7866 131.451 50.6669 131.479 50.6704C131.507 50.6739 131.514 50.8007 131.497 51.0013C131.477 51.2738 131.396 51.5383 131.261 51.7757C131.121 52.0131 130.921 52.2088 130.68 52.3424C130.497 52.448 130.367 52.4727 130.356 52.448Z" fill="#263238"/>
<path d="M118.92 42.8666C118.947 42.7143 119.033 42.5789 119.159 42.4899C119.435 42.3218 119.751 42.2306 120.074 42.2259C121.049 42.0916 121.967 41.6908 122.728 41.0678C123.046 40.4709 123.412 39.9011 123.823 39.3642C124.798 38.0899 125.618 37.2064 126.516 36.7136C127.906 36.0153 129.46 35.7075 131.011 35.823C132.32 36.0061 133.588 36.9037 133.918 38.1885C134.559 37.4845 135.633 37.3789 136.541 37.6253H136.562C137.572 37.8541 138.241 38.815 138.646 39.7654C139.051 40.7158 139.293 41.7613 139.92 42.5815C140.05 42.7539 140.205 42.9616 140.135 43.1623C140.099 43.2384 140.042 43.302 139.969 43.3447C139.897 43.3875 139.814 43.4073 139.73 43.4016C139.563 43.383 139.402 43.3315 139.255 43.2503L139.67 43.9859C139.327 44.086 138.966 44.1053 138.614 44.0423C138.541 44.9431 138.414 45.8388 138.234 46.7245C137.867 46.723 137.513 46.8557 137.238 47.0976C136.935 47.4496 136.851 48.0339 136.263 47.8826C135.964 47.8051 135.629 47.2349 135.499 46.9533C134.631 45.0774 134.177 43.0364 134.168 40.9693C133.716 40.5873 133.193 40.2968 132.63 40.1139L132.679 40.1491C131.623 39.9133 130.416 39.7021 129.511 40.297C128.807 40.7546 128.455 41.5888 127.963 42.2787C127.511 42.915 126.935 43.4532 126.269 43.8609C125.604 44.2686 124.863 44.5375 124.091 44.6512C124.157 45.6861 124.414 47.1152 124.481 48.1712L123.425 46.6259C123.341 46.5133 123.267 46.4007 123.197 46.2739L123.172 46.2387C123.065 46.0482 122.947 45.8637 122.82 45.6861V45.6861C122.719 45.8223 122.569 45.9135 122.401 45.9402C122.234 45.9668 122.063 45.9268 121.924 45.8287C121.786 45.7305 121.692 45.5821 121.662 45.4153C121.632 45.2485 121.669 45.0765 121.764 44.9363C121.836 44.8051 121.929 44.6863 122.038 44.5843C121.925 44.719 121.778 44.8221 121.613 44.8838C121.448 44.9454 121.269 44.9635 121.095 44.9363C120.924 44.9059 120.768 44.8208 120.65 44.6938C120.532 44.5668 120.458 44.4048 120.44 44.2323C120.44 44.1112 120.473 43.9923 120.535 43.8882C120.597 43.7841 120.686 43.6987 120.792 43.641C120.343 43.7283 119.877 43.6805 119.455 43.5037C119.152 43.4122 118.87 43.201 118.92 42.8666Z" fill="#263238"/>
<path d="M132.817 38.7446C132.959 38.8317 133.094 38.9293 133.221 39.0368C133.552 39.3512 133.795 39.7469 133.925 40.1843C134.025 40.4826 134.094 40.7905 134.13 41.103C134.172 41.455 134.186 41.807 134.207 42.1872C134.218 42.5905 134.256 42.9927 134.32 43.391C134.354 43.5971 134.402 43.8006 134.464 44C134.526 44.2186 134.639 44.4191 134.795 44.5843C134.868 44.647 134.956 44.6902 135.05 44.7099C135.144 44.7296 135.241 44.7251 135.333 44.697C135.508 44.6412 135.66 44.53 135.766 44.3801C135.934 44.0829 136.018 43.7461 136.009 43.4051L135.935 43.4262C136.078 43.686 136.258 43.9232 136.47 44.1302C136.675 44.3236 136.946 44.4318 137.227 44.433C137.359 44.4306 137.487 44.3916 137.597 44.3203C137.7 44.2525 137.779 44.154 137.822 44.0387C137.869 43.9277 137.883 43.8053 137.861 43.6867C137.844 43.5821 137.792 43.4863 137.713 43.4157L137.678 43.4579C137.925 43.681 138.217 43.85 138.533 43.9542C138.642 43.9894 138.727 44.007 138.787 44.0211H138.878L138.79 43.9965L138.54 43.9155C138.233 43.8037 137.952 43.6313 137.713 43.4086L137.678 43.4473C137.746 43.5169 137.792 43.6061 137.808 43.7026C137.823 43.7991 137.809 43.8981 137.766 43.9859C137.725 44.089 137.654 44.1773 137.562 44.2393C137.455 44.3027 137.333 44.3356 137.21 44.3344C136.946 44.3308 136.694 44.2262 136.506 44.0422C136.301 43.833 136.127 43.596 135.988 43.3382L135.925 43.2256V43.3558C135.931 43.6807 135.851 44.0015 135.692 44.2851C135.599 44.4199 135.462 44.5191 135.305 44.5667C135.227 44.5916 135.144 44.596 135.064 44.5793C134.984 44.5627 134.909 44.5256 134.848 44.4717C134.701 44.319 134.597 44.131 134.545 43.9261C134.477 43.7272 134.424 43.5237 134.387 43.3171C134.325 42.9219 134.286 42.5235 134.27 42.1238C134.249 41.7401 134.232 41.3741 134.186 41.0326C134.146 40.7164 134.074 40.405 133.971 40.1033C133.832 39.6597 133.575 39.2619 133.228 38.9523C133.103 38.8619 132.964 38.7918 132.817 38.7446V38.7446Z" fill="#455A64"/>
<path d="M121.915 43.648L121.947 43.6691L122.049 43.7254C122.102 43.7559 122.158 43.7829 122.214 43.8064C122.291 43.841 122.37 43.8716 122.45 43.8979C122.967 44.0621 123.516 44.0948 124.048 43.9929C124.84 43.8529 125.573 43.486 126.16 42.9369C126.867 42.2543 127.425 41.4335 127.801 40.5257C128.015 40.0505 128.177 39.5718 128.367 39.1177C128.538 38.684 128.769 38.2765 129.054 37.9069C129.311 37.5744 129.647 37.3118 130.032 37.143C130.208 37.0719 130.393 37.028 130.581 37.0128C130.934 36.9984 131.285 37.0727 131.602 37.2289C131.918 37.3851 132.191 37.6182 132.394 37.9069C132.501 38.0712 132.586 38.2486 132.648 38.4349C132.648 38.4349 132.648 38.4349 132.648 38.3961L132.619 38.287C132.571 38.1479 132.507 38.0145 132.429 37.8893C132.301 37.6948 132.14 37.5235 131.954 37.3824C131.709 37.1928 131.426 37.0594 131.123 36.9917C130.947 36.9529 130.766 36.9375 130.585 36.9459C130.389 36.9606 130.197 37.0045 130.015 37.0761C129.616 37.2464 129.267 37.5153 129.001 37.8576C128.707 38.2302 128.47 38.6442 128.297 39.0861C128.107 39.5366 127.945 40.0153 127.73 40.4941C127.357 41.3896 126.807 42.2011 126.115 42.8806C125.54 43.424 124.822 43.7906 124.045 43.9366C123.521 44.0412 122.98 44.0182 122.468 43.8697C122.279 43.8068 122.095 43.7328 121.915 43.648V43.648Z" fill="#455A64"/>
<path d="M121.394 42.0675C121.394 42.0675 121.44 42.0992 121.535 42.145C121.668 42.2055 121.806 42.2561 121.947 42.2963C122.157 42.3564 122.371 42.4 122.588 42.4266C122.853 42.4497 123.121 42.4497 123.387 42.4266C123.652 42.402 123.915 42.3525 124.172 42.2787C124.38 42.2184 124.583 42.1394 124.777 42.0429C124.91 41.9816 125.037 41.9085 125.157 41.8246C125.204 41.7961 125.247 41.7631 125.287 41.7261C125.287 41.7261 125.087 41.8387 124.752 41.9866C124.558 42.0747 124.356 42.1476 124.15 42.2048C123.897 42.2692 123.64 42.3151 123.38 42.3421C123.118 42.3634 122.856 42.3634 122.595 42.3421C122.382 42.3214 122.172 42.2849 121.965 42.233C121.609 42.1485 121.401 42.0534 121.394 42.0675Z" fill="#455A64"/>
<path d="M126.294 82.3363C126.294 81.8752 129.983 61.4099 129.983 61.4099C130.687 60.7517 138.473 55.0563 138.473 55.0563L145.2 63.1312C145.2 63.1312 146.897 69.4672 147.418 74.0432C147.77 77.0634 149.325 91.4707 149.776 97.5533C149.835 98.3588 149.682 99.1657 149.333 99.8938C148.983 100.622 148.449 101.246 147.784 101.703L147.08 101.777L146.893 103.594C140.673 103.734 125.661 100.971 125.47 101.087C125.28 101.204 126.305 84.0013 126.294 82.3363Z" fill="#455A64"/>
<path d="M125.463 98.8275C125.533 98.8516 125.605 98.8704 125.678 98.8838L126.298 99.0246C126.833 99.1443 127.618 99.2957 128.586 99.4717C130.525 99.8237 133.214 100.232 136.196 100.602C139.177 100.971 141.884 101.263 143.841 101.489L146.157 101.746L146.788 101.812C146.861 101.818 146.935 101.818 147.009 101.812C146.938 101.789 146.865 101.774 146.791 101.767L146.164 101.672C145.619 101.594 144.83 101.489 143.852 101.362L136.224 100.447C133.243 100.077 130.553 99.6899 128.61 99.3626C127.642 99.2006 126.85 99.0669 126.315 98.9648L125.692 98.8557C125.617 98.8371 125.541 98.8276 125.463 98.8275V98.8275Z" fill="#263238"/>
<path d="M141.62 54.56C142.701 54.8698 143.602 55.616 144.468 56.32L148.213 59.4176C148.935 60.016 149.688 60.6567 150.008 61.5296C150.473 62.7968 149.864 64.2893 148.787 65.0989C147.659 65.8668 146.274 66.159 144.932 65.912C143.606 65.663 142.325 65.2169 141.131 64.5885L138.199 55.264C138.846 54.3347 140.543 54.2467 141.62 54.56Z" fill="#455A64"/>
<path d="M129.888 61.4874C130.026 61.445 130.159 61.3897 130.286 61.3219C130.539 61.2093 130.898 61.0298 131.342 60.7974C132.481 60.1859 133.582 59.504 134.637 58.7558C135.879 57.8829 136.96 57.0451 137.745 56.4397L138.67 55.7181C138.788 55.6348 138.899 55.5418 139.001 55.44C138.876 55.505 138.758 55.5829 138.649 55.6723C138.421 55.8272 138.093 56.0595 137.692 56.3517C136.889 56.9325 135.798 57.7597 134.563 58.6291C133.327 59.4986 132.165 60.2166 131.303 60.7024C130.87 60.9453 130.522 61.1389 130.275 61.2691C130.138 61.327 130.008 61.4002 129.888 61.4874V61.4874Z" fill="#263238"/>
<path d="M140.423 58.5798C140.531 58.6875 140.649 58.7841 140.775 58.8685C140.895 58.953 141.032 59.0656 141.191 59.1994C141.349 59.3331 141.543 59.4774 141.726 59.6499C142.747 60.5387 143.632 61.5729 144.352 62.7194C145.065 63.8695 145.611 65.1151 145.974 66.4189C146.108 66.9187 146.214 67.327 146.267 67.6122C146.291 67.7618 146.329 67.9091 146.379 68.0522C146.376 67.9006 146.358 67.7497 146.326 67.6016C146.291 67.313 146.203 66.8976 146.084 66.3907C145.747 65.0634 145.207 63.7964 144.482 62.6349C143.756 61.4773 142.851 60.4424 141.8 59.569C141.599 59.3965 141.412 59.2522 141.244 59.129C141.075 59.0058 140.934 58.9002 140.811 58.8192C140.687 58.7301 140.558 58.6501 140.423 58.5798V58.5798Z" fill="#263238"/>
<g opacity="0.3">
<path opacity="0.3" d="M140.656 54.7289C143.331 55.0528 146.182 58.0272 148.357 59.8118C147.46 59.9984 146.073 59.1078 145.256 58.6749C143.211 57.6365 141.708 55.9574 139.001 55.44L138.199 55.2499C138.688 54.824 140.071 54.6832 140.656 54.7289Z" fill="black"/>
</g>
<path d="M139.093 55.433C139.093 55.433 139.237 55.4576 139.494 55.521C139.861 55.6122 140.215 55.7469 140.55 55.9223C141.391 56.3588 142.468 57.1261 143.693 57.9146C144.727 58.617 145.833 59.2071 146.992 59.6746C147.345 59.8154 147.707 59.933 148.076 60.0266C148.21 60.0644 148.348 60.088 148.488 60.097C148.36 60.0431 148.228 59.9996 148.093 59.9668C147.84 59.8893 147.474 59.7696 147.037 59.5901C145.899 59.0991 144.809 58.5028 143.781 57.809C142.76 57.1005 141.703 56.446 140.613 55.8484C140.272 55.682 139.91 55.5635 139.536 55.4964C139.434 55.4776 139.33 55.4658 139.227 55.4612C139.128 55.426 139.093 55.426 139.093 55.433Z" fill="#263238"/>
<g opacity="0.3">
<path opacity="0.3" d="M138.561 69.4707C137.505 76.5565 136.287 83.9661 131.979 89.6931C130.842 91.2032 129.226 92.6781 127.343 92.5091C126.593 92.4387 125.734 91.7664 126.044 91.08C126.044 91.1504 126.864 90.7526 127.452 90.376C128.723 89.5523 129.842 89.2109 130.669 87.9401C131.497 86.6694 132.187 84.92 132.799 83.5331C134.714 79.1824 137.023 73.9129 138.572 69.4777" fill="black"/>
</g>
<path d="M141.905 103.558C142.105 103.232 142.226 102.863 142.257 102.481C142.334 102.107 142.324 101.721 142.229 101.351C142.183 101.351 142.19 101.855 142.102 102.46C142.014 103.066 141.856 103.544 141.905 103.558Z" fill="#263238"/>
<path d="M139.075 102.999C139.257 102.341 139.334 101.66 139.304 100.978C139.128 101.637 139.05 102.318 139.075 102.999V102.999Z" fill="#263238"/>
<path d="M135.773 102.432C135.91 102.116 135.998 101.781 136.034 101.439C136.119 101.105 136.153 100.76 136.136 100.415C136.002 100.733 135.915 101.068 135.879 101.411C135.792 101.744 135.756 102.088 135.773 102.432V102.432Z" fill="#263238"/>
<path d="M132.884 102.182C132.975 101.859 133.049 101.531 133.105 101.2C133.209 100.881 133.296 100.557 133.366 100.229C132.983 100.804 132.812 101.495 132.884 102.182V102.182Z" fill="#263238"/>
<path d="M129.955 101.615C130.085 101.352 130.168 101.069 130.201 100.778C130.284 100.496 130.316 100.201 130.296 99.9081C130.166 100.171 130.083 100.454 130.05 100.746C129.967 101.028 129.935 101.322 129.955 101.615V101.615Z" fill="#263238"/>
<path d="M127.322 101.439C127.368 101.439 127.389 100.95 127.508 100.362C127.628 99.7744 127.79 99.3063 127.748 99.3063C127.535 99.6222 127.4 99.9841 127.354 100.362C127.261 100.714 127.25 101.083 127.322 101.439V101.439Z" fill="#263238"/>
<path d="M131.648 88.704C131.617 88.8189 131.601 88.9371 131.599 89.056C131.582 89.195 131.575 89.335 131.578 89.4749C131.568 89.6578 131.568 89.8411 131.578 90.024C131.608 90.4989 131.681 90.9702 131.796 91.432C131.945 92.0014 132.148 92.5553 132.401 93.0864C132.666 93.6121 132.98 94.1108 133.341 94.5754C133.637 94.9575 133.968 95.311 134.33 95.6314C134.467 95.7561 134.611 95.8736 134.76 95.9834C134.871 96.0705 134.989 96.1493 135.112 96.2192C135.208 96.2896 135.312 96.3498 135.421 96.3988C135.439 96.3706 135.01 96.1031 134.418 95.554C134.073 95.2283 133.756 94.8751 133.468 94.498C132.764 93.5777 132.248 92.5274 131.951 91.4074C131.829 90.9457 131.745 90.4748 131.701 89.9994C131.616 89.2039 131.669 88.704 131.648 88.704Z" fill="#263238"/>
<g opacity="0.3">
<path opacity="0.3" d="M134.274 95.392L134.179 95.3111C132.862 94.1021 131.994 92.483 131.715 90.7175C132.996 91.872 133.908 93.72 134.274 95.392Z" fill="black"/>
</g>
<path d="M134.918 100.32C135.554 99.3162 135.78 98.1063 135.548 96.9408C135.533 97.5167 135.486 98.0914 135.407 98.6621C135.274 99.223 135.11 99.7764 134.918 100.32V100.32Z" fill="#263238"/>
<path d="M130.367 88.1373C130.349 88.1795 130.592 88.3309 130.912 88.4893C131.097 88.6023 131.306 88.6698 131.521 88.6864C131.539 88.6477 131.296 88.4963 130.976 88.3344C130.791 88.2214 130.582 88.1538 130.367 88.1373V88.1373Z" fill="#263238"/>
<path d="M144.524 103.622C144.76 103.334 144.9 102.979 144.925 102.608C144.999 102.245 144.956 101.868 144.802 101.531C144.757 101.531 144.848 102.013 144.771 102.587C144.693 103.161 144.482 103.597 144.524 103.622Z" fill="#263238"/>
<path d="M214.801 91.256L213.696 74.265L104.452 81.3543L103.808 71.3786L81.4845 91.3722L106.227 108.687L105.558 98.3453L214.801 91.256Z" fill="#E0E0E0"/>
<path d="M214.801 91.256L105.561 98.4298L105.642 98.3382L106.304 108.68V108.867L106.153 108.761L81.4071 91.4496L81.312 91.3827L81.3965 91.3053L87.5107 85.8317L103.72 71.3117L103.861 71.1885V71.3715C104.079 74.746 104.295 78.0713 104.509 81.3472L104.414 81.2627L213.66 74.2227H213.699V74.272C214.403 85.3248 214.755 90.9744 214.755 91.2666C214.765 90.9662 214.401 85.3013 213.664 74.272L213.706 74.3107L104.46 81.4422H104.372V81.3507C104.156 78.0771 103.94 74.7531 103.724 71.3786L103.875 71.4384L87.6832 85.9619L81.569 91.4355V91.2912C90.0592 97.2365 98.3347 103.027 106.311 108.606L106.17 108.687C105.938 105.114 105.709 101.587 105.501 98.3418V98.2573H105.589L214.801 91.256Z" fill="#263238"/>
<g opacity="0.3">
<path opacity="0.3" d="M190.179 79.0346C189.932 77.9575 189.51 76.8979 189.513 75.7927L186.127 76.0743C186.447 77.5984 186.761 79.2423 186.159 80.6714C185.613 81.9703 184.399 82.8679 183.212 83.6035C180.953 85.0115 178.38 86.1591 176.964 88.4048C178.049 88.9399 179.323 88.345 180.382 87.7607L188.218 83.424C188.828 83.1381 189.372 82.7267 189.812 82.2167C190.471 81.3402 190.432 80.1117 190.179 79.0346Z" fill="black"/>
</g>
<path d="M120.937 91.8509L115.889 92.5549L112.08 97.0359C112.08 97.0359 112.651 97.5533 113.678 96.9408C114.122 96.6768 113.133 97.8595 113.133 97.8595L110.415 98.0531C110.38 98.1366 110.362 98.2263 110.363 98.3169C110.363 98.4074 110.382 98.497 110.418 98.5801C110.453 98.6633 110.506 98.7384 110.571 98.8009C110.637 98.8633 110.714 98.9119 110.799 98.9437C111.429 99.169 113.693 99.2499 113.693 99.2499L113.925 98.8979C114.065 99.028 114.233 99.1234 114.416 99.1766C114.6 99.2298 114.793 99.2392 114.981 99.2042C115.596 99.4346 116.261 99.5001 116.91 99.3942C117.488 99.319 118.051 99.1576 118.582 98.9155L123.351 94.3994L120.937 91.8509Z" fill="#FFD5BD"/>
<path d="M116.565 94.0861C116.003 94.4416 115.493 94.874 115.051 95.3709C114.567 95.8275 114.147 96.3486 113.805 96.9197C113.847 96.9514 114.418 96.2756 115.178 95.5117C115.938 94.7479 116.597 94.1284 116.565 94.0861Z" fill="#FFB294"/>
<path d="M115.808 97.0675C115.394 97.3679 115.016 97.7152 114.682 98.1024C114.304 98.4465 113.968 98.8341 113.682 99.2569C114.469 98.6121 115.178 97.8773 115.794 97.0675H115.808Z" fill="#FFB294"/>
<path d="M116.864 97.6061C116.542 97.8635 116.234 98.1385 115.942 98.4298C115.61 98.6761 115.292 98.9417 114.991 99.2253C115.389 99.0875 115.75 98.8613 116.047 98.5635C116.39 98.3119 116.67 97.9841 116.864 97.6061V97.6061Z" fill="#FFB294"/>
<path d="M117.973 98.0637C117.702 98.2495 117.452 98.4656 117.23 98.7079C116.832 99.0599 116.491 99.352 116.526 99.3943C116.843 99.2773 117.128 99.0867 117.357 98.8381C117.622 98.6336 117.833 98.3679 117.973 98.0637V98.0637Z" fill="#FFB294"/>
<g opacity="0.3">
<path opacity="0.3" d="M138.948 79.4183C137.217 78.7882 135.245 79.6858 133.996 81.041C132.746 82.3962 132.035 84.1421 131.18 85.7789C129.347 89.3158 126.819 92.4456 123.746 94.9802L125.738 96.0749C128.469 94.9497 131.103 93.6005 133.612 92.041C135.397 90.9287 137.178 89.6474 138.188 87.817C139.564 85.2967 139.276 82.2519 138.948 79.4183Z" fill="black"/>
</g>
<path d="M138.484 66.1091C138.484 66.1091 139.227 84.0048 136.675 87.0179C134.123 90.0311 125.259 96.2157 125.259 96.2157L124.158 96.1101L122.285 96.529L119.275 92.0304L128.484 82.1744C128.484 82.1744 128.836 63.5747 129.145 63.096C129.455 62.6173 129.895 60.3258 133.035 60.6109C136.175 60.896 138.572 63.6768 138.484 66.1091Z" fill="#455A64"/>
<path d="M136.576 61.512C136.695 61.5823 136.806 61.6649 136.907 61.7584C137.186 62.0493 137.417 62.3818 137.593 62.744C137.889 63.3045 138.125 63.8944 138.297 64.504C138.46 65.3312 138.518 66.1756 138.47 67.0173C138.445 70.7767 138.294 75.9651 137.91 81.6781C137.864 82.3821 137.815 83.0861 137.724 83.7901C137.648 84.4632 137.497 85.1257 137.273 85.7648C137.004 86.3449 136.648 86.8803 136.217 87.3523C135.795 87.8205 135.365 88.264 134.922 88.6723C133.162 90.3056 131.437 91.6221 129.994 92.7239C128.55 93.8256 127.357 94.681 126.533 95.2759L125.587 95.9799L125.344 96.1594C125.314 96.1786 125.287 96.201 125.263 96.2263L125.351 96.1735L125.604 96.0045L126.565 95.3392C127.396 94.7549 128.596 93.9031 130.053 92.8189C131.774 91.5604 133.428 90.214 135.01 88.785C135.457 88.3767 135.89 87.9331 136.316 87.4615C136.762 86.9791 137.131 86.4306 137.41 85.8352C137.64 85.185 137.795 84.5106 137.871 83.8253C137.963 83.1213 138.016 82.4173 138.061 81.7133C138.442 76.0003 138.582 70.8013 138.579 67.0455C138.623 66.1945 138.557 65.3414 138.382 64.5075C138.199 63.8893 137.951 63.2923 137.643 62.7264C137.46 62.3655 137.223 62.0353 136.939 61.7479C136.838 61.6417 136.714 61.5609 136.576 61.512V61.512Z" fill="#263238"/>
<path d="M128.48 82.1779C128.48 82.2202 129.11 82.3398 129.818 82.7024C130.525 83.065 131.032 83.4874 131.06 83.4522C130.733 83.0777 130.33 82.7776 129.877 82.5722C129.451 82.3275 128.971 82.192 128.48 82.1779V82.1779Z" fill="#263238"/>
<path d="M129.135 65.1939C129.156 65.1939 129.117 64.8771 129.166 64.3808C129.23 63.7392 129.433 63.1193 129.761 62.5645C130.09 62.0234 130.538 61.5646 131.071 61.2234C131.476 60.9664 131.775 60.8714 131.754 60.8432C131.682 60.8482 131.612 60.8648 131.546 60.8925C131.363 60.9586 131.187 61.0398 131.018 61.1354C130.452 61.4618 129.978 61.927 129.642 62.487C129.301 63.059 129.104 63.7053 129.068 64.3702C129.058 64.5722 129.064 64.7746 129.085 64.9757C129.089 65.0508 129.106 65.1247 129.135 65.1939V65.1939Z" fill="#263238"/>
<path d="M119.275 92.0304C119.326 91.9569 119.383 91.8874 119.444 91.8227L119.962 91.2455L121.891 89.1335L128.403 82.1111L128.378 82.1674C128.396 81.7344 128.417 81.2733 128.438 80.8087C128.621 76.7184 128.79 73.0189 128.91 70.3226C128.98 68.9955 129.036 67.9149 129.075 67.1546C129.096 66.8026 129.114 66.5069 129.128 66.2922C129.129 66.1917 129.14 66.0916 129.159 65.993C129.167 66.0937 129.167 66.1949 129.159 66.2957C129.159 66.5104 129.159 66.7955 129.138 67.1581C129.114 67.929 129.078 69.0096 129.033 70.3261C128.924 73.0259 128.776 76.7255 128.614 80.8157C128.593 81.2803 128.572 81.7415 128.554 82.1779V82.2096L128.529 82.2343L121.975 89.2179L120.004 91.2877L119.465 91.8439C119.406 91.9102 119.343 91.9725 119.275 92.0304V92.0304Z" fill="#263238"/>
<path d="M178.992 89.056L174.342 89.3834L170.576 93.2272C170.576 93.2272 171.065 93.7341 172.04 93.2448C172.466 93.0301 171.484 94.0474 171.484 94.0474H168.995C168.957 94.1212 168.934 94.202 168.928 94.2849C168.922 94.3678 168.933 94.451 168.96 94.5296C168.987 94.6082 169.03 94.6805 169.085 94.7422C169.141 94.8039 169.209 94.8538 169.284 94.8887C169.847 95.1316 171.906 95.3533 171.906 95.3533L172.128 95.04C172.248 95.1698 172.397 95.2694 172.563 95.3306C172.729 95.3918 172.906 95.4128 173.082 95.392C173.632 95.6434 174.24 95.7454 174.842 95.6877C175.374 95.6574 175.899 95.547 176.398 95.3604L181.041 91.5447L178.992 89.056Z" fill="#BC8F86"/>
<path d="M174.86 90.816C173.816 91.4415 172.9 92.2584 172.16 93.2237C172.195 93.2554 172.758 92.6746 173.504 92.0128C174.251 91.3511 174.884 90.8372 174.86 90.816Z" fill="#7F473D"/>
<path d="M173.973 93.4701C173.576 93.7179 173.209 94.0096 172.878 94.3395C172.512 94.6329 172.181 94.9658 171.889 95.3322C172.288 95.0867 172.656 94.7949 172.987 94.4627C173.353 94.1711 173.683 93.838 173.973 93.4701V93.4701Z" fill="#7F473D"/>
<path d="M174.916 94.0333C174.603 94.2501 174.303 94.4851 174.018 94.7373C173.7 94.9417 173.393 95.1638 173.099 95.4026C173.473 95.303 173.82 95.1201 174.113 94.8676C174.44 94.6531 174.714 94.368 174.916 94.0333V94.0333Z" fill="#7F473D"/>
<path d="M175.891 94.519C175.63 94.671 175.388 94.8529 175.169 95.0611C174.914 95.2268 174.678 95.4204 174.465 95.6384C174.762 95.5534 175.035 95.399 175.261 95.1879C175.522 95.0189 175.738 94.7895 175.891 94.519Z" fill="#7F473D"/>
<path d="M187.546 60.192C187.546 60.192 190.84 59.9949 192.34 64.4864C193.839 68.9779 196.729 79.7949 196.469 82.7693C196.208 85.7437 180.097 93.0688 180.097 93.0688L176.44 88.5351L188.672 80.513L185.448 66.1549C185.448 66.1549 184.152 60.5827 187.546 60.192Z" fill="#F8C325"/>
<path d="M188.774 60.5053C188.427 60.5464 188.087 60.6303 187.76 60.7552C186.995 61.1103 186.38 61.7234 186.021 62.4871C185.681 63.2655 185.494 64.1019 185.469 64.9511C185.43 65.6023 185.437 66.0071 185.409 66.0071C185.343 65.6592 185.32 65.3046 185.339 64.9511C185.328 64.0813 185.505 63.2195 185.856 62.4237C186.232 61.6252 186.894 60.9971 187.711 60.6637C187.958 60.5674 188.22 60.5139 188.485 60.5053C188.581 60.4847 188.679 60.4847 188.774 60.5053V60.5053Z" fill="#263238"/>
<path d="M191.713 81.1536C191.689 81.2029 191.097 80.9143 190.305 80.8016C189.513 80.689 188.869 80.7805 188.859 80.7277C189.337 80.584 189.841 80.548 190.334 80.6223C190.828 80.6965 191.299 80.8792 191.713 81.1572V81.1536Z" fill="#263238"/>
</svg>
