<svg width="338" height="338" viewBox="0 0 338 338" fill="none" xmlns="http://www.w3.org/2000/svg">
<path d="M247.321 205.45H80.1128V274.179H247.321V205.45Z" fill="#FAFAFA"/>
<path d="M247.321 274.179C247.321 274.179 247.321 273.76 247.321 272.955C247.321 272.151 247.321 270.927 247.321 269.386C247.321 266.256 247.321 261.646 247.288 255.711C247.288 243.84 247.288 226.676 247.22 205.45L247.348 205.572L80.1533 205.626L80.3291 205.45C80.3291 229.529 80.3291 252.77 80.3291 274.179L80.1601 274.01L200.089 274.084L234.849 274.132H244.144H246.544H247.369H246.564H244.185H234.924L200.204 274.179L80.1601 274.26H79.9911V274.091C79.9911 252.675 79.9911 229.475 79.9911 205.362V205.186H80.1804L247.375 205.234H247.416V205.362C247.416 226.622 247.369 243.813 247.348 255.697C247.348 261.626 247.348 266.222 247.348 269.345C247.348 270.9 247.348 272.09 247.348 272.888C247.348 273.685 247.321 274.179 247.321 274.179Z" fill="#263238"/>
<path d="M101.61 236.492C108.166 236.492 113.48 231.177 113.48 224.621C113.48 218.065 108.166 212.751 101.61 212.751C95.0536 212.751 89.739 218.065 89.739 224.621C89.739 231.177 95.0536 236.492 101.61 236.492Z" fill="#EBEBEB"/>
<path d="M172.137 223.08C172.137 223.181 160.273 223.256 145.637 223.256C131.002 223.256 119.131 223.181 119.131 223.08C119.131 222.979 130.995 222.904 145.637 222.904C160.28 222.904 172.137 222.999 172.137 223.08Z" fill="#263238"/>
<path d="M159.029 230.442C159.029 230.543 149.971 230.617 138.796 230.617C127.622 230.617 118.557 230.543 118.557 230.442C118.557 230.34 127.615 230.266 138.796 230.266C149.977 230.266 159.029 230.347 159.029 230.442Z" fill="#E0E0E0"/>
<path d="M227.406 245.665C227.406 245.767 199.346 245.841 164.741 245.841C130.137 245.841 102.069 245.767 102.069 245.665C102.069 245.564 130.123 245.489 164.741 245.489C199.359 245.489 227.406 245.571 227.406 245.665Z" fill="#263238"/>
<path d="M227.406 254.129C227.406 254.23 199.346 254.305 164.741 254.305C130.137 254.305 102.069 254.23 102.069 254.129C102.069 254.027 130.123 253.953 164.741 253.953C199.359 253.953 227.406 254.034 227.406 254.129Z" fill="#263238"/>
<path d="M94.8158 212.048C94.3561 206.897 96.9655 202.334 102.123 202.016H102.603C104.926 202.006 107.168 202.871 108.882 204.44C110.595 206.008 111.656 208.164 111.851 210.479C112.23 214.948 112.588 219.883 112.568 222.282C112.52 227.244 107.558 228.035 107.558 228.035L107.667 229.624C107.722 230.476 107.6 231.331 107.306 232.133C107.012 232.936 106.554 233.668 105.961 234.282C105.368 234.897 104.652 235.381 103.861 235.704C103.07 236.026 102.22 236.179 101.366 236.154C99.8064 236.108 98.3227 235.47 97.2174 234.368C96.1121 233.266 95.4684 231.785 95.4174 230.225L94.8158 212.048Z" fill="#FFBE9D"/>
<path d="M107.565 228.028C105.274 228.084 103.019 227.453 101.089 226.217C101.089 226.217 102.63 229.779 107.585 229.313L107.565 228.028Z" fill="#EB996E"/>
<path d="M110.303 214.197C110.303 214.381 110.233 214.557 110.108 214.69C109.982 214.824 109.81 214.904 109.627 214.914C109.537 214.921 109.447 214.911 109.361 214.882C109.275 214.854 109.196 214.809 109.128 214.75C109.06 214.691 109.004 214.619 108.965 214.538C108.925 214.457 108.902 214.369 108.897 214.279C108.895 214.094 108.964 213.916 109.09 213.781C109.216 213.647 109.389 213.566 109.573 213.555C109.663 213.548 109.754 213.559 109.84 213.587C109.927 213.616 110.006 213.661 110.074 213.721C110.142 213.781 110.198 213.854 110.237 213.936C110.276 214.018 110.299 214.107 110.303 214.197Z" fill="#263238"/>
<path d="M110.864 212.649C110.776 212.744 110.242 212.352 109.478 212.352C108.714 212.352 108.16 212.744 108.072 212.649C107.984 212.555 108.126 212.44 108.37 212.264C108.698 212.034 109.09 211.911 109.492 211.913C109.887 211.91 110.273 212.033 110.594 212.264C110.864 212.447 110.911 212.609 110.864 212.649Z" fill="#263238"/>
<path d="M103.158 214.387C103.16 214.571 103.091 214.749 102.965 214.884C102.839 215.019 102.666 215.1 102.482 215.11C102.391 215.118 102.299 215.108 102.212 215.08C102.125 215.052 102.045 215.006 101.976 214.946C101.907 214.886 101.851 214.813 101.811 214.731C101.772 214.649 101.749 214.559 101.745 214.468C101.744 214.285 101.814 214.108 101.94 213.975C102.066 213.842 102.238 213.762 102.421 213.751C102.511 213.743 102.602 213.753 102.689 213.781C102.775 213.808 102.855 213.853 102.924 213.912C102.993 213.972 103.049 214.044 103.089 214.126C103.129 214.207 103.153 214.296 103.158 214.387Z" fill="#263238"/>
<path d="M103.266 212.467C103.191 212.568 102.59 212.23 101.853 212.318C101.116 212.406 100.582 212.845 100.501 212.764C100.42 212.683 100.501 212.555 100.744 212.352C101.049 212.088 101.426 211.923 101.826 211.879C102.219 211.836 102.616 211.916 102.962 212.109C103.205 212.264 103.306 212.419 103.266 212.467Z" fill="#263238"/>
<path d="M106.085 218.727C106.486 218.601 106.902 218.524 107.322 218.497C107.518 218.497 107.7 218.436 107.734 218.307C107.752 218.105 107.707 217.902 107.606 217.726C107.416 217.26 107.227 216.766 107.024 216.246C106.484 214.992 106.046 213.696 105.713 212.372C106.352 213.582 106.892 214.841 107.329 216.138C107.525 216.651 107.714 217.152 107.89 217.625C108.013 217.859 108.049 218.13 107.991 218.389C107.962 218.456 107.918 218.517 107.863 218.566C107.809 218.615 107.744 218.651 107.673 218.673C107.565 218.703 107.454 218.718 107.342 218.72C106.925 218.775 106.502 218.777 106.085 218.727Z" fill="#263238"/>
<path d="M103.847 219.261C103.969 219.261 103.976 220.085 104.685 220.667C105.395 221.248 106.274 221.16 106.281 221.275C106.288 221.39 106.085 221.437 105.713 221.444C105.221 221.46 104.741 221.296 104.361 220.984C103.993 220.694 103.751 220.273 103.685 219.808C103.698 219.463 103.786 219.261 103.847 219.261Z" fill="#263238"/>
<path d="M103.164 209.952C103.11 210.168 102.34 210.135 101.461 210.324C100.582 210.513 99.879 210.811 99.7438 210.642C99.6086 210.473 99.7911 210.351 100.068 210.121C100.433 209.838 100.859 209.646 101.312 209.56C101.76 209.469 102.223 209.483 102.664 209.601C103.009 209.709 103.191 209.851 103.164 209.952Z" fill="#263238"/>
<path d="M110.506 210.709C110.371 210.878 109.83 210.709 109.215 210.709C108.599 210.709 108.045 210.831 107.923 210.648C107.802 210.466 107.923 210.391 108.187 210.222C108.498 210.021 108.865 209.922 109.235 209.939C109.607 209.945 109.968 210.066 110.269 210.283C110.492 210.446 110.567 210.621 110.506 210.709Z" fill="#263238"/>
<path d="M97.8848 213.569C97.8239 213.569 98.1078 214.096 98.7433 214.306C98.9209 214.389 99.1169 214.427 99.313 214.415C99.5091 214.404 99.6991 214.343 99.8654 214.238C99.5131 214.206 99.1631 214.152 98.8176 214.076C98.4935 213.932 98.1815 213.763 97.8848 213.569Z" fill="#EB996E"/>
<path d="M97.8848 215.252C97.8848 215.313 98.2836 215.191 98.7365 215.083C99.1895 214.975 99.5748 214.907 99.5748 214.84C99.5748 214.772 99.1624 214.731 98.6825 214.84C98.2025 214.948 97.8577 215.191 97.8848 215.252Z" fill="#EB996E"/>
<path d="M109.512 218.307C109.512 218.362 109.661 218.382 109.809 218.348C109.958 218.314 110.066 218.24 110.053 218.186C110.039 218.132 109.911 218.118 109.762 218.152C109.613 218.186 109.512 218.26 109.512 218.307Z" fill="#EB996E"/>
<path d="M109.512 218.727C109.512 218.781 109.566 218.835 109.661 218.855C109.755 218.875 109.83 218.855 109.843 218.787C109.857 218.72 109.789 218.673 109.694 218.659C109.6 218.646 109.512 218.666 109.512 218.727Z" fill="#EB996E"/>
<path d="M102.664 219.768C102.664 219.768 102.779 219.714 102.894 219.592C103.035 219.438 103.196 219.303 103.374 219.193C103.546 219.095 103.746 219.059 103.942 219.092C104.09 219.092 104.172 219.186 104.199 219.159C104.226 219.132 104.199 219.017 103.996 218.929C103.877 218.881 103.75 218.86 103.622 218.868C103.494 218.877 103.37 218.914 103.259 218.977C103.052 219.104 102.881 219.281 102.759 219.49C102.671 219.639 102.637 219.747 102.664 219.768Z" fill="#EB996E"/>
<path d="M98.0809 226.663C98.0809 226.663 98.0336 226.616 97.9863 226.541C97.9284 226.426 97.914 226.294 97.9457 226.169C97.9863 226.007 98.1079 225.831 98.1958 225.574C98.2433 225.43 98.2433 225.273 98.1958 225.128C98.1327 224.995 98.0533 224.87 97.9592 224.757C97.9306 224.722 97.9149 224.679 97.9149 224.635C97.9149 224.59 97.9306 224.547 97.9592 224.513C98.0424 224.425 98.1304 224.341 98.2229 224.263C98.3283 224.168 98.3956 224.039 98.4121 223.898C98.4255 223.783 98.4092 223.667 98.3648 223.56C98.303 223.416 98.2108 223.287 98.0944 223.181C98.0133 223.107 97.966 223.08 97.9525 223.087C97.9389 223.094 98.0944 223.296 98.2026 223.614C98.2317 223.699 98.2351 223.79 98.2122 223.877C98.1893 223.964 98.1413 224.041 98.0741 224.101C97.9638 224.18 97.8618 224.271 97.7699 224.371C97.7145 224.447 97.6846 224.538 97.6846 224.631C97.6846 224.725 97.7145 224.816 97.7699 224.892C97.8511 224.991 97.9235 225.097 97.9863 225.209C98.0166 225.309 98.0166 225.415 97.9863 225.514C97.9067 225.716 97.8412 225.924 97.7902 226.136C97.7737 226.218 97.7774 226.304 97.8009 226.385C97.8245 226.466 97.8672 226.541 97.9254 226.602C98.0201 226.683 98.0809 226.676 98.0809 226.663Z" fill="#EB996E"/>
<path d="M96.8234 226.203C96.8234 226.203 96.7761 226.203 96.7558 226.122C96.7355 226.041 96.8031 226.021 96.8775 225.831C96.8958 225.634 96.8483 225.437 96.7423 225.27C96.7034 225.193 96.691 225.104 96.7068 225.019C96.7227 224.933 96.766 224.856 96.8302 224.797C96.9964 224.642 97.1378 224.461 97.2493 224.263C97.2926 224.165 97.3066 224.057 97.2898 223.952C97.2731 223.846 97.2261 223.748 97.1547 223.668C97.1113 223.616 97.0579 223.572 96.9975 223.541C96.9371 223.51 96.871 223.491 96.8031 223.486C96.7085 223.486 96.6612 223.486 96.6612 223.486C96.6612 223.486 96.8707 223.486 97.0195 223.742C97.056 223.801 97.0753 223.869 97.0753 223.939C97.0753 224.008 97.056 224.076 97.0195 224.135C96.9027 224.305 96.7691 224.464 96.6206 224.608C96.5285 224.705 96.4673 224.827 96.4449 224.959C96.4293 225.085 96.4529 225.213 96.5125 225.324C96.6139 225.514 96.7017 225.649 96.6882 225.757C96.672 225.819 96.6517 225.88 96.6274 225.939C96.612 225.97 96.6039 226.003 96.6039 226.037C96.6039 226.072 96.612 226.105 96.6274 226.136C96.7491 226.271 96.8437 226.217 96.8234 226.203Z" fill="#EB996E"/>
<path d="M95.2349 215.718C95.147 215.685 91.8549 214.725 91.9428 218.111C92.0306 221.498 95.4445 220.687 95.4445 220.586C95.4445 220.484 95.2349 215.718 95.2349 215.718Z" fill="#FFBE9D"/>
<path d="M94.3628 219.342C94.3628 219.342 94.3087 219.382 94.2073 219.43C94.138 219.46 94.0632 219.475 93.9876 219.475C93.9121 219.475 93.8373 219.46 93.7679 219.43C93.5428 219.301 93.3568 219.113 93.2294 218.887C93.1021 218.661 93.0383 218.405 93.0446 218.145C93.0245 217.855 93.0707 217.563 93.1798 217.293C93.2065 217.186 93.2593 217.086 93.3336 217.004C93.4078 216.921 93.5013 216.858 93.6057 216.82C93.6734 216.799 93.7462 216.803 93.8116 216.83C93.877 216.857 93.9309 216.906 93.964 216.969C94.0113 217.064 93.964 217.131 94.0113 217.138C94.0586 217.145 94.0789 217.077 94.0451 216.942C94.0271 216.858 93.9791 216.783 93.9099 216.732C93.813 216.666 93.6945 216.64 93.5786 216.658C93.4401 216.691 93.3122 216.758 93.207 216.854C93.1017 216.95 93.0226 217.071 92.977 217.206C92.8461 217.505 92.7882 217.832 92.808 218.159C92.8021 218.461 92.8855 218.758 93.0479 219.013C93.2102 219.268 93.4443 219.469 93.7206 219.592C93.8133 219.613 93.9094 219.614 94.0025 219.595C94.0957 219.577 94.1839 219.539 94.2614 219.484C94.3628 219.423 94.3763 219.349 94.3628 219.342Z" fill="#263238"/>
<path d="M112.378 204.693C112.316 204.365 112.159 204.063 111.927 203.823C111.696 203.582 111.399 203.415 111.074 203.341C111.217 203.02 111.247 202.66 111.158 202.32C111.069 201.98 110.866 201.681 110.584 201.472C110.302 201.263 109.956 201.156 109.605 201.171C109.254 201.185 108.918 201.318 108.653 201.549C108.643 201.297 108.573 201.051 108.448 200.831C108.323 200.612 108.147 200.425 107.935 200.288C107.723 200.15 107.482 200.065 107.23 200.04C106.979 200.015 106.725 200.05 106.49 200.143C106.495 199.846 106.402 199.556 106.226 199.317C106.049 199.078 105.799 198.904 105.513 198.822C105.228 198.74 104.923 198.754 104.646 198.862C104.37 198.97 104.136 199.166 103.982 199.42C103.788 199.133 103.531 198.894 103.232 198.719C102.932 198.545 102.597 198.441 102.251 198.415C101.905 198.388 101.558 198.44 101.235 198.566C100.912 198.692 100.622 198.889 100.386 199.143C99.6997 198.926 98.9578 198.968 98.3003 199.261C97.6428 199.553 97.1151 200.077 96.8167 200.731C96.2616 200.772 95.7313 200.978 95.2941 201.323C94.8568 201.667 94.5325 202.135 94.3628 202.665C94.0028 202.69 93.656 202.811 93.3582 203.014C93.0605 203.218 92.8225 203.498 92.6688 203.825C92.5152 204.151 92.4515 204.513 92.4843 204.872C92.5171 205.232 92.6452 205.576 92.8554 205.869C92.653 205.986 92.4803 206.148 92.3509 206.342C92.2214 206.537 92.1388 206.758 92.1093 206.99C92.0798 207.222 92.1044 207.457 92.1811 207.678C92.2577 207.899 92.3844 208.099 92.5512 208.262C92.2966 208.387 92.0828 208.582 91.935 208.824C91.7871 209.066 91.7112 209.345 91.7162 209.629C91.7211 209.913 91.8067 210.189 91.963 210.426C92.1192 210.663 92.3397 210.85 92.5985 210.966C92.0982 211.034 91.9225 211.696 92.0509 212.176C92.2662 212.639 92.5054 213.09 92.7675 213.528C92.9297 213.907 92.977 214.326 93.119 214.718C93.2551 215.084 93.4688 215.416 93.7453 215.691C94.0219 215.966 94.3548 216.179 94.7211 216.313L94.64 216.32C94.5521 216.753 95.1605 217.05 95.5661 216.881C95.9497 216.652 96.2558 216.313 96.4449 215.908C96.7398 215.495 96.9679 215.039 97.1209 214.556C97.2037 214.31 97.2029 214.045 97.1185 213.8C97.0341 213.555 96.8709 213.346 96.6545 213.204C96.9387 213.083 97.1866 212.891 97.3739 212.645C97.5611 212.4 97.6813 212.11 97.7226 211.804C97.7957 211.19 97.7567 210.567 97.6076 209.966L97.1209 207.262C97.7378 207.237 98.3362 207.044 98.851 206.703C99.3659 206.362 99.7775 205.886 100.041 205.328C100.266 205.484 100.522 205.59 100.79 205.64C101.059 205.69 101.336 205.683 101.602 205.619C101.868 205.556 102.117 205.437 102.334 205.27C102.551 205.103 102.73 204.893 102.86 204.652C103.081 205.252 103.522 205.746 104.093 206.033C104.664 206.32 105.323 206.38 105.936 206.2C105.808 206.876 107.065 207.552 107.761 207.735C108.299 207.804 108.844 207.697 109.316 207.431C109.316 207.431 110.506 208.107 111.155 207.863C111.804 207.62 112.669 206.856 112.216 206.18C112.391 205.705 112.447 205.194 112.378 204.693Z" fill="#263238"/>
<path d="M92.3754 208.208C92.3754 208.208 92.4295 208.445 92.7134 208.647C92.7945 208.703 92.8866 208.74 92.9835 208.757C93.0804 208.773 93.1797 208.768 93.2745 208.742C93.3897 208.708 93.4937 208.643 93.5757 208.555C93.6577 208.467 93.7147 208.359 93.741 208.242L93.7815 208.039L93.937 208.174C94.071 208.29 94.2366 208.363 94.4125 208.384C94.5883 208.404 94.7663 208.372 94.9235 208.29C95.0807 208.209 95.2099 208.082 95.2943 207.926C95.3787 207.771 95.4145 207.593 95.3972 207.417V207.214L95.5864 207.295C95.7848 207.376 96.0058 207.382 96.2084 207.313C96.411 207.243 96.5815 207.103 96.6883 206.917C96.7619 206.759 96.8186 206.593 96.8573 206.423C96.8573 206.423 96.9587 206.633 96.81 206.984C96.7186 207.192 96.5586 207.361 96.3571 207.464C96.2251 207.531 96.0806 207.57 95.9328 207.578C95.785 207.586 95.6371 207.564 95.4986 207.512L95.654 207.39C95.6832 207.631 95.633 207.875 95.511 208.085C95.389 208.295 95.2019 208.459 94.978 208.553C94.7813 208.635 94.5654 208.66 94.355 208.626C94.1446 208.591 93.9482 208.498 93.7883 208.357L93.9843 208.289C93.9481 208.455 93.8652 208.606 93.7454 208.726C93.6255 208.846 93.4739 208.929 93.3083 208.965C93.1897 208.989 93.0672 208.986 92.9501 208.955C92.8329 208.925 92.7243 208.868 92.6323 208.789C92.3146 208.499 92.3619 208.208 92.3754 208.208Z" fill="#FAFAFA"/>
<path d="M91.8752 211.48C91.8752 211.48 91.9969 211.574 92.2402 211.622C92.4025 211.654 92.5707 211.637 92.7228 211.572C92.8749 211.506 93.0036 211.397 93.092 211.257L93.1596 211.135L93.2542 211.236C93.3648 211.349 93.5028 211.43 93.6545 211.473C93.8063 211.516 93.9666 211.518 94.1195 211.48C94.2935 211.427 94.4471 211.323 94.5596 211.18C94.672 211.037 94.7379 210.864 94.7482 210.682V210.459L94.9375 210.581C94.9843 210.615 95.037 210.64 95.0929 210.655C95.2163 210.69 95.3474 210.686 95.4684 210.644C95.5894 210.602 95.6944 210.523 95.7689 210.419C95.8283 210.316 95.8595 210.199 95.8595 210.081C95.8595 209.962 95.8283 209.845 95.7689 209.743L95.6405 209.533H95.8771C96.154 209.571 96.4347 209.501 96.6613 209.337C96.8372 209.209 96.9693 209.029 97.0398 208.823C97.0913 208.629 97.1186 208.429 97.1209 208.228C97.1719 208.324 97.2029 208.429 97.2122 208.537C97.2215 208.645 97.2088 208.754 97.175 208.857C97.1145 209.106 96.9746 209.329 96.7762 209.492C96.6473 209.596 96.4989 209.673 96.3398 209.718C96.1808 209.763 96.0142 209.776 95.8501 209.756L95.9582 209.587C96.0523 209.734 96.0988 209.907 96.0913 210.082C96.0838 210.256 96.0228 210.425 95.9165 210.563C95.8102 210.702 95.6638 210.805 95.4971 210.858C95.3304 210.91 95.1515 210.91 94.9848 210.858C94.9064 210.834 94.8315 210.8 94.7617 210.757L94.9577 210.655C94.944 210.89 94.8561 211.115 94.7068 211.297C94.5574 211.479 94.3542 211.61 94.1263 211.669C93.9343 211.715 93.7335 211.708 93.5454 211.648C93.3573 211.589 93.1889 211.479 93.0582 211.331H93.2204C93.1595 211.431 93.079 211.517 92.9837 211.584C92.8884 211.652 92.7803 211.699 92.6661 211.723C92.5024 211.768 92.3295 211.768 92.1659 211.723C91.936 211.635 91.8617 211.487 91.8752 211.48Z" fill="#FAFAFA"/>
<path d="M106.044 200.015C105.93 199.92 105.799 199.847 105.659 199.799C105.5 199.736 105.324 199.736 105.165 199.799C105.064 199.845 104.975 199.914 104.904 199.999C104.832 200.084 104.781 200.184 104.753 200.292L104.712 200.488L104.604 200.312C104.494 200.135 104.341 199.989 104.159 199.887C103.977 199.785 103.772 199.732 103.563 199.731C103.31 199.737 103.066 199.823 102.864 199.975C102.663 200.128 102.515 200.341 102.441 200.583L102.38 200.806L102.238 200.623C102.096 200.448 101.917 200.307 101.714 200.21C101.51 200.113 101.287 200.062 101.062 200.062C100.821 200.067 100.585 200.131 100.375 200.249C100.166 200.367 99.988 200.535 99.8588 200.738C99.7526 200.907 99.6813 201.096 99.6492 201.293V201.428L99.5208 201.394C99.2048 201.322 98.8738 201.358 98.5809 201.497C98.2879 201.635 98.0499 201.868 97.9051 202.158C97.7873 202.417 97.7475 202.704 97.7908 202.985C97.834 203.266 97.9583 203.528 98.1485 203.74L98.2769 203.882L98.0944 203.915C97.6783 203.997 97.3115 204.24 97.0736 204.591C96.893 204.856 96.7964 205.17 96.7965 205.491C96.8066 205.774 96.8685 206.054 96.979 206.315C96.979 206.315 96.9114 206.261 96.8438 206.126C96.7413 205.934 96.6814 205.722 96.668 205.504C96.6439 205.154 96.734 204.805 96.9249 204.51C97.0501 204.315 97.2133 204.146 97.4049 204.015C97.5966 203.884 97.8126 203.792 98.0403 203.746L97.9862 203.915C97.752 203.656 97.6063 203.33 97.5704 202.982C97.5345 202.635 97.6101 202.285 97.7865 201.984C97.9628 201.682 98.2305 201.445 98.5509 201.306C98.8713 201.167 99.2276 201.134 99.5681 201.211L99.4126 201.313C99.4442 201.072 99.5297 200.841 99.6627 200.637C99.8118 200.396 100.02 200.197 100.267 200.059C100.514 199.92 100.792 199.847 101.076 199.846C101.337 199.849 101.595 199.911 101.829 200.028C102.063 200.146 102.268 200.314 102.428 200.522L102.225 200.562C102.288 200.291 102.434 200.046 102.642 199.861C102.85 199.676 103.11 199.56 103.387 199.528C103.663 199.496 103.943 199.55 104.188 199.684C104.432 199.817 104.63 200.022 104.753 200.272H104.604C104.641 200.143 104.708 200.025 104.798 199.927C104.888 199.828 105 199.752 105.125 199.704C105.308 199.636 105.51 199.636 105.693 199.704C105.805 199.743 105.905 199.81 105.983 199.9C106.031 199.974 106.051 200.015 106.044 200.015Z" fill="#FAFAFA"/>
<path d="M70.6217 297.744C69.1345 297.67 68.6951 295.574 69.2697 294.195C69.8443 292.816 70.9191 291.586 70.9326 290.092C70.9326 288.801 70.1282 287.631 70.0471 286.34C69.9051 284.015 72.1494 282.122 72.2508 279.79C72.3252 277.978 71.0611 276.247 71.372 274.456C71.6965 272.536 73.6975 271.279 74.1572 269.379C74.6506 267.351 73.2513 265.235 73.7854 263.228C74.3194 261.22 76.6719 259.767 76.3406 257.725C76.2257 257.049 75.8201 256.461 75.6646 255.798C75.2455 254.277 76.077 252.696 77.0775 251.479C78.078 250.262 79.3218 249.18 79.9437 247.727C80.8969 245.496 80.2344 242.785 81.3633 240.636C82.303 238.851 84.3918 237.648 84.6554 235.64C85.7168 237.445 84.6554 239.737 84.9191 241.819C85.0813 243.171 85.7776 244.394 86.2102 245.686C86.644 247.011 86.7977 248.413 86.6616 249.801C86.5254 251.189 86.1024 252.534 85.4193 253.75C84.5135 255.346 83.1074 256.853 83.1818 258.692C83.2696 260.916 85.4937 262.531 85.8858 264.722C86.4468 267.852 83.1074 270.67 83.5738 273.821C83.6888 274.639 84.0606 275.402 84.1349 276.22C84.3715 279.006 81.2078 280.952 80.7549 283.724C80.4034 285.752 81.5729 287.848 81.0929 289.842C80.7144 291.383 79.3894 292.769 79.7409 294.317C79.9633 294.967 80.2486 295.594 80.5927 296.189C80.849 296.797 80.9322 297.463 80.8332 298.114C80.7342 298.766 80.4567 299.377 80.0316 299.88C79.5902 300.37 79.0037 300.706 78.3579 300.839C77.712 300.971 77.0407 300.894 76.442 300.617" fill="#340962"/>
<g opacity="0.5">
<path opacity="0.5" d="M80.4913 296.189C80.1472 295.594 79.8619 294.967 79.6396 294.317C79.3151 292.769 80.64 291.383 80.9916 289.842C81.4715 287.848 80.3156 285.752 80.6536 283.724C81.1335 280.973 84.2972 278.992 84.0336 276.22C83.9592 275.402 83.5874 274.639 83.4725 273.821C83.006 270.67 86.3455 267.852 85.7844 264.722C85.3923 262.531 83.1683 260.916 83.0804 258.692C83.006 256.853 84.4324 255.346 85.318 253.75C86.001 252.534 86.424 251.189 86.5602 249.801C86.6963 248.413 86.5427 247.011 86.1089 245.686C85.683 244.394 84.98 243.171 84.8177 241.819C84.5811 239.737 85.6154 237.445 84.5541 235.64C84.2904 237.668 82.2016 238.851 81.262 240.636C80.133 242.785 80.7955 245.496 79.8424 247.727C79.2204 249.18 77.9834 250.262 76.9761 251.479C75.9689 252.696 75.1442 254.277 75.5633 255.798C75.7458 256.474 76.1514 257.049 76.2393 257.725C76.5705 259.753 74.2113 261.234 73.684 263.228C73.1567 265.222 74.5493 267.365 74.0558 269.379C73.5961 271.279 71.5952 272.536 71.2707 274.456C70.9597 276.247 72.2238 277.978 72.1495 279.79C72.0481 282.122 69.8038 284.015 69.9457 286.34C70.0268 287.631 70.8448 288.801 70.8313 290.092C70.8313 291.586 69.7226 292.796 69.1683 294.195C68.614 295.595 69.0534 297.67 70.5203 297.744L76.2393 300.617C76.8379 300.894 77.5092 300.971 78.1551 300.839C78.801 300.706 79.3875 300.37 79.8288 299.88C80.2708 299.387 80.5668 298.781 80.6838 298.129C80.8008 297.477 80.7342 296.806 80.4913 296.189Z" fill="white"/>
</g>
<path d="M78.5512 294.831C78.1555 294.165 77.9563 293.401 77.9766 292.627C78.1321 291.775 79.5652 291.032 79.9235 289.585C80.3899 287.712 79.5517 284.4 79.9235 282.514C80.4102 279.945 83.0601 278.255 82.9519 275.707C82.9519 274.956 83.0263 272.955 82.9519 272.219C82.668 269.346 85.1895 267.419 84.8245 264.566C84.5676 262.579 82.5058 260.24 82.499 258.198C82.499 256.515 83.7091 255.035 84.527 253.507C85.7238 251.218 86.0366 248.569 85.4058 246.064C85.0881 244.901 84.5473 243.82 84.4594 242.583C84.3242 240.683 85.2571 238.527 84.4594 236.911C84.1823 238.777 82.4314 240.021 81.5729 241.724C80.5724 243.752 81.0389 246.233 80.1736 248.349C79.6125 249.701 78.5579 250.803 77.6859 251.986C76.8139 253.169 76.077 254.69 76.3745 256.042C76.5816 256.606 76.7554 257.181 76.895 257.766C77.1113 259.625 75.1171 261.146 74.6101 262.998C74.1031 264.85 75.1915 266.75 74.725 268.642C74.2856 270.414 72.5483 272.827 72.2171 274.612C71.9061 276.281 73.4203 277.37 73.2987 279.039C73.1499 281.189 70.9935 283.771 71.0341 285.928C71.0341 287.111 72.0481 287.489 72.0007 288.679C71.9399 290.031 70.7907 292.776 70.2905 294.087C70.0218 294.678 69.9134 295.328 69.9763 295.974C70.0392 296.619 70.2711 297.237 70.6487 297.765L77.0369 300.935C79.8626 299.556 79.768 296.764 78.5512 294.831Z" fill="#340962"/>
<path d="M82.8438 246.591C82.8488 246.638 82.8488 246.686 82.8438 246.733V247.152C82.8438 247.517 82.8438 248.058 82.7829 248.748C82.7227 249.596 82.5264 250.429 82.2016 251.215C81.6855 252.211 81.04 253.134 80.2817 253.96C79.8762 254.452 79.5666 255.016 79.3691 255.623C79.171 256.279 79.0931 256.966 79.1393 257.651C79.2069 259.091 79.653 260.598 79.8626 262.234C79.9872 263.079 79.9597 263.94 79.7815 264.776C79.6677 265.205 79.4996 265.619 79.2812 266.006C79.0362 266.368 78.8106 266.742 78.6052 267.128C78.3173 267.967 78.3031 268.876 78.5647 269.724C78.6593 270.17 78.7607 270.63 78.8148 271.076C78.8756 271.552 78.8756 272.033 78.8148 272.509C78.6366 273.445 78.339 274.353 77.9292 275.213C77.5508 276.029 77.2212 276.866 76.9423 277.721C76.6995 278.55 76.6259 279.419 76.726 280.276C76.8462 281.116 76.8756 281.966 76.8138 282.811C76.6658 283.608 76.3944 284.377 76.0094 285.09C75.6539 285.745 75.3814 286.442 75.1982 287.165C74.9278 288.578 75.3334 289.93 75.2996 291.18C75.2303 292.303 74.9839 293.407 74.5695 294.452C74.2762 295.237 74.0655 296.05 73.9408 296.879C73.8802 297.405 73.9355 297.938 74.1031 298.441C74.2315 298.772 74.3329 298.941 74.3194 298.948C74.2154 298.792 74.1271 298.627 74.0558 298.454C73.8607 297.951 73.7888 297.409 73.8462 296.872C73.9453 296.032 74.1427 295.206 74.4343 294.412C74.8202 293.374 75.048 292.285 75.1103 291.18C75.1103 290.572 75.0224 289.93 74.9548 289.254C74.847 288.548 74.847 287.83 74.9548 287.124C75.2252 285.644 76.3068 284.373 76.5367 282.778C76.5961 281.949 76.5621 281.117 76.4353 280.297C76.3366 279.409 76.4147 278.511 76.6651 277.654C77.1519 275.916 78.2132 274.328 78.5174 272.489C78.5763 272.04 78.5763 271.586 78.5174 271.137C78.459 270.682 78.3778 270.231 78.274 269.785C78.0212 268.872 78.071 267.902 78.416 267.02C78.6204 266.625 78.846 266.241 79.092 265.871C79.3034 265.507 79.4649 265.115 79.5719 264.708C79.7472 263.902 79.7747 263.07 79.653 262.254C79.457 260.645 79.0176 259.131 78.977 257.651C78.9343 256.936 79.0213 256.219 79.2339 255.535C79.4462 254.909 79.7716 254.327 80.1938 253.818C80.9504 253.002 81.6001 252.093 82.1272 251.114C82.4542 250.346 82.6594 249.532 82.7356 248.7C82.81 248.024 82.8302 247.47 82.8505 247.112C82.8505 246.936 82.8505 246.801 82.8505 246.693C82.8453 246.659 82.843 246.625 82.8438 246.591Z" fill="#263238"/>
<path d="M61.516 298.474C59.4407 298.779 58.2577 295.993 58.6498 293.925C59.0418 291.856 60.2181 289.869 59.8328 287.794C59.4948 286.002 58.0346 284.603 57.5749 282.838C56.7434 279.654 59.3325 276.41 58.8323 273.158C58.4334 270.623 56.2162 268.575 56.1283 266.013C56.0607 263.261 58.4875 260.963 58.6092 258.212C58.7309 255.285 56.2094 252.716 56.4054 249.789C56.6015 246.862 59.4542 244.205 58.4334 241.467C58.0954 240.561 57.3721 239.858 56.9327 238.993C55.9322 236.965 56.6488 234.572 57.7101 232.612C58.7714 230.651 60.1843 228.819 60.6507 226.636C61.3605 223.256 59.6976 219.707 60.6507 216.421C61.4619 213.717 64.0307 211.446 63.8414 208.6C65.8086 210.804 64.9974 214.272 65.8694 217.084C66.4576 218.916 67.7622 220.417 68.7154 222.093C69.6788 223.81 70.2753 225.708 70.4673 227.668C70.6593 229.627 70.4425 231.605 69.8308 233.477C69.0061 235.944 67.4783 238.412 68.08 240.913C68.81 243.968 72.332 245.598 73.488 248.525C75.1239 252.709 71.2707 257.529 72.7714 261.768C73.1567 262.863 73.8868 263.796 74.2045 264.931C75.2996 268.73 71.46 272.32 71.5478 276.268C71.6154 279.168 73.8057 281.75 73.684 284.65C73.5894 286.888 72.1224 289.166 73.008 291.228C73.3866 292.12 74.1572 292.782 74.698 293.587C75.2203 294.358 75.5194 295.259 75.5623 296.189C75.6052 297.119 75.3904 298.044 74.9414 298.86C74.4654 299.662 73.7458 300.291 72.8874 300.656C72.029 301.02 71.0766 301.102 70.1688 300.888" fill="#340962"/>
<g opacity="0.5">
<path opacity="0.5" d="M74.7385 293.614C74.1977 292.809 73.4271 292.147 73.0485 291.255C72.1697 289.193 73.6366 286.915 73.7245 284.677C73.8462 281.777 71.656 279.195 71.5884 276.295C71.5005 272.347 75.3402 268.757 74.2451 264.958C73.9273 263.85 73.1972 262.89 72.8119 261.794C71.3112 257.556 75.1644 252.736 73.5285 248.552C72.3793 245.625 68.8573 243.995 68.1205 240.94C67.5188 238.412 69.0466 235.944 69.8713 233.504C70.4831 231.632 70.6998 229.654 70.5078 227.695C70.3158 225.735 69.7193 223.837 68.7559 222.12C67.8028 220.444 66.4981 218.943 65.91 217.111C65.0041 214.299 65.8153 210.831 63.882 208.627C64.0712 211.473 61.5024 213.717 60.6912 216.448C59.711 219.734 61.3672 223.31 60.6912 226.663C60.2248 228.846 58.812 230.678 57.7506 232.639C56.6893 234.599 55.9728 237.026 56.9732 239.02C57.4126 239.885 58.136 240.588 58.474 241.494C59.4947 244.232 56.6352 246.902 56.446 249.816C56.2567 252.729 58.7714 255.312 58.6497 258.239C58.528 260.99 56.1012 263.288 56.1688 266.04C56.2364 268.602 58.4537 270.65 58.8728 273.185C59.373 276.437 56.784 279.681 57.6155 282.865C58.0751 284.63 59.5353 286.029 59.8733 287.82C60.2586 289.889 59.0756 291.876 58.6903 293.952C58.305 296.027 59.4136 298.792 61.516 298.474L70.2364 300.888C71.1442 301.102 72.0966 301.02 72.955 300.656C73.8134 300.291 74.5329 299.662 75.0089 298.86C75.4487 298.044 75.656 297.124 75.6083 296.199C75.5606 295.274 75.2598 294.38 74.7385 293.614Z" fill="white"/>
</g>
<path d="M71.656 292.262C70.9238 291.45 70.4384 290.446 70.2567 289.369C70.2567 288.152 72.021 286.719 72.1224 284.637C72.2509 281.933 70.1891 277.552 70.162 274.841C70.162 271.15 73.346 268.081 72.501 264.58C72.2509 263.552 71.825 260.747 71.5411 259.739C70.3648 255.846 73.3257 252.479 72.0413 248.633C71.1355 245.929 67.6405 243.279 67.0727 240.446C66.613 238.114 67.8839 235.714 68.5734 233.389C69.6283 229.878 69.3491 226.1 67.7893 222.783C67.0321 221.262 65.9843 219.91 65.5247 218.22C64.8487 215.63 65.5247 212.352 63.9361 210.378C64.0577 213.035 61.9081 215.238 61.2321 217.814C60.4073 220.93 61.7255 224.209 61.1104 227.373C60.7048 229.434 59.5421 231.212 58.6565 233.092C57.7709 234.971 57.1625 237.276 57.9805 239.094C58.3185 239.885 58.9066 240.514 59.1703 241.345C59.9747 243.86 57.6222 246.49 57.4329 249.221C57.2437 251.952 59.2717 254.264 59.1365 257.008C59.0148 259.584 57.2707 263.397 57.2977 265.972C57.2977 268.365 59.7178 269.454 60.0017 271.813C60.3803 274.828 58.1089 279.026 58.7511 281.953C59.1094 283.582 60.5831 283.839 60.84 285.502C61.1307 287.415 60.2857 291.505 59.9477 293.458C59.7434 294.358 59.7809 295.297 60.0564 296.177C60.3318 297.058 60.8354 297.851 61.516 298.474L71.2369 301.117C74.7926 298.454 73.8597 294.648 71.656 292.262Z" fill="#340962"/>
<path d="M64.416 224.256C64.6469 225.245 64.814 226.248 64.9163 227.258C65.0637 228.447 65.0204 229.652 64.7878 230.827C64.6195 231.556 64.363 232.262 64.024 232.929C63.6724 233.639 63.2533 234.362 62.868 235.14C62.4374 235.939 62.1622 236.813 62.0568 237.715C61.9556 238.691 62.0358 239.676 62.2934 240.622C62.7869 242.61 63.8144 244.577 64.5512 246.781C64.9561 247.912 65.1509 249.108 65.1258 250.309C65.0926 250.931 64.9743 251.545 64.7743 252.134C64.5291 252.702 64.3191 253.285 64.1456 253.879C63.8482 255.089 64.3079 256.339 64.8216 257.515C65.0718 258.117 65.3422 258.719 65.545 259.354C65.7421 259.999 65.8557 260.667 65.883 261.342C65.8855 262.672 65.7243 263.998 65.403 265.289C65.0985 266.527 64.8727 267.782 64.727 269.048C64.6171 270.268 64.7527 271.498 65.1258 272.665C65.5224 273.79 65.7967 274.955 65.9438 276.139C65.9603 277.285 65.7937 278.426 65.4503 279.519C65.144 280.53 64.9602 281.574 64.9028 282.629C64.9355 283.611 65.1108 284.583 65.4233 285.515C65.7147 286.387 65.9584 287.274 66.1534 288.172C66.2943 289 66.3261 289.843 66.248 290.68C66.1939 291.464 66.0993 292.208 66.0114 292.897C65.8167 294.065 65.7532 295.251 65.8221 296.433C65.8833 297.18 66.1145 297.904 66.4981 298.549C66.7685 298.981 66.9578 299.177 66.9443 299.191C66.7623 299 66.5972 298.795 66.4508 298.576C66.0485 297.932 65.803 297.202 65.7342 296.446C65.6492 295.255 65.6991 294.057 65.883 292.877C65.9641 292.201 66.052 291.451 66.0993 290.666C66.1604 289.844 66.115 289.017 65.9641 288.206C65.7608 287.315 65.5126 286.435 65.2205 285.569C64.8945 284.619 64.7122 283.626 64.6797 282.622C64.7284 281.551 64.9101 280.491 65.2205 279.465C65.5523 278.398 65.712 277.284 65.6937 276.166C65.551 274.996 65.2836 273.845 64.896 272.732C64.5091 271.538 64.3688 270.278 64.4836 269.028C64.6275 267.75 64.8533 266.484 65.1596 265.235C65.4766 263.966 65.6355 262.663 65.6328 261.355C65.6106 260.704 65.5015 260.058 65.3084 259.435C65.1056 258.813 64.8487 258.218 64.6324 257.617C64.3536 257.023 64.1275 256.405 63.9564 255.771C63.8077 255.131 63.8077 254.465 63.9564 253.824C64.1333 253.222 64.3455 252.631 64.5918 252.053C64.7862 251.486 64.9022 250.895 64.9366 250.296C64.9601 249.124 64.7699 247.958 64.3755 246.855C63.6589 244.671 62.6314 242.698 62.1379 240.676C61.8844 239.702 61.8089 238.69 61.9148 237.688C62.0286 236.766 62.3152 235.874 62.7598 235.059C63.1519 234.275 63.5846 233.558 63.9293 232.855C64.2711 232.214 64.5301 231.533 64.7 230.827C64.9424 229.667 65.0017 228.476 64.8757 227.298C64.7878 226.332 64.6594 225.581 64.585 225.067C64.5445 224.824 64.5174 224.635 64.4972 224.493C64.4769 224.351 64.416 224.256 64.416 224.256Z" fill="#263238"/>
<path d="M60.164 299.847C58.9742 300.428 57.7304 298.988 57.5682 297.677C57.4059 296.365 57.7169 294.939 57.0882 293.776C56.5406 292.769 55.3982 292.214 54.7763 291.248C53.6676 289.504 54.5937 287.063 53.6609 285.211C52.9375 283.771 51.2137 282.974 50.6729 281.453C50.0983 279.823 51.1123 277.978 50.6729 276.308C50.1795 274.53 48.1717 273.483 47.7256 271.691C47.2794 269.9 48.4692 267.757 47.3267 266.283C46.8964 265.864 46.4452 265.467 45.9747 265.093C44.9945 264.093 44.9472 262.504 45.2041 261.125C45.461 259.746 45.9545 258.374 45.8125 256.981C45.5894 254.838 43.8994 253.013 43.8521 250.864C43.8116 249.065 44.9134 247.233 44.2509 245.564C45.8531 246.503 46.0423 248.734 47.1239 250.242C47.7999 251.222 48.9018 251.871 49.8279 252.689C50.7371 253.53 51.4614 254.55 51.9548 255.686C52.4482 256.822 52.7 258.048 52.6942 259.287C52.6942 260.922 52.2413 262.7 53.093 264.093C54.1205 265.783 56.5406 266.074 57.825 267.601C59.6164 269.792 58.2441 273.422 59.9612 275.666C60.4073 276.247 61.0225 276.68 61.4281 277.288C62.7801 279.316 61.2118 282.237 62.0298 284.582C62.6314 286.306 64.4431 287.428 64.9298 289.186C65.3084 290.538 64.8689 292.194 65.7951 293.242C66.2492 293.65 66.7403 294.014 67.262 294.33C67.7237 294.689 68.0768 295.17 68.2821 295.717C68.4873 296.265 68.5367 296.859 68.4247 297.433C68.2924 298.004 67.9809 298.519 67.5358 298.9C67.0908 299.282 66.5353 299.512 65.9505 299.556" fill="#340962"/>
<g opacity="0.5">
<path opacity="0.5" d="M67.1809 294.378C66.6591 294.061 66.168 293.697 65.7139 293.289C64.7878 292.228 65.2272 290.585 64.8487 289.233C64.3619 287.476 62.5503 286.354 61.9486 284.63C61.1307 282.284 62.7328 279.391 61.347 277.336C60.9414 276.727 60.3262 276.295 59.8801 275.713C58.163 273.469 59.5353 269.839 57.7439 267.649C56.4933 266.121 54.0732 265.83 53.0119 264.14C52.1601 262.748 52.5995 260.97 52.6131 259.334C52.6189 258.096 52.3671 256.869 51.8737 255.734C51.3802 254.598 50.6559 253.577 49.7468 252.736C48.8545 251.918 47.7864 251.269 47.0428 250.289C45.9612 248.782 45.7719 246.551 44.1698 245.611C44.8458 247.281 43.7304 249.113 43.771 250.911C43.8183 253.061 45.5083 254.886 45.7314 257.029C45.8733 258.421 45.3799 259.794 45.123 261.173C44.8661 262.552 44.9134 264.14 45.8936 265.141C46.3897 265.517 46.8658 265.918 47.32 266.344C48.4624 267.784 47.2659 269.94 47.7188 271.752C48.1717 273.564 50.1727 274.591 50.6662 276.369C51.1259 278.039 50.1119 279.884 50.6662 281.513C51.207 283.034 52.9308 283.832 53.6541 285.272C54.587 287.124 53.6541 289.565 54.7695 291.309C55.3914 292.275 56.5339 292.83 57.0814 293.837C57.7101 295 57.3924 296.426 57.5614 297.737C57.7304 299.049 58.9675 300.489 60.1572 299.907L65.8356 299.664C66.4204 299.62 66.9758 299.39 67.4209 299.009C67.866 298.627 68.1774 298.113 68.3098 297.541C68.4376 296.961 68.3995 296.357 68.1999 295.797C68.0002 295.238 67.6471 294.746 67.1809 294.378Z" fill="white"/>
</g>
<path d="M65.0853 294.155C64.4938 293.814 64.011 293.312 63.6927 292.708C63.4426 291.985 64.2335 290.781 63.8887 289.504C63.4426 287.854 61.3605 285.644 60.8265 284.021C60.0896 281.824 61.4281 279.364 60.2383 277.43C59.8936 276.863 59.1094 275.267 58.7309 274.726C57.2707 272.624 58.3996 270.035 56.8854 267.966C55.8241 266.527 53.2147 265.607 52.3291 264.025C51.5991 262.714 51.9033 261.044 51.8627 259.51C51.8171 257.204 50.9215 254.996 49.348 253.311C48.5255 252.626 47.7757 251.858 47.1104 251.019C46.1843 249.606 45.968 247.511 44.643 246.632C45.2311 248.2 44.3929 249.931 44.4808 251.614C44.5889 253.642 46.0085 255.345 46.2519 257.36C46.4141 258.671 46.0559 259.963 45.8936 261.254C45.7314 262.545 45.799 264.046 46.644 264.992C47.0467 265.343 47.4303 265.715 47.7932 266.107C48.7599 267.459 47.8608 269.487 48.2799 271.157C48.699 272.827 50.3552 273.821 50.8014 275.484C51.2475 277.146 50.923 279.675 51.4368 281.209C51.9168 282.636 53.5595 282.825 54.1881 284.177C54.9993 285.914 54.4518 288.862 55.4049 290.497C55.9322 291.403 56.8651 291.268 57.3383 292.215C57.8859 293.31 58.1698 295.919 58.3455 297.149C58.3932 297.724 58.5905 298.276 58.9179 298.75C59.2452 299.225 59.6912 299.605 60.2113 299.853L66.5387 299.556C68.1475 297.264 66.8496 295.162 65.0853 294.155Z" fill="#340962"/>
<path d="M47.5971 254.852C47.6224 254.886 47.645 254.922 47.6647 254.96C47.7188 255.041 47.7796 255.149 47.854 255.278C48.0095 255.562 48.2393 255.954 48.4894 256.542C48.8133 257.227 49.0233 257.96 49.1114 258.712C49.1387 259.708 49.0365 260.703 48.8072 261.673C48.7025 262.229 48.7025 262.8 48.8072 263.356C48.9261 263.954 49.1553 264.525 49.4832 265.039C50.1592 266.128 51.1529 267.101 52.0249 268.284C52.4922 268.89 52.8429 269.578 53.0592 270.312C53.1612 270.696 53.209 271.092 53.2012 271.488C53.1677 271.873 53.1542 272.259 53.1606 272.644C53.2998 273.418 53.6808 274.129 54.249 274.672C54.5126 274.983 54.7898 275.294 55.0399 275.639C55.2856 275.991 55.4855 276.372 55.6348 276.775C55.8936 277.575 56.0525 278.403 56.108 279.242C56.167 280.039 56.2731 280.831 56.4257 281.615C56.5974 282.361 56.9144 283.066 57.3586 283.69C57.815 284.291 58.2049 284.939 58.5213 285.624C58.7507 286.308 58.8716 287.024 58.8796 287.746C58.8875 288.406 58.9784 289.063 59.15 289.7C59.542 290.903 60.4411 291.782 60.9616 292.769C61.3889 293.675 61.6717 294.642 61.7999 295.635C61.9059 296.37 62.0941 297.091 62.361 297.785C62.5351 298.218 62.8056 298.607 63.1519 298.92C63.402 299.13 63.5507 299.218 63.5372 299.225C63.3888 299.151 63.2484 299.063 63.1181 298.961C62.7488 298.655 62.4569 298.266 62.2663 297.825C61.9859 297.128 61.7819 296.403 61.6579 295.662C61.5314 294.686 61.2555 293.735 60.84 292.843C60.333 291.89 59.4204 291.025 58.9877 289.747C58.5551 288.47 58.8525 287.043 58.3117 285.691C57.9982 285.026 57.6153 284.396 57.1693 283.812C56.7053 283.167 56.3744 282.436 56.1958 281.662C55.824 280.094 55.966 278.404 55.4049 276.849C55.2643 276.468 55.0757 276.107 54.8438 275.774C54.6072 275.443 54.3368 275.139 54.0732 274.828C53.4688 274.245 53.0662 273.485 52.924 272.658C52.9167 272.261 52.9302 271.864 52.9646 271.468C52.9782 271.109 52.9441 270.75 52.8632 270.4C52.6531 269.698 52.3163 269.041 51.8694 268.46C51.0244 267.297 50.0307 266.31 49.3412 265.195C48.9975 264.657 48.7546 264.062 48.6246 263.437C48.5157 262.859 48.5157 262.265 48.6246 261.686C48.8662 260.732 48.9821 259.75 48.9694 258.766C48.8915 258.027 48.6999 257.304 48.4016 256.623C48.165 256.062 47.9486 255.636 47.8067 255.346L47.6444 255.014C47.6106 254.899 47.5904 254.852 47.5971 254.852Z" fill="#263238"/>
<path d="M51.1056 294.844L53.5662 299.847H83.5468L86.9336 294.844H51.1056Z" fill="#455A64"/>
<path d="M54.2828 298.123L58.7714 313.617L78.9703 313.63L83.0331 298.15L54.2828 298.123Z" fill="#455A64"/>
<path d="M83.4184 299.806C83.4184 299.88 76.726 299.934 68.472 299.934C60.218 299.934 53.5324 299.88 53.5324 299.806C53.5324 299.732 60.2248 299.678 68.472 299.678C76.7192 299.678 83.4184 299.738 83.4184 299.806Z" fill="#263238"/>
<path d="M243.968 32.3128H78.9365V120.267H243.968V32.3128Z" fill="#FAFAFA"/>
<path d="M243.975 120.267C243.975 119.206 243.921 86.4131 243.84 32.3128L243.975 32.448L78.9501 32.4886L79.1258 32.3128C79.1258 63.4088 79.1258 93.1528 79.1258 120.267L78.9568 120.105L197.622 120.186L231.746 120.227H240.845H243.191H243.995H243.211H240.859H231.8L197.716 120.274L78.9365 120.355H78.7743V120.186C78.7743 93.0514 78.7743 63.2939 78.7743 32.2317V32.0559H78.9636L243.989 32.0965H244.124V32.2317C244.036 86.4131 243.975 119.206 243.975 120.267Z" fill="#263238"/>
<path d="M169.771 46.6778C169.771 46.7792 158.056 46.8535 143.609 46.8535C129.163 46.8535 117.455 46.7792 117.455 46.6778C117.455 46.5764 129.163 46.502 143.609 46.502C158.056 46.502 169.771 46.5831 169.771 46.6778Z" fill="#263238"/>
<path d="M159.009 52.5455C159.009 52.6401 150.065 52.7212 139.033 52.7212C128.001 52.7212 119.057 52.6401 119.057 52.5455C119.057 52.4508 128.001 52.3697 139.033 52.3697C150.065 52.3697 159.009 52.4441 159.009 52.5455Z" fill="#E0E0E0"/>
<path d="M178.329 91.5236C178.329 90.8476 177.734 90.4217 176.842 90.4217C176.445 90.407 176.051 90.4928 175.696 90.6713C175.342 90.8498 175.038 91.1151 174.814 91.4425L173.144 90.4623C173.58 89.8429 174.169 89.3468 174.854 89.0223C175.539 88.6977 176.295 88.5557 177.051 88.6101C179.127 88.6101 180.56 89.5362 180.56 91.1653C180.56 93.3759 178.241 93.626 178.241 95.0861H176.152C176.172 93.1528 178.329 92.7269 178.329 91.5236ZM175.902 97.2967C175.964 96.991 176.13 96.7163 176.371 96.5189C176.613 96.3215 176.915 96.2137 177.227 96.2137C177.539 96.2137 177.841 96.3215 178.083 96.5189C178.324 96.7163 178.49 96.991 178.552 97.2967C178.49 97.6023 178.324 97.8771 178.083 98.0744C177.841 98.2718 177.539 98.3796 177.227 98.3796C176.915 98.3796 176.613 98.2718 176.371 98.0744C176.13 97.8771 175.964 97.6023 175.902 97.2967Z" fill="#263238"/>
<path d="M103.374 76.8544C103.374 77.5304 103.969 77.963 104.861 77.963C105.259 77.9771 105.653 77.8902 106.008 77.7105C106.362 77.5308 106.666 77.2642 106.889 76.9355L108.559 77.9157C108.122 78.5342 107.532 79.0295 106.848 79.3539C106.164 79.6784 105.407 79.821 104.652 79.768C102.576 79.768 101.143 78.8418 101.143 77.2127C101.143 75.0022 103.462 74.752 103.462 73.2919H105.544C105.524 75.2252 103.374 75.6511 103.374 76.8544ZM105.801 71.0814C105.739 71.387 105.573 71.6618 105.331 71.8591C105.09 72.0565 104.788 72.1643 104.476 72.1643C104.164 72.1643 103.862 72.0565 103.62 71.8591C103.379 71.6618 103.213 71.387 103.151 71.0814C103.213 70.7757 103.379 70.501 103.62 70.3036C103.862 70.1062 104.164 69.9984 104.476 69.9984C104.788 69.9984 105.09 70.1062 105.331 70.3036C105.573 70.501 105.739 70.7757 105.801 71.0814Z" fill="#263238"/>
<path d="M224.547 76.2934C224.547 76.388 199.292 76.4691 168.141 76.4691C136.991 76.4691 111.729 76.388 111.729 76.2934C111.729 76.1987 136.978 76.1176 168.141 76.1176C199.305 76.1176 224.547 76.192 224.547 76.2934Z" fill="#263238"/>
<path d="M224.547 84.6419C224.547 84.7433 196.831 84.8177 162.7 84.8177C128.569 84.8177 100.839 84.7433 100.839 84.6419C100.839 84.5405 128.555 84.4662 162.7 84.4662C196.845 84.4662 224.547 84.5473 224.547 84.6419Z" fill="#263238"/>
<path d="M169 94.9712C169 95.0659 153.628 95.147 134.68 95.147C115.731 95.147 100.359 95.0659 100.359 94.9712C100.359 94.8766 115.718 94.7955 134.68 94.7955C153.641 94.7955 169 94.8766 169 94.9712Z" fill="#263238"/>
<path d="M106.335 110.526V111.256H103.428V110.675L104.929 109.255C105.273 108.931 105.334 108.728 105.334 108.539C105.334 108.234 105.125 108.052 104.712 108.052C104.556 108.046 104.401 108.078 104.261 108.147C104.121 108.215 103.999 108.317 103.908 108.444L103.232 108.025C103.409 107.786 103.643 107.595 103.912 107.469C104.18 107.343 104.477 107.285 104.773 107.301C105.645 107.301 106.22 107.741 106.22 108.451C106.212 108.695 106.147 108.933 106.029 109.147C105.912 109.361 105.746 109.544 105.544 109.681L104.652 110.526H106.335Z" fill="#340962"/>
<path d="M112.344 110.425H110.533L110.188 111.256H109.269L110.999 107.362H111.892L113.629 111.256H112.689L112.344 110.425ZM112.061 109.749L111.439 108.255L110.823 109.749H112.061Z" fill="#340962"/>
<path d="M117.036 109.546V111.256H116.171V109.681C116.171 109.194 115.948 108.971 115.562 108.971C115.177 108.971 114.846 109.228 114.846 109.776V111.256H113.98V108.268H114.805V108.62C114.935 108.489 115.09 108.386 115.261 108.318C115.432 108.249 115.615 108.216 115.799 108.221C115.972 108.21 116.145 108.238 116.305 108.303C116.466 108.367 116.611 108.466 116.729 108.592C116.847 108.719 116.936 108.87 116.989 109.035C117.042 109.2 117.058 109.374 117.036 109.546Z" fill="#340962"/>
<path d="M117.536 110.979L117.827 110.357C118.139 110.545 118.496 110.645 118.861 110.648C119.26 110.648 119.415 110.539 119.415 110.37C119.415 109.884 117.604 110.37 117.604 109.187C117.604 108.62 118.117 108.221 118.99 108.221C119.389 108.212 119.783 108.303 120.139 108.484L119.855 109.1C119.591 108.95 119.293 108.873 118.99 108.877C118.604 108.877 118.435 108.998 118.435 109.154C118.435 109.667 120.24 109.154 120.24 110.35C120.24 110.905 119.726 111.303 118.827 111.303C118.376 111.31 117.931 111.198 117.536 110.979Z" fill="#340962"/>
<path d="M125.526 108.268L124.445 111.256H123.607L122.931 109.397L122.255 111.256H121.416L120.328 108.268H121.146L121.822 110.296L122.559 108.268H123.289L124.005 110.296L124.729 108.268H125.526Z" fill="#340962"/>
<path d="M128.765 110.005H126.5C126.547 110.192 126.66 110.355 126.818 110.465C126.975 110.576 127.167 110.626 127.358 110.607C127.497 110.613 127.635 110.591 127.764 110.541C127.893 110.49 128.011 110.414 128.109 110.316L128.568 110.817C128.334 111.042 128.042 111.197 127.725 111.265C127.407 111.332 127.077 111.31 126.771 111.201C126.466 111.091 126.197 110.898 125.995 110.644C125.793 110.39 125.666 110.085 125.628 109.762C125.626 109.555 125.666 109.349 125.746 109.157C125.826 108.966 125.945 108.793 126.094 108.648C126.243 108.504 126.42 108.392 126.615 108.318C126.809 108.245 127.016 108.212 127.223 108.221C127.431 108.21 127.638 108.243 127.832 108.317C128.025 108.392 128.201 108.506 128.349 108.652C128.496 108.799 128.61 108.974 128.686 109.168C128.761 109.361 128.795 109.568 128.785 109.776C128.785 109.836 128.771 109.931 128.765 110.005ZM126.493 109.498H127.967C127.934 109.327 127.842 109.173 127.708 109.062C127.573 108.951 127.404 108.89 127.23 108.89C127.056 108.89 126.887 108.951 126.752 109.062C126.618 109.173 126.526 109.327 126.493 109.498Z" fill="#340962"/>
<path d="M131.218 108.221V109.025H131.022C130.913 109.016 130.802 109.032 130.699 109.071C130.597 109.11 130.504 109.172 130.428 109.252C130.352 109.332 130.295 109.427 130.261 109.532C130.227 109.637 130.217 109.748 130.231 109.857V111.27H129.359V108.282H130.191V108.674C130.312 108.52 130.469 108.399 130.649 108.32C130.828 108.241 131.023 108.207 131.218 108.221Z" fill="#340962"/>
<path d="M108.254 56.7393C112.468 52.5259 112.468 45.6948 108.254 41.4814C104.041 37.2681 97.2099 37.2681 92.9965 41.4814C88.7832 45.6948 88.7832 52.5259 92.9965 56.7393C97.2099 60.9527 104.041 60.9526 108.254 56.7393Z" fill="#263238"/>
<path d="M104.469 47.8878C104.469 48.6486 104.243 49.3922 103.821 50.0248C103.398 50.6573 102.797 51.1503 102.095 51.4415C101.392 51.7326 100.618 51.8088 99.8722 51.6604C99.126 51.5119 98.4407 51.1456 97.9027 50.6077C97.3648 50.0697 96.9984 49.3844 96.85 48.6382C96.7016 47.8921 96.7778 47.1187 97.0689 46.4159C97.36 45.713 97.8531 45.1123 98.4856 44.6896C99.1181 44.267 99.8618 44.0414 100.623 44.0414C101.643 44.0414 102.621 44.4466 103.342 45.168C104.064 45.8893 104.469 46.8677 104.469 47.8878Z" fill="#FAFAFA"/>
<path d="M94.7887 57.0409C94.7887 57.0409 96.7221 53.2079 100.643 53.2079C104.564 53.2079 106.727 56.8516 106.727 56.8516C105.058 58.3423 102.88 59.1359 100.643 59.0689C96.7423 59.0351 94.7887 57.0409 94.7887 57.0409Z" fill="#FAFAFA"/>
<path d="M314.793 313.4C314.793 313.502 249.816 313.576 169.683 313.576C89.5497 313.576 24.5591 313.502 24.5591 313.4C24.5591 313.299 89.5227 313.225 169.683 313.225C249.843 313.225 314.793 313.306 314.793 313.4Z" fill="#263238"/>
<path d="M194.316 137.356C194.316 137.356 191.477 152.465 191.862 153.425C192.248 154.385 196.554 158.549 198.095 158.157C198.512 157.918 198.889 157.615 199.21 157.258L205.139 155.23L202.192 129.609L197.46 139.351L194.316 137.356Z" fill="#455A64"/>
<path d="M199.211 157.251C199.15 157.251 199.474 156.257 199.623 154.615C199.801 152.474 199.767 150.32 199.521 148.186C199.298 146.049 198.893 143.934 198.311 141.865C197.865 140.277 197.412 139.351 197.466 139.324C197.613 139.517 197.733 139.728 197.825 139.952C198.105 140.549 198.347 141.163 198.548 141.791C199.214 143.858 199.667 145.987 199.9 148.145C200.156 150.303 200.156 152.484 199.9 154.642C199.822 155.296 199.689 155.943 199.501 156.575C199.432 156.811 199.335 157.038 199.211 157.251Z" fill="#263238"/>
<path d="M226.386 94.3358C227.5 93.0125 228.461 91.5681 229.252 90.0297C230.039 88.4705 230.277 86.6913 229.928 84.98C229.691 83.9998 229.191 83.0804 229.042 82.0799C228.846 80.7279 229.32 79.2069 228.725 77.9428C227.792 75.9689 225.027 75.854 223.256 74.5628C221.904 73.5691 221.106 71.8588 219.605 71.0206C218.301 70.3446 216.699 70.446 215.252 70.7569C213.805 71.0679 212.345 71.5411 210.865 71.4329C209.814 71.2921 208.771 71.0935 207.742 70.8381C206.699 70.5872 205.599 70.7418 204.666 71.2707C203.794 71.8656 203.381 73.1973 204.051 74.022C202.286 73.346 200.224 74.84 199.9 76.6787C199.576 78.5174 200.657 80.4102 202.192 81.4986C203.792 82.5113 205.622 83.1042 207.512 83.2224C212.805 83.824 218.422 82.8641 222.701 79.7275" fill="#340962"/>
<path d="M226.494 87.6299L225.142 113.994C225.086 115.058 224.815 116.1 224.343 117.055C223.871 118.011 223.209 118.86 222.398 119.551C221.587 120.242 220.643 120.76 219.625 121.074C218.607 121.388 217.535 121.49 216.476 121.376C212.284 120.943 209.04 120.308 209.263 116.117C209.364 114.136 209.56 109.471 209.553 109.269C209.553 109.269 202.841 108.268 202.685 101.596C202.611 98.3715 203.01 91.7129 203.429 85.7033C203.657 82.5851 205.055 79.6684 207.343 77.5373C209.631 75.4063 212.639 74.2183 215.766 74.2113H216.442C223.411 74.5899 227.028 80.6941 226.494 87.6299Z" fill="#FFD5BD"/>
<path d="M209.56 109.194C212.652 109.235 215.687 108.358 218.28 106.673C218.28 106.673 216.252 111.486 209.567 110.925L209.56 109.194Z" fill="#FFB294"/>
<path d="M205.004 91.4628C205.004 91.7121 205.101 91.9516 205.276 92.1297C205.45 92.3079 205.687 92.4107 205.937 92.416C206.058 92.4261 206.18 92.4115 206.296 92.373C206.411 92.3345 206.518 92.2729 206.609 92.192C206.7 92.1111 206.774 92.0125 206.825 91.9023C206.877 91.792 206.906 91.6724 206.91 91.5507C206.908 91.303 206.811 91.0656 206.639 90.8879C206.466 90.7103 206.231 90.6063 205.984 90.5975C205.862 90.5874 205.74 90.602 205.624 90.6404C205.508 90.6789 205.401 90.7403 205.309 90.8212C205.218 90.902 205.144 91.0005 205.091 91.1108C205.038 91.221 205.009 91.3408 205.004 91.4628Z" fill="#263238"/>
<path d="M204.923 88.9887C205.044 89.1104 205.768 88.5763 206.795 88.5696C207.823 88.5628 208.587 89.0766 208.695 88.9481C208.803 88.8197 208.627 88.671 208.296 88.4344C207.849 88.1276 207.317 87.967 206.775 87.9747C206.24 87.977 205.72 88.1472 205.288 88.4614C204.97 88.7115 204.869 88.9346 204.923 88.9887Z" fill="#263238"/>
<path d="M214.738 91.9698C214.742 92.2193 214.841 92.4577 215.016 92.6353C215.191 92.813 215.428 92.9161 215.678 92.923C215.799 92.9322 215.921 92.9169 216.036 92.878C216.151 92.8391 216.257 92.7775 216.348 92.6968C216.439 92.616 216.512 92.5179 216.565 92.4081C216.617 92.2983 216.646 92.1791 216.651 92.0577C216.651 91.8084 216.554 91.569 216.379 91.3908C216.205 91.2126 215.968 91.1099 215.718 91.1046C215.597 91.0944 215.474 91.109 215.358 91.1474C215.242 91.1859 215.135 91.2474 215.044 91.3282C214.952 91.409 214.878 91.5075 214.825 91.6178C214.773 91.7281 214.743 91.8478 214.738 91.9698Z" fill="#263238"/>
<path d="M215.056 89.1239C215.178 89.2456 215.894 88.7115 216.922 88.7048C217.949 88.698 218.713 89.2118 218.828 89.0833C218.943 88.9549 218.76 88.8062 218.422 88.5696C217.975 88.2628 217.444 88.1022 216.901 88.1099C216.367 88.1135 215.847 88.2836 215.414 88.5966C215.103 88.8467 214.968 89.0698 215.056 89.1239Z" fill="#263238"/>
<path d="M211.392 96.7492C210.847 96.5865 210.284 96.4889 209.716 96.4585C209.452 96.4585 209.202 96.3841 209.161 96.2084C209.133 95.9387 209.19 95.6669 209.323 95.431C209.567 94.7955 209.817 94.1263 210.081 93.403C211.135 90.557 211.892 88.218 211.777 88.1775C211.662 88.1369 210.716 90.4083 209.661 93.2542C209.411 93.9302 209.168 94.6062 208.938 95.2822C208.776 95.5993 208.733 95.9637 208.816 96.3098C208.856 96.402 208.915 96.4845 208.989 96.5511C209.064 96.6178 209.153 96.6669 209.249 96.6951C209.395 96.7307 209.545 96.7488 209.695 96.7492C210.258 96.8248 210.829 96.8248 211.392 96.7492Z" fill="#263238"/>
<path d="M214.434 97.4454C214.265 97.4454 214.272 98.5473 213.325 99.345C212.379 100.143 211.182 100.021 211.176 100.183C211.169 100.345 211.446 100.393 211.946 100.406C212.602 100.412 213.238 100.187 213.744 99.7709C214.225 99.3701 214.531 98.7978 214.596 98.1755C214.637 97.7158 214.508 97.4387 214.434 97.4454Z" fill="#263238"/>
<path d="M214.745 85.1084C214.853 85.3856 215.881 85.2436 217.091 85.3856C218.301 85.5275 219.281 85.8453 219.436 85.5951C219.511 85.4735 219.335 85.2166 218.936 84.9191C218.412 84.5827 217.813 84.3786 217.192 84.3243C216.575 84.2524 215.949 84.3288 215.367 84.5473C214.921 84.7569 214.704 84.9732 214.745 85.1084Z" fill="#340962"/>
<path d="M205.274 86.021C205.457 86.2509 206.167 86.021 207.018 86.021C207.87 86.021 208.593 86.1697 208.762 85.9264C208.83 85.8047 208.715 85.5749 208.397 85.3585C207.972 85.094 207.477 84.9624 206.976 84.9805C206.475 84.9985 205.991 85.1655 205.585 85.4599C205.288 85.6627 205.193 85.9061 205.274 86.021Z" fill="#340962"/>
<path d="M226 92.5715C226.115 92.5242 230.59 91.2195 230.496 95.7554C230.401 100.291 225.811 99.2571 225.804 99.1354C225.798 99.0137 226 92.5715 226 92.5715Z" fill="#FFD5BD"/>
<path d="M227.244 97.4319C227.244 97.4319 227.325 97.4927 227.454 97.5536C227.642 97.6431 227.858 97.6552 228.055 97.5874C228.355 97.4075 228.601 97.1511 228.768 96.8446C228.936 96.538 229.019 96.1924 229.009 95.8433C229.028 95.4521 228.958 95.0616 228.806 94.7008C228.766 94.556 228.692 94.423 228.59 94.3134C228.487 94.2038 228.36 94.121 228.218 94.0722C228.127 94.0465 228.03 94.0534 227.943 94.0917C227.857 94.1299 227.787 94.1971 227.744 94.2817C227.677 94.4034 227.704 94.498 227.684 94.5048C227.663 94.5116 227.582 94.4237 227.623 94.2344C227.656 94.1267 227.722 94.0322 227.812 93.964C227.941 93.8717 228.101 93.833 228.258 93.8558C228.445 93.898 228.619 93.9872 228.762 94.1149C228.905 94.2427 229.013 94.4048 229.076 94.5859C229.262 94.9851 229.348 95.4237 229.326 95.8636C229.339 96.2712 229.231 96.6735 229.016 97.0199C228.8 97.3663 228.487 97.6414 228.116 97.8104C227.992 97.8411 227.862 97.8443 227.736 97.8198C227.609 97.7953 227.49 97.7437 227.386 97.6685C227.251 97.5468 227.231 97.4387 227.244 97.4319Z" fill="#FFB294"/>
<path d="M203.307 79.5044C203.76 81.289 207.559 82.6748 210.601 82.3639C213.4 82.0799 214.657 80.5928 216.644 79.4638C217.888 78.7473 217.888 78.7473 219.659 78.9028C221.099 79.0312 221.958 80.6401 222.85 81.7758C221.586 85.1558 222.499 88.9549 223.418 92.4701C223.476 92.8699 223.667 93.2387 223.959 93.5179C224.506 93.9302 225.311 93.6057 225.784 93.1055C226.469 92.2508 226.89 91.2147 226.994 90.1244C227.447 87.6735 227.406 85.1568 226.872 82.7222C226.329 80.2748 225.081 78.0401 223.283 76.2934C220.94 74.1781 217.873 73.0452 214.718 73.1297C211.584 73.2436 208.564 74.3384 206.085 76.2596C204.905 77.0943 203.95 78.2093 203.307 79.5044Z" fill="#340962"/>
<path d="M210.317 91.936C210.277 91.936 210.364 91.5507 210.317 90.8747C210.232 89.9114 209.83 89.0034 209.175 88.2924C208.699 87.768 208.1 87.3699 207.432 87.134C206.764 86.898 206.048 86.8315 205.349 86.9404C204.501 87.0779 203.717 87.4717 203.1 88.0688C202.484 88.6659 202.065 89.4375 201.901 90.2798C201.745 91.1258 201.851 91.9991 202.205 92.7831C202.559 93.5671 203.144 94.2243 203.882 94.667C204.488 95.0336 205.177 95.2435 205.885 95.2778C206.593 95.312 207.298 95.1695 207.938 94.8631C208.814 94.4519 209.528 93.7595 209.966 92.8959C210.27 92.2808 210.324 91.8954 210.364 91.9022C210.37 91.9981 210.359 92.0942 210.331 92.1861C210.285 92.45 210.206 92.7068 210.094 92.95C209.692 93.8812 208.974 94.6402 208.066 95.0929C207.311 95.4727 206.465 95.6339 205.623 95.5583C204.781 95.4828 203.977 95.1734 203.301 94.6652C202.626 94.157 202.106 93.4702 201.8 92.6822C201.494 91.8941 201.414 91.0363 201.57 90.2054C201.749 89.2926 202.205 88.4572 202.876 87.8135C203.548 87.1698 204.402 86.7491 205.322 86.6091C206.067 86.5 206.829 86.5782 207.537 86.8367C208.245 87.0951 208.877 87.5257 209.378 88.0896C210.039 88.8399 210.423 89.7943 210.466 90.7936C210.477 91.0632 210.456 91.3331 210.405 91.598C210.358 91.8481 210.331 91.936 210.317 91.936Z" fill="#263238"/>
<path d="M221.208 92.1388C221.167 92.1388 221.255 91.7535 221.208 91.0775C221.123 90.116 220.721 89.2098 220.065 88.502C219.589 87.9776 218.99 87.5795 218.323 87.3436C217.655 87.1076 216.939 87.0411 216.239 87.15C215.42 87.2789 214.66 87.6511 214.055 88.218C213.581 88.6619 213.217 89.2098 212.991 89.8186C212.765 90.4274 212.683 91.0804 212.753 91.7261C212.822 92.3718 213.041 92.9925 213.391 93.5392C213.742 94.086 214.214 94.5438 214.772 94.8766C215.379 95.2421 216.068 95.4513 216.775 95.4855C217.483 95.5197 218.188 95.3779 218.828 95.0727C219.704 94.6607 220.418 93.9685 220.856 93.1055C221.16 92.4904 221.214 92.105 221.255 92.1118C221.27 92.2058 221.27 92.3017 221.255 92.3957C221.204 92.6591 221.123 92.9155 221.012 93.1596C220.609 94.0908 219.891 94.8498 218.984 95.3025C218.229 95.6817 217.383 95.8427 216.542 95.7673C215.701 95.6919 214.898 95.3832 214.222 94.876C213.547 94.3687 213.027 93.6829 212.72 92.896C212.414 92.1091 212.333 91.2522 212.487 90.4218C212.664 89.5073 213.119 88.6699 213.791 88.0247C214.463 87.3795 215.318 86.9582 216.239 86.8187C216.985 86.7096 217.746 86.7878 218.454 87.0463C219.162 87.3047 219.795 87.7353 220.295 88.2992C220.963 89.0584 221.348 90.026 221.383 91.037C221.394 91.3066 221.374 91.5765 221.322 91.8414C221.248 92.051 221.221 92.1456 221.208 92.1388Z" fill="#263238"/>
<path d="M212.494 90.584C212.433 90.6651 211.919 90.2933 211.223 90.3677C210.527 90.442 210.101 90.9017 210.02 90.8341C209.939 90.7665 210.02 90.6449 210.229 90.4488C210.487 90.1977 210.824 90.0426 211.182 90.0094C211.543 89.9682 211.906 90.0543 212.21 90.2528C212.44 90.4285 212.528 90.584 212.494 90.584Z" fill="#263238"/>
<path d="M227.393 92.1591C226.315 92.1221 225.245 91.9633 224.202 91.6859C223.137 91.521 222.092 91.2422 221.086 90.8544C222.164 90.8915 223.234 91.0502 224.277 91.3276C225.342 91.4913 226.387 91.7701 227.393 92.1591Z" fill="#263238"/>
<path d="M202.036 74.8873C202.013 75.0306 202.013 75.1767 202.036 75.32C202.092 75.7195 202.261 76.0948 202.523 76.4016C202.909 76.86 203.421 77.194 203.997 77.3615C204.695 77.5515 205.415 77.6515 206.14 77.6589C207.443 77.7256 208.75 77.7256 210.054 77.6589L211.237 77.5643L211.554 77.5237H211.669C211.669 77.5237 211.629 77.5237 211.554 77.5237H211.23L210.047 77.5846C209.053 77.6319 207.667 77.6522 206.14 77.5846C205.425 77.5785 204.714 77.4832 204.024 77.3006C203.465 77.1431 202.965 76.8259 202.584 76.388C202.322 76.0941 202.147 75.734 202.077 75.347C202.023 75.036 202.05 74.8873 202.036 74.8873Z" fill="white"/>
<path d="M200.86 75.712C200.843 76.1453 200.893 76.5785 201.009 76.9964C201.272 78.023 201.836 78.9475 202.629 79.651C203.421 80.3545 204.406 80.8049 205.457 80.9443C205.884 81.0132 206.32 81.0132 206.748 80.9443C206.748 80.9443 206.626 80.9443 206.403 80.9443C206.089 80.9436 205.774 80.9187 205.464 80.8699C204.436 80.7105 203.477 80.2585 202.7 79.5679C201.923 78.8773 201.362 77.9775 201.083 76.9762C200.995 76.6757 200.934 76.3681 200.901 76.0568C200.874 75.8202 200.867 75.712 200.86 75.712Z" fill="white"/>
<path d="M222.336 287.212L229.989 299.529C229.989 299.529 220.038 311.447 221.201 313.86L245.618 299.88L234.484 280.195L222.336 287.212Z" fill="#340962"/>
<path d="M236.931 294.148C237.209 294.084 237.5 294.124 237.75 294.261C237.999 294.398 238.189 294.623 238.283 294.892C238.36 295.168 238.327 295.462 238.19 295.715C238.054 295.967 237.826 296.156 237.553 296.244C237.261 296.308 236.955 296.262 236.694 296.115C236.434 295.967 236.237 295.729 236.14 295.446C236.093 295.153 236.16 294.854 236.329 294.61C236.499 294.367 236.756 294.199 237.046 294.141" fill="#E0E0E0"/>
<path d="M245.645 299.88L244.448 297.94L221.464 312.069C221.464 312.069 220.646 313.164 221.208 313.86L245.645 299.88Z" fill="white"/>
<path d="M229.522 299.63C229.59 299.752 230.198 299.461 231.03 299.509C231.861 299.556 232.429 299.88 232.517 299.772C232.605 299.664 232.024 299.096 231.05 299.035C230.077 298.975 229.434 299.536 229.522 299.63Z" fill="#263238"/>
<path d="M227.569 302.172C227.602 302.3 228.245 302.213 228.921 302.483C229.597 302.753 230.036 303.22 230.151 303.159C230.266 303.098 229.955 302.368 229.083 302.044C228.211 301.719 227.501 302.044 227.569 302.172Z" fill="#263238"/>
<path d="M227.866 306.059C227.988 306.018 227.812 305.329 227.136 304.849C226.46 304.369 225.75 304.437 225.784 304.565C225.818 304.694 226.332 304.842 226.886 305.241C227.44 305.64 227.745 306.113 227.866 306.059Z" fill="#263238"/>
<path d="M228.089 296.636C228.197 296.71 228.65 296.237 229.353 295.892C230.056 295.547 230.705 295.466 230.705 295.331C230.705 295.196 229.962 295.054 229.137 295.466C228.312 295.878 227.974 296.575 228.089 296.636Z" fill="#263238"/>
<path d="M236.931 294.148C237.209 294.084 237.5 294.124 237.75 294.261C237.999 294.398 238.189 294.623 238.283 294.892C238.36 295.168 238.327 295.462 238.19 295.715C238.054 295.967 237.826 296.156 237.553 296.244C237.261 296.308 236.955 296.262 236.694 296.115C236.434 295.967 236.237 295.729 236.14 295.446C236.093 295.153 236.16 294.854 236.329 294.61C236.499 294.367 236.756 294.199 237.046 294.141" fill="#E0E0E0"/>
<path d="M245.645 299.88L244.448 297.94L221.464 312.069C221.464 312.069 220.646 313.164 221.208 313.86L245.645 299.88Z" fill="white"/>
<path d="M229.522 299.63C229.59 299.752 230.198 299.461 231.03 299.509C231.861 299.556 232.429 299.88 232.517 299.772C232.605 299.664 232.024 299.096 231.05 299.035C230.077 298.975 229.434 299.536 229.522 299.63Z" fill="#263238"/>
<path d="M227.569 302.172C227.602 302.3 228.245 302.213 228.921 302.483C229.597 302.753 230.036 303.22 230.151 303.159C230.266 303.098 229.955 302.368 229.083 302.044C228.211 301.719 227.501 302.044 227.569 302.172Z" fill="#263238"/>
<path d="M227.866 306.059C227.988 306.018 227.812 305.329 227.136 304.849C226.46 304.369 225.75 304.437 225.784 304.565C225.818 304.694 226.332 304.842 226.886 305.241C227.44 305.64 227.745 306.113 227.866 306.059Z" fill="#263238"/>
<path d="M228.089 296.636C228.197 296.71 228.65 296.237 229.353 295.892C230.056 295.547 230.705 295.466 230.705 295.331C230.705 295.196 229.962 295.054 229.137 295.466C228.312 295.878 227.974 296.575 228.089 296.636Z" fill="#263238"/>
<path d="M221.14 291.119L221.965 305.599C221.965 305.599 207.525 311.305 207.417 313.995L235.545 313.4L235.187 290.788L221.14 291.119Z" fill="#340962"/>
<path d="M230.638 304.2C230.91 304.276 231.145 304.45 231.297 304.688C231.449 304.926 231.508 305.212 231.463 305.491C231.396 305.767 231.227 306.006 230.989 306.159C230.751 306.313 230.463 306.369 230.185 306.316C229.9 306.235 229.655 306.053 229.496 305.804C229.336 305.555 229.274 305.256 229.32 304.964C229.42 304.684 229.624 304.454 229.89 304.322C230.156 304.189 230.463 304.165 230.746 304.254" fill="#E0E0E0"/>
<path d="M235.546 313.4L235.424 311.122L208.499 312.542C208.499 312.542 207.255 313.117 207.417 313.995L235.546 313.4Z" fill="white"/>
<path d="M221.505 305.464C221.505 305.606 222.181 305.653 222.857 306.079C223.533 306.505 223.918 307.08 224.04 307.019C224.162 306.958 223.945 306.174 223.107 305.667C222.269 305.16 221.471 305.342 221.505 305.464Z" fill="#263238"/>
<path d="M218.578 306.749C218.578 306.884 219.152 307.107 219.632 307.675C220.112 308.243 220.254 308.858 220.396 308.851C220.538 308.844 220.599 308.06 219.991 307.364C219.382 306.667 218.585 306.62 218.578 306.749Z" fill="#263238"/>
<path d="M216.996 310.318C217.118 310.318 217.294 309.642 216.928 308.905C216.563 308.168 215.908 307.878 215.854 307.992C215.8 308.107 216.205 308.499 216.496 309.121C216.787 309.743 216.841 310.284 216.996 310.318Z" fill="#263238"/>
<path d="M221.687 302.172C221.742 302.3 222.363 302.098 223.148 302.131C223.932 302.165 224.5 302.402 224.608 302.28C224.716 302.158 224.081 301.685 223.168 301.651C222.255 301.618 221.613 302.037 221.687 302.172Z" fill="#263238"/>
<path d="M230.638 304.2C230.91 304.276 231.145 304.45 231.297 304.688C231.449 304.926 231.508 305.212 231.463 305.491C231.396 305.767 231.227 306.006 230.989 306.159C230.751 306.313 230.463 306.369 230.185 306.316C229.9 306.235 229.655 306.053 229.496 305.804C229.336 305.555 229.274 305.256 229.32 304.964C229.42 304.684 229.624 304.454 229.89 304.322C230.156 304.189 230.463 304.165 230.746 304.254" fill="#E0E0E0"/>
<path d="M235.546 313.4L235.424 311.122L208.499 312.542C208.499 312.542 207.255 313.117 207.417 313.995L235.546 313.4Z" fill="white"/>
<path d="M221.505 305.464C221.505 305.606 222.181 305.653 222.857 306.079C223.533 306.505 223.918 307.08 224.04 307.019C224.162 306.958 223.945 306.174 223.107 305.667C222.269 305.16 221.471 305.342 221.505 305.464Z" fill="#263238"/>
<path d="M218.578 306.749C218.578 306.884 219.152 307.107 219.632 307.675C220.112 308.243 220.254 308.858 220.396 308.851C220.538 308.844 220.599 308.06 219.991 307.364C219.382 306.667 218.585 306.62 218.578 306.749Z" fill="#263238"/>
<path d="M216.996 310.318C217.118 310.318 217.294 309.642 216.928 308.905C216.563 308.168 215.908 307.878 215.854 307.992C215.8 308.107 216.205 308.499 216.496 309.121C216.787 309.743 216.841 310.284 216.996 310.318Z" fill="#263238"/>
<path d="M221.687 302.172C221.742 302.3 222.363 302.098 223.148 302.131C223.932 302.165 224.5 302.402 224.608 302.28C224.716 302.158 224.081 301.685 223.168 301.651C222.255 301.618 221.613 302.037 221.687 302.172Z" fill="#263238"/>
<path d="M233.065 198.21C233.065 198.21 234.809 206.16 234.038 207.322C233.212 208.885 232.498 210.505 231.902 212.169L233.071 248.031L236.553 300.759H219.802L212.616 254.257C211.152 251.75 209.982 249.082 209.127 246.307C208.154 242.63 202.435 205.984 202.435 205.984V191.856L233.065 198.21Z" fill="#263238"/>
<path d="M194.85 192.816C194.85 192.816 198.345 240.866 199.508 245.131C200.671 249.397 224.52 293.012 224.52 293.012L238.858 285.948L219.802 239.899V195.465L194.85 192.816Z" fill="#263238"/>
<path d="M200.583 196.953C200.577 197.043 200.577 197.133 200.583 197.223C200.583 197.419 200.65 197.683 200.691 198.021C200.799 198.737 200.955 199.758 201.157 201.069C201.57 203.733 202.171 207.552 202.908 212.271C203.645 216.989 204.564 222.634 205.558 228.88C206.065 232.01 206.572 235.289 207.153 238.689C207.71 242.212 208.583 245.679 209.763 249.045C211.027 252.486 212.825 255.623 213.433 259.016C214.157 262.396 214.657 265.661 215.151 268.784C216.097 275.044 216.861 280.696 217.51 285.434C218.159 290.173 218.679 294.019 219.078 296.669C219.281 298.021 219.436 299.022 219.565 299.711C219.632 300.049 219.68 300.306 219.714 300.502C219.724 300.592 219.745 300.681 219.774 300.766C219.785 300.676 219.785 300.585 219.774 300.496C219.774 300.3 219.714 300.036 219.659 299.705C219.565 298.988 219.423 297.961 219.24 296.649C218.896 293.945 218.395 290.139 217.78 285.407C217.165 280.675 216.428 275.004 215.495 268.737C215.009 265.607 214.515 262.322 213.792 258.942C213.177 255.494 211.365 252.331 210.114 248.924C208.95 245.575 208.086 242.13 207.532 238.628C206.944 235.248 206.43 231.956 205.916 228.833C204.889 222.587 203.969 216.962 203.212 212.23C202.455 207.498 201.793 203.706 201.347 201.049L200.826 198.007C200.765 197.676 200.718 197.412 200.677 197.216C200.655 197.125 200.623 197.037 200.583 196.953Z" fill="#455A64"/>
<path d="M234.68 272.428C234.652 272.799 234.652 273.172 234.68 273.543C234.68 274.253 234.748 275.287 234.822 276.558C234.964 279.107 235.221 282.642 235.498 286.509C235.775 290.376 236.053 293.904 236.215 296.446C236.296 297.677 236.363 298.691 236.411 299.461C236.423 299.831 236.461 300.199 236.526 300.563C236.561 300.194 236.561 299.823 236.526 299.454C236.526 298.745 236.492 297.71 236.438 296.433C236.336 293.884 236.12 290.349 235.829 286.482C235.539 282.615 235.241 279.141 235.039 276.545C234.93 275.314 234.842 274.301 234.782 273.53C234.78 273.16 234.746 272.792 234.68 272.428Z" fill="#455A64"/>
<path d="M209.283 114.494L207.295 115.846C207.295 115.846 199.42 133.429 198.068 139.161C196.716 144.894 191.092 204.733 191.092 204.733L195.763 205.105V195.722L209.283 114.494Z" fill="#455A64"/>
<path d="M209.148 115.596C209.148 115.596 202.753 129.082 201.205 136.586C200.008 142.372 193.505 195.736 193.505 195.736L212.264 194.83L223.479 128.954L225.892 111.75C225.892 111.75 214.826 118.51 212.284 118.097C211.58 118.014 210.914 117.735 210.36 117.293C209.805 116.852 209.386 116.264 209.148 115.596Z" fill="#340962"/>
<path d="M239.236 121.105L227.292 111.75L226.839 108.91L212.149 117.8L205.051 204.105H235.579L232.071 168.777L238.547 130.84L239.236 121.105Z" fill="#455A64"/>
<path d="M212.19 117.658C212.234 117.939 212.306 118.216 212.406 118.483L213.116 120.686C213.192 120.925 213.274 121.169 213.359 121.416C213.417 121.719 213.566 121.997 213.785 122.214C213.946 122.296 214.13 122.325 214.308 122.295C214.487 122.266 214.652 122.181 214.779 122.052C215.022 121.856 215.265 121.66 215.522 121.464L218.814 118.834C221.14 116.962 223.215 115.224 224.682 113.926C225.419 113.25 226 112.743 226.399 112.365C226.619 112.182 226.818 111.975 226.994 111.75C226.75 111.895 226.524 112.067 226.318 112.263L224.533 113.737C223.026 114.988 220.93 116.691 218.605 118.564L215.326 121.214C214.833 121.565 214.326 122.201 213.974 121.977C213.805 121.869 213.731 121.579 213.636 121.301L213.373 120.578L212.561 118.408C212.466 118.145 212.342 117.893 212.19 117.658Z" fill="#263238"/>
<path d="M201.191 130.069C201.187 130.134 201.174 130.198 201.151 130.258L201.015 130.806C200.894 131.279 200.671 131.969 200.454 132.881C200.238 133.794 199.988 134.909 199.738 136.207C199.488 137.505 199.183 138.992 198.933 140.642C197.811 147.24 196.608 156.399 195.472 166.539C194.337 176.679 193.41 185.873 192.768 192.532C192.43 195.837 192.16 198.528 191.971 200.414C191.869 201.32 191.795 202.036 191.741 202.55C191.707 202.78 191.687 202.962 191.666 203.111C191.664 203.175 191.653 203.239 191.633 203.3C191.624 203.235 191.624 203.169 191.633 203.104L191.666 202.55C191.707 202.029 191.761 201.313 191.835 200.4C191.998 198.507 192.234 195.817 192.511 192.505C193.12 185.846 193.985 176.646 195.134 166.499C196.283 156.352 197.52 147.192 198.703 140.601C198.974 138.952 199.305 137.471 199.562 136.167C199.819 134.862 200.13 133.76 200.339 132.848C200.549 131.935 200.819 131.252 200.961 130.779C201.029 130.563 201.09 130.387 201.13 130.252C201.146 130.189 201.166 130.128 201.191 130.069Z" fill="#263238"/>
<path d="M293.501 129.113L114.011 142.987L119.714 216.762L299.204 202.888L293.501 129.113Z" fill="#FAFAFA"/>
<path d="M299.204 202.895C299.13 201.935 296.974 174.685 293.377 129.13L293.512 129.245L114.034 143.17L114.197 142.981C116.225 168.824 118.118 193.769 119.895 216.759L119.713 216.604L248.464 206.728L299.218 202.895C299.218 202.895 298.934 202.929 298.359 202.976L295.797 203.179L285.86 203.97L248.592 206.897L119.726 216.935H119.557V216.773C117.78 193.789 115.846 168.838 113.845 142.994V142.819H114.021L293.506 128.994H293.627V129.116C297.068 174.678 299.13 201.935 299.204 202.895Z" fill="#263238"/>
<path d="M149.285 163.462C149.335 157.616 144.636 152.836 138.79 152.786C132.943 152.736 128.163 157.435 128.113 163.281C128.063 169.128 132.762 173.908 138.608 173.958C144.455 174.008 149.235 169.309 149.285 163.462Z" fill="#EBEBEB"/>
<path d="M214.123 153.709C214.123 153.804 201.401 154.872 185.69 156.082C169.98 157.292 157.231 158.204 157.224 158.11C157.217 158.015 169.946 156.954 185.663 155.737C201.38 154.52 214.116 153.614 214.123 153.709Z" fill="#340962"/>
<path d="M200.664 162.686C200.664 162.781 190.957 163.612 178.958 164.538C166.959 165.465 157.224 166.141 157.217 166.039C157.211 165.938 166.932 165.113 178.931 164.187C190.93 163.261 200.657 162.585 200.664 162.686Z" fill="#E0E0E0"/>
<path d="M275.328 173.354C275.328 173.448 245.219 175.855 208.073 178.728C170.927 181.601 140.791 183.845 140.784 183.75C140.777 183.656 170.886 181.249 208.046 178.376C245.206 175.503 275.321 173.252 275.328 173.354Z" fill="#263238"/>
<path d="M276.031 182.439C276.031 182.534 245.922 184.94 208.776 187.813C171.63 190.686 141.494 192.93 141.487 192.836C141.48 192.741 171.589 190.335 208.749 187.462C245.909 184.589 276.024 182.338 276.031 182.439Z" fill="#263238"/>
<path d="M223.08 126.561C223.261 125.049 223.81 123.605 224.679 122.354C225.548 121.104 226.71 120.086 228.064 119.389C229.418 118.693 230.922 118.339 232.444 118.359C233.967 118.379 235.461 118.772 236.796 119.503C239.649 121.024 242.299 123.742 243.962 128.034C248.261 139.161 256.914 156.372 255.278 160.05C253.642 163.727 245.023 166.81 245.023 166.81L237.006 153.155L234.349 153.567L222.14 132.733C222.14 132.733 222.654 130.218 223.08 126.561Z" fill="#455A64"/>
<path d="M241.332 148.524C240.979 148.339 240.577 148.271 240.183 148.328C239.699 148.349 239.225 148.467 238.788 148.675C238.351 148.883 237.96 149.177 237.638 149.539C237.317 149.901 237.071 150.323 236.916 150.782C236.761 151.24 236.699 151.725 236.735 152.208C236.726 152.607 236.839 152.999 237.06 153.33C237.121 153.33 236.965 152.891 236.979 152.201C236.995 151.31 237.32 150.453 237.898 149.775C238.5 149.115 239.317 148.691 240.203 148.578C240.899 148.483 241.332 148.585 241.332 148.524Z" fill="#263238"/>
<path d="M223.891 127.183C223.959 127.183 224.108 126.108 224.784 124.479C225.184 123.545 225.702 122.665 226.325 121.863C227.079 120.88 228.03 120.065 229.117 119.47C230.226 118.919 231.447 118.63 232.686 118.625C233.699 118.589 234.712 118.724 235.681 119.023C236.573 119.316 237.413 119.749 238.168 120.308C238.168 120.308 238.135 120.247 238.04 120.159C237.911 120.017 237.768 119.888 237.614 119.774C237.057 119.344 236.43 119.013 235.762 118.794C234.771 118.448 233.728 118.281 232.679 118.3C231.388 118.293 230.112 118.587 228.954 119.159C227.824 119.778 226.839 120.633 226.068 121.667C225.442 122.493 224.934 123.403 224.56 124.371C224.304 125.027 224.109 125.706 223.979 126.399C223.91 126.654 223.88 126.918 223.891 127.183Z" fill="#263238"/>
<path d="M237.006 153.155L211.243 153.33L210.047 161.564C210.047 161.564 230.09 166.296 243.975 165.099L237.006 153.155Z" fill="#FFD5BD"/>
<path d="M201.583 144.718C201.583 144.718 206.498 145.151 207.221 145.293C207.944 145.435 210.898 147.753 210.898 147.753L212.291 154.385L210.047 161.564C208.512 161.311 207.024 160.828 205.632 160.131C203.604 159.049 200.576 154.425 200.576 154.425C200.576 154.425 198.629 154.5 198.48 154.209C198.332 153.918 197.804 152.553 198.48 152.181C198.48 152.181 197.973 150.302 198.697 149.802L199.636 149.653C199.636 149.653 198.771 147.273 200.434 147.273C200.434 147.246 199.636 145.009 201.583 144.718Z" fill="#FFD5BD"/>
<path d="M200.549 147.064C200.549 147.165 201.901 147.064 203.584 147.199C205.267 147.334 206.586 147.584 206.606 147.483C205.655 147.081 204.636 146.868 203.604 146.854C202.582 146.723 201.544 146.795 200.549 147.064Z" fill="#FFB294"/>
<path d="M199.278 149.619C199.278 149.673 199.576 149.66 200.049 149.68L201.887 149.788C202.763 149.882 203.647 149.862 204.517 149.727C203.663 149.518 202.786 149.421 201.908 149.437C201.286 149.399 200.663 149.399 200.042 149.437C199.555 149.477 199.271 149.579 199.278 149.619Z" fill="#FFB294"/>
<path d="M203.003 151.708C202.291 151.391 201.508 151.267 200.733 151.349C199.958 151.431 199.219 151.716 198.589 152.174C198.636 152.269 199.549 151.816 200.772 151.694C201.996 151.573 202.976 151.809 203.003 151.708Z" fill="#FFB294"/>
<path d="M180.85 136.613C180.383 135.903 179.821 135.259 179.181 134.7C178.91 134.532 178.6 134.438 178.281 134.43C177.963 134.422 177.648 134.499 177.369 134.653L176.984 134.963C176.984 134.963 175.098 134.024 174.151 134.653C174.151 134.653 172.36 133.713 171.447 134.653C171.447 134.653 170.095 133.686 169.419 134.456C169.148 134.87 168.975 135.341 168.913 135.831C168.851 136.322 168.902 136.821 169.061 137.289C169.318 137.965 169.737 140.392 170.183 140.446C170.183 140.446 171.298 140.615 171.474 140.013C171.65 139.412 171.724 139.121 171.724 139.121C171.724 139.121 172.062 141.284 172.576 141.413C173.09 141.541 174.077 141.521 174.151 140.581C174.151 140.581 174.597 141.311 175.077 141.122C175.557 140.933 176.145 140.615 176.118 140.033C176.091 139.452 176.118 138.864 176.118 138.864C176.118 138.864 176.341 139.723 176.794 139.54C177.247 139.357 177.646 139.432 177.917 138.722C178.187 138.012 178.849 136.613 178.849 136.613H180.85Z" fill="#FFD5BD"/>
<path d="M176.166 138.83C176.166 138.83 176.091 138.594 176.01 138.215C175.897 137.726 175.897 137.217 176.01 136.728C176.122 136.235 176.342 135.774 176.652 135.376C176.889 135.065 177.078 134.909 177.065 134.889C177.051 134.869 176.828 134.991 176.551 135.288C176.199 135.67 175.951 136.135 175.828 136.64C175.708 137.156 175.727 137.695 175.882 138.202C175.923 138.431 176.021 138.647 176.166 138.83Z" fill="#FFB294"/>
<path d="M174.029 134.659C173.897 134.924 173.804 135.206 173.752 135.497C173.59 136.191 173.518 136.902 173.536 137.613C173.557 138.325 173.666 139.031 173.86 139.716C173.931 140.002 174.04 140.277 174.185 140.534C173.938 139.575 173.784 138.595 173.725 137.607C173.73 136.617 173.832 135.629 174.029 134.659Z" fill="#FFB294"/>
<path d="M171.4 134.693C171.234 135.438 171.192 136.206 171.278 136.964C171.31 137.725 171.462 138.476 171.731 139.188C171.785 139.188 171.555 138.188 171.467 136.951C171.38 135.714 171.454 134.7 171.4 134.693Z" fill="#FFB294"/>
<path d="M130.948 154.709C130.066 153.746 129.295 152.687 128.65 151.552C128.004 150.405 127.766 149.073 127.974 147.774C128.116 147.03 128.46 146.32 128.528 145.563C128.629 144.515 128.224 143.407 128.623 142.44C129.251 140.919 131.327 140.743 132.604 139.736C133.605 138.938 134.118 137.613 135.207 136.951C136.218 136.454 137.373 136.334 138.465 136.613C139.547 136.891 140.661 137.021 141.778 136.998C142.562 136.853 143.338 136.668 144.103 136.444C144.875 136.225 145.701 136.307 146.415 136.674C146.754 136.872 147.003 137.194 147.109 137.573C147.215 137.951 147.17 138.356 146.983 138.702C148.281 138.147 149.876 139.195 150.187 140.574C150.296 141.274 150.209 141.991 149.936 142.645C149.663 143.299 149.214 143.864 148.639 144.279C147.476 145.088 146.127 145.593 144.718 145.746C140.77 146.368 136.525 145.827 133.226 143.603" fill="#340962"/>
<path d="M148.963 159.421C148.903 156.987 148.369 151.985 147.835 147.476C147.548 145.144 146.396 143.005 144.607 141.483C142.818 139.96 140.522 139.166 138.174 139.256H137.688C132.469 139.756 129.981 144.468 130.624 149.673L132.368 167.411C132.868 172.819 136.241 173.279 139.357 173.09C142.474 172.9 144.563 170.318 144.252 167.175C144.103 165.681 144.096 165.586 144.089 165.431C144.089 165.417 149.085 164.45 148.963 159.421Z" fill="#FFD5BD"/>
<path d="M144.096 165.35C141.776 165.477 139.47 164.912 137.471 163.727C137.471 163.727 139.155 167.29 144.157 166.647L144.096 165.35Z" fill="#FFB294"/>
<path d="M146.016 151.566C146.025 151.755 145.959 151.94 145.833 152.081C145.706 152.221 145.529 152.306 145.34 152.316C145.249 152.329 145.156 152.322 145.067 152.297C144.978 152.272 144.895 152.229 144.824 152.171C144.752 152.112 144.693 152.04 144.651 151.958C144.608 151.876 144.583 151.786 144.576 151.694C144.569 151.506 144.635 151.322 144.761 151.182C144.888 151.042 145.064 150.956 145.252 150.944C145.344 150.932 145.437 150.938 145.525 150.964C145.614 150.989 145.697 151.032 145.769 151.09C145.84 151.148 145.899 151.22 145.942 151.302C145.984 151.384 146.009 151.474 146.016 151.566Z" fill="#263238"/>
<path d="M146.847 149.984C146.76 150.086 146.171 149.7 145.428 149.734C144.684 149.768 144.076 150.173 144.015 150.079C143.954 149.984 144.056 149.869 144.299 149.68C144.623 149.435 145.015 149.298 145.421 149.288C145.824 149.266 146.224 149.377 146.557 149.606C146.8 149.775 146.888 149.944 146.847 149.984Z" fill="#263238"/>
<path d="M138.702 152.053C138.709 152.241 138.643 152.425 138.516 152.565C138.39 152.706 138.214 152.791 138.026 152.803C137.934 152.815 137.841 152.809 137.752 152.784C137.664 152.759 137.581 152.716 137.509 152.657C137.438 152.599 137.379 152.527 137.336 152.445C137.294 152.363 137.268 152.273 137.262 152.181C137.253 151.992 137.319 151.807 137.445 151.667C137.572 151.526 137.749 151.441 137.938 151.431C138.029 151.419 138.122 151.425 138.211 151.45C138.3 151.475 138.383 151.518 138.454 151.577C138.526 151.635 138.585 151.707 138.627 151.789C138.67 151.871 138.695 151.961 138.702 152.053Z" fill="#263238"/>
<path d="M139.256 150.417C139.168 150.511 138.614 150.133 137.836 150.16C137.059 150.187 136.484 150.599 136.43 150.511C136.376 150.424 136.471 150.295 136.707 150.106C137.034 149.861 137.428 149.724 137.836 149.714C138.237 149.699 138.631 149.81 138.965 150.031C139.209 150.207 139.297 150.369 139.256 150.417Z" fill="#263238"/>
<path d="M142.278 156.041C142.678 155.893 143.096 155.799 143.522 155.764C143.718 155.764 143.9 155.69 143.934 155.554C143.94 155.352 143.886 155.152 143.778 154.98L143.136 153.499C142.549 152.247 142.063 150.949 141.683 149.619C142.369 150.821 142.959 152.076 143.447 153.371L144.062 154.858C144.196 155.092 144.241 155.365 144.191 155.629C144.166 155.7 144.125 155.764 144.071 155.817C144.017 155.87 143.951 155.909 143.88 155.933C143.772 155.964 143.661 155.984 143.549 155.994C143.128 156.06 142.702 156.075 142.278 156.041Z" fill="#263238"/>
<path d="M140.02 156.656C140.148 156.656 140.182 157.488 140.919 158.056C141.656 158.623 142.548 158.495 142.562 158.617C142.575 158.738 142.366 158.786 141.987 158.806C141.501 158.83 141.022 158.681 140.635 158.387C140.265 158.101 140.022 157.681 139.959 157.217C139.878 156.866 139.966 156.656 140.02 156.656Z" fill="#263238"/>
<path d="M139.344 147.368C139.276 147.578 138.499 147.51 137.6 147.652C136.701 147.794 135.971 148.071 135.842 147.889C135.714 147.706 135.91 147.598 136.194 147.382C136.578 147.117 137.018 146.944 137.479 146.875C137.941 146.806 138.412 146.843 138.857 146.983C139.195 147.118 139.371 147.28 139.344 147.368Z" fill="#340962"/>
<path d="M146.476 147.76C146.347 147.943 145.8 147.76 145.171 147.76C144.542 147.76 143.995 147.922 143.86 147.76C143.724 147.598 143.86 147.49 144.11 147.321C144.419 147.105 144.787 146.99 145.164 146.989C145.54 146.982 145.909 147.093 146.219 147.307C146.455 147.496 146.537 147.672 146.476 147.76Z" fill="#340962"/>
<path d="M131.178 153.364C131.09 153.33 127.683 152.472 127.919 155.906C128.156 159.34 131.556 158.394 131.556 158.292C131.556 158.191 131.178 153.364 131.178 153.364Z" fill="#FFD5BD"/>
<path d="M130.414 157.062C130.414 157.062 130.36 157.109 130.258 157.163C130.121 157.235 129.961 157.25 129.812 157.204C129.581 157.079 129.388 156.895 129.252 156.67C129.117 156.446 129.044 156.189 129.042 155.926C129.01 155.631 129.047 155.333 129.15 155.054C129.173 154.945 129.223 154.844 129.295 154.759C129.367 154.674 129.459 154.608 129.562 154.567C129.629 154.544 129.702 154.544 129.769 154.569C129.836 154.594 129.892 154.641 129.927 154.703C129.981 154.797 129.961 154.865 129.981 154.872C130.002 154.878 130.056 154.811 130.015 154.669C129.988 154.587 129.936 154.516 129.866 154.466C129.766 154.401 129.646 154.377 129.528 154.398C129.39 154.437 129.263 154.51 129.16 154.61C129.058 154.71 128.982 154.835 128.94 154.973C128.816 155.281 128.767 155.615 128.798 155.946C128.804 156.252 128.9 156.549 129.073 156.802C129.246 157.054 129.489 157.25 129.772 157.366C129.866 157.387 129.963 157.387 130.057 157.365C130.151 157.343 130.238 157.299 130.313 157.238C130.414 157.15 130.427 157.069 130.414 157.062Z" fill="#FFB294"/>
<path d="M147.72 142.798C147.442 144.15 144.644 145.32 142.352 145.185C140.243 145.063 139.229 143.981 137.715 143.157C136.762 142.656 136.762 142.656 135.437 142.832C134.362 142.974 133.774 144.184 133.152 145.097C134.22 147.618 133.672 150.505 133.111 153.168C133.077 153.471 132.946 153.755 132.739 153.979C132.519 154.097 132.265 154.136 132.02 154.091C131.774 154.046 131.551 153.918 131.387 153.729C130.838 153.108 130.483 152.34 130.367 151.519C129.94 149.69 129.88 147.794 130.191 145.942C130.513 144.085 131.37 142.362 132.658 140.987C134.335 139.319 136.594 138.366 138.959 138.33C141.318 138.31 143.624 139.039 145.543 140.412C146.463 140.999 147.221 141.808 147.747 142.764" fill="#340962"/>
<path d="M142.906 152.384C142.906 152.384 142.859 152.093 142.906 151.58C142.933 150.854 143.199 150.157 143.664 149.599C144.006 149.194 144.443 148.88 144.936 148.685C145.429 148.49 145.963 148.421 146.489 148.483C147.11 148.554 147.694 148.811 148.166 149.22C148.678 149.651 149.038 150.235 149.194 150.886C149.349 151.537 149.292 152.221 149.031 152.837C148.793 153.413 148.388 153.905 147.868 154.25C147.428 154.545 146.921 154.725 146.393 154.773C145.865 154.822 145.333 154.737 144.847 154.527C144.179 154.244 143.625 153.747 143.271 153.114C143.021 152.661 142.967 152.37 142.933 152.384C142.926 152.454 142.926 152.524 142.933 152.594C142.98 152.791 143.051 152.981 143.143 153.161C143.476 153.847 144.038 154.394 144.732 154.709C145.143 154.897 145.588 155 146.04 155.012C146.492 155.024 146.941 154.946 147.362 154.781C147.783 154.617 148.167 154.37 148.491 154.054C148.815 153.739 149.072 153.362 149.247 152.945C149.529 152.274 149.591 151.531 149.423 150.822C149.256 150.114 148.865 149.479 148.308 149.011C147.963 148.718 147.563 148.498 147.131 148.363C146.7 148.227 146.246 148.18 145.796 148.224C145.346 148.267 144.909 148.401 144.511 148.616C144.114 148.831 143.763 149.124 143.481 149.477C143.005 150.074 142.752 150.817 142.764 151.58C142.764 151.782 142.789 151.985 142.839 152.181C142.853 152.251 142.876 152.319 142.906 152.384Z" fill="#263238"/>
<path d="M134.754 152.884C134.754 152.884 134.7 152.593 134.72 152.08C134.747 151.355 135.016 150.66 135.484 150.106C135.824 149.7 136.26 149.386 136.752 149.191C137.244 148.996 137.777 148.927 138.303 148.99C138.923 149.059 139.507 149.314 139.979 149.72C140.351 150.038 140.644 150.437 140.836 150.887C141.027 151.337 141.112 151.825 141.083 152.313C141.054 152.8 140.912 153.275 140.669 153.699C140.426 154.123 140.088 154.485 139.682 154.757C139.24 155.049 138.733 155.227 138.206 155.276C137.679 155.324 137.148 155.241 136.66 155.034C135.992 154.749 135.438 154.25 135.085 153.614C134.842 153.168 134.781 152.877 134.754 152.884C134.727 152.891 134.754 152.959 134.754 153.094C134.799 153.293 134.867 153.485 134.957 153.668C135.294 154.351 135.858 154.896 136.552 155.21C136.963 155.397 137.408 155.5 137.86 155.512C138.312 155.525 138.762 155.446 139.183 155.282C139.604 155.117 139.988 154.87 140.311 154.554C140.635 154.239 140.892 153.862 141.068 153.445C141.355 152.777 141.418 152.033 141.249 151.326C141.08 150.618 140.687 149.984 140.128 149.518C139.783 149.225 139.383 149.005 138.952 148.87C138.52 148.734 138.066 148.687 137.616 148.731C137.166 148.774 136.729 148.907 136.332 149.123C135.934 149.338 135.584 149.631 135.301 149.984C134.826 150.578 134.572 151.319 134.585 152.08C134.588 152.282 134.612 152.484 134.659 152.681C134.72 152.817 134.74 152.884 134.754 152.884Z" fill="#263238"/>
<path d="M141.23 151.424C141.277 151.485 141.649 151.187 142.176 151.221C142.704 151.255 143.035 151.586 143.089 151.532C143.143 151.478 143.089 151.39 142.927 151.248C142.721 151.07 142.462 150.965 142.19 150.95C141.919 150.935 141.65 151.012 141.426 151.167C141.284 151.316 141.203 151.424 141.23 151.424Z" fill="#263238"/>
<path d="M130.117 153.101C130.922 153.036 131.718 152.881 132.489 152.641C133.283 152.485 134.056 152.24 134.794 151.911C133.989 151.976 133.193 152.13 132.422 152.37C131.628 152.526 130.855 152.771 130.117 153.101Z" fill="#263238"/>
<path d="M148.504 139.256C148.524 139.363 148.524 139.473 148.504 139.58C148.474 139.882 148.362 140.17 148.179 140.412C147.907 140.771 147.532 141.04 147.104 141.183C146.59 141.35 146.056 141.448 145.516 141.473C144.538 141.56 143.557 141.596 142.575 141.581C142.203 141.581 141.899 141.581 141.69 141.548H141.446H141.358H142.636C143.386 141.548 144.427 141.548 145.57 141.419C146.105 141.393 146.634 141.297 147.145 141.135C147.558 140.999 147.922 140.745 148.193 140.405C148.377 140.175 148.493 139.899 148.531 139.608C148.534 139.49 148.525 139.372 148.504 139.256Z" fill="white"/>
<path d="M149.396 139.851C149.424 140.175 149.402 140.501 149.328 140.818C149.17 141.597 148.781 142.311 148.212 142.867C147.643 143.422 146.921 143.794 146.138 143.934C145.82 144 145.494 144.016 145.171 143.981C145.257 143.975 145.342 143.975 145.428 143.981C145.655 143.97 145.881 143.94 146.104 143.893C146.867 143.738 147.57 143.366 148.127 142.821C148.685 142.277 149.073 141.584 149.247 140.824C149.301 140.603 149.335 140.376 149.349 140.148C149.396 139.932 149.396 139.851 149.396 139.851Z" fill="white"/>
</svg>
